<svg width="70" height="48" viewBox="0 0 70 48" fill="none" xmlns="http://www.w3.org/2000/svg">
<mask id="mask0_2848_12257" style="mask-type:alpha" maskUnits="userSpaceOnUse" x="0" y="0" width="70" height="48">
<rect width="70" height="47.9945" fill="#016FD0"/>
</mask>
<g mask="url(#mask0_2848_12257)">
<rect width="70" height="47.9945" rx="4" fill="white"/>
<path d="M13.6159 36.7171V25.7058H25.2761L26.5271 27.3365L27.8195 25.7058H70.1433V35.9577C70.1433 35.9577 69.0364 36.7061 67.7563 36.7171H44.3208L42.9103 34.9813V36.7171H38.2883V33.7541C38.2883 33.7541 37.6569 34.1677 36.2919 34.1677H34.7187V36.7171H27.7206L26.4714 35.0514L25.203 36.7171H13.6159Z" fill="#016FD0"/>
<path d="M0 17.4068L2.62943 11.2773H7.17675L8.66898 14.7108V11.2773H14.3217L15.21 13.7589L16.0712 11.2773H41.4462V12.5249C41.4462 12.5249 42.7801 11.2773 44.9723 11.2773L53.2056 11.3061L54.6721 14.6946V11.2773H59.4026L60.7045 13.2238V11.2773H65.4784V22.2886H60.7045L59.4568 20.3359V22.2886H52.5066L51.8077 20.5528H49.9393L49.2517 22.2886H44.5384C42.652 22.2886 41.4462 21.0665 41.4462 21.0665V22.2886H34.3396L32.9291 20.5528V22.2886H6.50309L5.80463 20.5528H3.94215L3.24864 22.2886H0V17.4068Z" fill="#016FD0"/>
<path d="M3.55824 12.6345L0.0117188 20.8804H2.32069L2.97507 19.2292H6.77927L7.43026 20.8804H9.79008L6.24695 12.6345H3.55824ZM4.87039 14.5536L6.02996 17.4389H3.70743L4.87039 14.5536V14.5536Z" fill="white"/>
<path d="M10.0343 20.8784V12.6326L13.3155 12.6448L15.2239 17.9611L17.0867 12.6326H20.3416V20.8784H18.2801V14.8025L16.0949 20.8784H14.287L12.0958 14.8025V20.8784H10.0343Z" fill="white"/>
<path d="M21.7537 20.8785V12.6326H28.4806V14.4771H23.8369V15.8875H28.3722V17.6235H23.8369V19.0883H28.4806V20.8785H21.7537Z" fill="white"/>
<path d="M29.6724 12.6345V20.8804H31.7338V17.951H32.6018L35.0736 20.8804H37.5928L34.8803 17.8425C35.9935 17.7485 37.1418 16.7931 37.1418 15.3097C37.1418 13.5745 35.7799 12.6345 34.2598 12.6345H29.6724V12.6345ZM31.7338 14.479H34.0903C34.6556 14.479 35.0668 14.9212 35.0668 15.347C35.0668 15.8948 34.534 16.215 34.1208 16.215H31.7338V14.479V14.479Z" fill="white"/>
<path d="M40.0912 20.8785H37.9863V12.6326H40.0912V20.8785Z" fill="white"/>
<path d="M45.0816 20.8785H44.6273C42.429 20.8785 41.0943 19.1466 41.0943 16.7894C41.0943 14.3741 42.4141 12.6326 45.1901 12.6326H47.4686V14.5855H45.1068C43.9799 14.5855 43.1829 15.465 43.1829 16.8098C43.1829 18.4067 44.0942 19.0774 45.4071 19.0774H45.9496L45.0816 20.8785Z" fill="white"/>
<path d="M49.5689 12.6345L46.0224 20.8804H48.3314L48.9857 19.2292H52.79L53.4409 20.8804H55.8008L52.2576 12.6345H49.5689ZM50.8811 14.5536L52.0406 17.4389H49.7181L50.8811 14.5536Z" fill="white"/>
<path d="M56.0391 20.8785V12.6326H58.66L62.0065 17.8134V12.6326H64.068V20.8785H61.5318L58.1005 15.562V20.8785H56.0391Z" fill="white"/>
<path d="M15.027 35.3079V27.062H21.7539V28.9065H17.1102V30.317H21.6454V32.053H17.1102V33.5177H21.7539V35.3079H15.027Z" fill="white"/>
<path d="M47.9874 35.3079V27.062H54.7143V28.9065H50.0705V30.317H54.5841V32.053H50.0705V33.5177H54.7143V35.3079H47.9874Z" fill="white"/>
<path d="M22.0157 35.3078L25.2909 31.2358L21.9377 27.062H24.5348L26.5319 29.6422L28.5357 27.062H31.0312L27.722 31.1849L31.0033 35.3078H28.4065L26.4675 32.7683L24.5755 35.3078H22.0157Z" fill="white"/>
<path d="M31.2459 27.063V35.3089H33.3616V32.7049H35.5316C37.3677 32.7049 38.7595 31.7308 38.7595 29.8365C38.7595 28.2672 37.6679 27.063 35.7995 27.063H31.2459V27.063ZM33.3616 28.9278H35.6469C36.2401 28.9278 36.6641 29.2914 36.6641 29.8772C36.6641 30.4275 36.2422 30.8265 35.6401 30.8265H33.3616V28.9278Z" fill="white"/>
<path d="M39.6558 27.062V35.3079H41.7172V32.3785H42.5852L45.057 35.3079H47.5762L44.8637 32.27C45.9769 32.176 47.1252 31.2206 47.1252 29.7372C47.1252 28.002 45.7633 27.062 44.2432 27.062H39.6558V27.062ZM41.7172 28.9065H44.0737C44.639 28.9065 45.0502 29.3487 45.0502 29.7745C45.0502 30.3223 44.5174 30.6425 44.1042 30.6425H41.7172V28.9065V28.9065Z" fill="white"/>
<path d="M55.6706 35.3079V33.5177H59.7963C60.4067 33.5177 60.6711 33.1878 60.6711 32.826C60.6711 32.4794 60.4076 32.1289 59.7963 32.1289H57.932C56.3114 32.1289 55.4089 31.1416 55.4089 29.6592C55.4089 28.337 56.2354 27.062 58.6435 27.062H62.658L61.79 28.9173H58.318C57.6543 28.9173 57.45 29.2656 57.45 29.5982C57.45 29.94 57.7025 30.317 58.2095 30.317H60.1625C61.969 30.317 62.7529 31.3417 62.7529 32.6836C62.7529 34.1263 61.8794 35.3079 60.0641 35.3079H55.6706Z" fill="white"/>
<path d="M63.235 35.3079V33.5177H67.3607C67.9711 33.5177 68.2355 33.1878 68.2355 32.826C68.2355 32.4794 67.972 32.1289 67.3607 32.1289H65.4963C63.8758 32.1289 62.9733 31.1416 62.9733 29.6592C62.9733 28.337 63.7998 27.062 66.2079 27.062H70.1403L69.3544 28.9173H65.8824C65.2187 28.9173 65.0144 29.2656 65.0144 29.5982C65.0144 29.94 65.2669 30.317 65.7739 30.317H67.7269C69.5334 30.317 70.3173 31.3417 70.3173 32.6836C70.3173 34.1263 69.4438 35.3079 67.6285 35.3079H63.235Z" fill="white"/>
</g>
</svg>
