<svg width="70" height="48" viewBox="0 0 70 48" fill="none" xmlns="http://www.w3.org/2000/svg">
<rect width="70" height="47.9945" rx="4" fill="white"/>
<path d="M38.0901 38.9954C45.8851 39.033 53 32.5805 53 24.7311C53 16.1481 45.8851 10.2146 38.0901 10.2178H31.3813C23.4933 10.2146 17 16.1497 17 24.7311C17 32.5821 23.4933 39.033 31.3813 38.9954H38.0901Z" fill="#0079BE"/>
<path d="M31.4133 11.4072C24.2047 11.4096 18.3642 17.3047 18.3618 24.5806C18.3642 31.8557 24.2047 37.7507 31.4133 37.7531C38.6228 37.7507 44.4656 31.8557 44.4664 24.5806C44.4656 17.3047 38.6236 11.4096 31.4133 11.4072ZM23.1409 24.5806C23.1394 22.8983 23.6454 21.2547 24.593 19.8646C25.5405 18.4745 26.8854 17.4026 28.4518 16.7889V32.3715C26.8852 31.7582 25.5402 30.6864 24.5926 29.2964C23.6451 27.9064 23.1391 26.2628 23.1409 24.5806V24.5806ZM34.374 32.3747V16.7881C35.9417 17.4009 37.2877 18.4728 38.2359 19.8633C39.1841 21.2539 39.6903 22.8984 39.6882 24.5814C39.69 26.2643 39.1837 27.9086 38.2355 29.2991C37.2873 30.6896 35.9415 31.7616 34.374 32.3747V32.3747Z" fill="white"/>
<path d="M38.0901 38.9954C45.8851 39.033 53 32.5805 53 24.7311C53 16.1481 45.8851 10.2146 38.0901 10.2178H31.3813C23.4933 10.2146 17 16.1497 17 24.7311C17 32.5821 23.4933 39.033 31.3813 38.9954H38.0901Z" fill="#0079BE"/>
<path d="M31.4133 11.4072C24.2047 11.4096 18.3642 17.3047 18.3618 24.5806C18.3642 31.8557 24.2047 37.7507 31.4133 37.7531C38.6228 37.7507 44.4656 31.8557 44.4664 24.5806C44.4656 17.3047 38.6236 11.4096 31.4133 11.4072ZM23.1409 24.5806C23.1394 22.8983 23.6454 21.2547 24.593 19.8646C25.5405 18.4745 26.8854 17.4026 28.4518 16.7889V32.3715C26.8852 31.7582 25.5402 30.6864 24.5926 29.2964C23.6451 27.9064 23.1391 26.2628 23.1409 24.5806V24.5806ZM34.374 32.3747V16.7881C35.9417 17.4009 37.2877 18.4728 38.2359 19.8633C39.1841 21.2539 39.6903 22.8984 39.6882 24.5814C39.69 26.2643 39.1837 27.9086 38.2355 29.2991C37.2873 30.6896 35.9415 31.7616 34.374 32.3747V32.3747Z" fill="white"/>
</svg>
