<svg width="70" height="48" viewBox="0 0 70 48" fill="none" xmlns="http://www.w3.org/2000/svg">
<rect width="70" height="47.9945" rx="4" fill="white"/>
<path d="M30.5004 47.9945L70.0004 36.4958V43.9945C70.0004 46.2037 68.2095 47.9945 66.0004 47.9945H30.5004Z" fill="#FD6020"/>
<path fill-rule="evenodd" clip-rule="evenodd" d="M60.3714 19.2195C62.5445 19.2195 63.7397 20.1865 63.7397 22.013C63.8484 23.4097 62.8705 24.5916 61.5666 24.8065L64.5003 28.7818H62.2185L59.7195 24.9139H59.5021V28.7818H57.655V19.2195H60.3714ZM59.5021 23.6249H60.0454C61.2406 23.6249 61.7839 23.0876 61.7839 22.1205C61.7839 21.2609 61.2406 20.7236 60.0454 20.7236H59.5021V23.6249ZM51.2443 28.7818H56.4598V27.1702H53.0915V24.5916H56.3511V22.9799H53.0915V20.8311H56.4598V19.2195H51.2443V28.7818ZM45.8115 25.666L43.3125 19.2195H41.3567L45.3769 28.9967H46.3548L50.3751 19.2195H48.4193L45.8115 25.666ZM23.7544 24.0544C23.7544 26.7404 25.9276 28.9967 28.644 28.9967C29.5132 28.9967 30.2738 28.7818 31.0344 28.4595V26.3106C30.4911 26.9553 29.7305 27.385 28.8613 27.385C27.1228 27.385 25.7102 26.0958 25.7102 24.3767V24.1618C25.6016 22.4427 27.0141 20.9386 28.7526 20.8311C29.6219 20.8311 30.4911 21.2609 31.0344 21.9055V19.7567C30.3824 19.3269 29.5132 19.2195 28.7526 19.2195C25.9276 19.0046 23.7544 21.2609 23.7544 24.0544ZM20.3861 22.8725C19.2996 22.4427 18.9736 22.2278 18.9736 21.6906C19.0823 21.046 19.6255 20.5088 20.2775 20.6162C20.8207 20.6162 21.364 20.9385 21.7986 21.3683L22.7765 20.079C22.016 19.4344 21.0381 19.0046 20.0602 19.0046C18.539 18.8971 17.2351 20.079 17.1265 21.5832V21.6906C17.1265 22.9799 17.6697 23.732 19.4082 24.2692C19.8428 24.3767 20.2775 24.5915 20.7121 24.8064C21.0381 25.0213 21.2554 25.3436 21.2554 25.7734C21.2554 26.5255 20.6034 27.1701 19.9515 27.1701H19.8428C18.9736 27.1701 18.213 26.6329 17.887 25.8808L16.6918 27.0627C17.3438 28.2446 18.6476 28.8892 19.9515 28.8892C21.69 28.9966 23.1025 27.7074 23.2112 25.9883V25.666C23.1025 24.3767 22.5592 23.732 20.3861 22.8725ZM14.0841 28.7818H15.9312V19.2195H14.0841V28.7818ZM5.50031 19.2195H8.2167H8.75997C11.3677 19.327 13.4322 21.4758 13.3235 24.0544C13.3235 25.4511 12.6716 26.7404 11.585 27.7074C10.6071 28.4595 9.41191 28.8892 8.2167 28.7818H5.50031V19.2195ZM7.89072 27.1709C8.75997 27.2783 9.73787 26.956 10.3898 26.4187C11.0417 25.774 11.3677 24.9144 11.3677 23.9473C11.3677 23.0876 11.0417 22.228 10.3898 21.5833C9.73787 21.046 8.75997 20.7237 7.89072 20.8311H7.34744V27.1709H7.89072Z" fill="black"/>
<path fill-rule="evenodd" clip-rule="evenodd" d="M36.5766 18.9978C33.8602 18.9978 31.5784 21.1466 31.5784 23.9401C31.5784 26.6261 33.7515 28.8824 36.5766 28.9899C39.4016 29.0973 41.5747 26.841 41.6834 24.0476C41.5747 21.2541 39.4016 18.9978 36.5766 18.9978V18.9978Z" fill="#FD6020"/>
</svg>
