<svg width="70" height="48" viewBox="0 0 70 48" fill="none" xmlns="http://www.w3.org/2000/svg">
<rect width="70" height="47.9945" rx="4" fill="white"/>
<path d="M23.8353 25.1082C23.274 27.8132 20.8374 29.8473 17.9169 29.8473C17.2469 29.8473 16.6019 29.7399 16.0001 29.542L14.6587 33.4775C15.6824 33.814 16.7778 33.996 17.9169 33.996C22.8811 33.996 27.0219 30.5371 27.9762 25.9407L23.8353 25.1082Z" fill="#EC412A"/>
<path fill-rule="evenodd" clip-rule="evenodd" d="M47.9054 16.2202V27.5994L49.9477 28.418L48.9815 30.6623L46.9619 29.8506C46.5078 29.6602 46.2004 29.3701 45.9669 29.0425C45.7427 28.7073 45.5765 28.2491 45.5765 27.6308V16.2202H47.9054ZM32.4163 24.6776C32.467 21.4235 35.2386 18.8259 38.6017 18.8757C41.4561 18.919 43.8212 20.8521 44.4424 23.4232L33.4024 27.9855C32.7611 27.0376 32.3966 25.8972 32.4163 24.6776ZM34.9423 25.1343C34.9272 24.9977 34.9165 24.8577 34.9205 24.7164C34.9522 22.799 36.5839 21.269 38.5653 21.3008C39.6439 21.3147 40.6015 21.7923 41.2489 22.5314L34.9423 25.1343ZM41.0165 27.2465C40.3511 27.8723 39.4488 28.2537 38.4526 28.2399C37.7697 28.2289 37.137 28.0312 36.599 27.7018L35.2654 29.7567C36.1787 30.315 37.2557 30.6453 38.4167 30.6627C40.1068 30.687 41.6472 30.045 42.7673 28.985L41.0165 27.2465ZM56.4052 21.301C56.0074 21.301 55.6251 21.3631 55.2679 21.4791L54.4732 19.1764C55.0797 18.9806 55.7293 18.8742 56.4052 18.8742C59.3549 18.8742 61.8156 20.9003 62.3798 23.5918L59.9199 24.0767C59.5884 22.4927 58.1408 21.301 56.4052 21.301ZM52.3663 29.1835L54.0285 27.3661C53.2861 26.7306 52.8186 25.8025 52.8186 24.7681C52.8186 23.7346 53.2861 22.807 54.0278 22.172L52.3644 20.3545C51.1033 21.4344 50.3088 23.0122 50.3088 24.7681C50.3088 26.5261 51.1039 28.1033 52.3663 29.1835ZM56.4051 28.237C58.1391 28.237 59.5865 27.0463 59.9199 25.4646L62.3791 25.9516C61.8121 28.6402 59.3521 30.6636 56.4051 30.6636C55.7286 30.6636 55.0783 30.5568 54.4701 30.3601L55.2666 28.0582C55.6244 28.1738 56.007 28.237 56.4051 28.237Z" fill="black"/>
<path d="M11.0688 31.774L13.5489 28.572C12.4419 27.4524 11.7432 25.8178 11.7432 23.9958C11.7432 22.1752 12.4412 20.5406 13.548 19.4218L11.0665 16.2202C9.18543 18.1224 8 20.901 8 23.9958C8 27.0922 9.18716 29.8718 11.0688 31.774" fill="#1BA7DE"/>
<path d="M15.9982 18.4484C16.6 18.2511 17.2437 18.144 17.9134 18.144C20.8365 18.144 23.2747 20.1807 23.834 22.8862L27.9762 22.0577C27.0257 17.4596 22.8821 13.9983 17.9134 13.9983C16.7758 13.9983 15.6809 14.1801 14.6587 14.5149L15.9982 18.4484Z" fill="#FECA2F"/>
</svg>
