<svg width="70" height="48" viewBox="0 0 70 48" fill="none" xmlns="http://www.w3.org/2000/svg">
<rect width="70" height="47.9945" rx="4" fill="white"/>
<path d="M44.6364 24.5716C45.6638 24.5939 46.697 24.5263 47.7202 24.6068C48.7565 24.8001 49.0062 26.3687 48.0856 26.8824C47.4574 27.2208 46.7112 27.0084 46.0302 27.0681H44.6364V24.5716V24.5716ZM48.3142 21.7459C48.5425 22.5515 47.7658 23.2748 46.9899 23.1638H44.6364C44.6529 22.4041 44.6042 21.5796 44.6603 20.8599C45.6031 20.8865 46.5546 20.8058 47.492 20.9021C47.8947 21.0033 48.2318 21.3343 48.3142 21.7459V21.7459ZM53.9782 9.79962C54.0219 11.338 53.9845 12.9578 53.9971 14.5274C53.9942 20.909 54.0032 27.2903 53.992 33.6722C53.9507 36.0639 51.8309 38.142 49.4556 38.1898C47.0779 38.1994 44.6999 38.1913 42.3219 38.1939V28.5463C44.9128 28.533 47.5051 28.5735 50.095 28.5261C51.2964 28.4507 52.6124 27.658 52.6683 26.336C52.8098 25.0083 51.5579 24.09 50.3693 23.9449C49.9124 23.9331 49.9257 23.8118 50.3693 23.7588C51.5029 23.5139 52.3931 22.3407 52.0596 21.1657C51.7754 19.93 50.4093 19.4517 49.2731 19.454C46.9564 19.4383 44.6392 19.4519 42.3224 19.4473C42.3374 17.6462 42.2912 15.8432 42.3473 14.0434C42.5309 11.6949 44.704 9.75821 47.046 9.80023C49.357 9.79988 51.6677 9.79988 53.9782 9.79979V9.79962Z" fill="url(#paint0_linear_2848_12631)"/>
<path d="M16.1412 14.2868C16.2004 11.899 18.3292 9.83787 20.7015 9.80297C23.0704 9.79568 25.4396 9.80192 27.8085 9.79981C27.802 17.7891 27.8214 25.7792 27.7988 33.768C27.7075 36.1268 25.6019 38.1487 23.2554 38.1904C20.882 38.199 18.5084 38.1916 16.135 38.194V28.2212C18.4404 28.7658 20.8579 28.9976 23.2099 28.6364C24.6157 28.4102 26.1539 27.7199 26.6298 26.2615C26.9801 25.0141 26.7829 23.7012 26.835 22.4209V19.4475H22.7648C22.7465 21.414 22.8023 23.384 22.7354 25.3481C22.6257 26.5554 21.4299 27.3224 20.2912 27.2815C18.8789 27.2964 16.0803 26.2581 16.0803 26.2581C16.0733 22.5736 16.1213 17.9594 16.1412 14.2872V14.2868Z" fill="url(#paint1_linear_2848_12631)"/>
<path d="M29.3264 20.6468C29.1121 20.6922 29.2833 19.9171 29.2285 19.623C29.2431 17.7638 29.198 15.9026 29.2534 14.0447C29.4365 11.6863 31.6263 9.74477 33.9778 9.79998H40.9026C40.8961 17.7892 40.9154 25.7793 40.8929 33.7682C40.8015 36.127 38.6957 38.1487 36.3492 38.1906C33.9757 38.1995 31.6021 38.192 29.2284 38.1943V27.2677C30.8495 28.5976 33.0527 28.8046 35.0723 28.8082C36.5948 28.8077 38.1084 28.573 39.587 28.2219V26.2201C37.9207 27.0505 35.962 27.5779 34.1149 27.1008C32.8264 26.7801 31.8911 25.5351 31.912 24.2055C31.7627 22.8228 32.5732 21.3631 33.9321 20.952C35.6193 20.4239 37.4581 20.8278 39.0396 21.5145C39.3784 21.6919 39.7224 21.9119 39.5869 21.3456V19.7722C36.9419 19.143 34.1271 18.9114 31.4697 19.5959C30.7006 19.8129 29.9512 20.1419 29.3264 20.6469V20.6468Z" fill="url(#paint2_linear_2848_12631)"/>
<defs>
<linearGradient id="paint0_linear_2848_12631" x1="42.2422" y1="23.3897" x2="53.9234" y2="23.3897" gradientUnits="userSpaceOnUse">
<stop stop-color="#58B03A"/>
<stop offset="1" stop-color="#55B330"/>
</linearGradient>
<linearGradient id="paint1_linear_2848_12631" x1="15.8866" y1="24.2688" x2="27.6171" y2="24.2688" gradientUnits="userSpaceOnUse">
<stop stop-color="#0F6EB6"/>
<stop offset="1" stop-color="#006DBA"/>
</linearGradient>
<linearGradient id="paint2_linear_2848_12631" x1="29.2113" y1="23.6651" x2="40.9004" y2="23.6651" gradientUnits="userSpaceOnUse">
<stop stop-color="#DE0D3D"/>
<stop offset="1" stop-color="#E30138"/>
</linearGradient>
</defs>
</svg>
