<svg width="70" height="48" viewBox="0 0 70 48" fill="none" xmlns="http://www.w3.org/2000/svg">
<rect width="70" height="47.9945" rx="4" fill="white"/>
<path d="M40.1899 24.2512C40.1899 31.8751 34.0796 38.0555 26.5423 38.0555C19.005 38.0555 12.8948 31.8751 12.8948 24.2512C12.8948 16.6272 19.005 10.4468 26.5423 10.4468C34.0796 10.4468 40.1899 16.6272 40.1899 24.2512Z" fill="#ED0006"/>
<path d="M57.8948 24.2512C57.8948 31.8751 51.7846 38.0555 44.2473 38.0555C36.7099 38.0555 30.5997 31.8751 30.5997 24.2512C30.5997 16.6272 36.7099 10.4468 44.2473 10.4468C51.7846 10.4468 57.8948 16.6272 57.8948 24.2512Z" fill="#0099DF"/>
<path fill-rule="evenodd" clip-rule="evenodd" d="M35.3949 13.7446C38.3292 16.2766 40.1899 20.0442 40.1899 24.2513C40.1899 28.4584 38.3292 32.2259 35.3949 34.7579C32.4605 32.2259 30.5999 28.4584 30.5999 24.2513C30.5999 20.0442 32.4605 16.2766 35.3949 13.7446Z" fill="#6C6BBD"/>
</svg>
