<svg width="70" height="48" viewBox="0 0 70 48" fill="none" xmlns="http://www.w3.org/2000/svg">
<rect width="70" height="47.9945" rx="4" fill="white"/>
<path fill-rule="evenodd" clip-rule="evenodd" d="M35.5 34.3099C33.1169 36.3662 30.0255 37.6075 26.6475 37.6075C19.1102 37.6075 13 31.4271 13 23.8032C13 16.1792 19.1102 9.99878 26.6475 9.99878C30.0255 9.99878 33.1169 11.2401 35.5 13.2965C37.8831 11.2401 40.9745 9.99878 44.3525 9.99878C51.8898 9.99878 58 16.1792 58 23.8032C58 31.4271 51.8898 37.6075 44.3525 37.6075C40.9745 37.6075 37.8831 36.3662 35.5 34.3099Z" fill="#ED0006"/>
<path fill-rule="evenodd" clip-rule="evenodd" d="M35.5 34.3099C38.4344 31.7779 40.2951 28.0103 40.2951 23.8032C40.2951 19.596 38.4344 15.8284 35.5 13.2965C37.8831 11.2401 40.9745 9.99878 44.3525 9.99878C51.8898 9.99878 58 16.1792 58 23.8032C58 31.4271 51.8898 37.6075 44.3525 37.6075C40.9745 37.6075 37.8831 36.3662 35.5 34.3099Z" fill="#F9A000"/>
<path fill-rule="evenodd" clip-rule="evenodd" d="M35.5 13.2966C38.4344 15.8286 40.2951 19.5962 40.2951 23.8033C40.2951 28.0104 38.4344 31.7779 35.5 34.3099C32.5657 31.7779 30.705 28.0104 30.705 23.8033C30.705 19.5962 32.5657 15.8286 35.5 13.2966Z" fill="#FF5E00"/>
</svg>
