<svg width="70" height="48" viewBox="0 0 70 48" fill="none" xmlns="http://www.w3.org/2000/svg">
<rect width="70" height="47.9945" rx="4" fill="white"/>
<path d="M21.6555 10.0002H32.687C34.2269 10.0002 35.1847 11.2553 34.8255 12.8001L29.6895 34.8483C29.327 36.3877 27.7853 37.6438 26.2443 37.6438H15.2138C13.676 37.6438 12.7161 36.3877 13.0754 34.8483L18.2135 12.8001C18.5727 11.2553 20.1137 10.0002 21.6555 10.0002Z" fill="#E21836"/>
<path d="M31.7686 9.99878H44.4546C45.9942 9.99878 45.2999 11.2538 44.9378 12.7986L39.8026 34.8468C39.4423 36.3863 39.5547 37.6424 38.0118 37.6424H25.3258C23.7829 37.6424 22.8281 36.3863 23.1906 34.8468L28.3255 12.7986C28.6901 11.2538 30.2278 9.99878 31.7686 9.99878Z" fill="#00447C"/>
<path d="M43.9516 9.99878H54.9832C56.5253 9.99878 57.483 11.2538 57.1208 12.7986L51.9857 34.8468C51.6232 36.3863 50.0803 37.6424 48.5386 37.6424H37.5121C35.9692 37.6424 35.0123 36.3863 35.3737 34.8468L40.5096 12.7986C40.8689 11.2538 42.4088 9.99878 43.9516 9.99878Z" fill="#007B84"/>
<path d="M24.5361 17.0646C23.4017 17.0761 23.0666 17.0646 22.9596 17.0393C22.9185 17.2347 22.1529 20.7656 22.1508 20.7686C21.986 21.4829 21.866 21.9921 21.4587 22.3209C21.2274 22.5121 20.9575 22.6043 20.6445 22.6043C20.1414 22.6043 19.8483 22.3545 19.7991 21.8808L19.7897 21.7182C19.7897 21.7182 19.943 20.7613 19.943 20.7559C19.943 20.7559 20.7464 17.5383 20.8903 17.113C20.8978 17.0888 20.8999 17.0761 20.9018 17.0646C19.338 17.0783 19.0608 17.0646 19.0417 17.0393C19.0312 17.074 18.9925 17.2735 18.9925 17.2735L18.1721 20.9L18.1017 21.2076L17.9653 22.2137C17.9653 22.5121 18.0239 22.7557 18.1406 22.9616C18.5144 23.6147 19.5805 23.7125 20.1836 23.7125C20.9607 23.7125 21.6897 23.5474 22.1823 23.2461C23.0373 22.7409 23.261 21.9513 23.4605 21.2495L23.553 20.8896C23.553 20.8896 24.3807 17.5477 24.5213 17.113C24.5267 17.0888 24.5288 17.0761 24.5361 17.0646ZM27.352 19.7605C27.1525 19.7605 26.7879 19.8089 26.4604 19.9694C26.3416 20.0304 26.2292 20.1008 26.1106 20.171L26.2176 19.7847L26.159 19.7196C25.4645 19.8602 25.309 19.879 24.6675 19.9694L24.6137 20.0051C24.5392 20.6227 24.4731 21.087 24.1969 22.3009C24.0918 22.7482 23.9826 23.1999 23.8732 23.6462L23.9028 23.7029C24.5602 23.6683 24.7597 23.6683 25.3311 23.6777L25.3773 23.6274C25.4499 23.2556 25.4593 23.1685 25.6201 22.4154C25.6957 22.0584 25.8533 21.2739 25.931 20.9945C26.0738 20.9284 26.2146 20.8633 26.3491 20.8633C26.6693 20.8633 26.6303 21.1427 26.618 21.254C26.6043 21.4408 26.4876 22.0511 26.3679 22.5751L26.2881 22.9133C26.2324 23.1631 26.1714 23.4059 26.1157 23.6535L26.1399 23.7029C26.7879 23.6683 26.9855 23.6683 27.5389 23.6777L27.604 23.6274C27.704 23.0467 27.7333 22.8913 27.9108 22.0457L28 21.6572C28.1735 20.8969 28.2606 20.5114 28.1294 20.1974C27.9906 19.8454 27.6578 19.7605 27.352 19.7605ZM30.4978 20.5565C30.1533 20.6227 29.9337 20.6668 29.7153 20.6953C29.4989 20.7299 29.2878 20.7614 28.9549 20.8076L28.9286 20.8316L28.9044 20.8506C28.8697 21.0985 28.8455 21.3128 28.7995 21.5647C28.7605 21.8252 28.7005 22.1213 28.6029 22.5466C28.5274 22.8722 28.4884 22.9856 28.4454 23.1002C28.4034 23.2147 28.3572 23.326 28.2722 23.6462L28.2921 23.6758L28.3088 23.7029C28.6199 23.6881 28.8234 23.6776 29.0326 23.6758C29.2415 23.6682 29.458 23.6758 29.793 23.6776L29.8223 23.6537L29.8538 23.6274C29.9022 23.3386 29.9095 23.2609 29.939 23.12C29.9683 22.969 30.0189 22.7598 30.1428 22.2011C30.2015 21.9387 30.2668 21.6771 30.3276 21.4093C30.3908 21.1426 30.4569 20.88 30.5198 20.6176L30.5104 20.5858L30.4978 20.5565ZM30.5051 19.4832C30.1921 19.2985 29.6428 19.3571 29.2731 19.6123C28.9044 19.8623 28.8625 20.2172 29.1744 20.4043C29.482 20.5839 30.0335 20.5304 30.4 20.2731C30.7678 20.0177 30.8138 19.666 30.5051 19.4832ZM32.3979 23.7608C33.0312 23.7608 33.6802 23.5863 34.1688 23.0685C34.5447 22.6486 34.7171 22.0237 34.7768 21.7664C34.9712 20.9136 34.8198 20.5155 34.6297 20.273C34.3409 19.9033 33.8306 19.7847 33.3011 19.7847C32.9828 19.7847 32.2245 19.8162 31.6321 20.3622C31.2068 20.7561 31.0102 21.2906 30.8916 21.803C30.772 22.3251 30.6343 23.265 31.4988 23.6148C31.7655 23.7294 32.15 23.7608 32.3979 23.7608ZM32.3485 21.842C32.4945 21.1962 32.6668 20.6542 33.1067 20.6542C33.4514 20.6542 33.4764 21.0575 33.3232 21.7054C33.2957 21.8493 33.1699 22.384 32.9997 22.6117C32.8808 22.7798 32.7402 22.8817 32.5848 22.8817C32.5386 22.8817 32.2635 22.8817 32.2592 22.4733C32.257 22.2716 32.2982 22.0657 32.3485 21.842ZM36.3597 23.6778L36.4092 23.6275C36.4793 23.2557 36.4909 23.1683 36.6463 22.4155C36.724 22.0584 36.8848 21.2739 36.9604 20.9946C37.1034 20.9282 37.2419 20.8631 37.3806 20.8631C37.6987 20.8631 37.66 21.1425 37.6474 21.2538C37.6358 21.4409 37.5191 22.0509 37.3973 22.5749L37.3218 22.9131C37.2639 23.1632 37.201 23.4057 37.1454 23.6536L37.1696 23.703C37.8197 23.6683 38.0098 23.6683 38.5664 23.6778L38.6337 23.6275C38.7313 23.0465 38.7576 22.8911 38.9404 22.0458L39.0276 21.657C39.2018 20.8967 39.29 20.5115 39.1609 20.1974C39.0182 19.8455 38.6831 19.7606 38.3817 19.7606C38.1819 19.7606 37.8154 19.8087 37.4898 19.9695C37.3734 20.0305 37.2567 20.1007 37.1421 20.1711L37.2419 19.7847L37.1884 19.7194C36.4941 19.8603 36.3355 19.8791 35.6947 19.9695L35.6455 20.0052C35.5678 20.6228 35.5046 21.0868 35.2285 22.301C35.1234 22.7483 35.0142 23.2 34.905 23.6463L34.9343 23.703C35.5928 23.6683 35.7894 23.6683 36.3597 23.6778ZM41.1366 23.7029C41.1774 23.5034 41.4202 22.321 41.4224 22.321C41.4224 22.321 41.6292 21.4534 41.6418 21.4219C41.6418 21.4219 41.7069 21.3316 41.7719 21.2958H41.8677C42.7709 21.2958 43.7907 21.2958 44.5901 20.7079C45.1341 20.3046 45.506 19.7091 45.6719 18.9853C45.7149 18.8079 45.7466 18.5968 45.7466 18.3858C45.7466 18.1086 45.6909 17.8343 45.5302 17.6201C45.1225 17.0498 44.3108 17.0393 43.3737 17.035C43.3707 17.035 42.9117 17.0393 42.9117 17.0393C41.7123 17.0541 41.2312 17.0498 41.0336 17.0256C41.0169 17.113 40.9855 17.2684 40.9855 17.2684C40.9855 17.2684 40.5558 19.2595 40.5558 19.2628C40.5558 19.2628 39.5276 23.4961 39.4792 23.6956C40.5265 23.683 40.9559 23.683 41.1366 23.7029ZM41.9327 20.1659C41.9327 20.1659 42.3896 18.1787 42.3874 18.1863L42.4022 18.0844L42.4087 18.0067L42.5912 18.0255C42.5912 18.0255 43.5334 18.1064 43.5555 18.1086C43.9273 18.2524 44.0806 18.6232 43.9736 19.1071C43.876 19.5494 43.5891 19.9212 43.2204 20.1008C42.9169 20.253 42.545 20.2656 42.1618 20.2656H41.9139L41.9327 20.1659ZM44.7771 21.8788C44.6564 22.3934 44.5176 23.3333 45.3778 23.6683C45.6521 23.785 45.8978 23.8197 46.1476 23.807C46.4114 23.7928 46.6558 23.6605 46.8822 23.4701C46.8618 23.5484 46.8413 23.6266 46.8209 23.7051L46.8599 23.7554C47.4786 23.7293 47.6706 23.7293 48.3409 23.7344L48.4017 23.6882C48.4996 23.1128 48.5918 22.5542 48.8462 21.4535C48.9701 20.9262 49.0938 20.4041 49.221 19.8791L49.2011 19.8213C48.509 19.9495 48.324 19.9769 47.6582 20.0713L47.6077 20.1124C47.6009 20.1659 47.594 20.2173 47.5875 20.2686C47.484 20.1014 47.3339 19.9586 47.1024 19.8697C46.8064 19.7532 46.1111 19.9033 45.5133 20.4474C45.0933 20.8359 44.8917 21.3682 44.7771 21.8788ZM46.2307 21.9103C46.3789 21.276 46.5491 20.7394 46.99 20.7394C47.2689 20.7394 47.4157 20.9967 47.3858 21.4355C47.3622 21.5449 47.3366 21.6602 47.3062 21.7906C47.2621 21.9791 47.2143 22.1659 47.1678 22.3531C47.1204 22.481 47.0653 22.6017 47.0048 22.6821C46.8914 22.8429 46.6214 22.9427 46.466 22.9427C46.4219 22.9427 46.1498 22.9427 46.1404 22.5415C46.1382 22.3418 46.1793 22.1361 46.2307 21.9103ZM53.8215 19.8161L53.768 19.7551C53.0831 19.8938 52.9592 19.9159 52.33 20.0008L52.2837 20.0471C52.2816 20.0546 52.2797 20.0662 52.2765 20.0766L52.2743 20.0662C51.8059 21.1467 51.8196 20.9136 51.4383 21.7642C51.4362 21.7255 51.4362 21.7013 51.434 21.6602L51.3386 19.8161L51.2786 19.7551C50.5612 19.8938 50.5443 19.9159 49.8818 20.0008L49.8301 20.0471C49.8229 20.0691 49.8229 20.0933 49.8186 20.1197L49.8229 20.1291C49.9057 20.5522 49.8858 20.4579 49.9689 21.1257C50.0076 21.4534 50.0592 21.7831 50.0979 22.1068C50.1633 22.6485 50.1999 22.9152 50.2797 23.7419C49.8323 24.4802 49.7263 24.7595 49.2956 25.4075L49.2986 25.4139L48.9952 25.8936C48.9606 25.9441 48.9291 25.9788 48.885 25.9936C48.8366 26.0175 48.7737 26.0218 48.6863 26.0218H48.5182L48.2685 26.8526L49.1254 26.8674C49.6285 26.8652 49.9447 26.63 50.1149 26.3138L50.6537 25.3905H50.6451L50.7019 25.3255C51.0643 24.5453 53.8215 19.8161 53.8215 19.8161ZM44.7771 30.7269H44.4136L45.7591 26.2771H46.2054L46.3471 25.8187L46.3608 26.3284C46.3441 26.6435 46.5921 26.9229 47.2433 26.8766H47.9964L48.2557 26.0198H47.9722C47.8093 26.0198 47.7337 25.9787 47.7432 25.8905L47.7294 25.3719H46.3347V25.3745C45.8838 25.384 44.5372 25.4178 44.2646 25.4904C43.9347 25.5754 43.587 25.8254 43.587 25.8254L43.7236 25.3665H42.419L42.1471 26.2771L40.7836 30.7949H40.519L40.2595 31.6456H42.8581L42.7709 31.9292H44.0514L44.1363 31.6456H44.4956L44.7771 30.7269ZM43.711 27.1812C43.502 27.2391 43.1132 27.4143 43.1132 27.4143L43.459 26.2771H44.4956L44.2455 27.1057C44.2455 27.1057 43.9253 27.1245 43.711 27.1812ZM43.7309 28.8059C43.7309 28.8059 43.4052 28.8468 43.1909 28.8952C42.9799 28.9592 42.5841 29.1608 42.5841 29.1608L42.9411 27.9773H43.9831L43.7309 28.8059ZM43.1501 30.7374H42.1103L42.4117 29.7386H43.4483L43.1501 30.7374ZM45.6541 27.9773H47.1528L46.9375 28.6747H45.4188L45.1908 29.4372H46.5196L45.5135 30.8538C45.443 30.9578 45.3798 30.9947 45.3096 31.024C45.2392 31.0597 45.1467 31.1017 45.0397 31.1017H44.671L44.4177 31.9367H45.382C45.8832 31.9367 46.1792 31.7088 46.3978 31.4095L47.0878 30.4653L47.2359 31.424C47.2674 31.6036 47.3965 31.7088 47.4838 31.7496C47.5804 31.798 47.6801 31.8811 47.821 31.8935C47.9721 31.8999 48.0813 31.905 48.1539 31.905H48.6277L48.9122 30.9705H48.7253C48.618 30.9705 48.4333 30.9525 48.4018 30.9189C48.3704 30.878 48.3704 30.8151 48.3534 30.7194L48.2031 29.7585H47.5876L47.8576 29.4372H49.3733L49.6064 28.6747H48.2031L48.4217 27.9773H49.8207L50.0802 27.1173H45.9093L45.6541 27.9773ZM32.9955 30.9316L33.3453 29.768H34.783L35.0457 28.9025H33.6066L33.8263 28.1863H35.2326L35.4931 27.3483H31.9745L31.7193 28.1863H32.5187L32.3055 28.9025H31.5039L31.2383 29.7828H32.0374L31.5712 31.3222C31.5082 31.526 31.6007 31.6037 31.6594 31.6983C31.7193 31.7906 31.7801 31.8516 31.9167 31.8863C32.0576 31.9177 32.1541 31.9366 32.2853 31.9366H33.9062L34.1949 30.9778L33.4765 31.0765C33.3377 31.0765 32.9535 31.0598 32.9955 30.9316ZM33.1604 25.3612L32.796 26.0197C32.718 26.1635 32.6479 26.2528 32.5847 26.2939C32.529 26.3286 32.4188 26.3431 32.2591 26.3431H32.069L31.8149 27.1854H32.4462C32.7498 27.1854 32.9829 27.0741 33.0942 27.0185C33.2139 26.9545 33.2453 26.991 33.3378 26.9018L33.551 26.7171H35.5225L35.7841 25.8401H34.341L34.593 25.3612H33.1604ZM36.0709 30.9485C36.0373 30.9001 36.0615 30.8149 36.1128 30.6374L36.6517 28.8541H38.5686C38.8479 28.8501 39.0496 28.8469 39.1808 28.8374C39.3217 28.8227 39.475 28.7724 39.6419 28.682C39.8143 28.5874 39.9025 28.4877 39.977 28.3731C40.0601 28.2589 40.1934 28.0088 40.308 27.6233L40.9853 25.3665L38.9961 25.3781C38.9961 25.3781 38.3836 25.4684 38.1139 25.5682C37.8418 25.6795 37.4529 25.9903 37.4529 25.9903L37.6326 25.3716H36.4038L34.6834 31.0765C34.6224 31.298 34.5815 31.4588 34.5721 31.5553C34.5689 31.6593 34.7033 31.7623 34.7904 31.84C34.8934 31.9177 35.0456 31.9051 35.1916 31.9177C35.3452 31.9293 35.5635 31.9365 35.8649 31.9365H36.8092L37.0991 30.9579L36.2537 31.0377C36.1634 31.0377 36.098 30.9894 36.0709 30.9485ZM36.9993 27.6496H39.0128L38.8848 28.0508C38.8667 28.0602 38.8237 28.0309 38.6188 28.0551H36.8754L36.9993 27.6496ZM37.4027 26.3043H39.433L39.287 26.7874C39.287 26.7874 38.3301 26.778 38.1768 26.8063C37.5024 26.9229 37.1085 27.2832 37.1085 27.2832L37.4027 26.3043ZM38.9298 29.3941C38.9132 29.454 38.8868 29.4906 38.85 29.518C38.8091 29.5443 38.743 29.5538 38.6443 29.5538H38.3574L38.3743 29.0652H37.181L37.1326 31.4535C37.1307 31.6258 37.1474 31.7256 37.2735 31.8054C37.3996 31.9051 37.7881 31.9178 38.3111 31.9178H39.0589L39.3289 31.0238L38.6779 31.0596L38.4614 31.0722C38.4319 31.0596 38.4036 31.048 38.3722 31.0166C38.3447 30.9894 38.2985 31.0061 38.306 30.8338L38.3111 30.2216L38.9938 30.1934C39.3625 30.1934 39.52 30.0734 39.6545 29.9592C39.7827 29.8498 39.8247 29.7239 39.8731 29.5538L39.9876 29.0117H39.0495L38.9298 29.3941Z" fill="#FEFEFE"/>
</svg>
