<svg width="70" height="48" viewBox="0 0 70 48" fill="none" xmlns="http://www.w3.org/2000/svg">
<rect width="70" height="47.9945" rx="4" fill="white"/>
<path d="M29.9482 32.1619H25.9902L28.4658 16.8564H32.4236L29.9482 32.1619Z" fill="#00579F"/>
<path d="M44.2947 17.2307C43.514 16.921 42.2758 16.5791 40.7447 16.5791C36.8361 16.5791 34.0837 18.6631 34.0668 21.6427C34.0343 23.841 36.0374 25.062 37.5356 25.795C39.0669 26.544 39.5874 27.0328 39.5874 27.7005C39.5718 28.7258 38.35 29.1984 37.2105 29.1984C35.6303 29.1984 34.7836 28.9548 33.4969 28.3843L32.9757 28.1398L32.4219 31.5755C33.3502 31.9984 35.0604 32.3736 36.8361 32.3901C40.989 32.3901 43.6928 30.3383 43.7248 27.1631C43.7406 25.4208 42.6829 24.0857 40.4025 22.9948C39.0182 22.2945 38.1704 21.8223 38.1704 21.1058C38.1866 20.4544 38.8875 19.7872 40.4501 19.7872C41.7368 19.7545 42.6822 20.0637 43.3984 20.3732L43.7564 20.5357L44.2947 17.2307Z" fill="#00579F"/>
<path d="M49.5572 26.7397C49.8832 25.8604 51.1374 22.4574 51.1374 22.4574C51.121 22.49 51.4627 21.5619 51.6582 20.9921L51.9348 22.3109C51.9348 22.3109 52.6843 25.9745 52.847 26.7397C52.2285 26.7397 50.339 26.7397 49.5572 26.7397ZM54.4428 16.8564H51.3813C50.4372 16.8564 49.72 17.133 49.3126 18.1263L43.4336 32.1617H47.5866C47.5866 32.1617 48.2703 30.2726 48.4172 29.8658C48.8728 29.8658 52.9128 29.8658 53.4989 29.8658C53.6126 30.4031 53.9712 32.1617 53.9712 32.1617H57.6359L54.4428 16.8564V16.8564Z" fill="#00579F"/>
<path d="M22.684 16.8564L18.8078 27.2933L18.3843 25.1766C17.6676 22.7342 15.4202 20.0805 12.9121 18.7611L16.4625 32.1456H20.648L26.8692 16.8564H22.684V16.8564Z" fill="#00579F"/>
<path d="M15.2085 16.8564H8.84054L8.77539 17.1657C13.7428 18.436 17.0326 21.4979 18.3843 25.1782L16.9999 18.1432C16.772 17.1655 16.0717 16.8887 15.2085 16.8564Z" fill="#FAA61A"/>
</svg>
