<svg viewBox="0 0 70 48" fill="none" xmlns="http://www.w3.org/2000/svg"><mask id="a" style="mask-type:alpha" maskUnits="userSpaceOnUse" x="0" y="0" width="70" height="48"><path fill="#016FD0" d="M0 0h70v47.995H0z"/></mask><g mask="url(#a)"><rect width="70" height="47.995" rx="4" fill="#fff"/><path d="M13.616 36.717V25.706h11.66l1.251 1.63 1.293-1.63h42.323v10.252s-1.107.748-2.387.76H44.321l-1.41-1.737v1.736h-4.623v-2.963s-.631.414-1.996.414h-1.573v2.55H27.72l-1.25-1.667-1.268 1.666H13.616zM0 17.407l2.63-6.13h4.547l1.492 3.434v-3.434h5.653l.888 2.482.861-2.482h25.375v1.248s1.334-1.248 3.526-1.248l8.234.03 1.466 3.388v-3.418h4.73l1.303 1.947v-1.947h4.773V22.29h-4.773l-1.248-1.953v1.953h-6.95l-.7-1.736H49.94l-.687 1.736h-4.714c-1.886 0-3.092-1.223-3.092-1.223v1.223H34.34l-1.41-1.736v1.736H6.502l-.698-1.736H3.942l-.693 1.736H0v-4.882z" fill="#016FD0"/><path d="M3.558 12.634L.012 20.88H2.32l.654-1.65H6.78l.651 1.65h2.36l-3.543-8.245H3.558zm1.312 1.92l1.16 2.885H3.707l1.163-2.885zM10.034 20.878v-8.245l3.281.012 1.909 5.316 1.863-5.328h3.255v8.245H18.28v-6.075l-2.185 6.075h-1.808l-2.191-6.075v6.075h-2.062zM21.754 20.878v-8.245h6.727v1.844h-4.644v1.41h4.535v1.736h-4.535v1.465h4.644v1.79h-6.727zM29.672 12.634v8.246h2.062v-2.929h.868l2.472 2.93h2.519l-2.713-3.038a2.511 2.511 0 0 0 2.262-2.533c0-1.736-1.362-2.676-2.882-2.676h-4.588zm2.062 1.845h2.356c.566 0 .977.442.977.868 0 .548-.533.868-.946.868h-2.387v-1.736zM40.091 20.878h-2.105v-8.245h2.105v8.245zM45.082 20.878h-.455c-2.198 0-3.533-1.731-3.533-4.089 0-2.415 1.32-4.156 4.096-4.156h2.279v1.953h-2.362c-1.127 0-1.924.879-1.924 2.224 0 1.597.911 2.267 2.224 2.267h.543l-.868 1.801zM49.569 12.634l-3.547 8.246h2.31l.654-1.65h3.804l.65 1.65h2.36l-3.542-8.245h-2.69zm1.312 1.92l1.16 2.885h-2.323l1.163-2.885zM56.04 20.878v-8.245h2.62l3.347 5.18v-5.18h2.061v8.245h-2.536L58.1 15.563v5.316h-2.062zM15.027 35.308v-8.246h6.727v1.845H17.11v1.41h4.535v1.736H17.11v1.465h4.644v1.79h-6.727zM47.987 35.308v-8.246h6.727v1.845h-4.643v1.41h4.513v1.736H50.07v1.465h4.644v1.79h-6.727zM22.016 35.308l3.275-4.072-3.353-4.174h2.597l1.997 2.58 2.004-2.58h2.495l-3.309 4.123 3.281 4.123h-2.596l-1.94-2.54-1.891 2.54h-2.56zM31.246 27.063v8.246h2.116v-2.604h2.17c1.836 0 3.228-.974 3.228-2.868 0-1.57-1.092-2.774-2.96-2.774h-4.554zm2.116 1.865h2.285c.593 0 1.017.363 1.017.95 0 .55-.422.948-1.024.948h-2.278v-1.898zM39.656 27.062v8.246h2.061v-2.93h.868l2.472 2.93h2.52l-2.713-3.038a2.511 2.511 0 0 0 2.261-2.533c0-1.735-1.362-2.675-2.882-2.675h-4.587zm2.061 1.845h2.357c.565 0 .976.442.976.867 0 .548-.533.868-.946.868h-2.387v-1.735zM55.67 35.308v-1.79h4.126c.61 0 .875-.33.875-.692 0-.347-.263-.697-.875-.697h-1.864c-1.62 0-2.523-.987-2.523-2.47 0-1.322.826-2.597 3.235-2.597h4.014l-.868 1.855h-3.472c-.664 0-.868.349-.868.681 0 .342.252.719.76.719h1.953c1.806 0 2.59 1.025 2.59 2.367 0 1.442-.874 2.624-2.689 2.624h-4.393zM63.235 35.308v-1.79h4.126c.61 0 .874-.33.874-.692 0-.347-.263-.697-.874-.697h-1.865c-1.62 0-2.523-.987-2.523-2.47 0-1.322.827-2.597 3.235-2.597h3.932l-.786 1.855h-3.472c-.663 0-.868.349-.868.681 0 .342.253.719.76.719h1.953c1.806 0 2.59 1.025 2.59 2.367 0 1.442-.873 2.624-2.688 2.624h-4.394z" fill="#fff"/></g></svg>
