<svg viewBox="0 0 70 48" fill="none" xmlns="http://www.w3.org/2000/svg"><rect width="70" height="47.995" rx="4" fill="#fff"/><path d="M38.09 38.995C45.885 39.033 53 32.581 53 24.731c0-8.583-7.115-14.516-14.91-14.513h-6.709C23.493 10.215 17 16.15 17 24.73c0 7.851 6.493 14.302 14.381 14.264h6.71z" fill="#0079BE"/><path d="M31.413 11.407c-7.208.003-13.049 5.898-13.051 13.174.002 7.275 5.843 13.17 13.051 13.172 7.21-.002 13.053-5.897 13.053-13.172 0-7.276-5.842-13.171-13.053-13.174zm-8.272 13.174a8.36 8.36 0 0 1 5.31-7.792V32.37a8.358 8.358 0 0 1-5.31-7.79zm11.233 7.794V16.788a8.357 8.357 0 0 1 5.314 7.793 8.358 8.358 0 0 1-5.314 7.794z" fill="#fff"/><path d="M38.09 38.995C45.885 39.033 53 32.581 53 24.731c0-8.583-7.115-14.516-14.91-14.513h-6.709C23.493 10.215 17 16.15 17 24.73c0 7.851 6.493 14.302 14.381 14.264h6.71z" fill="#0079BE"/><path d="M31.413 11.407c-7.208.003-13.049 5.898-13.051 13.174.002 7.275 5.843 13.17 13.051 13.172 7.21-.002 13.053-5.897 13.053-13.172 0-7.276-5.842-13.171-13.053-13.174zm-8.272 13.174a8.36 8.36 0 0 1 5.31-7.792V32.37a8.358 8.358 0 0 1-5.31-7.79zm11.233 7.794V16.788a8.357 8.357 0 0 1 5.314 7.793 8.358 8.358 0 0 1-5.314 7.794z" fill="#fff"/></svg>
