<svg viewBox="0 0 70 48" fill="none" xmlns="http://www.w3.org/2000/svg"><rect width="70" height="47.995" rx="4" fill="#fff"/><path d="M30.5 47.995l39.5-11.5v7.5a4 4 0 0 1-4 4H30.5z" fill="#FD6020"/><path fill-rule="evenodd" clip-rule="evenodd" d="M60.371 19.22c2.173 0 3.369.966 3.369 2.793a2.613 2.613 0 0 1-2.173 2.793l2.933 3.976h-2.282l-2.499-3.868h-.217v3.868h-1.847v-9.563h2.716zm-.869 4.405h.543c1.196 0 1.739-.537 1.739-1.505 0-.86-.543-1.396-1.739-1.396h-.543v2.9zm-8.258 5.157h5.216V27.17h-3.368v-2.578h3.26V22.98h-3.26V20.83h3.368V19.22h-5.216v9.562zm-5.432-3.116l-2.5-6.447h-1.955l4.02 9.778h.978l4.02-9.777H48.42l-2.607 6.446zm-22.058-1.612c0 2.686 2.174 4.943 4.89 4.943.87 0 1.63-.215 2.39-.538v-2.148c-.543.644-1.303 1.074-2.173 1.074-1.738 0-3.15-1.29-3.15-3.008v-.215c-.11-1.72 1.303-3.223 3.042-3.33.869 0 1.738.429 2.281 1.073v-2.148c-.652-.43-1.52-.538-2.281-.538-2.825-.214-4.999 2.042-4.999 4.835zm-3.368-1.181c-1.086-.43-1.412-.645-1.412-1.182.108-.645.651-1.182 1.303-1.075.544 0 1.087.323 1.522.752l.977-1.289c-.76-.645-1.738-1.074-2.716-1.074-1.521-.108-2.825 1.074-2.933 2.578v.108c0 1.289.543 2.041 2.281 2.578.435.108.87.323 1.304.537.326.215.543.538.543.967 0 .753-.652 1.397-1.303 1.397h-.11c-.868 0-1.629-.537-1.955-1.29l-1.195 1.183c.652 1.182 1.956 1.826 3.26 1.826 1.738.108 3.15-1.182 3.26-2.9v-.323c-.11-1.29-.653-1.934-2.826-2.794zm-6.302 5.909h1.847v-9.563h-1.847v9.563zM5.5 19.219H8.76c2.608.108 4.672 2.257 4.563 4.835 0 1.397-.651 2.686-1.738 3.653-.978.752-2.173 1.182-3.368 1.075H5.5v-9.563zm2.39 7.952c.87.107 1.848-.215 2.5-.752.652-.645.978-1.505.978-2.472 0-.86-.326-1.719-.978-2.364-.652-.537-1.63-.86-2.5-.752h-.543v6.34h.544z" fill="#000"/><path fill-rule="evenodd" clip-rule="evenodd" d="M36.577 18.998c-2.717 0-4.999 2.149-4.999 4.942 0 2.686 2.174 4.942 4.999 5.05 2.825.107 4.998-2.149 5.106-4.942-.108-2.794-2.281-5.05-5.106-5.05z" fill="#FD6020"/></svg>
