<svg viewBox="0 0 70 48" fill="none" xmlns="http://www.w3.org/2000/svg"><rect width="70" height="47.995" rx="4" fill="#fff"/><path d="M44.636 24.572c1.028.022 2.061-.046 3.084.035 1.037.193 1.286 1.762.366 2.275-.629.339-1.375.126-2.056.186h-1.394v-2.496zm3.678-2.826c.228.806-.548 1.529-1.324 1.418h-2.354c.017-.76-.032-1.584.024-2.304.943.027 1.895-.054 2.832.042.403.101.74.432.822.844zM53.978 9.8c.044 1.538.006 3.158.02 4.727-.004 6.382.005 12.763-.006 19.145-.041 2.392-2.161 4.47-4.536 4.518-2.378.01-4.756.001-7.134.004v-9.648c2.59-.013 5.183.027 7.773-.02 1.201-.075 2.517-.868 2.573-2.19.142-1.328-1.11-2.246-2.299-2.391-.457-.012-.443-.133 0-.186 1.134-.245 2.024-1.418 1.69-2.593-.284-1.236-1.65-1.714-2.786-1.712-2.317-.016-4.634-.002-6.95-.007.014-1.8-.032-3.604.024-5.404.184-2.348 2.357-4.285 4.699-4.243h6.932z" fill="url(#paint0_linear_2848_12631)"/><path d="M16.141 14.287c.06-2.388 2.188-4.45 4.56-4.484 2.37-.007 4.739-.001 7.107-.003-.006 7.99.013 15.98-.01 23.968-.09 2.359-2.196 4.38-4.543 4.422-2.373.009-4.747.002-7.12.004v-9.973c2.305.545 4.723.777 7.075.415 1.406-.226 2.944-.916 3.42-2.374.35-1.248.153-2.56.205-3.841v-2.973h-4.07c-.018 1.966.037 3.936-.03 5.9-.11 1.207-1.305 1.974-2.444 1.934-1.412.014-4.21-1.024-4.21-1.024-.008-3.684.04-8.299.06-11.97v-.001z" fill="url(#paint1_linear_2848_12631)"/><path d="M29.326 20.647c-.214.045-.043-.73-.098-1.024.015-1.86-.03-3.72.025-5.578.183-2.359 2.373-4.3 4.725-4.245h6.925c-.007 7.99.012 15.98-.01 23.968-.092 2.359-2.197 4.38-4.544 4.423-2.373.008-4.747.001-7.12.003V27.268c1.62 1.33 3.824 1.537 5.843 1.54 1.523 0 3.036-.235 4.515-.586V26.22c-1.666.83-3.625 1.358-5.472.88-1.289-.32-2.224-1.565-2.203-2.895-.15-1.382.661-2.842 2.02-3.253 1.687-.528 3.526-.124 5.108.563.338.177.682.397.547-.17v-1.573c-2.645-.629-5.46-.86-8.117-.176-.77.217-1.519.546-2.144 1.05z" fill="url(#paint2_linear_2848_12631)"/><defs><linearGradient id="paint0_linear_2848_12631" x1="42.242" y1="23.39" x2="53.923" y2="23.39" gradientUnits="userSpaceOnUse"><stop stop-color="#58B03A"/><stop offset="1" stop-color="#55B330"/></linearGradient><linearGradient id="paint1_linear_2848_12631" x1="15.887" y1="24.269" x2="27.617" y2="24.269" gradientUnits="userSpaceOnUse"><stop stop-color="#0F6EB6"/><stop offset="1" stop-color="#006DBA"/></linearGradient><linearGradient id="paint2_linear_2848_12631" x1="29.211" y1="23.665" x2="40.9" y2="23.665" gradientUnits="userSpaceOnUse"><stop stop-color="#DE0D3D"/><stop offset="1" stop-color="#E30138"/></linearGradient></defs></svg>
