<svg viewBox="0 0 70 48" fill="none" xmlns="http://www.w3.org/2000/svg"><rect width="70" height="47.995" rx="4" fill="#fff"/><path fill-rule="evenodd" clip-rule="evenodd" d="M35.5 34.31a13.503 13.503 0 0 1-8.852 3.297C19.11 37.608 13 31.428 13 23.803 13 16.18 19.11 10 26.648 10c3.378 0 6.469 1.241 8.852 3.297A13.502 13.502 0 0 1 44.352 10C51.89 9.999 58 16.179 58 23.803c0 7.624-6.11 13.805-13.648 13.805-3.377 0-6.469-1.242-8.852-3.298z" fill="#ED0006"/><path fill-rule="evenodd" clip-rule="evenodd" d="M35.5 34.31a13.839 13.839 0 0 0 4.795-10.507c0-4.207-1.86-7.975-4.795-10.507A13.502 13.502 0 0 1 44.352 10C51.89 9.999 58 16.179 58 23.803c0 7.624-6.11 13.805-13.648 13.805-3.377 0-6.469-1.242-8.852-3.298z" fill="#F9A000"/><path fill-rule="evenodd" clip-rule="evenodd" d="M35.5 13.297a13.839 13.839 0 0 1 4.795 10.506c0 4.207-1.86 7.975-4.795 10.507a13.84 13.84 0 0 1-4.795-10.507A13.84 13.84 0 0 1 35.5 13.297z" fill="#FF5E00"/></svg>
