<svg viewBox="0 0 70 48" fill="none" xmlns="http://www.w3.org/2000/svg"><rect width="70" height="47.995" rx="4" fill="#fff"/><path d="M21.655 10h11.032c1.54 0 2.498 1.255 2.139 2.8l-5.137 22.048c-.362 1.54-1.904 2.796-3.445 2.796h-11.03c-1.538 0-2.498-1.256-2.139-2.796L18.214 12.8c.359-1.545 1.9-2.8 3.442-2.8z" fill="#E21836"/><path d="M31.769 9.999h12.686c1.54 0 .845 1.255.483 2.8l-5.135 22.048c-.36 1.54-.248 2.795-1.791 2.795H25.326c-1.543 0-2.498-1.256-2.135-2.795l5.135-22.048c.364-1.545 1.902-2.8 3.443-2.8z" fill="#00447C"/><path d="M43.952 9.999h11.031c1.542 0 2.5 1.255 2.138 2.8l-5.135 22.048c-.363 1.54-1.906 2.795-3.447 2.795H37.512c-1.543 0-2.5-1.256-2.138-2.795l5.136-22.048c.359-1.545 1.899-2.8 3.442-2.8z" fill="#007B84"/><path d="M24.536 17.065c-1.134.011-1.47 0-1.576-.026-.041.196-.807 3.727-.81 3.73-.164.714-.284 1.223-.691 1.552a1.233 1.233 0 0 1-.814.283c-.504 0-.797-.25-.846-.723l-.01-.163.154-.962s.803-3.218.947-3.643a.315.315 0 0 0 .012-.048c-1.564.013-1.841 0-1.86-.026-.01.035-.05.234-.05.234l-.82 3.627-.07.308-.137 1.006c0 .298.059.542.176.748.373.653 1.44.75 2.043.75.777 0 1.506-.165 1.998-.466.855-.505 1.079-1.295 1.279-1.996l.092-.36s.828-3.342.968-3.777c.006-.024.008-.037.015-.048zm2.816 2.695c-.2 0-.564.049-.892.21-.118.06-.23.13-.35.201l.108-.386-.059-.065c-.694.14-.85.159-1.491.25l-.054.035c-.075.618-.14 1.082-.417 2.296-.105.447-.214.899-.324 1.345l.03.057a15.99 15.99 0 0 1 1.428-.025l.046-.05c.073-.372.082-.46.243-1.213.076-.357.233-1.141.311-1.42.143-.067.284-.132.418-.132.32 0 .281.28.269.391-.014.187-.13.797-.25 1.321l-.08.338c-.056.25-.117.493-.172.74l.024.05a15.4 15.4 0 0 1 1.399-.025l.065-.05c.1-.581.13-.737.307-1.582l.089-.389c.174-.76.26-1.146.13-1.46-.14-.352-.472-.436-.778-.436zm3.146.796c-.345.067-.564.11-.783.14-.216.034-.427.065-.76.112l-.026.024-.025.019c-.034.248-.058.462-.105.714-.038.26-.098.556-.196.982a3.858 3.858 0 0 1-.158.553c-.042.115-.088.226-.173.546l.02.03.017.027c.31-.015.514-.025.724-.027.208-.008.425 0 .76.002l.03-.024.03-.027c.05-.288.056-.366.086-.507.03-.151.08-.36.204-.919.058-.262.124-.524.185-.792.063-.266.129-.529.192-.791l-.01-.032-.012-.03zm.007-1.073c-.313-.184-.862-.126-1.232.13-.369.25-.41.604-.099.791.308.18.86.126 1.226-.13.368-.256.414-.608.105-.79zm1.893 4.278c.633 0 1.282-.175 1.77-.692.377-.42.55-1.045.609-1.303.194-.852.043-1.25-.147-1.493-.29-.37-.8-.488-1.329-.488-.318 0-1.077.031-1.669.577-.425.394-.622.929-.74 1.441-.12.522-.258 1.462.607 1.812.267.114.651.146.899.146zm-.05-1.919c.147-.646.319-1.188.759-1.188.344 0 .37.404.216 1.051-.027.144-.153.679-.323.907-.12.168-.26.27-.415.27-.046 0-.322 0-.326-.409a2.777 2.777 0 0 1 .09-.631zm4.012 1.836l.05-.05c.07-.372.08-.46.236-1.212.078-.358.239-1.142.314-1.421.143-.067.282-.132.42-.132.319 0 .28.28.267.39-.011.188-.128.798-.25 1.322l-.075.338c-.058.25-.121.493-.177.74l.025.05c.65-.035.84-.035 1.396-.025l.068-.05c.097-.581.124-.737.306-1.582l.088-.389c.174-.76.262-1.145.133-1.46-.143-.351-.478-.436-.78-.436-.2 0-.566.048-.891.209a5.961 5.961 0 0 0-.348.201l.1-.386-.054-.066c-.694.141-.852.16-1.493.25l-.05.036c-.077.618-.14 1.082-.417 2.296-.105.447-.214.899-.323 1.345l.03.057c.658-.035.854-.035 1.425-.025zm4.777.025c.04-.2.283-1.382.285-1.382 0 0 .207-.868.22-.9 0 0 .065-.09.13-.125h.096c.903 0 1.923 0 2.722-.588.544-.403.916-.999 1.082-1.723.043-.177.075-.388.075-.6 0-.276-.056-.55-.217-.765-.407-.57-1.22-.58-2.156-.585l-.462.004c-1.2.015-1.68.01-1.878-.013l-.048.242-.43 1.995-1.077 4.433c1.047-.013 1.477-.013 1.658.007zm.796-3.537s.457-1.987.454-1.98l.015-.102.007-.077.182.018.965.084c.371.143.525.514.418.998-.098.442-.385.814-.754.994-.303.152-.675.165-1.058.165h-.248l.019-.1zm2.844 1.713c-.12.514-.26 1.454.6 1.79.275.116.52.15.77.138.264-.014.509-.146.735-.337l-.061.235.039.05c.619-.026.81-.026 1.48-.02l.062-.047c.098-.575.19-1.134.444-2.235.124-.527.248-1.049.375-1.574l-.02-.058c-.692.128-.877.156-1.543.25l-.05.041-.02.157a.95.95 0 0 0-.486-.4c-.296-.116-.99.034-1.589.578-.42.389-.621.921-.736 1.432zm1.454.031c.148-.634.318-1.17.759-1.17.279 0 .426.257.396.696l-.08.355c-.044.188-.092.375-.138.562a1.367 1.367 0 0 1-.163.33c-.114.16-.384.26-.539.26-.044 0-.316 0-.326-.402a2.75 2.75 0 0 1 .09-.63zm7.59-2.094l-.053-.06c-.685.138-.809.16-1.438.245l-.046.046c-.002.008-.004.02-.008.03l-.002-.01c-.468 1.08-.454.847-.836 1.697l-.004-.104-.095-1.844-.06-.06c-.718.138-.735.16-1.397.245l-.052.046c-.007.022-.007.046-.011.073l.004.01c.083.422.063.328.146.996.039.327.09.657.129.98.065.542.102.81.182 1.636-.448.738-.554 1.017-.984 1.665l.003.007-.304.48c-.034.05-.066.085-.11.1a.458.458 0 0 1-.199.028h-.168l-.25.83.857.015c.504-.002.82-.237.99-.553l.539-.924h-.009l.057-.064c.362-.78 3.12-5.51 3.12-5.51zm-9.044 10.91h-.363l1.345-4.449h.446l.142-.458.014.51c-.017.314.231.594.882.548h.753l.26-.857h-.284c-.163 0-.238-.041-.229-.13l-.014-.518h-1.394v.003c-.451.009-1.798.043-2.07.115-.33.085-.678.335-.678.335l.137-.459h-1.305l-.272.911-1.363 4.518h-.265l-.26.85h2.6l-.088.284h1.28l.085-.283h.36l.281-.92zm-1.066-3.545c-.209.058-.598.233-.598.233l.346-1.137h1.037l-.25.829s-.32.018-.535.075zm.02 1.625s-.326.04-.54.09c-.211.063-.607.265-.607.265l.357-1.184h1.042l-.252.829zm-.58 1.931h-1.04l.3-.998h1.037l-.298.998zm2.503-2.76h1.499l-.215.698h-1.52l-.227.762h1.329l-1.007 1.417a.415.415 0 0 1-.203.17.597.597 0 0 1-.27.078h-.369l-.253.835h.964c.501 0 .797-.228 1.016-.527l.69-.945.148.959a.45.45 0 0 0 .248.326c.096.048.196.131.337.143.151.007.26.012.333.012h.474l.284-.934h-.187c-.107 0-.292-.018-.323-.052-.032-.041-.032-.104-.049-.2l-.15-.96h-.615l.27-.322h1.515l.233-.762h-1.403l.219-.698h1.399l.26-.86h-4.172l-.255.86zm-12.659 2.955l.35-1.164h1.438l.263-.866h-1.44l.22-.716h1.407l.26-.838h-3.519l-.255.838h.8l-.213.716h-.802l-.266.88h.8l-.467 1.54c-.063.204.03.282.088.376.06.093.121.154.258.188.14.032.237.05.368.05h1.621l.289-.958-.718.098c-.14 0-.523-.016-.481-.144zm.165-5.57l-.364.658c-.078.143-.148.233-.211.274-.056.035-.166.05-.326.05h-.19l-.254.841h.631c.304 0 .537-.11.648-.166.12-.064.151-.028.244-.117l.213-.185h1.971l.262-.877h-1.443l.252-.479H33.16zm2.91 5.587c-.033-.049-.008-.134.043-.312l.539-1.783h1.917c.279-.004.48-.007.612-.017a1.25 1.25 0 0 0 .46-.155.862.862 0 0 0 .336-.309c.083-.114.216-.364.331-.75l.677-2.257-1.989.012s-.612.09-.882.19c-.272.111-.661.422-.661.422l.18-.618h-1.23l-1.72 5.704a3.52 3.52 0 0 0-.11.48c-.004.103.13.206.217.284.103.078.256.065.402.078.153.011.371.018.673.018h.944l.29-.978-.845.08a.222.222 0 0 1-.183-.09zm.93-3.3h2.013l-.128.402c-.018.01-.061-.02-.266.004h-1.744L37 27.65zm.403-1.345h2.03l-.146.483s-.957-.009-1.11.02c-.675.116-1.069.476-1.069.476l.295-.979zm1.527 3.09a.214.214 0 0 1-.08.124c-.04.026-.107.036-.206.036h-.287l.017-.489h-1.193l-.048 2.388c-.002.173.014.273.14.352.127.1.515.113 1.038.113h.748l.27-.894-.651.036-.217.012c-.03-.012-.057-.024-.089-.055-.027-.028-.074-.01-.066-.183l.005-.612.683-.029c.368 0 .526-.12.66-.234.129-.11.17-.235.22-.405l.114-.542h-.938l-.12.382z" fill="#FEFEFE"/></svg>
