<svg viewBox="0 0 70 48" fill="none" xmlns="http://www.w3.org/2000/svg"><rect width="70" height="47.995" rx="4" fill="#fff"/><path d="M29.948 32.162H25.99l2.476-15.306h3.958l-2.476 15.306zM44.295 17.23a9.755 9.755 0 0 0-3.55-.65c-3.909 0-6.661 2.083-6.678 5.063-.033 2.198 1.97 3.419 3.469 4.152 1.53.749 2.051 1.238 2.051 1.905-.015 1.026-1.237 1.498-2.377 1.498-1.58 0-2.426-.243-3.713-.814l-.521-.244-.554 3.436c.928.422 2.638.798 4.414.814 4.153 0 6.857-2.052 6.889-5.227.016-1.742-1.042-3.077-3.322-4.168-1.385-.7-2.233-1.173-2.233-1.89.017-.65.718-1.318 2.28-1.318a6.725 6.725 0 0 1 2.948.586l.358.163.539-3.305zM49.557 26.74c.326-.88 1.58-4.283 1.58-4.283-.016.033.326-.895.521-1.465l.277 1.319s.75 3.663.912 4.429h-3.29zm4.886-9.884H51.38c-.944 0-1.661.277-2.068 1.27l-5.88 14.036h4.154l.83-2.296H53.5c.114.537.472 2.296.472 2.296h3.665l-3.193-15.306zM22.684 16.856l-3.876 10.437-.424-2.116c-.716-2.443-2.964-5.096-5.472-6.416l3.55 13.385h4.186l6.221-15.29h-4.185z" fill="#00579F"/><path d="M15.209 16.856H8.84l-.066.31c4.968 1.27 8.258 4.332 9.61 8.012L17 18.143c-.228-.977-.928-1.254-1.791-1.287z" fill="#FAA61A"/></svg>
