<svg xmlns="http://www.w3.org/2000/svg" viewBox="0 0 24 24"><path d="M21.5 4a.5.5 0 01.09.992L21.5 5h-1v13.5a1.5 1.5 0 01-1.356 1.493L19 20h-2.006a1.5 1.5 0 01-1.493-1.356l-.007-.144v-4.334a3.519 3.519 0 00-7.032-.193l-.005.193V18.5A1.5 1.5 0 017.1 19.993L6.957 20H5a1.5 1.5 0 01-1.493-1.356L3.5 18.5V5h-1a.5.5 0 01-.09-.992L2.5 4h19zm-2 3h-15v11.5a.5.5 0 00.41.492L5 19h1.957a.5.5 0 00.492-.41l.008-.09v-4.334a4.519 4.519 0 019.032-.213l.005.213V18.5a.5.5 0 00.41.492l.09.008H19a.5.5 0 00.492-.41l.008-.09V7zm0-2h-15v1h15V5z"/></svg>
