<svg xmlns="http://www.w3.org/2000/svg" viewBox="0 0 24 24"><path d="M21.617 2.646a.5.5 0 01.058.638l-.058.07L3.232 21.738a.5.5 0 01-.765-.637l.058-.07L20.91 2.646a.5.5 0 01.707 0zm-1.973 4.096c.196.463.318.966.348 1.493L20 8.5v7a4.5 4.5 0 01-4.288 4.495L15.5 20h-9l-.113-.001.997-.999H15.5a3.5 3.5 0 003.495-3.308L19 15.5v-7c0-.339-.048-.666-.138-.976l.782-.782zM15.5 4c.765 0 1.485.19 2.115.527l-.75.75a3.48 3.48 0 00-1.125-.269L15.5 5h-9a3.5 3.5 0 00-3.495 3.308L3 8.5v7a3.49 3.49 0 001.098 2.546l-.707.707a4.487 4.487 0 01-1.384-2.999L2 15.5v-7a4.5 4.5 0 014.288-4.495L6.5 4h9zm6 5a.5.5 0 01.492.41L22 9.5v5a.5.5 0 01-.992.09L21 14.5v-5a.5.5 0 01.5-.5z"/></svg>
