<svg xmlns="http://www.w3.org/2000/svg" viewBox="0 0 24 24"><path d="M11.5 18.5a.5.5 0 00.992.09l.008-.09h1a1.5 1.5 0 01-2.993.145l-.007-.144h1zM12 4.06a4.416 4.416 0 014.416 4.416v3.643c0 1.581.796 3.056 2.119 3.924a1.338 1.338 0 01-.735 2.456H6.14a1.337 1.337 0 01-.73-2.457 4.7 4.7 0 002.133-3.937V8.517A4.457 4.457 0 0112 4.06zm0 1a3.457 3.457 0 00-3.457 3.457v3.588a5.7 5.7 0 01-2.588 4.775.337.337 0 00.184.62H17.8a.338.338 0 00.186-.621 5.694 5.694 0 01-2.57-4.76V8.476A3.416 3.416 0 0012 5.06zm9.53 2.455a.5.5 0 01.09.992l-.09.008H19.5a.5.5 0 01-.09-.991l.09-.009h2.03zm-17 0a.5.5 0 01.09.992l-.09.008H2.5a.5.5 0 01-.09-.991l.09-.009h2.03zM19.768 4.23a.5.5 0 01.058.638l-.058.069-1.414 1.414a.5.5 0 01-.765-.638l.057-.069 1.415-1.414a.5.5 0 01.707 0zm-15.622 0a.5.5 0 01.708 0l1.414 1.414.058.07a.5.5 0 01-.765.637L4.146 4.936l-.057-.07a.5.5 0 01.057-.637z"/></svg>
