<svg viewBox="0 0 24 24" xmlns="http://www.w3.org/2000/svg">
<path fill-rule="evenodd" d="M14.8771 2.51414C15.1227 2.45463 15.374 2.5877 15.4629 2.82424L15.825 3.78809H20C20.154 3.78809 20.2994 3.85902 20.3941 3.98038C20.4889 4.10174 20.5224 4.25998 20.4851 4.40935L19.9851 6.40935C19.9294 6.63194 19.7294 6.78809 19.5 6.78809H16.952L17.4656 8.15537C17.7925 8.05438 18.1399 8 18.5 8C20.433 8 22 9.567 22 11.5C22 13.433 20.433 15 18.5 15C16.567 15 15 13.433 15 11.5C15 10.2848 15.6193 9.21431 16.5594 8.58679L15.5755 5.96746L13.4473 10.2237C13.3238 10.4707 13.0235 10.5708 12.7765 10.4473C12.5295 10.3238 12.4294 10.0235 12.5529 9.7765L15.0529 4.7765C15.0664 4.74943 15.0821 4.72412 15.0996 4.70068L14.6824 3.59024L14.1179 3.72703C13.8495 3.79206 13.5792 3.62721 13.5142 3.35884C13.4491 3.09046 13.614 2.82018 13.8824 2.75516L14.8771 2.51414ZM17.5321 11.1759L16.9246 9.55877C16.3604 10.0171 16 10.7165 16 11.5C16 12.8807 17.1193 14 18.5 14C19.8807 14 21 12.8807 21 11.5C21 10.1193 19.8807 9 18.5 9C18.2636 9 18.035 9.0328 17.8182 9.09409L18.4682 10.8242C18.5653 11.0827 18.4345 11.371 18.1759 11.4681C17.9174 11.5652 17.6292 11.4344 17.5321 11.1759ZM6.21387 14C7.31844 14 8.21387 13.1046 8.21387 12C8.21387 10.8954 7.31844 10 6.21387 10C5.1093 10 4.21387 10.8954 4.21387 12C4.21387 13.1046 5.1093 14 6.21387 14ZM3.21387 12C3.21387 12.8777 3.59076 13.6673 4.19154 14.2159C2.911 14.698 2 15.9343 2 17.3835C2 18.8285 3.17147 20 4.61654 20H7.38346C7.40217 20 7.42083 19.9998 7.43945 19.9994C7.45705 19.9998 7.4747 20 7.49238 20H10.5085C11.8848 20 13.0004 18.8285 13.0004 17.3835C13.0004 15.9643 12.1683 14.7492 10.9885 14.2468C11.6092 13.6972 12.0005 12.8943 12.0005 12C12.0005 10.3431 10.6573 9 9.00049 9C8.49755 9 8.02351 9.12376 7.60718 9.34249C7.19084 9.12376 6.71681 9 6.21387 9C4.55701 9 3.21387 10.3431 3.21387 12ZM9.01793 14.9999L9.01837 14.9999L9.01842 15H9.7781C10.96 15 12.0004 16.0206 12.0004 17.3835C12.0004 18.3228 11.2871 19 10.5085 19H9.44148C9.04397 19.5053 8.46436 19.8605 7.80156 19.9668C9.0479 19.7667 10 18.6862 10 17.3835C10 16.4537 9.62497 15.6115 9.01793 14.9999ZM8.50405 13.9379C8.94684 13.4151 9.21387 12.7388 9.21387 12C9.21387 11.2612 8.94684 10.5849 8.50404 10.0621C8.66278 10.0216 8.82912 10 9.00049 10C10.1051 10 11.0005 10.8954 11.0005 12C11.0005 13.1046 10.1051 14 9.00049 14C8.82912 14 8.66279 13.9784 8.50405 13.9379ZM5.38346 15H6.21387H6.61654C7.93289 15 9 16.0671 9 17.3835C9 18.2762 8.27625 19 7.38346 19H4.61654C3.72375 19 3 18.2762 3 17.3835C3 16.0671 4.06711 15 5.38346 15ZM16.5865 5.78809L16.2175 4.78809H19.3596L19.1096 5.78809H16.5865Z"/>
</svg>
 