<svg xmlns="http://www.w3.org/2000/svg" viewBox="0 0 24 24"><path d="M11.5 3.957a.5.5 0 01.784-.412l.066.055 4.065 3.993a.5.5 0 01.062.64l-.058.07-3.698 3.71 3.698 3.712a.5.5 0 01.051.645l-.06.069-4.065 3.886a.5.5 0 01-.838-.277l-.007-.085-.001-6.724L8.32 16.43a.5.5 0 01-.638.06l-.069-.058a.5.5 0 01-.059-.638l.058-.07 3.697-3.711-3.697-3.71a.5.5 0 01-.057-.639l.058-.069a.5.5 0 01.638-.057l.07.058 3.178 3.191v-6.83zm.999 9.25v5.586l2.851-2.725-2.851-2.861zm0-8.059v5.671l2.855-2.866-2.855-2.805z"/></svg>
