<svg xmlns="http://www.w3.org/2000/svg" viewBox="0 0 24 24"><path d="M16.5 2a.5.5 0 01.492.41L17 2.5V3a4 4 0 014 4v10a4 4 0 01-4 4H7a4 4 0 01-4-4V7a4 4 0 014-4v-.5a.5.5 0 01.992-.09L8 2.5V3h2v-.5a.5.5 0 01.992-.09L11 2.5V3h2v-.5a.5.5 0 01.992-.09L14 2.5V3h2v-.5a.5.5 0 01.5-.5zM20 8H4v9a3 3 0 002.824 2.995L7 20h10a3 3 0 002.995-2.824L20 17V8zm-7.623 2c.176 0 .324.067.443.2.12.133.18.299.18.497v6.606a.674.674 0 01-.2.497.68.68 0 01-.497.2.641.641 0 01-.486-.2.693.693 0 01-.19-.497v-5.417l-.655.434a.61.61 0 01-.338.103.57.57 0 01-.45-.217.723.723 0 01-.184-.48.69.69 0 01.09-.343.693.693 0 01.237-.252l1.596-1.028a.904.904 0 01.454-.103zM10 4H8v1.5a.5.5 0 01-.992.09L7 5.5V4a3 3 0 00-2.995 2.824L4 7h16a3 3 0 00-2.824-2.995L17 4v1.5a.5.5 0 01-.992.09L16 5.5V4h-2v1.5a.5.5 0 01-.992.09L13 5.5V4h-2v1.5a.5.5 0 01-.992.09L10 5.5V4z"/></svg>
