<svg xmlns="http://www.w3.org/2000/svg" viewBox="0 0 24 24"><path d="M14 18a1 1 0 110 2 1 1 0 010-2zm-4 0a1 1 0 110 2 1 1 0 010-2zm-4 0a1 1 0 110 2 1 1 0 010-2zm6-14a6.003 6.003 0 015.664 4.014l.136-.01L18 8a4 4 0 110 8h-1a1 1 0 01-2 0h-2a1 1 0 01-2 0H9a1 1 0 01-2 0H6a4 4 0 11.337-7.986A6.001 6.001 0 0112 4zm0 1a5 5 0 00-4.72 3.345 1 1 0 01-1.026.666 3 3 0 00-.43 5.984L6 15h12a3 3 0 003-3c0-1.598-1.249-2.904-2.802-2.995L18.025 9l-.155.002-.137.01a1 1 0 01-1.013-.667A5.002 5.002 0 0012 5z"/></svg>
