<svg xmlns="http://www.w3.org/2000/svg" viewBox="0 0 24 24"><path d="M17.5 6A3.5 3.5 0 0121 9.5v8a3.5 3.5 0 01-3.5 3.5h-8A3.5 3.5 0 016 17.5v-8A3.5 3.5 0 019.5 6zm0 1h-8A2.5 2.5 0 007 9.5v8A2.5 2.5 0 009.5 20h8a2.5 2.5 0 002.5-2.5v-8A2.5 2.5 0 0017.5 7zm-3.016-3.95c1.257 0 2.398.668 3.022 1.733a.5.5 0 01-.863.505 2.498 2.498 0 00-1.98-1.232l-.179-.006h-8a2.5 2.5 0 00-2.495 2.336l-.005.164v8c0 .919.5 1.75 1.29 2.188a.5.5 0 11-.486.874 3.499 3.499 0 01-1.798-2.849l-.006-.213v-8a3.5 3.5 0 013.308-3.495l.192-.005h8z"/></svg>
