<svg xmlns="http://www.w3.org/2000/svg" viewBox="0 0 24 24"><path d="M16.5 3.206a1 1 0 01.866.5l4.5 7.794a1 1 0 010 1l-4.5 7.794a1 1 0 01-.866.5h-9a1 1 0 01-.866-.5l-4.5-7.794a1 1 0 010-1l4.5-7.794a1 1 0 01.866-.5zm0 1h-9L3 12l4.5 7.794h9L21 12l-4.5-7.794zm-.594 3.876a.5.5 0 01.06.638l-.057.07-3.182 3.203 3.182 3.205.057.07a.5.5 0 01-.767.634l-3.176-3.2-3.175 3.2a.5.5 0 01-.768-.635l.058-.07 3.181-3.204-3.181-3.204-.058-.07a.5.5 0 01.768-.634l3.175 3.198 3.176-3.198a.5.5 0 01.707-.003z"/></svg>
