<svg xmlns="http://www.w3.org/2000/svg" viewBox="0 0 24 24"><path d="M19.496 4.646a.5.5 0 01.057.638l-.057.07L5.353 19.496a.5.5 0 01-.765-.638l.058-.07L18.788 4.647a.5.5 0 01.708 0zM17.794 8.47l2.296 1.44A2.5 2.5 0 0120.3 14l-.18.127-2.585 1.673a10.174 10.174 0 01-8.313 1.243l.823-.824a9.176 9.176 0 006.659-1.08l.287-.179 2.587-1.673a1.5 1.5 0 00.1-2.448l-.119-.082-2.491-1.562.726-.725zm-2.893-1.35l-.82.82A9.397 9.397 0 007.31 8.952l-.294.177-2.596 1.619a1.5 1.5 0 00-.132 2.453l.118.083 2.643 1.69-.725.723-2.456-1.57a2.5 2.5 0 01-.847-3.306l.087-.147a2.5 2.5 0 01.6-.648L3.89 9.9l2.596-1.62A10.397 10.397 0 0114.9 7.12zm.026 4.218a3 3 0 01-3.589 3.589l.947-.947a2.001 2.001 0 001.695-1.695l.947-.947zM12 9a3 3 0 01.888.134L12.02 10H12a2 2 0 00-2 2v.02l-.866.868A3 3 0 0112 9z"/></svg>
