<svg xmlns="http://www.w3.org/2000/svg" viewBox="0 0 24 24"><path d="M20.5 13a.5.5 0 01.492.41l.008.09v2.995a4.503 4.503 0 01-4.288 4.5L16.5 21h-3a.5.5 0 01-.09-.992L13.5 20h3a3.502 3.502 0 003.495-3.312l.005-.193V13.5a.5.5 0 01.5-.5zm-17 0a.5.5 0 01.492.41L4 13.5v2.97c0 1.885 1.465 3.424 3.308 3.525L7.5 20h3a.5.5 0 01.09.992L10.5 21h-3c-2.415 0-4.385-1.915-4.495-4.317L3 16.47V13.5a.5.5 0 01.5-.5zm7.5-1a1 1 0 011 1v2a1 1 0 01-1 1H9a1 1 0 01-1-1v-2a1 1 0 011-1h2zm4.5 1a.5.5 0 01.492.41l.008.09v2a.5.5 0 01-.992.09L15 15.5v-2a.5.5 0 01.5-.5zm-2 1a.5.5 0 01.492.41l.008.09v1a.5.5 0 01-.992.09L13 15.5v-1a.5.5 0 01.5-.5zM11 13H9v2h2v-2zm4-5a1 1 0 011 1v2a1 1 0 01-1 1h-2a1 1 0 01-1-1V9a1 1 0 011-1h2zm-4.5-5a.5.5 0 01.09.992L10.5 4H7.506a3.5 3.5 0 00-3.5 3.3L4 7.49v3.01a.5.5 0 01-.992.09L3 10.5V7.49a4.498 4.498 0 014.294-4.485L7.506 3H10.5zm5.964 0c2.432 0 4.42 1.898 4.531 4.283l.005.212V10.5a.5.5 0 01-.992.09L20 10.5V7.495c0-1.865-1.478-3.39-3.342-3.49L16.464 4H13.5a.5.5 0 01-.09-.992L13.5 3h2.964zM15 9h-2v2h2V9zM8.5 8a.5.5 0 01.492.41L9 8.5v2a.5.5 0 01-.992.09L8 10.5v-2a.5.5 0 01.5-.5zm2 1a.5.5 0 01.492.41L11 9.5v1a.5.5 0 01-.992.09L10 10.5v-1a.5.5 0 01.5-.5z"/></svg>
