<svg viewBox="0 0 24 24" xmlns="http://www.w3.org/2000/svg"><path d="M22.223.334H1.772C.792.334 0 1.107 0 2.064V22.6c0 .956.792 1.734 1.772 1.734h20.451c.98 0 1.777-.778 1.777-1.73V2.064c0-.957-.797-1.73-1.777-1.73zM7.12 20.785H3.558V9.33H7.12v11.456zM5.34 7.768a2.064 2.064 0 1 1 0-4.125 2.063 2.063 0 0 1 0 4.125zm15.112 13.017h-3.558v-5.568c0-1.327-.024-3.038-1.852-3.038-1.851 0-2.133 1.449-2.133 2.944v5.662H9.356V9.33h3.413v1.566h.047c.473-.9 1.636-1.852 3.365-1.852 3.605 0 4.27 2.372 4.27 5.457v6.285z"/></svg>
