<svg xmlns="http://www.w3.org/2000/svg" viewBox="0 0 24 24"><path d="M17.5 4A4.5 4.5 0 0122 8.5v7a4.5 4.5 0 01-4.5 4.5h-11A4.5 4.5 0 012 15.5v-7A4.5 4.5 0 016.5 4zM9.044 15.627l-3.317 3.287c.249.056.507.086.773.086h11a3.5 3.5 0 00.778-.087l-3.346-3.318a4.5 4.5 0 01-5.888.032zM3 9.166V15.5c0 1.28.688 2.4 1.714 3.01l3.627-3.596L3 9.166zm18-.011l-5.37 5.726 3.66 3.627a3.499 3.499 0 001.705-2.816L21 15.5V9.155zM17.5 5h-11a3.501 3.501 0 00-3.425 2.777l6.33 6.813a3.5 3.5 0 004.972.157l.145-.145 6.403-6.827A3.501 3.501 0 0017.5 5z"/></svg>
