<svg xmlns="http://www.w3.org/2000/svg" viewBox="0 0 24 24"><path d="M12 2a8 8 0 018 8c0 2.257-1.565 5.68-4.695 10.27a4 4 0 01-6.486.173l-.124-.172-.28-.414-.535-.81C5.293 15.068 4 12.052 4 10a8 8 0 018-8zm0 1a7 7 0 00-7 7c0 1.873 1.319 4.875 3.981 8.903l.262.393.278.411a3 3 0 004.958 0C17.503 15.273 19 11.997 19 10a7 7 0 00-7-7zm-.26 9.79l.092.005a.45.45 0 01.278.13c.087.09.13.215.13.375v.19l-.005.092a.476.476 0 01-.125.283c-.087.09-.21.135-.37.135h-.1l-.092-.005a.45.45 0 01-.278-.13.518.518 0 01-.13-.375v-.19l.005-.092a.476.476 0 01.125-.283c.087-.09.21-.135.37-.135h.1zm.1-6.17c.427 0 .815.097 1.165.29a2.2 2.2 0 011.145 1.97c0 .4-.088.755-.265 1.065-.177.31-.418.56-.725.75-.307.19-.653.305-1.04.345-.007 0-.008.002-.005.005s.012.002.025-.005v.66l-.008.096a.465.465 0 01-.127.244.447.447 0 01-.335.14.458.458 0 01-.345-.14.438.438 0 01-.125-.34v-.94l.008-.1a.468.468 0 01.462-.39c.447-.013.812-.138 1.095-.375.283-.237.425-.575.425-1.015 0-.38-.13-.695-.39-.945s-.58-.375-.96-.375c-.213 0-.418.045-.615.135-.197.09-.368.212-.515.365-.133.12-.267.18-.4.18a.425.425 0 01-.26-.09c-.147-.107-.22-.23-.22-.37 0-.12.05-.23.15-.33a2.39 2.39 0 01.825-.61c.323-.147.668-.22 1.035-.22z"/></svg>
