<svg xmlns="http://www.w3.org/2000/svg" viewBox="0 0 24 24"><path d="M9 4l.001.06a4.987 4.987 0 012.038.793l.194.137 1.325.985a5 5 0 006.021-.041l.187-.15.109-.092A1.907 1.907 0 0122.006 7l.006.15v7.756a4 4 0 01-1.474 3.102c-1.453 1.183-2.965 1.84-4.537 1.974V20h-.263a4.418 4.418 0 01-.357.002L15 20v-.026c-1.18-.137-2.442-.726-3.783-1.767l-.288-.23A4.413 4.413 0 008.568 17H8v-.02a4.417 4.417 0 00-2.885 1.183 1.846 1.846 0 01-3.097-1.208l-.006-.145V9.448A4 4 0 013.41 6.409l.182-.146 1.633-1.241a4.991 4.991 0 012.776-1.013v-.01h1zm11.105 2.242a.907.907 0 00-.482.139l-.103.075-.11.092A5.988 5.988 0 0116 7.945v11.033c1.334-.132 2.63-.707 3.906-1.746a3 3 0 001.099-2.119l.007-.207V7.15a.907.907 0 00-.907-.908zM9 5.074v10.974a5.406 5.406 0 012.362 1l.2.155c1.267 1.036 2.414 1.613 3.438 1.762V7.938a5.984 5.984 0 01-2.827-1.01l-.212-.15-1.325-.985A3.991 3.991 0 009 5.073zm-2.991.615l-.18.129-1.633 1.241a3 3 0 00-1.178 2.189l-.007.2v7.361a.846.846 0 001.422.62A5.415 5.415 0 018 15.979V5.011a3.992 3.992 0 00-1.99.678z"/></svg>
