<svg xmlns="http://www.w3.org/2000/svg" viewBox="0 0 24 24"><path d="M18 4a4 4 0 014 4v7a4 4 0 01-4 4h-6.893l-2.273 2.644A1 1 0 017.075 21l-.013-2H6a4 4 0 01-4-4V8a4 4 0 014-4h12zm0 1H6a3 3 0 00-2.995 2.824L3 8v7a3 3 0 002.824 2.995L6 18h1.062a1 1 0 01.992.877l.008.116.013 2 2.273-2.645a1 1 0 01.635-.34l.124-.008H18a3 3 0 002.995-2.823L21 15V8a3 3 0 00-2.824-2.995L18 5zm-.5 8a.5.5 0 01.09.992L17.5 14h-11a.5.5 0 01-.09-.992L6.5 13h11zm0-4a.5.5 0 01.09.992L17.5 10h-11a.5.5 0 01-.09-.992L6.5 9h11z"/></svg>
