<svg xmlns="http://www.w3.org/2000/svg" viewBox="0 0 24 24">
  <path d="M10.095 4.244c.396-.4 1.014-.673 1.905-.673s1.509.273 1.905.673c.386.39.524.865.524 1.21v5.092c0 .345-.138.82-.524 1.21-.396.4-1.014.673-1.905.673s-1.509-.273-1.905-.673a1.767 1.767 0 0 1-.524-1.21V5.455c0-.346.138-.821.524-1.211Zm.61.603a.914.914 0 0 0-.276.608v5.09c0 .14.062.392.276.608.204.207.586.418 1.295.418s1.091-.211 1.295-.418a.914.914 0 0 0 .276-.607V5.455a.914.914 0 0 0-.276-.608c-.204-.206-.586-.418-1.295-.418s-1.091.212-1.295.418ZM8 10.571c.237 0 .429.192.429.429 0 .153.061.394.22.685.156.284.391.59.702.873A3.9 3.9 0 0 0 12 13.57a3.9 3.9 0 0 0 2.65-1.013c.31-.282.545-.589.7-.873.16-.291.221-.532.221-.685a.429.429 0 0 1 .858 0c0 .347-.126.731-.326 1.097-.204.371-.5.752-.877 1.095a4.746 4.746 0 0 1-2.797 1.218v4.161h3.321a.429.429 0 0 1 0 .858h-7.5a.429.429 0 0 1 0-.858h3.321v-4.16a4.746 4.746 0 0 1-2.797-1.219 4.292 4.292 0 0 1-.876-1.095c-.2-.366-.327-.75-.327-1.097 0-.237.192-.429.429-.429Z"/>
</svg>
