<svg xmlns="http://www.w3.org/2000/svg" viewBox="0 0 24 24"><path d="M16 2c2.21 0 4 1.728 4 3.86 0 .435-.125.96-.375 1.575a3.53 3.53 0 011.369 2.6l.006.21v8.036c0 1.222-.966 2.219-2.166 2.219a2.12 2.12 0 01-.718-.125l-.17-.07-1.062-.489a3.172 3.172 0 00-2.046-.21l-.227.061-1.008.314a4.17 4.17 0 01-2.976-.19l-.214-.105-.497-.262a3.175 3.175 0 00-2.962-.004l-.183.104-.611.372a2.064 2.064 0 01-2.873-.757 2.177 2.177 0 01-.279-.893L3 18.056v-7.364C3 9.04 4.033 7.58 5.55 7.065l.191-.06 1.256-.35a4.166 4.166 0 012.274.007l.246.079 1.431.508a3.17 3.17 0 001.418.163C12.122 6.806 12 6.289 12 5.859 12 3.728 13.79 2 16 2zM7.478 7.566l-.212.051-1.255.352C4.883 8.285 4.08 9.31 4.006 10.51L4 10.69v7.365c0 .207.054.41.155.586.287.502.883.689 1.38.456l.104-.056.612-.372a4.176 4.176 0 013.91-.239l.22.108.498.262c.689.363 1.477.46 2.224.281l.203-.056 1.008-.313a4.169 4.169 0 012.77.102l.218.093 1.062.489c.148.068.308.103.47.103.6 0 1.1-.477 1.16-1.094L20 18.28v-8.036c0-.732-.307-1.41-.815-1.876-.404.768-.958 1.644-1.663 2.628a1.872 1.872 0 01-2.944.128l-.1-.128-.21-.297c-.611-.872-1.099-1.654-1.462-2.348-.644.128-1.31.1-1.946-.082l-.246-.079-1.432-.508a3.168 3.168 0 00-1.704-.117zm.674 1.972a.5.5 0 01.3.566l-.028.086-.721 1.753a.688.688 0 00.708.946l.112-.02 1.183-.33a1.91 1.91 0 012.173.9l.075.147c.205.448.632.749 1.116.796l.133.006h1.235a.5.5 0 01.09.992l-.09.008h-1.235c-.87 0-1.666-.476-2.08-1.231l-.078-.155a.91.91 0 00-.964-.522l-.108.023-1.182.329a1.688 1.688 0 01-2.065-2.125l.052-.145L7.5 9.81a.5.5 0 01.652-.272zM16 3c-1.665 0-3 1.288-3 2.86 0 .767.624 2.135 1.897 3.993l.394.562a.872.872 0 001.418 0C18.246 8.27 19 6.705 19 5.86 19 4.29 17.665 3 16 3zm0 2a1 1 0 110 2 1 1 0 010-2z"/></svg>
