<svg xmlns="http://www.w3.org/2000/svg" viewBox="0 0 24 24"><path d="M18 4a4 4 0 014 4v7a4 4 0 01-4 4h-6.893l-2.273 2.644A1 1 0 017.075 21l-.013-2H6a4 4 0 01-4-4V8a4 4 0 014-4h12zm0 1H6a3 3 0 00-2.995 2.824L3 8v7a3 3 0 002.824 2.995L6 18h1.062a1 1 0 01.992.877l.008.116.013 2 2.273-2.645a1 1 0 01.635-.34l.124-.008H18a3 3 0 002.995-2.823L21 15V8a3 3 0 00-2.824-2.995L18 5zm-6.26 8.79l.092.005a.45.45 0 01.278.13c.087.09.13.215.13.375v.19l-.005.092a.476.476 0 01-.125.283c-.087.09-.21.135-.37.135h-.1l-.092-.005a.45.45 0 01-.278-.13.518.518 0 01-.13-.375v-.19l.005-.092a.476.476 0 01.125-.283c.087-.09.21-.135.37-.135h.1zm.1-6.17c.427 0 .815.097 1.165.29a2.2 2.2 0 011.145 1.97c0 .4-.088.755-.265 1.065-.177.31-.418.56-.725.75-.307.19-.653.305-1.04.345-.007 0-.008.002-.005.005s.012.002.025-.005v.66l-.008.096a.465.465 0 01-.127.244.447.447 0 01-.335.14.458.458 0 01-.345-.14.438.438 0 01-.125-.34v-.94l.008-.1a.468.468 0 01.462-.39c.447-.013.812-.138 1.095-.375.283-.237.425-.575.425-1.015 0-.38-.13-.695-.39-.945s-.58-.375-.96-.375c-.213 0-.418.045-.615.135-.197.09-.368.212-.515.365-.133.12-.267.18-.4.18a.425.425 0 01-.26-.09c-.147-.107-.22-.23-.22-.37 0-.12.05-.23.15-.33a2.39 2.39 0 01.825-.61c.323-.147.668-.22 1.035-.22z"/></svg>
