<svg xmlns="http://www.w3.org/2000/svg" viewBox="0 0 24 24">
  <path fill-rule="evenodd" d="M6 5h12a3 3 0 0 1 3 3v8a3 3 0 0 1-3 3H6a3 3 0 0 1-3-3V8a3 3 0 0 1 3-3ZM2 8a4 4 0 0 1 4-4h12a4 4 0 0 1 4 4v8a4 4 0 0 1-4 4H6a4 4 0 0 1-4-4V8Zm6.77 6.403a.464.464 0 0 0 .46-.806c-.21-.12-.766-.643-.766-1.597s.557-1.477.766-1.597a.464.464 0 1 0-.46-.806c-.457.261-1.234 1.07-1.234 2.403 0 1.332.777 2.142 1.234 2.403ZM7.403 16.23a.464.464 0 0 1-.633.173c-.79-.451-2.234-1.928-2.234-4.403 0-2.475 1.443-3.951 2.234-4.403a.464.464 0 1 1 .46.806c-.543.31-1.766 1.5-1.766 3.597 0 2.096 1.223 3.287 1.766 3.597.223.127.3.41.173.633ZM12 14a2 2 0 1 0 0-4 2 2 0 0 0 0 4Zm1-2a1 1 0 1 1-2 0 1 1 0 0 1 2 0Zm1.597-2.23c.127-.223.41-.3.633-.173.457.261 1.234 1.07 1.234 2.403 0 1.332-.777 2.142-1.234 2.403a.464.464 0 1 1-.46-.806c.21-.12.766-.643.766-1.597s-.557-1.477-.766-1.597a.464.464 0 0 1-.173-.633Zm2.633-2.173a.464.464 0 0 0-.46.806c.543.31 1.766 1.5 1.766 3.597 0 2.096-1.223 3.287-1.766 3.597a.464.464 0 0 0 .46.806c.79-.451 2.234-1.928 2.234-4.403 0-2.475-1.443-3.951-2.234-4.403Z" />
</svg>
