<svg xmlns="http://www.w3.org/2000/svg" viewBox="0 0 24 24"><path d="M11 21v-.014a8.488 8.488 0 01-1.618-.25.5.5 0 01.248-.969 7.515 7.515 0 001.86.233h1.01a7.5 7.5 0 001.357-14.877l1.141 1.112a.5.5 0 01-.627.773l-.07-.057-2.15-2.093-.007-.009-.01-.008a.51.51 0 01-.032-.039l-.01-.012-.005-.008a.498.498 0 01-.039-.068l-.007-.014a.496.496 0 01-.023-.067l-.003-.011a.5.5 0 01-.013-.073v-.01A.503.503 0 0112 4.5v-.014a.503.503 0 01.006-.065L12 4.5a.502.502 0 01.015-.12l.003-.014a.5.5 0 01.067-.145l.008-.011a.502.502 0 01.066-.076l-.054.059a.503.503 0 01.037-.042l.008-.007.01-.01 2.149-2 .071-.055a.5.5 0 01.61.787l-1.308 1.216A8.502 8.502 0 0113 20.986V21h-2zm-5.32-3.758c.397.486.853.92 1.358 1.294a.5.5 0 01-.595.804 8.547 8.547 0 01-1.538-1.465.5.5 0 01.775-.633zm-2.204-4.85a.5.5 0 01.523.476c.03.632.14 1.25.324 1.846a.5.5 0 01-.956.295 8.478 8.478 0 01-.366-2.093.5.5 0 01.475-.524zm1.53-4.604a.5.5 0 01.153.69 7.464 7.464 0 00-.8 1.695.5.5 0 01-.951-.31 8.47 8.47 0 01.907-1.922.5.5 0 01.69-.153zm4.04-2.924a.5.5 0 01-.285.648 7.483 7.483 0 00-1.646.896.5.5 0 11-.584-.812A8.482 8.482 0 018.397 4.58a.5.5 0 01.648.284z"/></svg>
