<svg xmlns="http://www.w3.org/2000/svg" viewBox="0 0 24 24"><path d="M7 21a.498.498 0 01-.238-.06A4.501 4.501 0 013 16.5v-9A4.5 4.5 0 017.5 3h4.814a4.5 4.5 0 013.184 1.32l4.186 4.19A4.5 4.5 0 0121 11.69v4.81a4.501 4.501 0 01-3.762 4.44A.497.497 0 0117 21zm9.5-7h-9v6h9v-6zM7 4.035A3.5 3.5 0 004 7.5v9a3.502 3.502 0 002.5 3.355V13.5A.5.5 0 017 13h10a.5.5 0 01.5.5v6.355A3.502 3.502 0 0020 16.5v-4.81a3.5 3.5 0 00-1.024-2.474L17 7.238V10H7zM12.314 4H8v5h8V6.329l.007-.084-1.216-1.219a3.5 3.5 0 00-2.263-1.02L12.314 4z"/></svg>
