<svg xmlns="http://www.w3.org/2000/svg" viewBox="0 0 24 24"><path d="M12 4a9 9 0 110 18 9 9 0 010-18zm0 1a8 8 0 100 16 8 8 0 000-16zm-.5 10c1.833 0 3.617.352 5.27 1.028a.5.5 0 11-.38.925A12.906 12.906 0 0011.5 16c-1.25 0-2.475.176-3.647.519a.5.5 0 11-.28-.96A13.98 13.98 0 0111.5 15zm0-3c2.134 0 4.198.477 6.063 1.382a.5.5 0 01-.436.9A12.869 12.869 0 0011.5 13c-1.437 0-2.84.233-4.166.683a.5.5 0 01-.322-.947A13.948 13.948 0 0111.5 12zm0-3c2.435 0 4.776.622 6.83 1.785a.5.5 0 11-.492.87A12.836 12.836 0 0011.5 10c-1.695 0-3.342.324-4.869.944a.5.5 0 01-.376-.926A13.908 13.908 0 0111.5 9z"/></svg>
