<svg xmlns="http://www.w3.org/2000/svg" viewBox="0 0 24 24"><path d="M12 18a.5.5 0 01.492.41l.008.09v2a.5.5 0 01-.992.09l-.008-.09v-2a.5.5 0 01.5-.5zm-4.243-1.757a.5.5 0 01.058.637l-.058.07-1.414 1.414a.5.5 0 01-.765-.638l.058-.07 1.414-1.413a.5.5 0 01.707 0zm9.123-.058l.07.058 1.414 1.414a.5.5 0 01-.638.765l-.07-.058-1.413-1.414a.5.5 0 01.637-.765zM12 7a5 5 0 110 10 5 5 0 010-10zm0 1a4 4 0 100 8 4 4 0 000-8zm8.5 3.5a.5.5 0 01.09.992l-.09.008h-2a.5.5 0 01-.09-.992l.09-.008h2zm-15 0a.5.5 0 01.09.992l-.09.008h-2a.5.5 0 01-.09-.992l.09-.008h2zm12.864-5.864a.5.5 0 01.058.638l-.058.07-1.414 1.413a.5.5 0 01-.765-.637l.058-.07 1.414-1.414a.5.5 0 01.707 0zm-12.09-.058l.07.058L7.756 7.05a.5.5 0 01-.637.765l-.07-.058-1.414-1.414a.5.5 0 01.638-.765zM12 3a.5.5 0 01.492.41l.008.09v2a.5.5 0 01-.992.09L11.5 5.5v-2A.5.5 0 0112 3z"/></svg>
