<svg xmlns="http://www.w3.org/2000/svg" viewBox="0 0 24 24"><path d="M12 21a2.706 2.706 0 002.582-3.513l-.793-2.54A1.5 1.5 0 0115.22 13h3.587a2.323 2.323 0 002.157-3.186l-.938-2.345a4.5 4.5 0 00-.05-.122.459.459 0 00-.05-.11l-.053-.11-.926-1.85A4.118 4.118 0 0015.264 3H8.5c-.744 0-1.413.325-1.87.842A2 2 0 003 5v6a2 2 0 003.357 1.47c.274.324.684.53 1.143.53.409 0 .779.242.943.617L11.673 21zm-7-9a1 1 0 01-.993-.883L4 11V5a1 1 0 011.993-.117L6 5v.5l-.001 5.517-.006.1A1 1 0 015 12zm7.314 7.971l-2.955-6.755A2.029 2.029 0 007.5 12a.5.5 0 01-.5-.5V5.48A1.5 1.5 0 018.5 4h6.764c.88 0 1.705.371 2.287.998L17.5 5a.5.5 0 00-.09.992L17.5 6h.69l.5 1h-.19a.5.5 0 00-.09.992L18.5 8h.661l.4 1H19a.5.5 0 00-.09.992L19 10h.961l.075.186c.047.117.076.24.088.365l.006.126c0 .73-.592 1.323-1.323 1.323H15.22a2.5 2.5 0 00-2.386 3.246l.794 2.54a1.706 1.706 0 01-1.197 2.16l-.117.025z"/></svg>
