<svg xmlns="http://www.w3.org/2000/svg" viewBox="0 0 24 24"><path d="M12 1c6.1 0 11 4.9 11 11s-4.9 11-11 11S1 18.1 1 12 5.9 1 12 1zm0 1.1c-5.5 0-9.9 4.4-9.9 9.9 0 2.7 1.1 5.1 2.8 6.9-.1-.2-.1-.4 0-.6l.1-.1 4-4c.2-.2.6-.2.8 0 .2.2.2.5.1.7l-.1.1-4 4c-.2.2-.5.2-.7.1 1.8 1.8 4.3 2.8 6.9 2.8 5.5 0 9.9-4.4 9.9-9.9S17.5 2.1 12 2.1zm0 .4c.3 0 .5.2.5.5v8.5h8.4c.3 0 .6.2.6.5s-.2.5-.5.5h-8.5V21c0 .3-.2.5-.6.5-.3 0-.5-.2-.5-.5v-8.5H3c-.3 0-.5-.2-.5-.6 0-.3.2-.5.5-.5h8.5V3.1c-.1-.3.2-.6.5-.6zm2.7 11.4l4 4c.2.2.2.6 0 .8-.2.2-.5.2-.7.1l-.1-.1-3.9-3.9c-.2-.2-.2-.6 0-.8.2-.2.5-.2.7-.1zm3.8-8.4c.2.2.2.5.1.7l-.1.1-4.1 4.1c-.2.2-.6.2-.8 0-.2-.2-.2-.5-.1-.7l.1-.1 4.1-4.1c.3-.2.6-.2.8 0zM6 5.2l4.1 4.1c.2.2.2.6 0 .8-.2.2-.5.2-.7.1l-.1-.1-4-4c-.3-.2-.3-.6-.1-.8.2-.2.5-.2.8-.1z" fill-rule="evenodd" clip-rule="evenodd"/></svg>