<svg xmlns="http://www.w3.org/2000/svg" viewBox="0 0 24 24"><path d="M12 2a.5.5 0 01.492.41l.008.09v1.515a8.001 8.001 0 017.485 7.486L21.5 11.5a.5.5 0 01.09.992l-.09.008h-1.515a8.001 8.001 0 01-7.485 7.485V21.5a.5.5 0 01-.992.09l-.008-.09v-1.515A8.001 8.001 0 014.016 12.5H2.5a.5.5 0 01-.09-.992l.09-.008h1.515a8.001 8.001 0 017.486-7.485L11.5 2.5A.5.5 0 0112 2zm.5 3.018V6.5a.5.5 0 01-.992.09L11.5 6.5V5.018A7.001 7.001 0 005.019 11.5H6.5a.5.5 0 01.09.992l-.09.008H5.018a7.001 7.001 0 006.483 6.482L11.5 17.5a.5.5 0 01.992-.09l.008.09v1.482a7.001 7.001 0 006.482-6.482H17.5a.5.5 0 01-.09-.992l.09-.008h1.482A7.001 7.001 0 0012.5 5.019zM12 9a3 3 0 110 6 3 3 0 010-6zm0 1a2 2 0 100 4 2 2 0 000-4z"/></svg>
