<svg xmlns="http://www.w3.org/2000/svg" viewBox="0 0 24 24"><path d="M3.323 1.44a.364.364 0 0 1 .237-.236c1.111-.345 2.262-.09 3.022.672.263.26.469.574.607.923.239.598.275 1.277.104 1.939l3.02 3.02 5.158 5.158c.467.467 2.108 1.838 2.108 1.838s1.811 1.149.068 2.892c-1.743 1.744-2.892-.068-2.892-.068s-1.091-1.36-1.84-2.107l-5.158-5.158-3.02-3.02A3.117 3.117 0 0 1 2.8 7.189a2.68 2.68 0 0 1-.923-.607c-.761-.76-1.017-1.91-.672-3.022a.364.364 0 0 1 .302-.25.197.197 0 0 1 .06-.001c.068.004.13.032.177.08l1.341 1.35 1.322-.34.392-1.246-1.41-1.41a.273.273 0 0 1-.08-.177.197.197 0 0 1 .001-.06.209.209 0 0 1 .014-.065Z"/><path d="m18.796 3.555.477-.149zm-.237-.237-.18.466.016.006.016.005zm-.436 3.259-.353-.354-.002.002zm-.922.607-.184-.465h-.002zm-1.94.104.126-.484-.277-.072-.202.202zm-1.238 1.239-.357.35.354.36.357-.357zM11.49 5.95l-.354-.354-.35.35.347.354zm1.217-1.217.353.353.203-.202-.072-.277zm.104-1.94.464.186v-.001zm.607-.922.352.355.002-.002zM16.44 1.2l.148-.478zm.237.236-.478.149.005.016.006.016zm.014.065-.5.025.002.026.003.026zm0 .06-.494-.076-.004.022-.001.021zm-.08.178-.35-.356h-.002zM15.26 3.079l-.352-.355-.204.202.072.278zm.34 1.322-.484.124.069.27.265.083zm1.247.392-.15.477.29.091.213-.214zm1.41-1.41.354.354.002-.003zm.177-.08.033.5.022-.002.021-.003zm.06 0-.076.495.026.004.026.001zM8.417 14.134l.354.353.347-.348-.341-.353zm-2.511-2.599.359-.348-.353-.365-.36.36zm1.178 3.932.354.353zm-1.839 2.108-.383-.321-.021.025-.018.028zm-2.891.068.353-.354zm.068-2.892.268.422.023-.014.022-.018zm2.107-1.84-.354-.353zm14.744-9.504a.864.864 0 0 0-.565-.566l-.297.955a.139.139 0 0 1-.092-.092zm-.796 3.525c.905-.904 1.191-2.254.796-3.525l-.954.297c.295.952.068 1.904-.549 2.52zm-1.093.718a3.18 3.18 0 0 0 1.095-.72l-.71-.704c-.212.213-.466.38-.752.494zm-2.247.123a3.616 3.616 0 0 0 2.25-.124l-.372-.929a2.617 2.617 0 0 1-1.628.085zm-.76 1.108 1.239-1.239-.708-.707-1.239 1.239zM11.133 6.3l2.533 2.577.714-.7-2.534-2.578zm1.22-1.921-1.217 1.217.707.707 1.217-1.217zm-.007-1.77a3.617 3.617 0 0 0-.123 2.249l.968-.25a2.617 2.617 0 0 1 .084-1.629zm.72-1.093a3.18 3.18 0 0 0-.72 1.094l.93.368c.113-.286.28-.54.494-.752zM16.588.72c-1.27-.395-2.62-.109-3.524.797l.708.706c.615-.617 1.568-.843 2.52-.548zm.566.566a.864.864 0 0 0-.566-.566l-.297.955a.139.139 0 0 1-.092-.092zm.036.19a.706.706 0 0 0-.047-.222l-.933.36a.29.29 0 0 1-.019-.09zm-.005.16a.7.7 0 0 0 0-.213l-.988.153a.302.302 0 0 1 0-.093zm-.222.456a.773.773 0 0 0 .227-.5l-.998-.066a.227.227 0 0 1 .068-.145zm-1.35 1.341 1.35-1.342-.704-.71-1.351 1.342zm.471.842-.34-1.321-.968.249.34 1.321zm.913.04-1.247-.392-.3.954 1.247.392zm.907-1.287-1.41 1.41.706.708 1.41-1.41zm.497-.224a.773.773 0 0 0-.5.227l.712.702a.228.228 0 0 1-.146.069zm.17.005a.697.697 0 0 0-.213 0l.152.988a.303.303 0 0 1-.092 0zm.168.041a.71.71 0 0 0-.22-.047l-.05 1a.291.291 0 0 1-.09-.02zM8.778 13.785l-2.512-2.598-.719.695 2.512 2.598zm-1.34 2.034 1.334-1.333-.707-.707-1.334 1.333zm-2.192 1.755.384.32.004-.004.011-.014.044-.052a100.749 100.749 0 0 1 .681-.804c.406-.473.851-.984 1.069-1.2l-.708-.708c-.25.25-.723.794-1.12 1.258a114.327 114.327 0 0 0-.748.883zM2 17.995c.485.485.966.76 1.436.86.476.102.893.016 1.228-.14.328-.153.576-.37.738-.542a2.661 2.661 0 0 0 .262-.327l.002-.003h.001v-.001l-.422-.268-.422-.269h.001v-.002l-.004.007-.027.037a1.65 1.65 0 0 1-.118.139c-.108.114-.256.24-.433.322a.918.918 0 0 1-.597.07c-.235-.05-.551-.203-.938-.59zm.422-3.245-.268-.422-.002.001-.003.002-.008.005-.022.015-.073.053a2.665 2.665 0 0 0-.224.19c-.17.161-.389.41-.541.737a1.917 1.917 0 0 0-.141 1.228c.1.47.375.951.86 1.436l.707-.707c-.387-.386-.54-.703-.59-.938a.918.918 0 0 1 .07-.597c.083-.177.208-.325.323-.433a1.672 1.672 0 0 1 .175-.145l.007-.004H2.69v.001zm1.753-2.193a23.25 23.25 0 0 1-1.303 1.172 47.534 47.534 0 0 1-.749.62l-.01.008-.003.003h-.001l.313.39.313.39.001-.001.003-.002.012-.01.046-.037a43.813 43.813 0 0 0 .72-.598c.436-.367.976-.838 1.366-1.228zm1.377-1.377-1.377 1.377.708.707 1.376-1.376z"/></svg>
