<svg xmlns="http://www.w3.org/2000/svg" viewBox="0 0 24 24"><path d="M3.323 1.44a.364.364 0 0 1 .237-.236c1.111-.345 2.262-.09 3.022.672.263.26.469.574.607.923.239.598.275 1.277.104 1.939l3.02 3.02 5.158 5.158c.467.467 2.108 1.838 2.108 1.838s1.811 1.149.068 2.892c-1.743 1.744-2.892-.068-2.892-.068s-1.091-1.36-1.84-2.107l-5.158-5.159-3.02-3.02A3.117 3.117 0 0 1 2.8 7.19a2.68 2.68 0 0 1-.923-.607c-.761-.76-1.017-1.91-.672-3.022a.364.364 0 0 1 .302-.25.197.197 0 0 1 .06-.001c.068.004.13.032.177.08l1.341 1.35 1.322-.34.392-1.246-1.41-1.41a.273.273 0 0 1-.08-.177.197.197 0 0 1 .001-.06.209.209 0 0 1 .014-.065M18.56 3.318l-.181.466.016.006.016.005zm.236.237.477-.149zm-.302-.251-.076.494.026.004.026.001zm-.06 0 .033.499.022-.002.021-.003zm-.177.079.354.354.002-.003zm-1.41 1.41-.15.477.29.091.213-.214zM15.6 4.401l-.484.124.069.27.265.083zm-.34-1.322-.352-.355-.204.202.072.278zm1.351-1.342-.35-.355h-.002zm.08-.177-.494-.076-.004.022-.001.021zm0-.06-.5.025.002.026.003.026zm-.014-.065-.478.149.005.016.006.016zm-.237-.237.148-.477zm-3.022.673.352.355.002-.002zm-.607.923.464.185v-.001zm-.104 1.939.353.353.203-.202-.072-.277zm-1.29 1.289-.353-.354-.353.354.353.353zm2.556 2.555-.354.353.354.354.353-.354zm1.289-1.29.125-.483-.277-.072-.202.202zm1.939-.103-.184-.465h-.002zm.922-.607-.353-.354-.002.002zm-9.532 7.382.353.353.357-.357-.36-.353zm-2.581-2.53.35-.357-.354-.346-.35.35zm-1.481 1.482-.354-.354zm-2.107 1.84.268.421.023-.014.022-.018zm-.068 2.89.353-.353zm2.891-.067-.383-.321-.021.025-.018.028zm1.839-2.109.354.354zm11.327-11.67a.139.139 0 0 1-.092-.092l.954-.297a.864.864 0 0 0-.565-.566zm.059.008a.291.291 0 0 1-.091-.019l.36-.933a.709.709 0 0 0-.22-.047zm.04-.005a.303.303 0 0 1-.092 0l.152-.988a.696.696 0 0 0-.212 0zm.103-.064a.228.228 0 0 1-.146.069l-.066-.998a.773.773 0 0 0-.5.227zM17.2 5.147l1.41-1.41-.706-.708-1.41 1.41zm-1.75-.27 1.247.393.3-.954-1.247-.392zm-.674-1.673.34 1.321.968-.249-.34-1.321zm1.483-1.821-1.351 1.341.704.71 1.352-1.342zm-.067.144a.227.227 0 0 1 .068-.145l.703.711a.773.773 0 0 0 .227-.5zm.005.05a.302.302 0 0 1 0-.093l.988.153a.7.7 0 0 0 0-.213zm.013.039a.29.29 0 0 1-.019-.091l.999-.049a.706.706 0 0 0-.047-.22zm.081.06a.14.14 0 0 1-.092-.092l.955-.297a.864.864 0 0 0-.566-.566zm-2.52.548c.616-.617 1.569-.843 2.52-.548l.297-.955c-1.27-.395-2.62-.109-3.524.797zm-.495.754c.113-.286.28-.54.494-.752l-.704-.71a3.18 3.18 0 0 0-.72 1.094zm-.085 1.63a2.618 2.618 0 0 1 .084-1.629l-.929-.37a3.617 3.617 0 0 0-.123 2.249zm-1.42 1.767 1.29-1.289-.708-.707-1.289 1.289zm-.707 0L13.62 8.93l.707-.707-2.555-2.555zm3.844.56L13.62 8.222l.707.707 1.29-1.289zm2.107-.216a2.617 2.617 0 0 1-1.628.085l-.25.968a3.616 3.616 0 0 0 2.25-.124zm.753-.494a2.18 2.18 0 0 1-.751.494l.367.93a3.18 3.18 0 0 0 1.095-.72zm.55-2.522c.296.952.07 1.904-.548 2.52l.707.708c.905-.904 1.191-2.254.796-3.525zm-9.377 9.899-2.581-2.53-.7.715 2.58 2.529zm-4.058-.338 1.48-1.48-.707-.708-1.48 1.48zM2.422 14.75l.313.39.001-.001.003-.002.012-.01.046-.037a43.813 43.813 0 0 0 .72-.598c.436-.367.976-.838 1.366-1.228l-.708-.707a23.25 23.25 0 0 1-1.303 1.172 47.534 47.534 0 0 1-.705.584l-.044.035-.01.01c-.002 0-.003.001-.003.002h-.001zm.285 2.538c-.387-.386-.54-.703-.59-.938a.918.918 0 0 1 .07-.597c.083-.177.208-.325.323-.433a1.672 1.672 0 0 1 .175-.145l.007-.004H2.69v.001l-.268-.422-.268-.422-.002.001-.003.002a2.462 2.462 0 0 0-.869 1 1.917 1.917 0 0 0-.14 1.228c.1.47.375.951.86 1.436zm2.538.286-.422-.269h.001v-.002l-.004.007-.027.037a1.666 1.666 0 0 1-.118.139c-.108.114-.256.24-.433.322a.918.918 0 0 1-.597.07c-.235-.05-.551-.203-.938-.59L2 17.995c.485.485.966.76 1.437.86.475.102.892.016 1.227-.14.328-.153.576-.37.738-.542a2.661 2.661 0 0 0 .257-.319l.005-.008.002-.003h.001v-.001zm1.485-2.462c-.25.25-.723.794-1.12 1.258a107.04 107.04 0 0 0-.688.81l-.045.054-.011.014-.003.004h-.001l.383.322.384.32.004-.004.011-.014.044-.052a100.749 100.749 0 0 1 .681-.804c.406-.473.851-.984 1.069-1.2zm1.507-1.507L6.73 15.112l.708.707 1.506-1.507z"/></svg>