<svg xmlns="http://www.w3.org/2000/svg" viewBox="0 0 24 24"><path d="M16 3c2.21 0 4 1.728 4 3.86 0 1.118-.826 2.83-2.478 5.137a1.872 1.872 0 01-2.944.128l-.1-.128-.21-.297C12.755 9.543 12 7.929 12 6.86 12 4.727 13.79 3 16 3zm0 1c-1.665 0-3 1.288-3 2.86 0 .767.624 2.135 1.897 3.993l.394.562a.872.872 0 001.418 0C18.246 9.27 19 7.705 19 6.86 19 5.29 17.665 4 16 4z"/><path d="M16 6a1 1 0 110 2 1 1 0 010-2z"/><path fill-opacity=".08" d="M11.763 20.62h4.318a1.796 1.796 0 001.503-2.78l-.273-.416a5.914 5.914 0 00-4.36-2.644 5.96 5.96 0 01-4.375-2.634L6.819 9.5A1.81 1.81 0 003.5 10.502v5.987a4.131 4.131 0 004.131 4.131h4.132z"/><path d="M4.033 8.576A2.31 2.31 0 003 10.502v5.987a4.631 4.631 0 004.631 4.631h8.45a2.296 2.296 0 001.92-3.553l-.272-.417a6.414 6.414 0 00-4.467-2.836L13 14.283a5.46 5.46 0 01-4.007-2.414L7.236 9.223a2.31 2.31 0 00-3.203-.647zm2.37 1.2l1.756 2.646a6.46 6.46 0 004.468 2.823l.274.033a5.414 5.414 0 013.992 2.42l.272.416a1.296 1.296 0 01-1.084 2.006h-8.45A3.631 3.631 0 014 16.49v-5.988a1.31 1.31 0 012.403-.725z"/></svg>
