<svg viewBox="0 0 24 24" xmlns="http://www.w3.org/2000/svg"><path d="M3.784 2.589l.07.057L5.207 4H19.5a2.5 2.5 0 0 1 2.495 2.336L22 6.5V11h.5a.5.5 0 0 1 .09.992L22.5 12H22v5.5a2.5 2.5 0 0 1-2.336 2.495L19.5 20h-15A2.5 2.5 0 0 1 2 17.5v-11c0-1.164.796-2.142 1.873-2.42l-.727-.726a.5.5 0 0 1 .638-.765zM19.5 9h-15A2.489 2.489 0 0 1 3 8.5v9A1.5 1.5 0 0 0 4.5 19h15a1.5 1.5 0 0 0 1.5-1.5l.001-9c-.418.314-.938.5-1.501.5zm0-4h-15a1.5 1.5 0 0 0-.144 2.993L4.5 8h15a1.5 1.5 0 0 0 .144-2.993L19.5 5z"/></svg>
