<svg xmlns="http://www.w3.org/2000/svg" viewBox="0 0 24 24">
  <path d="M15.574 6.017a.48.48 0 0 1 .547.234l.04.079-.01-.01.771 2.207a.885.885 0 0 1-.068.753l-1.886 3.233a3.46 3.46 0 0 1-2.715 1.651h-.274l.606 1.73a.486.486 0 0 1-.215.585.494.494 0 0 1-.664-.185l-.04-.078-.722-2.052H9.81a3.42 3.42 0 0 1-1.992 3.537 3.42 3.42 0 0 1-4.758-2.492c-.254-1.29.313-2.657 1.387-3.428a3.422 3.422 0 0 1 5.09 1.396h1.065L9.215 9.212h-.83a.483.483 0 0 1-.48-.4.502.502 0 0 1 .391-.577h2.071c.235 0 .44.166.479.4a.502.502 0 0 1-.39.577h-.206l1.387 3.966h.44c.791 0 1.524-.39 1.963-1.035l.098-.147 1.895-3.116-.645-1.817-.517.137a.488.488 0 0 1-.567-.264l-.03-.078a.488.488 0 0 1 .265-.567l.088-.029.947-.244Zm-11.596 8.44a2.444 2.444 0 0 0 2.863 2.54v-.01a2.432 2.432 0 0 0 1.983-2.823h-2.13a.483.483 0 0 1-.478-.4.502.502 0 0 1 .39-.577h1.817a2.453 2.453 0 0 0-3.272-.693 2.416 2.416 0 0 0-1.173 1.963ZM16.864 17.857a.828.828 0 0 0 .42.117l-.02.01c.079 0 .147-.01.215-.03.205-.048.391-.175.557-.41l2.012-3.448a1.09 1.09 0 0 0 .108-.332 1.062 1.062 0 0 0-.176-.674c-.146-.196-.342-.333-.567-.362l-.097-.02a.536.536 0 0 1-.332-.195.652.652 0 0 1-.118-.43l.372-2.13a.916.916 0 0 0-.098-.488.745.745 0 0 0-.352-.322.816.816 0 0 0-.605-.068c-.196.048-.381.185-.538.41l-1.953 3.546a.828.828 0 0 0-.098.303c-.01.234.049.459.176.645a.81.81 0 0 0 .537.341l.098.02c.107.01.215.068.283.166a.634.634 0 0 1 .108.371l-.381 2.15a.95.95 0 0 0 .097.498.723.723 0 0 0 .352.332Zm.605-3.937a1.43 1.43 0 0 0-.85-.537h-.01l1.525-2.794-.244 1.426c-.03.4.078.791.312 1.094.235.303.567.498.957.567l-1.68 2.901.284-1.622a1.54 1.54 0 0 0-.294-1.035Z" />
</svg>
