<svg xmlns="http://www.w3.org/2000/svg" viewBox="0 0 24 24"><path d="M13.042 1.784a1.95 1.95 0 012.264.71l.114.147c.357.425.87.693 1.427.743l.155.02a1.95 1.95 0 011.614 1.75l.025.183c.097.546.407 1.035.865 1.357l.13.1a1.95 1.95 0 01.517 2.317l-.07.171c-.189.522-.165 1.1.07 1.607l.063.153a1.95 1.95 0 01-.71 2.264l-.147.114a2.11 2.11 0 00-.743 1.427l-.02.155a1.95 1.95 0 01-1.75 1.614l-.183.025a2.112 2.112 0 00-.667.24v3.504a1.61 1.61 0 01-2.396 1.404l-.14-.088-.6-.422a1.5 1.5 0 00-1.59-.084l-.133.083-.606.424a1.616 1.616 0 01-2.534-1.158l-.008-.165v-3.506a2.112 2.112 0 00-.836-.257l-.155-.02a1.95 1.95 0 01-1.614-1.75l-.025-.183a2.112 2.112 0 00-.865-1.357l-.13-.1a1.95 1.95 0 01-.517-2.317l.07-.171c.189-.522.165-1.1-.07-1.607l-.063-.153a1.95 1.95 0 01.71-2.264l.147-.114a2.11 2.11 0 00.743-1.427l.02-.155a1.95 1.95 0 011.75-1.614l.183-.025a2.112 2.112 0 001.357-.865l.1-.13a1.95 1.95 0 012.317-.517l.171.07c.522.189 1.1.165 1.607-.07zM8.988 17.837v2.542a.616.616 0 00.883.555l.087-.051.605-.425a2.5 2.5 0 012.708-.103l.165.106.6.422a.61.61 0 00.952-.4l.008-.098.002-2.535a1.95 1.95 0 01-2.109.303l-.171-.07a2.112 2.112 0 00-1.607.07l-.153.063a1.95 1.95 0 01-1.97-.379zM10.69 2.754a.95.95 0 00-1.177.315 3.112 3.112 0 01-2.27 1.31.95.95 0 00-.862.863 3.112 3.112 0 01-1.31 2.27.95.95 0 00-.316 1.177c.386.832.386 1.79 0 2.622a.95.95 0 00.315 1.177 3.112 3.112 0 011.31 2.27.95.95 0 00.863.862 3.116 3.116 0 012.27 1.31.95.95 0 001.177.316 3.112 3.112 0 012.622 0 .95.95 0 001.177-.315 3.112 3.112 0 012.27-1.31.95.95 0 00.862-.863 3.112 3.112 0 011.31-2.27.95.95 0 00.316-1.177 3.112 3.112 0 010-2.622.95.95 0 00-.315-1.177 3.112 3.112 0 01-1.31-2.27.95.95 0 00-.863-.862 3.112 3.112 0 01-2.27-1.31l-.07-.09a.95.95 0 00-1.107-.226 3.112 3.112 0 01-2.622 0zm2.13 3.193a1.657 1.657 0 011.56.733l.13.183a3.3 3.3 0 00.81.758l.126.092c.48.385.709 1.01.584 1.622l-.037.22c-.05.37-.037.744.037 1.11l.024.153a1.657 1.657 0 01-.733 1.56l-.183.13c-.296.226-.553.5-.758.812l-.092.125c-.385.48-1.01.709-1.622.584l-.22-.037a3.327 3.327 0 00-1.11.037l-.153.024a1.657 1.657 0 01-1.56-.733l-.13-.183a3.327 3.327 0 00-.812-.758l-.125-.092a1.657 1.657 0 01-.584-1.622l.037-.22c.05-.37.037-.744-.037-1.11l-.024-.153a1.657 1.657 0 01.733-1.56l.183-.13c.296-.226.553-.5.758-.812l.092-.125a1.654 1.654 0 011.622-.584l.22.037c.37.05.744.037 1.11-.037zm.145.991l-.099.013a4.327 4.327 0 01-1.73 0 .657.657 0 00-.68.28 4.327 4.327 0 01-1.223 1.225.657.657 0 00-.281.679c.116.57.116 1.16 0 1.73a.657.657 0 00.28.68c.487.32.903.737 1.225 1.223a.657.657 0 00.679.281 4.327 4.327 0 011.73 0 .657.657 0 00.68-.28 4.327 4.327 0 011.223-1.225.657.657 0 00.281-.679 4.327 4.327 0 010-1.73.657.657 0 00-.28-.68 4.327 4.327 0 01-1.225-1.223.657.657 0 00-.679-.281z"/></svg>
