<svg xmlns="http://www.w3.org/2000/svg" viewBox="0 0 24 24"><path d="M10.5 4a.5.5 0 01.5.5V6h2V4.5a.5.5 0 01.41-.492L13.5 4h5a.5.5 0 01.5.5l.001 1.756A4.502 4.502 0 0122 10.5v5a4.5 4.5 0 01-4.5 4.5h-11A4.5 4.5 0 012 15.5v-5a4.502 4.502 0 013-4.244V4.5a.5.5 0 01.5-.5zm7 3h-11A3.5 3.5 0 003 10.5v5A3.5 3.5 0 006.5 19h11a3.5 3.5 0 003.5-3.5v-5A3.5 3.5 0 0017.5 7zM16 10.5a.5.5 0 01.492.41l.008.09v1.496H18a.5.5 0 01.09.992l-.09.008h-1.5v1.511a.5.5 0 01-.992.09l-.008-.09v-1.511H14a.5.5 0 01-.09-.992l.09-.008h1.5V11a.5.5 0 01.5-.5zm-6 1.996a.5.5 0 01.09.992l-.09.008H6a.5.5 0 01-.09-.992l.09-.008h4zM10 5H6v1h4V5zm8 0h-4v1h4V5z"/></svg>
