<svg viewBox="0 0 24 24" xmlns="http://www.w3.org/2000/svg">
<path fill-rule="evenodd" d="M14.8771 2.51414C15.1227 2.45463 15.374 2.5877 15.4629 2.82424L15.825 3.78809H20C20.154 3.78809 20.2994 3.85902 20.3941 3.98038C20.4889 4.10174 20.5224 4.25998 20.4851 4.40935L19.9851 6.40935C19.9294 6.63194 19.7294 6.78809 19.5 6.78809H16.952L17.4656 8.15537C17.7925 8.05438 18.1399 8 18.5 8C20.433 8 22 9.567 22 11.5C22 13.433 20.433 15 18.5 15C16.567 15 15 13.433 15 11.5C15 10.2848 15.6193 9.21431 16.5594 8.58679L15.5755 5.96746L13.4473 10.2237C13.3238 10.4707 13.0235 10.5708 12.7765 10.4473C12.5295 10.3238 12.4294 10.0235 12.5529 9.7765L15.0529 4.7765C15.0664 4.74943 15.0821 4.72412 15.0996 4.70068L14.6824 3.59024L14.1179 3.72703C13.8495 3.79206 13.5792 3.62721 13.5142 3.35884C13.4491 3.09046 13.614 2.82018 13.8824 2.75516L14.8771 2.51414ZM17.5321 11.1759L16.9246 9.55877C16.3604 10.0171 16 10.7165 16 11.5C16 12.8807 17.1193 14 18.5 14C19.8807 14 21 12.8807 21 11.5C21 10.1193 19.8807 9 18.5 9C18.2636 9 18.035 9.0328 17.8182 9.09409L18.4682 10.8242C18.5653 11.0827 18.4345 11.371 18.1759 11.4681C17.9174 11.5652 17.6292 11.4344 17.5321 11.1759ZM8 12C8 13.1046 7.10457 14 6 14C4.89543 14 4 13.1046 4 12C4 10.8954 4.89543 10 6 10C7.10457 10 8 10.8954 8 12ZM7.95541 14.2752C8.59498 13.7251 9 12.9098 9 12C9 10.3431 7.65685 9 6 9C4.34315 9 3 10.3431 3 12C3 12.9098 3.40502 13.7251 4.04459 14.2752C2.84187 14.794 2 15.9904 2 17.3835C2 18.8285 3.17147 20 4.61654 20H7.38346C8.82853 20 10 18.8285 10 17.3835C10 15.9904 9.15813 14.794 7.95541 14.2752ZM6 15H5.38346C4.06711 15 3 16.0671 3 17.3835C3 18.2762 3.72375 19 4.61654 19H7.38346C8.27625 19 9 18.2762 9 17.3835C9 16.0671 7.93289 15 6.61654 15H6ZM16.5865 5.78809L16.2175 4.78809H19.3596L19.1096 5.78809H16.5865Z"/>
</svg>
