<svg xmlns="http://www.w3.org/2000/svg" viewBox="0 0 24 24"><path d="M12.5 4A4.5 4.5 0 0117 8.5v.287l2.805-1.466a1.5 1.5 0 011.952.51l.072.125a1.5 1.5 0 01.171.695v6.735a1.5 1.5 0 01-2.168 1.343L17 15.32v.18a4.5 4.5 0 01-4.288 4.495L12.5 20h-6A4.5 4.5 0 012 15.5v-7A4.5 4.5 0 016.5 4zm0 1h-6A3.5 3.5 0 003 8.5v7A3.5 3.5 0 006.5 19h6a3.5 3.5 0 003.5-3.5v-7A3.5 3.5 0 0012.5 5zm8.394 3.343a.5.5 0 00-.626-.135L17 9.914v4.289l3.277 1.63a.5.5 0 00.146.047l.077.006a.5.5 0 00.5-.5V8.65a.5.5 0 00-.057-.232z"/></svg>
