<svg xmlns="http://www.w3.org/2000/svg" viewBox="0 0 24 24"><path d="M20.5 13a.5.5 0 01.492.41l.008.09v2.995a4.503 4.503 0 01-4.288 4.5L16.5 21h-3a.5.5 0 01-.09-.992L13.5 20h3a3.502 3.502 0 003.495-3.312l.005-.193V13.5a.5.5 0 01.5-.5zm-17 0a.5.5 0 01.492.41L4 13.5v2.97c0 1.885 1.465 3.424 3.308 3.525L7.5 20h3a.5.5 0 01.09.992L10.5 21h-3c-2.415 0-4.385-1.915-4.495-4.317L3 16.47V13.5a.5.5 0 01.5-.5zm17-10h.012c.02 0 .041.002.062.005L20.5 3a.502.502 0 01.354.147l.011.012a.503.503 0 01.033.039l-.044-.051a.502.502 0 01.138.263l.003.018A.503.503 0 0121 3.48v5.022a.5.5 0 01-.992.09L20 8.501V4.706L8.314 16.386a.5.5 0 01-.765-.638l.058-.07L19.293 4h-3.787a.5.5 0 01-.492-.41l-.008-.09a.5.5 0 01.41-.492l.09-.008H20.5zm-10 0a.5.5 0 01.09.992L10.5 4H7.506a3.5 3.5 0 00-3.5 3.3L4 7.49v3.01a.5.5 0 01-.992.09L3 10.5V7.49a4.498 4.498 0 014.294-4.485L7.506 3H10.5z"/></svg>
