<svg xmlns="http://www.w3.org/2000/svg" viewBox="0 0 24 24"><path d="M7 21.5a4.5 4.5 0 01-4.495-4.288L2.5 17V7.033a4.5 4.5 0 014.288-4.495L7 2.533h10a4.5 4.5 0 014.495 4.288l.005.212.002 2.11a4.482 4.482 0 01.919 3.823l-.926 4.206v.046a4.5 4.5 0 01-4.283 4.277L17 21.5H7zm11.025-13H9.073a3.5 3.5 0 00-3.418 2.748l-1.099 5A3.5 3.5 0 007.975 20.5h8.952a3.5 3.5 0 003.418-2.749l1.099-5A3.5 3.5 0 0018.025 8.5zM17 3.533H7a3.5 3.5 0 00-3.495 3.308l-.005.192v9.481a4.5 4.5 0 01.08-.48l1.098-5A4.5 4.5 0 019.073 7.5h8.952c.915 0 1.766.273 2.476.741L20.5 7.033a3.5 3.5 0 00-3.308-3.495L17 3.533z"/></svg>
