<svg xmlns="http://www.w3.org/2000/svg" viewBox="0 0 24 24"><path d="M11.999 5.318l-.048-.094a4.499 4.499 0 00-5.247-2.153l-.098.03a4.691 4.691 0 00-2.63 6.974l5.903 9.467a2.5 2.5 0 004.242 0l5.903-9.467a4.691 4.691 0 00-2.63-6.975l-.098-.03a4.502 4.502 0 00-5.18 2.034L12 5.318zM8 3.88a3.5 3.5 0 013.5 3.5l.009.104c.091.52.872.531.979.014l.012-.133.007-.204a3.5 3.5 0 014.501-3.133l.098.03a3.691 3.691 0 012.07 5.488l-5.903 9.467a1.5 1.5 0 01-2.546 0L4.825 9.546a3.691 3.691 0 012.069-5.488l.098-.03A3.5 3.5 0 018 3.88z"/></svg>
