<svg xmlns="http://www.w3.org/2000/svg" viewBox="0 0 24 24"><path d="M7.588 5.06a6.072 6.072 0 015.108-2.005l2.817.267a5.79 5.79 0 015.169 6.692l-.71 4.38a.5.5 0 01-.494.42h-4.134c-.012 0-.023 0-.035-.002a5.969 5.969 0 01-3.264 1.16l-.283.007h-1.136l-1.67 3.726a.5.5 0 01-.942-.324l.03-.085 1.972-4.402V10.83h-.177a.5.5 0 01-.084-.007l-.082-.02-.077-.035-1.542-.856H4.033a.998.998 0 01-.992-.88l-.006-.117c0-.4.239-.762.607-.918l1.834-.781a1.5 1.5 0 00.533-.383zm6.261 5.77h-2.833v4.149h.746a4.984 4.984 0 002.973-.983l-.886-3.166zm-1.248-6.78a5.072 5.072 0 00-4.266 1.676l-1.58 1.773a2.5 2.5 0 01-.887.637l-1.826.776h4.143a.5.5 0 01.165.03l.077.034 1.54.854h4.262a.5.5 0 01.452.288l.03.078 1.012 3.617h3.329l.655-4.038.028-.236A4.791 4.791 0 0016 4.409v1.137a.5.5 0 01-.992.09L15 5.546V4.278l-1-.095v1.363a.5.5 0 01-.992.09L13 5.546V4.088z"/></svg>
