<svg xmlns="http://www.w3.org/2000/svg" viewBox="0 0 24 24"><path d="M14.135 3.654l5 3.155A4 4 0 0121 10.192v7.187a3.49 3.49 0 01-3.49 3.49h-1.49a2 2 0 01-2-2v-1.872a1.997 1.997 0 00-3.995 0v1.872a2 2 0 01-2 2H6.512A3.512 3.512 0 013 17.357v-7.165a4 4 0 011.865-3.383l5-3.155a4 4 0 014.27 0zM13.6 4.5a3 3 0 00-3.015-.109l-.187.109-5 3.154a3 3 0 00-1.392 2.333L4 10.192v7.165a2.512 2.512 0 002.347 2.507l.165.005h1.513a1 1 0 00.993-.884l.007-.116v-1.872a2.997 2.997 0 015.99-.176l.005.176v1.872a1 1 0 00.883.993l.117.007h1.49a2.49 2.49 0 002.485-2.327L20 17.38v-7.187a3 3 0 00-1.23-2.422l-.17-.116-5-3.154z"/></svg>
