<svg xmlns="http://www.w3.org/2000/svg" viewBox="0 0 24 24"><path d="M12 2c5.523 0 10 4.477 10 10s-4.477 10-10 10S2 17.523 2 12 6.477 2 12 2zm0 1a9 9 0 100 18 9 9 0 000-18zm0 6.58c.208 0 .38.07.516.21a.72.72 0 01.204.522v4.956l-.008.12A.701.701 0 0112 16a.689.689 0 01-.516-.21.72.72 0 01-.204-.522v-4.956l.008-.12A.701.701 0 0112 9.58zm0-2.208c.28 0 .476.044.588.132.112.088.168.244.168.468V8.2l-.005.11c-.016.173-.072.294-.169.364-.116.084-.314.126-.594.126-.272 0-.464-.044-.576-.132-.112-.088-.168-.244-.168-.468v-.228l.005-.106c.017-.168.075-.289.175-.362.12-.088.312-.132.576-.132z"/></svg>
