<svg xmlns="http://www.w3.org/2000/svg" viewBox="0 0 24 24"><path d="M16.806 6.129a1.078 1.078 0 101.078 1.078 1.078 1.078 0 00-1.078-1.078z"/><path d="M21.009 10.609c0-1.2-.012-1.554-.055-2.281a6.581 6.581 0 00-.421-2.217A4.605 4.605 0 0017.9 3.479a6.606 6.606 0 00-2.186-.42c-.924-.04-1.243-.053-3.427-.054h-1.075c-1.734 0-2.078.006-2.918.054a6.554 6.554 0 00-2.184.42 4.6 4.6 0 00-2.633 2.632A6.585 6.585 0 003.058 8.3C3.017 9.221 3 9.539 3 11.724v.83c0 1.949 0 2.283.056 3.163a6.6 6.6 0 00.421 2.183 4.61 4.61 0 002.634 2.632 6.584 6.584 0 002.185.45c.847.037 1.185.051 2.918.054h2.221c1.2 0 1.555-.012 2.281-.054a6.615 6.615 0 002.186-.419 4.613 4.613 0 002.633-2.633 6.585 6.585 0 00.419-2.186c.038-.847.052-1.184.055-2.918zm-1.641 2.932c0 1.076-.011 1.4-.042 2.1h-.011a5.043 5.043 0 01-.315 1.69 2.987 2.987 0 01-1.712 1.711 4.985 4.985 0 01-1.67.311c-.84.039-1.147.052-2.893.055h-2.131c-1.217 0-1.536-.012-2.281-.054a4.959 4.959 0 01-1.669-.311 2.985 2.985 0 01-1.719-1.711 5.081 5.081 0 01-.311-1.669c-.041-.913-.052-1.2-.053-3.382v-.8c0-1.955 0-2.236.053-3.13a5.038 5.038 0 01.311-1.687 2.986 2.986 0 011.719-1.71 5.009 5.009 0 011.669-.311c.914-.041 1.2-.054 3.383-.055h1.033c1.743 0 2.038.006 2.893.055a4.961 4.961 0 011.67.311A2.991 2.991 0 0119 6.666a5.081 5.081 0 01.311 1.669c.036.8.05 1.12.053 2.674z"/><path d="M12 7.377A4.624 4.624 0 1016.622 12 4.623 4.623 0 0012 7.377zM12 15a3 3 0 113-3 3 3 0 01-3 3z"/></svg>
