<svg xmlns="http://www.w3.org/2000/svg" viewBox="0 0 24 24"><path d="M17.5 4A4.5 4.5 0 0122 8.5v7a4.5 4.5 0 01-4.5 4.5h-11A4.5 4.5 0 012 15.5v-7A4.5 4.5 0 016.5 4zm0 1h-11A3.5 3.5 0 003 8.5v7A3.5 3.5 0 006.5 19h11a3.5 3.5 0 003.5-3.5v-7A3.5 3.5 0 0017.5 5zM6.663 12.606a2.212 2.212 0 013.72-.827l.947 1.012a.9.9 0 001.272.043l.16-.16a1.519 1.519 0 012.384.48l1.305 2.744a.5.5 0 01-.451.715H6.048a.5.5 0 01-.475-.655zm2.359-.502c-.6-.13-1.214.214-1.408.81l-.878 2.698h8.472l-.965-2.028a.519.519 0 00-.073-.113l-.046-.048a.519.519 0 00-.733.034l-.107.108a1.9 1.9 0 01-2.684-.09l-.947-1.013a1.212 1.212 0 00-.511-.325zM16 8a2 2 0 110 4 2 2 0 010-4zm0 1a1 1 0 100 2 1 1 0 000-2z"/></svg>
