<svg xmlns="http://www.w3.org/2000/svg" viewBox="0 0 24 24"><path d="M16 2c2.21 0 4 1.728 4 3.86 0 .05-.002.101-.005.154l.01-.008A9.956 9.956 0 0122 12c0 5.523-4.477 10-10 10S2 17.523 2 12 6.477 2 12 2c.694 0 1.38.07 2.049.21l.399.092.177-.068A4.123 4.123 0 0116 2zm-4 1a8.98 8.98 0 00-6.81 3.116l3.077 1.989A2.803 2.803 0 019.48 11.07l-.047.18a1.64 1.64 0 00.654 1.819l.13.08.526.288a2.148 2.148 0 01.533 3.353l-.129.126-3.368 3.036A8.96 8.96 0 0012 21a8.959 8.959 0 004.447-1.174l-.604-1.604a4.087 4.087 0 015.112-5.32 8.957 8.957 0 00-1.276-5.6l-.058.143c-.394.964-1.093 2.148-2.099 3.552a1.872 1.872 0 01-1.352.775l-.16.008a1.87 1.87 0 01-1.432-.655l-.1-.128-.21-.297C12.755 8.543 12 6.929 12 5.86c0-1.09.468-2.075 1.222-2.777A8.991 8.991 0 0012 3zm-9 9a8.99 8.99 0 003.889 7.409l3.59-3.235a1.148 1.148 0 00-.11-1.794l-.107-.066-.525-.29a2.639 2.639 0 01-1.306-2.886l.044-.17a1.803 1.803 0 00-.622-1.932l-.129-.091L4.577 6.91A8.958 8.958 0 003 12zm13.97 3.284a3.087 3.087 0 00-.258 2.388l.067.198.527 1.4a9.004 9.004 0 003.49-5.36 3.086 3.086 0 00-3.827 1.374zM16 3c-1.665 0-3 1.288-3 2.86 0 .767.624 2.135 1.897 3.993l.394.562a.87.87 0 00.678.364l.112-.003a.868.868 0 00.628-.36C18.246 8.268 19 6.705 19 5.858 19 4.29 17.665 3 16 3zm0 2a1 1 0 110 2 1 1 0 010-2z"/></svg>
