<svg viewBox="0 0 24 24" xmlns="http://www.w3.org/2000/svg"><path d="M17 3a4 4 0 0 1 4 4v10a4 4 0 0 1-4 4H7a4 4 0 0 1-4-4V7a4 4 0 0 1 4-4h10zm-5.708 1H7a3 3 0 0 0-2.995 2.824L4 7v10a3 3 0 0 0 2.824 2.995L7 20h10c.648 0 1.248-.205 1.738-.555l-1.722-1.722a2 2 0 1 1 .707-.707l1.722 1.722c.318-.445.516-.981.55-1.562L20 17V7a3 3 0 0 0-2.824-2.995L17 4h-4.294L9.723 6.984c.152.257.248.552.272.867L10 8a2 2 0 1 1-.984-1.723L11.292 4zM16 6a2 2 0 1 1-1.016 3.723l-5.261 5.26a2 2 0 1 1-.707-.707l5.261-5.26A2 2 0 0 1 16 6zm-8 9a1 1 0 1 0 0 2 1 1 0 0 0 0-2zm8 0a1 1 0 1 0 0 2 1 1 0 0 0 0-2zM8 7a1 1 0 1 0 0 2 1 1 0 0 0 0-2zm8 0a1 1 0 1 0 0 2 1 1 0 0 0 0-2z"/></svg>
