<svg xmlns="http://www.w3.org/2000/svg" viewBox="0 0 24 24"><path d="M12 2c5.523 0 10 4.477 10 10s-4.477 10-10 10S2 17.523 2 12 6.477 2 12 2zm0 1a9 9 0 100 18 9 9 0 000-18zm0 12a1 1 0 110 2 1 1 0 010-2zm.491-8.192l.208.04.22.049a2.43 2.43 0 011.872 1.997 2.42 2.42 0 01-1.03 2.376l-.148.094-.345.2c-.53.308-.875.86-.919 1.472a.5.5 0 11-.997-.072 2.854 2.854 0 011.255-2.165l.16-.1.344-.2c.508-.295.783-.87.692-1.45a1.43 1.43 0 00-.972-1.14l-.13-.036-.22-.05a2.332 2.332 0 00-2.01.492l-.134.122-.486.479a.5.5 0 01-.76-.644l.058-.07.487-.478a3.332 3.332 0 012.855-.916z"/></svg>
