<svg xmlns="http://www.w3.org/2000/svg" viewBox="0 0 24 24"><path d="M16 7.5a.5.5 0 01.462.309l.026.083.19.856c.052.088.076.19.067.293l.882 3.976a4 4 0 11-.977.216l-.631-2.837-2.508 4.351A4.5 4.5 0 0110 16.983V17a4 4 0 11-1.644-3.233l-.488-2.114-.031-.025a3 3 0 00-4.601 1.205 5.027 5.027 0 00-1.173 1.085L2 14a4 4 0 015.56-3.684l-.047-.204A.502.502 0 017.5 10h-.777A.723.723 0 016 9.277a.647.647 0 01.719-.644l2.784.311A.56.56 0 0110 9.5a.5.5 0 01-.5.5h-.987l1.383 5.989a3.5 3.5 0 002.633-1.554l.115-.187 3.053-5.297-.099-.451h-.599a.5.5 0 01-.491-.41L14.499 8a.5.5 0 01.41-.492L15 7.5h1zM6 14a3 3 0 103 3v-.001L6 17a.5.5 0 01-.09-.992L6 16h2.829A3.001 3.001 0 006 14zm12 0l-.153.004.641 2.888a.5.5 0 01-.949.302l-.027-.086-.643-2.887A3.001 3.001 0 1018 14zm0-4a4 4 0 014 4 5.018 5.018 0 00-1.235-1.167A3 3 0 0018 11l-.119.003-.219-.988.15-.01C17.875 10 17.937 10 18 10zm-4.338-.519l.347 1.401-.498.865a4.5 4.5 0 01-2.959 2.154l-.218-.976a3.5 3.5 0 002.195-1.49l.115-.187 1.018-1.767zM18 7a4 4 0 014 4 5.018 5.018 0 00-1.235-1.167A3 3 0 0018 8l-.119.003-.219-.988.15-.01C17.875 7 17.937 7 18 7zM6 7c.345 0 .68.044 1 .126l.001 1.045a3 3 0 00-3.766 1.662 5.027 5.027 0 00-1.172 1.085L2 11a4 4 0 014-4zm7.662-.519l.347 1.401-.498.865a4.5 4.5 0 01-2.959 2.154l-.218-.976a3.5 3.5 0 002.195-1.49l.115-.187 1.018-1.767zm-7.015-.852c.024 0 .048.002.072.004l2.784.311A.56.56 0 0110 6.5a.5.5 0 01-.5.5h-.987l.231 1H7.717l-.204-.888A.502.502 0 017.5 7h-.777A.723.723 0 016 6.277c0-.358.29-.648.647-.648zM16 4.5a.5.5 0 01.462.309l.026.083.19.856c.052.088.076.19.067.293l.169.759h-1.706l.489-.849-.099-.451h-.599a.5.5 0 01-.491-.41L14.499 5a.5.5 0 01.41-.492L15 4.5h1zM6.647 2.63c.024 0 .048 0 .072.003l2.784.311A.56.56 0 0110 3.5a.5.5 0 01-.5.5h-.987l.231 1H7.717l-.204-.888A.502.502 0 017.5 4h-.777A.723.723 0 016 3.277c0-.358.29-.648.647-.648zM16 1.5a.5.5 0 01.462.309l.026.083.19.856c.052.088.076.19.067.293l.169.759h-1.706l.489-.849-.099-.451h-.599a.5.5 0 01-.491-.41L14.499 2a.5.5 0 01.41-.492L15 1.5h1z"/></svg>
