<svg xmlns="http://www.w3.org/2000/svg" viewBox="0 0 24 24"><path d="M20.5 4.28a7.343 7.343 0 01-2.34.92 3.658 3.658 0 00-2.7-1.2 3.741 3.741 0 00-3.69 3.79 3.56 3.56 0 00.1.86 10.45 10.45 0 01-7.62-4 3.939 3.939 0 00-.5 1.95A3.819 3.819 0 005.4 9.75a3.669 3.669 0 01-1.68-.47A3.781 3.781 0 006.69 13a3.92 3.92 0 01-1 .13A3.187 3.187 0 015 13.1a3.7 3.7 0 003.45 2.63 7.289 7.289 0 01-4.57 1.62 8.61 8.61 0 01-.88 0A10.3 10.3 0 008.66 19c6.79 0 10.51-5.77 10.51-10.77v-.49a8.01 8.01 0 001.8-1.949 7.172 7.172 0 01-2.091.579A3.769 3.769 0 0020.5 4.28zM21.01 5.74c-.012.018-.027.033-.039.051.009-.005.02-.007.029-.011z"/></svg>
