<svg xmlns="http://www.w3.org/2000/svg" viewBox="0 0 24 24"><path d="M16.286 9.224a5.264 5.264 0 01.538 4c1.797.59 3.079 2.178 3.17 4.038l.006.215v.444c0 2.178-1.795 3.946-4.038 4.051l-.212.005h-7.5c-2.27 0-4.134-1.702-4.245-3.853L4 17.921v-.444c0-1.954 1.312-3.641 3.178-4.255A5.196 5.196 0 017 11.868c0-.905.23-1.778.659-2.547a.5.5 0 01.873.487A4.214 4.214 0 008 11.868C8 14.153 9.794 16 12 16s4-1.847 4-4.132c0-.765-.201-1.499-.576-2.138a.5.5 0 11.862-.506zm.188 4.937l-.089.175C15.535 15.923 13.892 17 12 17c-1.96 0-3.653-1.156-4.474-2.838-1.426.452-2.44 1.688-2.52 3.129L5 17.477v.444c0 1.624 1.351 2.96 3.065 3.051l.185.005h7.5c1.739 0 3.15-1.281 3.245-2.883l.005-.173v-.444c0-1.519-1.038-2.843-2.526-3.316zM11.741 2.125a.5.5 0 01.467-.003l6.072 3.17a.5.5 0 01.036.866l-6.073 3.83a.5.5 0 01-.538-.002L6.5 6.622v3.836a.5.5 0 01-.992.09l-.008-.09V5.764a.5.5 0 01.274-.446l.039-.024zm.238 1.005L7.033 5.776l4.946 3.196 5.068-3.196-5.068-2.646z"/></svg>
