<svg xmlns="http://www.w3.org/2000/svg" viewBox="0 0 24 24"><path d="M8.535 6.338c.81 0 1.465.656 1.465 1.465v8.744a1.415 1.415 0 01-2.32 1.087l-.388-.323a3.5 3.5 0 00-2.24-.811l-.201-.005A2 2 0 013 14.5v-5a2 2 0 012-2h.289a3.5 3.5 0 001.941-.588l.493-.328c.24-.16.523-.246.812-.246zm8.341.78C18.228 8.416 19 10.152 19 12c0 1.85-.772 3.584-2.123 4.88a.5.5 0 01-.693-.72C17.344 15.046 18 13.57 18 12c0-1.571-.657-3.048-1.816-4.16a.5.5 0 01.692-.721zm-8.34.22a.465.465 0 00-.259.078l-.492.328a4.5 4.5 0 01-2.496.756H5a1 1 0 00-1 1v5a1 1 0 001 1l.294.007a4.5 4.5 0 012.639 1.036l.387.323a.415.415 0 00.68-.319V7.803a.465.465 0 00-.465-.465zm6.419 1.778A4.483 4.483 0 0116 12c0 1.074-.378 2.09-1.055 2.896a.5.5 0 11-.766-.644A3.478 3.478 0 0015 12a3.48 3.48 0 00-.813-2.243.5.5 0 11.768-.64z"/></svg>
