<svg viewBox="0 0 24 24" xmlns="http://www.w3.org/2000/svg"><path d="M15.437 5.969l.035.077.334.954H20a.5.5 0 0 1 .499.536l-.014.085-.5 2a.5.5 0 0 1-.483.379l-2.638.012.423 1.204a3.5 3.5 0 1 1-.89.486l-.634-1.804-1.505 2.485a3.5 3.5 0 0 1-2.778 1.68l-.215.006h-.067l.62 1.767a.5.5 0 0 1-.906.413l-.037-.082-.736-2.098H8.974a3.5 3.5 0 1 1-.279-1h1.093L8.363 9.006h-.848a.5.5 0 0 1-.09-.992l.09-.008h2.03a.5.5 0 0 1 .09.992l-.09.008h-.122l1.425 4.063h.417a2.5 2.5 0 0 0 2.043-1.059l.095-.145 1.931-3.188-.654-1.866-.531.138a.5.5 0 0 1-.58-.273l-.03-.085a.5.5 0 0 1 .274-.58l.085-.03.977-.253a.5.5 0 0 1 .562.24zM5.5 12a2.5 2.5 0 1 0 2.463 2.07l-2.179-.001a.5.5 0 0 1-.09-.992l.09-.008H7.55A2.497 2.497 0 0 0 5.5 12zm13 0c-.31 0-.607.057-.882.16l.805 2.293a.5.5 0 0 1-.906.414l-.037-.083-.728-2.071A2.5 2.5 0 1 0 18.5 12zm.859-4h-3.161l.344 1.013 2.566-.011L19.359 8z"/></svg>
