<svg xmlns="http://www.w3.org/2000/svg" viewBox="0 0 24 24"><circle cx="12" cy="12" r="12" fill="#06f"/><g fill="#f7d417"><path d="m5.488 12.45.085.191-.597 1.072-.18.205h.586l-.095-.229.113-.205.406.36.402-.36.113.205-.095.229h.586l-.176-.205-.6-1.072.088-.191h-.635Zm.318.31.254.459-.254.229-.258-.229.258-.459Z"/><path d="M7.808 11.883c.103.187.247.346.419.46l-.068 6.352c-.078.014-.598.544-.62.633a.681.681 0 0 0-.016.134c0 .297.231.538.517.538a.51.51 0 0 0 .392-.187.688.688 0 0 0 .942 0 .509.509 0 0 0 .392.187.527.527 0 0 0 .517-.538.517.517 0 0 0-.016-.131c-.013-.055-.559-.624-.62-.635l-.068-6.352a1.33 1.33 0 0 0 .422-.46l3.538-.029c.026.218.466.803.683.803a.428.428 0 0 0 .417-.436.44.44 0 0 0-.172-.353c-.096-.073-.047-.231.072-.231.042 0 .082.022.105.061a.42.42 0 0 0 .497-.245.586.586 0 0 0 0-.441.423.423 0 0 0-.385-.263.434.434 0 0 0-.112.017c-.065.11-.226.061-.226-.068 0-.039.019-.078.049-.102a.44.44 0 0 0 .172-.353.426.426 0 0 0-.417-.436c-.217 0-.657.586-.683.803l-3.537-.03a1.285 1.285 0 0 0-.468-.491l-.033-4.373c.198-.025.767-.507.767-.713a.428.428 0 0 0-.417-.436.41.41 0 0 0-.336.18c-.07.1-.221.049-.221-.075 0-.044.021-.085.056-.107a.436.436 0 0 0-.233-.518.494.494 0 0 0-.422 0 .433.433 0 0 0-.236.518.127.127 0 0 1 .058.107.127.127 0 0 1-.124.129.115.115 0 0 1-.098-.054.417.417 0 0 0-.338-.18.428.428 0 0 0-.417.436c0 .227.561.69.769.713l-.035 4.372a1.304 1.304 0 0 0-.466.489l-3.54.032c-.024-.205-.487-.803-.683-.803a.426.426 0 0 0-.417.436c0 .139.065.27.172.353.03.024.049.063.049.102 0 .071-.054.129-.121.129a.116.116 0 0 1-.103-.061.45.45 0 0 0-.114-.017.419.419 0 0 0-.382.263.56.56 0 0 0 0 .441.416.416 0 0 0 .496.243c.065-.107.224-.058.224.068 0 .041-.019.08-.049.105a.441.441 0 0 0-.172.353c0 .239.186.436.417.436.195 0 .659-.599.683-.803l3.54.029Z"/><path d="m5.69 11.866.228.003v.579H5.69v-.582ZM11.752 12.555a.288.288 0 0 1 .11.205.948.948 0 0 1-.1.535.265.265 0 0 1-.487-.022.784.784 0 0 1-.054-.299.615.615 0 0 1 .326-.526h-.522a.134.134 0 0 1 .042.1c0 .012 0 .024-.005.037a1.859 1.859 0 0 0-.047.721c.033.268.254.47.515.47a.516.516 0 0 0 .473-.321c.084.197.27.321.475.321a.527.527 0 0 0 .515-.472 1.872 1.872 0 0 0-.049-.718.144.144 0 0 1 .037-.136h-.52c.193.1.317.302.324.526V13a.749.749 0 0 1-.051.275.265.265 0 0 1-.487.024.97.97 0 0 1-.103-.54.297.297 0 0 1 .112-.202h-.506Z"/><path d="m11.89 11.869.231-.003v.689h-.231v-.686Z"/></g></svg>