<svg fill="none" xmlns="http://www.w3.org/2000/svg" viewBox="0 0 24 24"><g clip-path="url(#a)"><path d="M12 24c6.627 0 12-5.372 12-12 0-6.627-5.373-12-12-12S0 5.373 0 12c0 6.628 5.373 12 12 12Z" fill="#fff"/><path d="M.414 15.132a12.01 12.01 0 0 0 4.282 6.39v-6.39H.414Zm10.543 8.824c.343.03.691.045 1.043.045 5.544 0 10.21-3.76 11.587-8.87h-12.63v8.825ZM23.587 8.87C22.21 3.76 17.544 0 12 0c-.352 0-.7.017-1.043.046V8.87h12.63ZM4.696 2.481a12.01 12.01 0 0 0-4.282 6.39h4.282v-6.39Z" fill="#FF0062"/><path d="M23.898 10.435H9.391V.285C8.282.531 7.231.93 6.261 1.46v8.976H.1a12.102 12.102 0 0 0 0 3.13h6.16v8.976c.97.53 2.021.928 3.13 1.174v-10.15h14.507a12.121 12.121 0 0 0 0-3.13Z" fill="#0052B4"/></g><defs><clipPath id="a"><path fill="#fff" d="M0 0h24v24H0z"/></clipPath></defs></svg>