<svg fill="none" xmlns="http://www.w3.org/2000/svg" viewBox="0 0 24 24"><g clip-path="url(#a)"><path d="M12 24c6.628 0 12-5.373 12-12 0-6.628-5.372-12-12-12C5.373 0 0 5.372 0 12c0 6.627 5.373 12 12 12Z" fill="#fff"/><path d="M24 12c0-5.16-3.258-9.56-7.828-11.255v22.507C20.743 21.558 24 17.16 24 12Z" fill="#FF0062"/><path d="M0 12c0 5.159 3.257 9.558 7.826 11.253V.746C3.256 2.44 0 6.84 0 11.999Z" fill="#0052B4"/></g><defs><clipPath id="a"><path fill="#fff" d="M0 0h24v24H0z"/></clipPath></defs></svg>