<svg fill="none" xmlns="http://www.w3.org/2000/svg" viewBox="0 0 24 24"><g clip-path="url(#a)"><path d="M12 24c6.627 0 12-5.373 12-12S18.627 0 12 0 0 5.373 0 12s5.373 12 12 12Z" fill="#fff"/><path d="M12 0C7.037 0 2.78 3.01.952 7.304h22.093C21.218 3.011 16.96 0 11.999 0Z" fill="#A2001D"/><path d="M12 24c4.96 0 9.218-3.01 11.046-7.304H.953C2.781 20.99 7.038 24 12 24Z" fill="#496E2D"/><path d="M23.587 8.87H.413A12.013 12.013 0 0 0 0 12c0 1.084.144 2.133.413 3.131h23.174a12.01 12.01 0 0 0 .413-3.13c0-1.084-.144-2.133-.413-3.13Z" fill="#0052B4"/></g><defs><clipPath id="a"><path fill="#fff" d="M0 0h24v24H0z"/></clipPath></defs></svg>