<svg fill="none" xmlns="http://www.w3.org/2000/svg" viewBox="0 0 24 24"><g clip-path="url(#a)"><path d="M12 24c6.627 0 12-5.373 12-12S18.627 0 12 0 0 5.373 0 12s5.373 12 12 12Z" fill="#fff"/><path d="M12 24a12 12 0 0 0 10.809-6.782H1.19A12 12 0 0 0 12 24Zm0-24A12 12 0 0 0 1.19 6.783h21.62A12 12 0 0 0 11.999 0ZM7.385 7.826l.389 1.195H9.03l-1.017.74.388 1.195-1.017-.739-1.017.74.388-1.197-1.017-.739h1.257l.389-1.195Zm0 5.217.389 1.196H9.03l-1.017.739.388 1.196-1.017-.74-1.017.74.388-1.196-1.017-.739h1.257l.389-1.196Zm9.231-5.217.388 1.195h1.257l-1.017.74.389 1.195-1.017-.739-1.018.74.389-1.197-1.017-.739h1.257l.389-1.195Zm0 5.217.388 1.196h1.257l-1.017.739.389 1.196-1.017-.74-1.018.74.389-1.196-1.017-.739h1.257l.389-1.196ZM12 10.434l.388 1.196h1.258l-1.018.739.389 1.196-1.017-.74-1.017.74.388-1.196-1.017-.739h1.257L12 10.434Z" fill="#338AF3"/></g><defs><clipPath id="a"><path fill="#fff" d="M0 0h24v24H0z"/></clipPath></defs></svg>