<svg fill="none" xmlns="http://www.w3.org/2000/svg" viewBox="0 0 24 24"><g clip-path="url(#a)"><path d="M12 24c6.627 0 12-5.372 12-12 0-6.627-5.373-12-12-12S0 5.373 0 12c0 6.628 5.373 12 12 12Z" fill="#fff"/><path d="M12 0A12 12 0 0 0 1.19 6.783h21.62A12 12 0 0 0 11.999 0Z" fill="#FF9811"/><path d="M12 24a12 12 0 0 0 10.809-6.782H1.19A12 12 0 0 0 12 24Z" fill="#6DA544"/><path d="M12 16.174a4.174 4.174 0 1 0 0-8.348 4.174 4.174 0 0 0 0 8.348Z" fill="#0052B4"/><path d="M12 14.61a2.609 2.609 0 1 0 0-5.218 2.609 2.609 0 0 0 0 5.217Z" fill="#fff"/><path d="m12 8.78.805 1.826 1.982-.216L13.61 12l1.178 1.61-1.982-.216L12 15.219l-.805-1.825-1.983.215L10.39 12l-1.178-1.61 1.983.216L12 8.781Z" fill="#0052B4"/></g><defs><clipPath id="a"><path fill="#fff" d="M0 0h24v24H0z"/></clipPath></defs></svg>