<svg fill="none" xmlns="http://www.w3.org/2000/svg" viewBox="0 0 24 24"><g clip-path="url(#a)"><path d="M12 24c6.627 0 12-5.373 12-12S18.627 0 12 0 0 5.373 0 12s5.373 12 12 12Z" fill="#fff"/><path d="M24 11.965H10.992c-2.583 2.583-4.145 4.577-5.74 6.171l6.783.612 10.525-1.044A11.946 11.946 0 0 0 24 12v-.035Z" fill="#FF0062"/><path d="M5.252 6.226h17.27A11.997 11.997 0 0 0 12 0a11.96 11.96 0 0 0-8.468 3.498l1.72 2.728Z" fill="#FFD293"/><path d="M5.774 17.704c-1.079 1.078-1.496 1.982-2.276 2.763A11.962 11.962 0 0 0 12 23.999c4.563 0 8.53-2.546 10.56-6.295H5.774Z" fill="#0052B4"/><path d="M3.514 3.48c-4.686 4.686-4.686 12.284 0 16.97L12 11.965 3.514 3.479Z" fill="#6DA544"/><path d="M3.165 11.965a3.653 3.653 0 0 1 2.87-3.567 3.652 3.652 0 1 0 0 7.135 3.653 3.653 0 0 1-2.87-3.568Z" fill="#fff"/><path d="m5.995 8.834.194.598h.628l-.508.37.194.597-.508-.37-.51.37.195-.598-.508-.37H5.8l.195-.597Zm0 1.566.194.598h.628l-.508.37.194.597-.508-.37-.51.37.195-.598-.508-.369H5.8l.195-.598Zm0 1.565.194.598h.628l-.508.37.194.597-.508-.37-.51.37.195-.598-.508-.37H5.8l.195-.597Z" fill="#fff"/><path d="m5.995 13.53.194.597h.628l-.508.37.194.598-.508-.37-.51.37.195-.598-.508-.37H5.8l.195-.598Z" fill="#fff"/></g><defs><clipPath id="a"><path fill="#fff" d="M0 0h24v24H0z"/></clipPath></defs></svg>