<svg fill="none" xmlns="http://www.w3.org/2000/svg" viewBox="0 0 24 24"><g clip-path="url(#a)"><path d="M12 24c6.627 0 12-5.373 12-12 0-6.628-5.373-12-12-12S0 5.372 0 12c0 6.627 5.373 12 12 12Z" fill="#FFD293"/><path d="M24 12c0-4.119-2.075-7.752-5.236-9.913H5.237A11.987 11.987 0 0 0 0 12c0 4.119 2.075 7.752 5.237 9.913h13.526A11.987 11.987 0 0 0 24 12Z" fill="#A2001D"/><path d="M9.391 8.87h5.217V6.783l-1.043.521L12 5.74l-1.565 1.565-1.044-.521V8.87ZM16.696 12h-2.608a1.204 1.204 0 1 0-2.104-1.169A1.204 1.204 0 1 0 9.88 12H7.304c0 .798.695 1.444 1.493 1.444H8.75c0 .655.435 1.208 1.032 1.385L8.61 16.002l1.106 1.107 1.57-1.57c.062.022.125.04.191.053l-.949 2.142a3.899 3.899 0 0 0 2.945 0l-.948-2.142c.066-.013.13-.03.19-.053l1.57 1.57 1.107-1.107-1.172-1.173a1.445 1.445 0 0 0 1.032-1.385h-.048c.797 0 1.493-.646 1.493-1.444Z" fill="#FFD293"/><path d="m12 12.783-1.695.783v1.565L12 16.174l1.696-1.043v-1.565L12 12.783Z" fill="#6DA544"/><path d="M10.305 12h3.391v2.087h-3.391V12Z" fill="#0052B4"/></g><defs><clipPath id="a"><path fill="#fff" d="M0 0h24v24H0z"/></clipPath></defs></svg>