<svg fill="none" xmlns="http://www.w3.org/2000/svg" viewBox="0 0 24 24"><g clip-path="url(#a)"><path d="M12 24c6.627 0 12-5.372 12-12 0-6.627-5.373-12-12-12S0 5.373 0 12c0 6.628 5.373 12 12 12Z" fill="#fff"/><path d="M12 0A12 12 0 0 0 1.19 6.783h21.62A12 12 0 0 0 12 0Zm0 24a12 12 0 0 0 10.81-6.783H1.19A12 12 0 0 0 12 24Z" fill="#338AF3"/><path d="M12 8.347a3.652 3.652 0 1 0 0 7.305 3.652 3.652 0 0 0 0-7.305Zm0 5.74a2.087 2.087 0 1 1 0-4.175 2.087 2.087 0 0 1 0 4.174Z" fill="#FFD293"/><path d="M13.808 12.52 12 12l-1.807.522-.603 1.043h4.82l-.602-1.043Z" fill="#0052B4"/><path d="m12 9.39-1.205 2.088L12 12l1.205-.522L12 9.39Z" fill="#338AF3"/><path d="M10.193 12.521h3.615l-.603-1.043h-2.41l-.602 1.043Z" fill="#6DA544"/></g><defs><clipPath id="a"><path fill="#fff" d="M0 0h24v24H0z"/></clipPath></defs></svg>