<svg fill="none" xmlns="http://www.w3.org/2000/svg" viewBox="0 0 24 24"><g clip-path="url(#a)"><path d="M12 24c6.627 0 12-5.372 12-12 0-6.627-5.373-12-12-12S0 5.373 0 12c0 6.628 5.373 12 12 12Z" fill="#fff"/><path d="M23.254 7.826H.746A11.975 11.975 0 0 0 0 12c0 1.467.264 2.873.746 4.174h22.508c.482-1.3.746-2.707.746-4.174 0-1.468-.264-2.874-.746-4.174Z" fill="#A2001D"/><path d="M12.034 24c4.11 0 7.738-2.067 9.9-5.218h-19.8a11.986 11.986 0 0 0 9.9 5.218Zm0-24c4.11 0 7.738 2.067 9.9 5.218h-19.8A11.986 11.986 0 0 1 12.035 0Z" fill="#6DA544"/><path d="m12 7.826 1.036 3.188h3.353l-2.713 1.97 1.037 3.19L12 14.203l-2.712 1.97 1.036-3.188-2.713-1.97h3.353L12 7.824Z" fill="#FFD293"/></g><defs><clipPath id="a"><path fill="#fff" d="M0 0h24v24H0z"/></clipPath></defs></svg>