<svg fill="none" xmlns="http://www.w3.org/2000/svg" viewBox="0 0 24 24"><g clip-path="url(#a)"><path d="M12 24c6.627 0 12-5.373 12-12S18.627 0 12 0 0 5.373 0 12s5.373 12 12 12Z" fill="#FF0062"/><path d="M12 17.739a5.74 5.74 0 1 0 0-11.478 5.74 5.74 0 0 0 0 11.478Z" fill="#fff"/><path d="m12.707 9.805.984 1.357 1.595-.517-.986 1.356.984 1.357-1.594-.52-.986 1.356.001-1.676-1.594-.52 1.595-.516.001-1.677Z" fill="#FF0062"/><path d="M13.304 15.392a3.391 3.391 0 1 1 1.614-6.375 4.174 4.174 0 1 0 0 5.967 3.38 3.38 0 0 1-1.614.408Z" fill="#FF0062"/></g><defs><clipPath id="a"><path fill="#fff" d="M0 0h24v24H0z"/></clipPath></defs></svg>