<svg xmlns="http://www.w3.org/2000/svg" viewBox="0 0 24 24"><path d="M9.993 4.393a1.412 1.412 0 012.756.432V8.98a1.17 1.17 0 001.17 1.169l.145.006a1.69 1.69 0 011.452 2.235l-2.53 7.346a1.46 1.46 0 01-2.84-.476v-4.21a1.03 1.03 0 00-1.03-1.029l-.147-.006a1.615 1.615 0 01-1.39-2.103zm1.47.04a.412.412 0 00-.518.266l-2.414 7.52a.615.615 0 00.585.803 2.03 2.03 0 012.03 2.03v4.21a.46.46 0 00.895.15l2.53-7.347a.69.69 0 00-.653-.915 2.169 2.169 0 01-2.169-2.17V4.826a.412.412 0 00-.286-.392zM15.5 5a4.5 4.5 0 014.495 4.288L20 9.5v5a4.5 4.5 0 01-4.288 4.495L15.5 19h-1.025a.5.5 0 01-.09-.992l.09-.008H15.5a3.5 3.5 0 003.495-3.308L19 14.5v-5a3.5 3.5 0 00-3.308-3.495L15.5 6h-1.44a.5.5 0 01-.09-.992L14.06 5h1.44zM8.49 5a.5.5 0 01.09.992L8.49 6H6.5a3.5 3.5 0 00-3.495 3.308L3 9.5v5a3.5 3.5 0 003.308 3.495L6.5 18h2.476a.5.5 0 01.09.992l-.09.008H6.5a4.5 4.5 0 01-4.495-4.288L2 14.5v-5a4.5 4.5 0 014.288-4.495L6.5 5h1.99zM21.5 9a.5.5 0 01.492.41L22 9.5v5a.5.5 0 01-.992.09L21 14.5v-5a.5.5 0 01.5-.5z"/></svg>
