<svg xmlns="http://www.w3.org/2000/svg" viewBox="0 0 24 24"><path d="M11.577 2.87l.165.005a2.505 2.505 0 012.34 2.5v1.312l1.955-.57a1.5 1.5 0 011.898 1.703l-.033.14-.568 2.03h1.13a2.505 2.505 0 012.5 2.34l.005.164v.3l-5.194 2.762-.017.06-1.556.776-2.003 1.065-2.31 2.31a4 4 0 01-5.497.152l-.16-.151a4 4 0 010-5.657l.707-.707 1.875-1.875 4.458-8.66h.305zM4.94 14.817a3 3 0 004.243 4.243zm2.147-2.146l-1.414 1.414 4.242 4.242 1.415-1.414-4.243-4.242zm6.628-1.683l-3.424 3.473 1.844 1.844 1.605-.8 1.189-.633 1.087-3.885-2.301.001zm3.34 0l-.906 3.235 3.793-2.016-.025-.114a1.506 1.506 0 00-1.315-1.098l-.137-.007h-1.41zM13.083 8.02l-3.92 1.147-1.416 2.751 1.745 1.745 3.59-3.539V8.021zm3.327-.962l-.091.017-2.236.653v2.26h2.213l.644-2.298a.5.5 0 00-.262-.584l-.084-.032a.5.5 0 00-.184-.016zm-4.54-3.16L9.784 7.942l3.297-.964V5.374l-.006-.137a1.506 1.506 0 00-1.098-1.314l-.11-.025z"/></svg>
