<svg xmlns="http://www.w3.org/2000/svg" viewBox="0 0 24 24"><path d="M12 1c6.1 0 11 4.9 11 11s-4.9 11-11 11S1 18.1 1 12 5.9 1 12 1zm4 11.4c-.3 1.8-1.7 3.3-3.5 3.5-.1 1.9-.9 3.6-2.1 5l-.2.2-.5.5c.8.2 1.5.3 2.3.3 4.5 0 8.2-2.9 9.5-7l-1-.8c-1.3-1.1-2.9-1.7-4.5-1.7zM2.5 9.1c-.3 1-.4 1.9-.4 2.9 0 4.2 2.7 7.9 6.4 9.3l.9-.9c1.2-1.2 1.9-2.8 2-4.5-2-.3-3.4-2-3.4-4-1.8-.1-3.5-.9-4.8-2.1L3 9.6l-.5-.5zm6.2 7.7c.4 0 .7.3.7.7 0 .4-.3.7-.7.7s-.7-.3-.7-.7c0-.4.3-.7.7-.7zm6.6.5c.1 0 .2.1.2.2s-.1.2-.2.2-.2-.1-.2-.2.1-.2.2-.2zm-8.8-2.7c.4 0 .7.3.7.7 0 .4-.3.7-.7.7-.4 0-.7-.3-.7-.7s.3-.7.7-.7zm11 .5c.1 0 .2.1.2.2s-.1.2-.2.2-.2-.1-.2-.2.1-.2.2-.2zM12 9.2c-1.6 0-2.8 1.3-2.8 2.8s1.3 2.8 2.8 2.8 2.8-1.3 2.8-2.8-1.2-2.8-2.8-2.8zm3.7-6.4l-.9 1C13.7 5 13 6.5 12.9 8.2c1.6.3 2.8 1.6 3.1 3.2 1.8 0 3.6.6 5 1.7l.3.2.6.5c.1-.6.1-1.1.1-1.7-.1-4.3-2.7-7.8-6.3-9.3zM12 2.1C8.1 2.1 4.5 4.4 2.9 8l.8.8c1.2 1.2 2.8 1.9 4.4 2C8.6 9.2 10 8.1 11.6 8c.1-1.8.8-3.5 2-4.8l.3-.2.6-.6c-.8-.2-1.7-.3-2.5-.3zM17.5 8c.4 0 .7.3.7.7s-.3.7-.7.7-.7-.3-.7-.7.3-.7.7-.7zm-11 .5c.1 0 .2.1.2.2s-.1.2-.2.2-.2-.1-.2-.2.1-.2.2-.2zm8.8-2.7c.4 0 .7.3.7.7 0 .4-.3.7-.7.7s-.7-.3-.7-.7c0-.4.3-.7.7-.7zm-6.6.5c.1 0 .2.1.2.2s-.1.2-.2.2-.2-.1-.2-.2.1-.2.2-.2z" fill-rule="evenodd" clip-rule="evenodd"/></svg>