<svg xmlns="http://www.w3.org/2000/svg" viewBox="0 0 24 24"><path d="M16 2a4 4 0 014 4l.002 5.779a.498.498 0 010 .442L20 16a4.002 4.002 0 01-3 3.874V21.5a.5.5 0 01-.5.5h-1a.5.5 0 01-.5-.5V20H9v1.5a.5.5 0 01-.5.5h-1a.5.5 0 01-.5-.5v-1.626A4.002 4.002 0 014 16V6a4 4 0 014-4h8zm3 10.5H5V16a3 3 0 002.824 2.995L8 19h8a3 3 0 002.995-2.824L19 16v-3.5zm-11 2a1.5 1.5 0 110 3 1.5 1.5 0 010-3zm8 0a1.5 1.5 0 110 3 1.5 1.5 0 010-3zm-8 1a.5.5 0 100 1 .5.5 0 000-1zm8 0a.5.5 0 100 1 .5.5 0 000-1zm-4.5-9H5v5h6.5v-5zm7.5 0h-6.5v5H19v-5zM16 3H8a3 3 0 00-2.959 2.5H18.96a3.001 3.001 0 00-2.783-2.495L16 3z"/></svg>
