<svg xmlns="http://www.w3.org/2000/svg" viewBox="0 0 24 24"><path d="M15.53 4a2.5 2.5 0 012.296 1.51L18.467 7H20.5a1.5 1.5 0 01.138 2.994A3.986 3.986 0 0122 13v4h-2v1a2 2 0 01-1.85 1.995L18 20a2 2 0 01-2-2v-1H8v1a2 2 0 01-1.85 1.995L6 20a2 2 0 01-2-2v-1H2v-4a3.99 3.99 0 011.362-3.007A1.498 1.498 0 013.5 7h2.032l.642-1.49a2.5 2.5 0 012.11-1.503L8.47 4zM7 17H5v1a1 1 0 00.883.993L6 19a1 1 0 001-1v-1zm12 0h-2v1a1 1 0 00.883.993L18 19a1 1 0 001-1v-1zm-1-7H6a3 3 0 00-2.995 2.824L3 13v3h18v-3a3 3 0 00-2.824-2.995L18 10zM8 11.5a1.5 1.5 0 110 3 1.5 1.5 0 010-3zm8 0a1.5 1.5 0 110 3 1.5 1.5 0 010-3zm-8 1a.5.5 0 100 1 .5.5 0 000-1zm8 0a.5.5 0 100 1 .5.5 0 000-1zM5.009 8H3.5l-.09.008A.5.5 0 003.5 9h1.152l.357-1zM20.5 8h-1.509l.358 1H20.5a.5.5 0 00.09-.992L20.5 8zm-4.97-3H8.47a1.5 1.5 0 00-1.378.907L5.76 9h12.48l-1.332-3.093a1.5 1.5 0 00-1.24-.9L15.53 5z"/></svg>
