<svg xmlns="http://www.w3.org/2000/svg" viewBox="0 0 24 24"><path d="M2.5 4.016a.5.5 0 01.492.41l.008.09V15.5a3.5 3.5 0 003.308 3.494L6.5 19h14.964a.5.5 0 01.09.992l-.09.008H6.5a4.5 4.5 0 01-4.495-4.289L2 15.5V4.516a.5.5 0 01.5-.5zM19.464 6a2.5 2.5 0 012.5 2.5v2.032a.5.5 0 01-.857.35l-1.69-1.719-5.64 5.607a.5.5 0 01-.637.057l-.069-.058-3.546-3.547-3.671 3.673a.5.5 0 01-.638.058l-.07-.058a.5.5 0 01-.057-.638l.057-.07 4.026-4.025a.5.5 0 01.638-.057l.069.057 3.546 3.547 5.291-5.259-1.573-1.6a.5.5 0 01.271-.843L17.5 6zm-.772.999l2.271 2.31v-.81a1.5 1.5 0 00-1.5-1.5h-.771z"/></svg>
