<svg xmlns="http://www.w3.org/2000/svg" viewBox="0 0 24 24"><path d="M14.982 4a4 4 0 013.323 1.773l.118.189 3.298 5.567a2 2 0 01.271.84l.008.179V16a4 4 0 01-3.8 3.995L18 20H6a4 4 0 01-3.995-3.8L2 16v-3.426a2 2 0 01.213-.898l.092-.163L5.83 5.878a4 4 0 013.162-1.871L9.222 4h5.76zM3 16a3 3 0 002.824 2.995L6 19h12a3 3 0 002.995-2.824L21 16v-3h-3.504a1.5 1.5 0 00-1.493 1.356l-.007.144a2.5 2.5 0 01-2.335 2.495l-.165.005H10.67a2.5 2.5 0 01-2.495-2.336L8.17 14.5a1.5 1.5 0 00-1.356-1.493L6.67 13H3v3zM14.982 5h-5.76a3 3 0 00-2.436 1.248l-.108.16L3.18 12h3.49a2.5 2.5 0 012.495 2.336l.005.164a1.5 1.5 0 001.355 1.493l.145.007h2.827a1.5 1.5 0 001.494-1.356l.006-.144a2.5 2.5 0 012.336-2.495l.164-.005h3.341l-3.274-5.529a3 3 0 00-2.384-1.464L14.982 5z"/></svg>
