<svg xmlns="http://www.w3.org/2000/svg" viewBox="0 0 24 24"><path d="M12 2c5.523 0 10 4.477 10 10s-4.477 10-10 10S2 17.523 2 12 6.477 2 12 2zm.5 1.014V4a.5.5 0 01-.992.09L11.5 4v-.986A9.001 9.001 0 003.014 11.5H4a.5.5 0 01.09.992L4 12.5h-.986a9.001 9.001 0 008.486 8.486V20a.5.5 0 01.992-.09l.008.09v.986a9.001 9.001 0 008.486-8.485L20 12.5a.5.5 0 01-.09-.992L20 11.5h.986a9.001 9.001 0 00-8.485-8.486zm1.22 4.645a2.013 2.013 0 012.693 2.686l-1.596 3.3a2.5 2.5 0 01-1.179 1.17l-3.294 1.564a2.012 2.012 0 01-2.671-2.7l1.59-3.259a2.5 2.5 0 011.152-1.152zm1.322.898a1.013 1.013 0 00-.885.001l-3.304 1.61a1.5 1.5 0 00-.692.69l-1.59 3.26a1.012 1.012 0 001.344 1.357l3.294-1.563a1.5 1.5 0 00.708-.702l1.596-3.3a1.013 1.013 0 00-.471-1.353zM12 11a1 1 0 110 2 1 1 0 010-2z"/></svg>
