<svg xmlns="http://www.w3.org/2000/svg" viewBox="0 0 24 24"><path d="M8.818 4.575a4.5 4.5 0 016.364 0l4.243 4.243a4.5 4.5 0 010 6.364l-4.243 4.243a4.5 4.5 0 01-6.364 0l-4.243-4.243a4.5 4.5 0 010-6.364zm5.657.707a3.5 3.5 0 00-4.95 0L5.282 9.525a3.5 3.5 0 000 4.95l4.243 4.243a3.5 3.5 0 004.95 0l4.243-4.243a3.5 3.5 0 000-4.95zm-.687 3.81l.069.058 1.943 1.98a.5.5 0 01.067.617l-.06.078-1.945 2.051a.5.5 0 01-.782-.617l.056-.07L14.262 12H9v2.5a.5.5 0 01-.41.492L8.5 15a.5.5 0 01-.492-.41L8 14.5v-3a.5.5 0 01.41-.492L8.5 11h5.77l-1.127-1.15a.5.5 0 01-.052-.638l.059-.069a.5.5 0 01.638-.052z"/></svg>
