<svg xmlns="http://www.w3.org/2000/svg" viewBox="0 0 24 24"><path d="M9 21a4 4 0 01-4-4v-4.267A2 2 0 014 11v-1a2 2 0 011.542-1.947A2.477 2.477 0 015 6.501v-.337a2.16 2.16 0 012.16-2.16c1.2 0 2.337.544 3.09 1.48l1.765 2.196 1.765-2.193a3.972 3.972 0 012.87-1.477l.225-.006c1.195 0 2.163.969 2.163 2.163v.334c0 .591-.205 1.134-.548 1.562A1.997 1.997 0 0120 10v1a2 2 0 01-.999 1.732L19 17a4 4 0 01-4 4H9zm2.5-8H6v4a3 3 0 002.824 2.995L9 20h2.5v-7zm6.5 0h-5.5v7H15a3 3 0 002.995-2.823L18 17v-4zM6 9a1 1 0 00-.993.884L5 10v1a1 1 0 00.883.994L6 12h5.5V9H6zm10.875-3.996c-.9 0-1.752.408-2.316 1.11l-1.516 1.884h3.498c.778 0 1.418-.593 1.49-1.353l.007-.144v-.334c0-.642-.52-1.163-1.163-1.163zm-9.715 0c-.64 0-1.16.52-1.16 1.16V6.5l.007.144A1.498 1.498 0 007.497 8l3.492-.001L9.47 6.111a2.965 2.965 0 00-2.31-1.107zM12.5 12H18a1 1 0 00.993-.883L19 11v-1a1 1 0 00-.883-.993L18 9h-5.5v3z"/></svg>
