<svg xmlns="http://www.w3.org/2000/svg" viewBox="0 0 24 24"><path d="M12 2c5.523 0 10 4.477 10 10s-4.477 10-10 10S2 17.523 2 12 6.477 2 12 2zM7.574 12.5h-4.56a9.003 9.003 0 007.78 8.42 13.876 13.876 0 01-3.22-8.42zm13.412 0h-4.56a13.884 13.884 0 01-3.218 8.419 9 9 0 007.778-8.418zm-5.56 0H8.573a12.872 12.872 0 003.542 8.403l-.117-.126.113-.12a12.886 12.886 0 003.313-8.157zm-4.634-9.419l-.099.013a9.003 9.003 0 00-7.68 8.406h4.56a13.89 13.89 0 013.219-8.419zM12 3.222l-.119.13A12.895 12.895 0 008.574 11.5h6.851a12.886 12.886 0 00-3.313-8.157L12 3.222zm1.208-.142l.088.108a13.884 13.884 0 013.13 8.312h4.56a9.003 9.003 0 00-7.778-8.42z"/></svg>
