<svg xmlns="http://www.w3.org/2000/svg" viewBox="0 0 24 24"><path d="M14.5 4c4.046 0 7.36 3.21 7.496 7.25l.004.242a.5.5 0 01-.5.508h-5.17l-3.188 3.894a1.49 1.49 0 01-.533.413.372.372 0 01.033.103l.008.09v3a.5.5 0 01-.992.09l-.008-.09v-3c0-.032.003-.063.009-.093a1.466 1.466 0 01-.628-.303l-.097-.087-.09-.096-1.988-2.316a5.494 5.494 0 01-6.02-1.084l-.684-.662a.5.5 0 01-.075-.625l3.218-5.127A4.5 4.5 0 019.106 4zm.533 8.008A14.591 14.591 0 009.8 13.17l1.803 2.1a.5.5 0 00.703.055l.063-.064zM14.5 5H9.106a3.5 3.5 0 00-2.964 1.64l-3.003 4.782.392.38a4.494 4.494 0 004.903.896l.206-.095A15.588 15.588 0 0115.524 11h5.456l-.016-.185a6.501 6.501 0 00-6.231-5.81L14.5 5z"/></svg>
