<svg xmlns="http://www.w3.org/2000/svg" viewBox="0 0 24 24"><path d="M21.438 7.679a.488.488 0 01-.024.057l.024-.057a.502.502 0 01-.28.301l-.013.005a.456.456 0 01-.091.027l-.022.003a.497.497 0 01-.062.005h-.006l-1.223-.001V8.5a.5.5 0 01-.41.492l-.09.008H18.5v8H22a3 3 0 01-3 3H5a3 3 0 01-3-3h3.5V9h-.727a.5.5 0 01-.492-.41l-.008-.09v-.481h-1.31a.502.502 0 01-.056-.003l.057.004a.502.502 0 01-.439-.26l-.007-.014a.497.497 0 01-.028-.066v-.003l-.005-.012a.497.497 0 01-.013-.056l-.002-.012a.434.434 0 01-.006-.047v-.03c0-.024 0-.04.003-.057l-.003.057a.502.502 0 01.18-.384l-.016.013a.496.496 0 01.083-.061l.012-.007a.526.526 0 01.078-.034l.005-.002 9.044-3.01a.5.5 0 01.238-.018l.079.019 8.956 3.01a.49.49 0 01.064.026l-.064-.026a.503.503 0 01.34.467v.034a.497.497 0 01-.006.053l-.001.01-.018.069zM20.73 18H3.268l.054.09c.331.508.888.857 1.529.905L5 19h14c.703 0 1.321-.363 1.678-.91l.053-.09zM6.5 9v8h3V9h-3zm4 0v8h3V9h-3zm4 0v8h3V9h-3zm-2.493-3.963L5.22 7.295a.496.496 0 01.045.135l.008.09V8h13.468v-.48c0-.074.016-.143.045-.206l-6.779-2.277z"/></svg>
