<svg xmlns="http://www.w3.org/2000/svg" viewBox="0 0 24 24"><path d="M14 2a2 2 0 012 2h2a4 4 0 014 4v8a4 4 0 01-4 4H6a4 4 0 01-4-4V8a4 4 0 014-4h2a2 2 0 012-2h4zM6 5a3 3 0 00-2.995 2.824L3 8v8a3 3 0 002.824 2.995L6 19V5zm11 0H7v14h10V5zm1 0v14a3 3 0 002.995-2.824L21 16V8a3 3 0 00-2.824-2.995L18 5zm-6 4a.5.5 0 01.492.41l.008.09v2h2a.5.5 0 01.09.992l-.09.008h-2v2a.5.5 0 01-.992.09l-.008-.09v-2h-2a.5.5 0 01-.09-.992l.09-.008h2v-2A.5.5 0 0112 9zm2-6h-4a1 1 0 00-.993.883L9 4h6a1 1 0 00-.883-.993L14 3z"/></svg>
