<svg xmlns="http://www.w3.org/2000/svg" viewBox="0 0 24 24"><path d="M12 7c.112 0 .223.004.333.01a3.5 3.5 0 004.655 4.658A5 5 0 1112 7zm-.982 1.121l-.173.048A4.002 4.002 0 0012 16a4.002 4.002 0 003.831-2.845l.047-.173-.092.01L15.5 13a4.5 4.5 0 01-4.49-4.786l.008-.093zM4.516 8a.5.5 0 01.49.413l.007.09L5.009 9H5.5a.5.5 0 01.09.992L5.5 10h-.498L5 10.503a.5.5 0 01-.992.084L4 10.497 4.003 10H3.5a.5.5 0 01-.09-.992L3.5 9h.51l.003-.503A.5.5 0 014.516 8zm2.988-4.5a.5.5 0 01.489.413l.007.09-.004.497h.492a.5.5 0 01.09.992l-.09.008H7.99l-.002.503a.5.5 0 01-.993.084l-.007-.09.002-.497h-.502a.5.5 0 01-.09-.992l.09-.008h.51L7 3.997a.5.5 0 01.504-.497z"/></svg>
