<svg xmlns="http://www.w3.org/2000/svg" viewBox="0 0 24 24"><path d="M14.993 3c.225 0 .449.03.664.09a.499.499 0 01.17.084 4 4 0 013.377 7.164l1.557 4.764a4.5 4.5 0 01-3.992 5.889l-.285.009h-9a4.5 4.5 0 01-4.362-5.606l.077-.269L6.533 4.736a2.5 2.5 0 012.2-1.73L8.914 3h6.08zm-.639 1h-5.44a1.5 1.5 0 00-1.38.912l-.049.13L4.152 15.43a3.5 3.5 0 003.14 4.564l.192.005h9a3.5 3.5 0 003.327-4.587l-1.512-4.629A4 4 0 0114.355 4zM12 14.858a.5.5 0 01.492.41l.008.09v3a.5.5 0 01-.992.09l-.008-.09v-3a.5.5 0 01.5-.5zM12 9.5a.5.5 0 01.492.41l.008.09v2a.5.5 0 01-.992.09L11.5 12v-2a.5.5 0 01.5-.5zM17 4a3 3 0 100 6 3 3 0 000-6zm1.5 2.5a.5.5 0 01.09.992l-.09.008h-3a.5.5 0 01-.09-.992l.09-.008h3zM12 5a.5.5 0 01.492.41l.008.09v1a.5.5 0 01-.992.09L11.5 6.5v-1A.5.5 0 0112 5z"/></svg>
