<svg xmlns="http://www.w3.org/2000/svg" viewBox="0 0 24 24"><path d="M16.5 3A4.5 4.5 0 0121 7.5v9a4.5 4.5 0 01-4.5 4.5h-9A4.5 4.5 0 013 16.5v-9A4.5 4.5 0 017.5 3zm0 1h-9A3.5 3.5 0 004 7.5v9A3.5 3.5 0 007.5 20h9a3.5 3.5 0 003.5-3.5v-9A3.5 3.5 0 0016.5 4zm-6.116 5.836c1.38 0 2.07.828 2.07 2.484v3.128l-.006.09a.535.535 0 01-.546.462.542.542 0 01-.54-.552v-3.117l-.007-.188c-.025-.365-.126-.663-.304-.893-.207-.268-.544-.402-1.012-.402a1.73 1.73 0 00-.834.201 1.544 1.544 0 00-.586.54 1.37 1.37 0 00-.213.742v3.117l-.006.09a.535.535 0 01-.546.462.518.518 0 01-.39-.155.549.549 0 01-.15-.397v-4.922l.006-.09a.535.535 0 01.149-.301.514.514 0 01.385-.161.542.542 0 01.552.552v.402l.106-.149c.188-.242.43-.451.728-.627a2.21 2.21 0 011.144-.316zm5.003-1.99a1.762 1.762 0 011.552.892c.154.272.23.569.23.891a1.763 1.763 0 01-1.782 1.771 1.762 1.762 0 01-1.558-.891 1.73 1.73 0 01-.236-.88 1.774 1.774 0 011.794-1.783zm0 .771a.86.86 0 00-.667.293 1.034 1.034 0 00-.265.719c0 .268.088.502.265.702a.852.852 0 00.667.299c.26 0 .48-.1.661-.3.18-.199.27-.433.27-.701 0-.268-.09-.504-.27-.707a.85.85 0 00-.661-.305z"/></svg>
