<svg xmlns="http://www.w3.org/2000/svg" viewBox="0 0 24 24"><path d="M17 3a4 4 0 014 4v10a4 4 0 01-4 4H7a4 4 0 01-4-4V7a4 4 0 014-4h10zm0 1H7a3 3 0 00-2.995 2.824L4 7v10a3 3 0 002.824 2.995L7 20h10a3 3 0 002.995-2.824L20 17V7a3 3 0 00-2.824-2.995L17 4zm-4.25 3.6l.174.007c.344.03.675.15.99.359.368.244.664.572.888.984.224.412.336.862.336 1.35 0 .48-.112.928-.336 1.344-.224.416-.52.746-.888.99A2.073 2.073 0 0112.75 13h-2.088v2.268l-.008.125a.702.702 0 01-.184.403.66.66 0 01-.504.204c-.2 0-.364-.07-.492-.21a.745.745 0 01-.192-.522V8.332l.008-.12a.694.694 0 01.202-.402c.14-.14.314-.21.522-.21h2.736zm0 1.38h-2.088v2.652h2.088c.152 0 .302-.064.45-.192.148-.128.268-.294.36-.498.092-.204.138-.418.138-.642 0-.224-.046-.438-.138-.642a1.356 1.356 0 00-.36-.492.7.7 0 00-.45-.186z"/></svg>
