<svg xmlns="http://www.w3.org/2000/svg" viewBox="0 0 24 24"><path d="M14.373 5.645a3.319 3.319 0 01.163 4.545l-.159.168-4.009 3.981a2.328 2.328 0 00-.13 3.165l.126.135c.864.862 2.238.9 3.147.115l.142-.133 3.71-3.788a.5.5 0 01.772.63l-.058.07-3.732 3.81a3.315 3.315 0 01-4.54.142l-.158-.149a3.328 3.328 0 01-.123-4.56l.14-.147 4.023-3.995a2.319 2.319 0 00-.017-3.279 2.345 2.345 0 00-3.188-.102l-.127.12L6.793 9.97a.5.5 0 01-.768-.634l.057-.07L9.644 5.67a3.345 3.345 0 014.73-.024zm7.024 3.88a.5.5 0 01.638.61l-1.031 3.7a.5.5 0 01-.836.218l-2.522-2.524a.5.5 0 01.197-.828zM4 10a2 2 0 110 4 2 2 0 010-4zm0 1a1 1 0 100 2 1 1 0 000-2zm16.819-.231l-1.893.626 1.344 1.345.549-1.971z"/></svg>
