<svg xmlns="http://www.w3.org/2000/svg" viewBox="0 0 24 24"><path d="M9.99 14a.5.5 0 01.05 1c-3.73.188-6.54.97-6.54 1.475C3.5 17.125 7.39 18 12 18l.61-.005c4.338-.072 7.89-.9 7.89-1.52 0-.503-2.793-1.282-6.506-1.474a.5.5 0 01.051-.999l.634.038c4.056.274 6.821 1.11 6.821 2.435C21.5 18.062 17.332 19 12 19l-.66-.005c-5.012-.074-8.84-.999-8.84-2.52 0-1.397 3.074-2.25 7.49-2.474zM12 3a4 4 0 01.498 7.97l.002.03v6a.5.5 0 01-.992.09L11.5 17v-6l.003-.03A4 4 0 0112 3zm0 1a3 3 0 100 6 3 3 0 000-6z"/></svg>
