<svg xmlns="http://www.w3.org/2000/svg" viewBox="0 0 24 24"><path d="M17 3a4 4 0 014 4v10a4 4 0 01-4 4H7a4 4 0 01-4-4V7a4 4 0 014-4h10zm0 1H7a3 3 0 00-2.995 2.824L4 7v10a3 3 0 002.824 2.995L7 20h10a3 3 0 002.995-2.824L20 17V7a3 3 0 00-2.824-2.995L17 4zm-5.364 11.306l.128.008c.163.02.293.08.39.181.121.126.182.301.182.525v.266l-.007.129a.666.666 0 01-.175.396c-.121.126-.294.189-.518.189h-.14l-.128-.008a.629.629 0 01-.39-.181c-.121-.126-.182-.301-.182-.525v-.266l.007-.129a.666.666 0 01.175-.396c.121-.126.294-.189.518-.189h.14zm.14-8.638c.597 0 1.141.135 1.631.406a3.08 3.08 0 011.603 2.758c0 .56-.124 1.057-.371 1.491a2.917 2.917 0 01-1.015 1.05c-.43.266-.915.427-1.456.483-.01 0-.012.002-.007.007s.016.002.035-.007v.924l-.008.109a.651.651 0 01-.181.367.625.625 0 01-.469.196.642.642 0 01-.483-.196.613.613 0 01-.175-.476v-1.316l.008-.114a.658.658 0 01.181-.376.625.625 0 01.469-.196c.625-.019 1.136-.194 1.533-.525s.595-.805.595-1.421c0-.532-.182-.973-.546-1.323-.364-.35-.812-.525-1.344-.525-.299 0-.586.063-.861.189a2.329 2.329 0 00-.721.511c-.187.168-.373.252-.56.252a.594.594 0 01-.364-.126c-.205-.15-.308-.322-.308-.518 0-.168.07-.322.21-.462a3.345 3.345 0 011.155-.854 3.467 3.467 0 011.449-.308z"/></svg>
