<svg xmlns="http://www.w3.org/2000/svg" viewBox="0 0 24 24"><path d="M13.5 20a.5.5 0 01.492.41l.008.09v.944a.5.5 0 01-.992.09l-.008-.09V20.5a.5.5 0 01.5-.5zm-3 0a.5.5 0 01.492.41l.008.09v.944a.5.5 0 01-.992.09l-.008-.09V20.5a.5.5 0 01.5-.5zm1.496-17.949c.621 0 1.204.288 1.58.774l.098.137.055.084a4.91 4.91 0 01.667 1.576l.056.282.952 5.666a3.5 3.5 0 001.178 2.082l.175.14 2.242 1.68a2.624 2.624 0 011.051 2.1 1.7 1.7 0 01-1.347 1.663l-.148.024-2.753.335c-.665.08-1.331.14-1.998.178.077-.24.106-.5.076-.767l-.026-.238a29.47 29.47 0 001.22-.098l.607-.068 2.753-.334a.7.7 0 00.616-.695c0-.46-.195-.897-.533-1.203l-.118-.097-2.241-1.68a4.5 4.5 0 01-1.693-2.613l-.048-.243-.951-5.666a3.902 3.902 0 00-.438-1.25l-.138-.23-.054-.083a1.001 1.001 0 00-.84-.456.918.918 0 00-.726.355l-.068.101-.028.049a3.787 3.787 0 00-.445 1.178l-.04.25-.705 5.547a4.5 4.5 0 01-1.704 2.986l-.192.141-2.38 1.655a1.534 1.534 0 00-.658 1.259c0 .319.214.593.513.676l.103.02 2.675.329c.63.077 1.263.134 1.895.172l-.024.237a1.849 1.849 0 00.08.768 30.98 30.98 0 01-1.383-.108l-.69-.077-2.675-.328a1.702 1.702 0 01-1.494-1.69c0-.765.346-1.486.935-1.965l.152-.114 2.38-1.655a3.5 3.5 0 001.441-2.223l.034-.209.705-5.546c.07-.546.233-1.076.481-1.565l.132-.242.113-.18a1.918 1.918 0 011.573-.821zm.036 10c-.674 0-1.24.508-1.31 1.178l-.51 4.777a1.849 1.849 0 002.043 2.034 1.842 1.842 0 001.625-2.035l-.534-4.779a1.322 1.322 0 00-1.314-1.175zm0 1c.164 0 .302.123.32.286l.534 4.779a.842.842 0 01-.742.93l-.094.005a.849.849 0 01-.849-.849l.002-.045.513-4.822a.318.318 0 01.316-.284z"/></svg>
