<svg xmlns="http://www.w3.org/2000/svg" viewBox="0 0 24 16"><path d="M1.4 2.7C2.2 1.2 4 .6 5.5 1.3l1.9 1c2.8 1.4 5.8 2.4 9 2.8l4.7.7C22.2 6 23 6.9 23 8c0 1-.7 1.9-1.8 2.2l-4.9 1c-3 .6-6 1.5-8.9 2.8l-1.9.8c-1.6.7-3.5 0-4.2-1.6l-.2-.4c-.5-1.2 0-2.6 1.2-3.2.1-.1.3-.1.4-.1l1.6-.4c.1 0 .1-.1.1-.1V7.4c0-.2-.2-.4-.4-.5l-1.2-.3C1.5 6.3.7 5 1.1 3.7c0-.1.1-.3.1-.4l.2-.4v-.2zm3.7-.4c-1-.5-2.2-.1-2.7.9l-.2.5c-.3.7 0 1.5.7 1.8.1 0 .1.1.2.1l1.4.3c.7.2 1.2.8 1.2 1.5v1.4c0 .6-.4 1.1-.9 1.2l-1.6.4c-.7.2-1.1.9-1 1.6 0 .1 0 .1.1.2l.2.4c.5 1.1 1.7 1.6 2.8 1.1l1.9-.8c2.9-1.3 6-2.2 9.1-2.9L21 9c.5-.1.9-.6.9-1.1 0-.5-.4-.9-.9-1l-4.7-.7c-3.2-.4-6.3-1.4-9.2-2.9l-2-1zm10.3 5.4c.3 0 .5.2.5.5s-.2.5-.5.5H7.8c-.3 0-.5-.2-.6-.5 0-.3.2-.5.5-.6h.1l7.6.1z" fill-rule="evenodd" clip-rule="evenodd"/></svg>