<svg xmlns="http://www.w3.org/2000/svg" viewBox="0 0 24 24"><path d="M10.787 2.577L5.24 5.583a2.5 2.5 0 00-1.305 2.048l-.176 2.934a8.692 8.692 0 002.993 7.098l4.9 4.234a.5.5 0 00.654 0l4.913-4.236a8.663 8.663 0 002.989-7.097l-.182-2.936a2.5 2.5 0 00-1.305-2.043l-5.55-3.008a2.5 2.5 0 00-2.383 0zm1.906.879l5.55 3.008c.456.246.751.71.783 1.226l.183 2.936.012.286a7.663 7.663 0 01-2.656 5.991l-4.587 3.954-4.573-3.95a7.692 7.692 0 01-2.649-6.282l.176-2.934a1.5 1.5 0 01.783-1.228l5.549-3.007a1.5 1.5 0 011.429 0z"/></svg>
