<svg xmlns="http://www.w3.org/2000/svg" viewBox="0 0 24 24"><path d="M11.449 3.18a1.934 1.934 0 012.405 1.303l.95 3.194a1.5 1.5 0 001.438 1.073h2.633a1.947 1.947 0 011.216 3.467l-2.565 2.052a1.5 1.5 0 00-.486 1.646l.934 2.802a1.784 1.784 0 01-2.807 1.957l-2.23-1.784a1.5 1.5 0 00-1.874 0l-2.23 1.784a1.784 1.784 0 01-2.807-1.957l.934-2.802a1.5 1.5 0 00-.486-1.646l-2.565-2.052A1.947 1.947 0 015.125 8.75h2.633a1.5 1.5 0 001.438-1.073l.95-3.194a1.934 1.934 0 011.303-1.303zm1.447 1.587a.935.935 0 00-.897-.668L12 17.561c.553 0 1.105.183 1.562.548l2.23 1.784a.784.784 0 001.234-.86l-.934-2.802a2.5 2.5 0 01.81-2.743l2.565-2.052a.947.947 0 00-.592-1.686h-2.633a2.5 2.5 0 01-2.396-1.788z"/></svg>
