<svg xmlns="http://www.w3.org/2000/svg" viewBox="0 0 24 24"><path d="M11.449 3.18a1.934 1.934 0 00-1.303 1.303l-.95 3.194A1.5 1.5 0 017.758 8.75H5.125a1.947 1.947 0 00-1.216 3.467l2.565 2.052a1.5 1.5 0 01.486 1.646l-.934 2.802a1.784 1.784 0 002.807 1.957l2.23-1.784a1.5 1.5 0 011.874 0l2.23 1.784a1.784 1.784 0 002.807-1.957l-.934-2.802a1.5 1.5 0 01.486-1.646l2.565-2.052a1.947 1.947 0 00-1.216-3.467h-2.633a1.5 1.5 0 01-1.438-1.073l-.95-3.194A1.934 1.934 0 0011.45 3.18zm1.447 1.587l.95 3.195a2.5 2.5 0 002.396 1.788h2.633a.947.947 0 01.592 1.686l-2.565 2.052a2.5 2.5 0 00-.81 2.743l.934 2.802a.784.784 0 01-1.234.86l-2.23-1.784a2.5 2.5 0 00-3.124 0l-2.23 1.784a.784.784 0 01-1.234-.86l.934-2.802a2.5 2.5 0 00-.81-2.743l-2.565-2.052a.947.947 0 01.592-1.686h2.633a2.5 2.5 0 002.396-1.788l.95-3.195a.934.934 0 011.792 0z"/></svg>
