<svg xmlns="http://www.w3.org/2000/svg" viewBox="0 0 24 24"><path d="M13.75 20a.5.5 0 01.09.992l-.09.008h-2.5a.5.5 0 01-.09-.992l.09-.008h2.5zm-2.25-3a.5.5 0 01.09.992L11.5 18h-4a.5.5 0 01-.09-.992L7.5 17h4zm5 0a.5.5 0 01.09.992L16.5 18H14a.5.5 0 01-.09-.992L14 17h2.5zm1.453-3a.5.5 0 01.09.992l-.09.008H12a.5.5 0 01-.09-.992L12 14h5.953zm-8.5 0a.5.5 0 01.09.992l-.09.008h-4a.5.5 0 01-.09-.992l.09-.008h4zM12 7a5 5 0 014.975 4.5H20.5a.5.5 0 01.09.992l-.09.008h-10a.5.5 0 01-.09-.992l.09-.008h5.47A4 4 0 008 12a.5.5 0 01-1 0 5 5 0 015-5zm-6.5 4.5a.5.5 0 01.09.992l-.09.008h-2a.5.5 0 01-.09-.992l.09-.008h2zm12.864-5.864a.5.5 0 01.058.638l-.058.07-1.414 1.413a.5.5 0 01-.765-.637l.058-.07 1.414-1.414a.5.5 0 01.707 0zm-12.09-.058l.07.058L7.756 7.05a.5.5 0 01-.637.765l-.07-.058-1.414-1.414a.5.5 0 01.638-.765zM12 3a.5.5 0 01.492.41l.008.09v2a.5.5 0 01-.992.09L11.5 5.5v-2A.5.5 0 0112 3z"/></svg>
