<svg xmlns="http://www.w3.org/2000/svg" viewBox="0 0 24 24"><path d="M12 3c3.223 0 5.874 2.254 5.996 5.108l.004.204V9h.5a2.5 2.5 0 012.495 2.336L21 11.5v2a2.5 2.5 0 01-2.024 2.455 4.5 4.5 0 01-4.264 4.04L14.5 20h-.086A1.5 1.5 0 0113 21h-2a1.5 1.5 0 010-3h2a1.5 1.5 0 011.415 1h.085a3.5 3.5 0 003.464-3H17V8.312C17 5.947 14.775 4 12 4 9.302 4 7.124 5.84 7.005 8.116L7 8.313V16H5.5A2.5 2.5 0 013 13.5v-2A2.5 2.5 0 015.5 9H6v-.688C6 5.362 8.7 3 12 3zm1 16h-2a.5.5 0 100 1h2a.5.5 0 100-1zm-7-9h-.5a1.5 1.5 0 00-1.493 1.356L4 11.5v2A1.5 1.5 0 005.5 15H6v-5zm12.5 0H18v5h.5a1.5 1.5 0 001.5-1.5v-2a1.5 1.5 0 00-1.5-1.5zm-6.76 3.79l.092.005a.45.45 0 01.278.13c.087.09.13.215.13.375v.19l-.005.092a.476.476 0 01-.125.283c-.087.09-.21.135-.37.135h-.1l-.092-.005a.45.45 0 01-.278-.13.518.518 0 01-.13-.375v-.19l.005-.092a.476.476 0 01.125-.283c.087-.09.21-.135.37-.135h.1zm.1-6.17c.427 0 .815.097 1.165.29a2.2 2.2 0 011.145 1.97c0 .4-.088.755-.265 1.065-.177.31-.418.56-.725.75-.307.19-.653.305-1.04.345-.007 0-.008.002-.005.005s.012.002.025-.005v.66l-.008.096a.465.465 0 01-.127.244.447.447 0 01-.335.14.458.458 0 01-.345-.14.438.438 0 01-.125-.34v-.94l.008-.1a.468.468 0 01.462-.39c.447-.013.812-.138 1.095-.375.283-.237.425-.575.425-1.015 0-.38-.13-.695-.39-.945s-.58-.375-.96-.375c-.213 0-.418.045-.615.135-.197.09-.368.212-.515.365-.133.12-.267.18-.4.18a.425.425 0 01-.26-.09c-.147-.107-.22-.23-.22-.37 0-.12.05-.23.15-.33a2.39 2.39 0 01.825-.61c.323-.147.668-.22 1.035-.22z"/></svg>
