<svg xmlns="http://www.w3.org/2000/svg" viewBox="0 0 24 24"><path d="M6 4c1.538 0 2.895.771 3.707 1.948l1.113-.222a2.5 2.5 0 012.303.73l7.454 7.846a2.5 2.5 0 01.03 3.412l-2.827 3.084a2.5 2.5 0 01-3.532.154L6.403 13.11a2.5 2.5 0 01-.683-2.258l.659-3.296a1.5 1.5 0 011.177-1.177l1.054-.211a3.491 3.491 0 00-2.418-1.163L6 5H4.5a.5.5 0 01-.09-.992L4.5 4H6zm6.398 3.144a1.5 1.5 0 00-1.382-.437l-.82.163c.145.374.242.773.283 1.189A1.999 1.999 0 0110 12a2 2 0 01-.527-3.93 3.445 3.445 0 00-.277-1l-1.444.29a.5.5 0 00-.392.392l-.66 3.296a1.5 1.5 0 00.41 1.355l7.796 7.795.136.114a1.5 1.5 0 002-.19l2.828-3.084a1.5 1.5 0 00-.018-2.047zM10 9a1 1 0 100 2 1 1 0 000-2z"/></svg>
