<svg xmlns="http://www.w3.org/2000/svg" viewBox="0 0 24 24"><path d="M12 2c5.523 0 10 4.477 10 10v6a4 4 0 01-4 4h-6C6.477 22 2 17.523 2 12S6.477 2 12 2zm0 1a9 9 0 00-.265 17.996L12 21h6a3 3 0 002.995-2.824L21 18v-6a9 9 0 00-9-9zM8.112 14a.38.38 0 00.276-.105.35.35 0 00.108-.261v-3.468a.357.357 0 00-.102-.264.365.365 0 00-.27-.102c-.1 0-.188.035-.264.105a.34.34 0 00-.114.261v1.38H5.832v-1.38a.35.35 0 00-.108-.261.357.357 0 00-.258-.105.38.38 0 00-.276.105.35.35 0 00-.108.261v3.468a.362.362 0 00.372.366c.1 0 .188-.035.264-.105a.34.34 0 00.114-.261v-1.398h1.914v1.398a.35.35 0 00.108.261c.072.07.158.105.258.105zm3.66 0a.372.372 0 00.261-.096.318.318 0 00.105-.246.334.334 0 00-.105-.243.354.354 0 00-.261-.105h-1.626V12.2h1.356a.377.377 0 00.264-.093.313.313 0 00.102-.243.335.335 0 00-.105-.255.366.366 0 00-.261-.099h-1.356v-1.02h1.626a.377.377 0 00.264-.093.313.313 0 00.102-.243.335.335 0 00-.105-.255.366.366 0 00-.261-.099h-2.01a.354.354 0 00-.261.105.354.354 0 00-.105.261v3.468c0 .104.035.191.105.261.07.07.157.105.261.105h2.01zm3.372 0a.366.366 0 00.261-.099.328.328 0 00.105-.249.335.335 0 00-.105-.255.366.366 0 00-.261-.099h-1.566v-3.132a.35.35 0 00-.108-.261.357.357 0 00-.258-.105.38.38 0 00-.276.105.35.35 0 00-.108.261v3.468c0 .104.035.191.105.261.07.07.157.105.261.105h1.95zm1.398 0a.33.33 0 00.252-.102.37.37 0 00.096-.264V12.5h1.044c.204 0 .398-.061.582-.183.184-.122.332-.287.444-.495.112-.208.168-.432.168-.672a1.39 1.39 0 00-.168-.675 1.354 1.354 0 00-.444-.492 1.036 1.036 0 00-.582-.183h-1.368a.354.354 0 00-.261.105.354.354 0 00-.105.261v3.468c0 .104.032.191.096.261s.146.105.246.105zm1.392-2.184H16.89V10.49h1.044a.35.35 0 01.225.093.772.772 0 01.18.888.708.708 0 01-.18.249.344.344 0 01-.225.096z"/></svg>
