<svg xmlns="http://www.w3.org/2000/svg" viewBox="0 0 24 24"><path d="M12 2c5.523 0 10 4.477 10 10v6a4 4 0 01-4 4h-6C6.477 22 2 17.523 2 12S6.477 2 12 2zm0 1a9 9 0 00-.265 17.996L12 21h6a3 3 0 002.995-2.824L21 18v-6a9 9 0 00-9-9zM8.835 14.03a.327.327 0 00.234-.099.34.34 0 00.102-.255.404.404 0 00-.03-.144l-1.476-3.516a.355.355 0 00-.336-.24.314.314 0 00-.216.054.398.398 0 00-.144.186l-1.494 3.588a.397.397 0 00-.018.114c0 .096.027.172.081.228.054.056.133.084.237.084a.316.316 0 00.189-.063.37.37 0 00.129-.177l.312-.732h1.788l.312.726a.429.429 0 00.135.18.315.315 0 00.195.066zm-.936-1.662h-1.2l.594-1.404.606 1.404zM10.053 14c.1 0 .188-.035.264-.105a.34.34 0 00.114-.261v-3.468a.35.35 0 00-.108-.261.357.357 0 00-.258-.105.38.38 0 00-.276.105.35.35 0 00-.108.261v3.468a.362.362 0 00.372.366zm3.078 0c.376 0 .699-.093.969-.279.27-.186.476-.438.618-.756.142-.318.213-.673.213-1.065 0-.392-.071-.747-.213-1.065a1.774 1.774 0 00-.618-.756c-.27-.186-.593-.279-.969-.279h-1.434a.354.354 0 00-.261.105.354.354 0 00-.105.261v3.468c0 .104.035.191.105.261.07.07.157.105.261.105h1.434zm-.06-.69h-.99v-2.82h.99c.356 0 .625.133.807.399.182.266.273.603.273 1.011 0 .408-.09.745-.27 1.011-.18.266-.45.399-.81.399zm4.926.69a.372.372 0 00.261-.096.318.318 0 00.105-.246.334.334 0 00-.105-.243.354.354 0 00-.261-.105h-1.626V12.2h1.356a.377.377 0 00.264-.093.313.313 0 00.102-.243.335.335 0 00-.105-.255.366.366 0 00-.261-.099h-1.356v-1.02h1.626a.377.377 0 00.264-.093.313.313 0 00.102-.243.335.335 0 00-.105-.255.366.366 0 00-.261-.099h-2.01a.354.354 0 00-.261.105.354.354 0 00-.105.261v3.468c0 .104.035.191.105.261.07.07.157.105.261.105h2.01z"/></svg>
