<svg xmlns="http://www.w3.org/2000/svg" viewBox="0 0 24 24"><path d="M12 3a2.706 2.706 0 012.582 3.513l-.793 2.54A1.5 1.5 0 0015.22 11h3.587a2.323 2.323 0 012.157 3.186l-.938 2.345a4.5 4.5 0 01-.05.122.459.459 0 01-.05.11l-.053.11-.926 1.85A4.118 4.118 0 0115.264 21H8.5a2.494 2.494 0 01-1.87-.842A2 2 0 013 19v-6a2 2 0 013.357-1.47A1.49 1.49 0 017.5 11c.409 0 .779-.242.943-.617L11.673 3zm-7 9a1 1 0 00-.993.883L4 13v6a1 1 0 001.993.117L6 19v-.5l-.001-5.517-.006-.1A1 1 0 005 12zm7.314-7.971l-2.955 6.755A2.029 2.029 0 017.5 12a.5.5 0 00-.5.5v6.021A1.5 1.5 0 008.5 20h6.764c.88 0 1.705-.371 2.287-.998L17.5 19a.5.5 0 01-.09-.992L17.5 18h.69l.5-1h-.19a.5.5 0 01-.09-.992L18.5 16h.661l.4-1H19a.5.5 0 01-.09-.992L19 14h.961l.075-.186c.047-.117.076-.24.088-.365l.006-.126c0-.73-.592-1.323-1.323-1.323H15.22a2.5 2.5 0 01-2.386-3.246l.794-2.54a1.706 1.706 0 00-1.197-2.16l-.117-.025z"/></svg>
