<svg xmlns="http://www.w3.org/2000/svg" viewBox="0 0 24 24"><path d="M14.5 2a2.5 2.5 0 012.45 2H20v.5a3.5 3.5 0 01-3 3.464V9h3v.5a3.5 3.5 0 01-3 3.464V14h3v.5a3.5 3.5 0 01-3.096 3.477 5 5 0 01-9.809 0A3.501 3.501 0 014 14.5V14l3-.001v-1.034A3.501 3.501 0 014.005 9.69L4 9.5V9l3-.001V7.965A3.501 3.501 0 014.005 4.69L4 4.5V4h3.05A2.5 2.5 0 019.5 2zm0 1h-5A1.5 1.5 0 008 4.5v-.01V17a4 4 0 003.8 3.995L12 21a4 4 0 004-4V4.5A1.5 1.5 0 0014.5 3zM12 14a2 2 0 110 4 2 2 0 010-4zm0 1a1 1 0 100 2 1 1 0 000-2zm-5 0H5.051l.032.14c.23.869.914 1.555 1.78 1.78l.137.031V15zm11.949 0H17v1.951l.136-.03a2.503 2.503 0 001.781-1.781l.032-.14zM12 9a2 2 0 110 4 2 2 0 010-4zm0 1a1 1 0 100 2 1 1 0 000-2zm-5 0H5.051l.032.14c.23.869.914 1.555 1.78 1.78l.137.031V10zm11.949 0H17v1.951l.136-.03a2.503 2.503 0 001.781-1.781l.032-.14zM12 4a2 2 0 110 4 2 2 0 010-4zm0 1a1 1 0 100 2 1 1 0 000-2zM7 5H5.051l.032.14c.23.869.914 1.555 1.78 1.78L7 6.952V5zm11.949 0H17v1.951l.136-.03a2.503 2.503 0 001.781-1.781L18.95 5z"/></svg>
