<svg viewBox="0 0 24 24" xmlns="http://www.w3.org/2000/svg"><path fill-rule="evenodd" clip-rule="evenodd" d="M7.887 4.056a6.68 6.68 0 0 0-4.248 6.222v3.808a2.5 2.5 0 0 0 2.5 2.5h5.296V20.5l.009.09a.5.5 0 0 0 .991-.09v-3.914h5.554a2.5 2.5 0 0 0 2.5-2.5v-3.748a6.732 6.732 0 0 0-4.074-6.185l-.297-.12a11.384 11.384 0 0 0-8.23.023zm4.548 11.53h5.554a1.5 1.5 0 0 0 1.5-1.5v-3.748a5.732 5.732 0 0 0-3.674-5.35l-.056-.022a10.384 10.384 0 0 0-7.508.021 5.68 5.68 0 0 0-3.612 5.29v3.81a1.5 1.5 0 0 0 1.5 1.5h5.296v-.808L8.147 11.5a.5.5 0 0 1 .637-.766l.07.058 2.582 2.576V8.5a.5.5 0 0 1 .992-.09l.007.09v2.418l2.192-2.204a.5.5 0 0 1 .767.636l-.058.07-2.9 2.916v3.25z"/></svg>