<svg xmlns="http://www.w3.org/2000/svg" viewBox="0 0 24 24"><path d="M17.463 8a2.47 2.47 0 012.32 1.623l.054.164.09.312a6.828 6.828 0 01.086 3.444l-.08.308-.1.358A2.463 2.463 0 0117.462 16a4.465 4.465 0 01-2.74-.94l-.191-.157-2.576-2.24-2.585 2.25a4.425 4.425 0 01-2.407 1.058l-.245.022-.251.007a2.441 2.441 0 01-2.293-1.604l-.056-.172-.108-.381a6.818 6.818 0 01-.072-3.44l.08-.307.094-.324A2.45 2.45 0 016.468 8c.985 0 1.939.329 2.713.93l.19.156 2.585 2.25 2.576-2.24a4.465 4.465 0 012.683-1.09L17.463 8zm0 1c-.76 0-1.497.25-2.098.708l-.177.143L12.72 12l2.47 2.15c.515.449 1.15.733 1.821.821l.226.023.227.007c.607 0 1.146-.374 1.363-.932l.044-.132.102-.358c.27-.952.293-1.955.068-2.915l-.074-.287-.09-.312A1.47 1.47 0 0017.463 9zM6.468 9c-.6 0-1.133.369-1.35.919l-.044.13-.094.324c-.273.95-.3 1.951-.08 2.91l.073.287.108.382a1.44 1.44 0 001.238 1.042l.134.006.22-.006a3.422 3.422 0 001.866-.692l.175-.143L11.194 12l-2.48-2.16a3.422 3.422 0 00-1.8-.81l-.222-.023L6.468 9z"/></svg>
