<svg xmlns="http://www.w3.org/2000/svg" viewBox="0 0 24 24"><path d="M18.1 1C20.8 1 23 3.2 23 5.9v12.2c0 2.7-2.2 4.9-4.9 4.9H5.9C3.2 23 1 20.8 1 18.1V5.9C1 3.2 3.2 1 5.9 1h12.2zm-7 1.2H5.9C4 2.2 2.4 3.7 2.2 5.7V18.1c0 1.9 1.5 3.5 3.5 3.7H18.1c.8 0 1.5-.3 2.1-.7L18.1 19c-1.2.7-2.7.3-3.3-.9s-.3-2.7.9-3.3 2.7-.3 3.3.9c.5.8.5 1.7 0 2.5l2.1 2.1c.4-.6.6-1.2.7-1.9V5.9c0-1.9-1.5-3.5-3.5-3.7h-5.4L9.2 5.9c.2.3.3.7.4 1.1v.2c0 1.4-1.1 2.4-2.4 2.4-1.4 0-2.4-1.1-2.4-2.4 0-1.4 1.1-2.4 2.4-2.4.3-.1.8 0 1.2.2l2.7-2.8zm5.8 2.5c1.4 0 2.4 1.1 2.4 2.4 0 1.4-1.1 2.4-2.4 2.4-.4 0-.9-.1-1.2-.3l-6.4 6.4c.7 1.2.3 2.7-.9 3.3s-2.7.4-3.4-.8-.3-2.7.9-3.3c.8-.5 1.7-.5 2.5 0l6.4-6.4c-.7-1.2-.3-2.7.9-3.3.3-.3.8-.4 1.2-.4zm-9.8 11c-.7 0-1.2.5-1.2 1.2s.5 1.2 1.2 1.2 1.2-.5 1.2-1.2-.5-1.2-1.2-1.2zm9.8 0c-.7 0-1.2.5-1.2 1.2s.5 1.2 1.2 1.2 1.2-.5 1.2-1.2-.5-1.2-1.2-1.2zM7.1 5.9c-.7 0-1.2.5-1.2 1.2s.5 1.2 1.2 1.2 1.2-.5 1.2-1.2-.5-1.2-1.2-1.2zm9.8 0c-.7 0-1.2.5-1.2 1.2s.5 1.2 1.2 1.2 1.2-.5 1.2-1.2-.5-1.2-1.2-1.2z" fill-rule="evenodd" clip-rule="evenodd"/></svg>