<svg xmlns="http://www.w3.org/2000/svg" viewBox="0 0 24 24"><path d="M7.5 6a3.5 3.5 0 013.082 5.16 3.489 3.489 0 012.413 3.148L13 14.5v.333c0 1.687-1.3 3.069-2.941 3.162L9.882 18H5.118c-1.665 0-3.021-1.324-3.113-2.987L2 14.833V14.5a3.496 3.496 0 012.418-3.342A3.5 3.5 0 017.5 6zm8.9.5a3.375 3.375 0 013.159 4.566c1.35.3 2.36 1.633 2.436 3.237L22 14.5v.333c0 1.67-1.122 3.064-2.579 3.162l-.163.005H13.5a.5.5 0 01-.09-.992L13.5 17h5.758c.898 0 1.669-.868 1.737-2.003l.005-.164V14.5c0-1.38-.902-2.47-1.978-2.5A3.375 3.375 0 1116.4 6.5zm-6.482 5.527l-.073.071c-.62.56-1.443.902-2.345.902-.938 0-1.79-.369-2.418-.97-1.125.169-2.002 1.124-2.077 2.305L3 14.5v.333c0 1.147.87 2.082 1.967 2.162l.151.005h4.764c1.117 0 2.035-.886 2.113-2.012l.005-.155V14.5c0-1.256-.905-2.293-2.082-2.473zM16.4 7.5a2.375 2.375 0 100 4.75 2.375 2.375 0 000-4.75zM7.5 7a2.5 2.5 0 100 5 2.5 2.5 0 000-5z"/></svg>
