<svg xmlns="http://www.w3.org/2000/svg" viewBox="0 0 24 24"><path d="M12 4a5 5 0 014.513 7.156c1.945.498 3.385 2.152 3.482 4.131L20 15.5v.444c0 2.178-1.795 3.946-4.038 4.051L15.75 20h-7.5c-2.27 0-4.134-1.702-4.245-3.853L4 15.944V15.5c0-2.07 1.47-3.828 3.488-4.345A5 5 0 0112 4zm3.956 8.057l-.019.025A4.991 4.991 0 0112 14c-1.61 0-3.04-.76-3.955-1.94-1.684.287-2.95 1.637-3.04 3.256L5 15.5v.444c0 1.624 1.351 2.96 3.065 3.051L8.25 19h7.5c1.739 0 3.15-1.281 3.245-2.883l.005-.173V15.5c0-1.702-1.3-3.142-3.044-3.443zM12 5a4 4 0 100 8 4 4 0 000-8z"/></svg>
