<svg xmlns="http://www.w3.org/2000/svg" viewBox="0 0 24 24"><path d="M18.954 4.957C20.892 6.817 22 9.325 22 12c0 2.658-1.093 5.15-3.008 7.007a.5.5 0 11-.696-.718C20.019 16.617 21 14.382 21 12c0-2.398-.994-4.647-2.738-6.321a.5.5 0 11.692-.722zM8.535 6.338c.81 0 1.465.656 1.465 1.465v8.745a1.415 1.415 0 01-2.32 1.087l-.388-.323a3.5 3.5 0 00-2.24-.812l-.201-.005A2 2 0 013 14.5v-5a2 2 0 012-2h.289a3.5 3.5 0 001.941-.587l.493-.329c.24-.16.523-.246.812-.246zm8.341.781C18.228 8.416 19 10.151 19 12c0 1.85-.772 3.584-2.123 4.881a.5.5 0 11-.693-.721C17.344 15.048 18 13.57 18 12c0-1.57-.657-3.047-1.816-4.16a.5.5 0 01.692-.72zm-8.34.22a.465.465 0 00-.259.077l-.492.329a4.5 4.5 0 01-2.496.755H5a1 1 0 00-1 1v5a1 1 0 001 1l.294.007a4.5 4.5 0 012.639 1.036l.387.323a.415.415 0 00.68-.318V7.803a.465.465 0 00-.465-.465zm6.419 1.777A4.483 4.483 0 0116 12a4.485 4.485 0 01-1.055 2.896.5.5 0 01-.766-.644A3.478 3.478 0 0015 12a3.48 3.48 0 00-.813-2.242.5.5 0 11.768-.642z"/></svg>
