<svg xmlns="http://www.w3.org/2000/svg" viewBox="0 0 24 24"><path d="M16 20H6a4 4 0 01-4-4V8a4 4 0 014-4h10a4 4 0 014 4v2.445l.002.055H20V12a2 2 0 110 4 4 4 0 01-4 4zm4-7h-4a1 1 0 00-.117 1.993L16 15h4a1 1 0 00.117-1.993L20 13zm-4-8H6a3 3 0 00-2.851 2.064l-.002-.04a.97.97 0 00.857.963l.113.006h13.379a2.49 2.49 0 011.505.503L19 8a3 3 0 00-2.824-2.995L16 5zm0 11a2 2 0 110-4h3v-1.546l-.004-.091a1.507 1.507 0 00-1.363-1.364l-.137-.006H4.116c-.414 0-.798-.128-1.116-.346V16a3 3 0 002.824 2.995L6 19h10a3 3 0 002.995-2.824L19 16h-3z"/></svg>
