<svg viewBox="0 0 24 24" xmlns="http://www.w3.org/2000/svg"><path d="M20.815 7a1 1 0 0 1 .985 1.168l-1.738 10.169A2 2 0 0 1 18.091 20H5.909a2 2 0 0 1-1.971-1.663L2.2 8.168A1 1 0 0 1 3.185 7h17.63zm0 1H3.185l1.739 10.168a1 1 0 0 0 .865.825l.12.007h12.182a1 1 0 0 0 .958-.714l.027-.118L20.815 8zm-4.022 6a1.5 1.5 0 0 1 1.473 1.785l-.193 1A1.5 1.5 0 0 1 16.6 18H7.326a1.5 1.5 0 0 1-1.483-1.27l-.154-1A1.5 1.5 0 0 1 7.17 14zm0 1l-9.66.001-.038.005a.5.5 0 0 0-.418.57l.154 1a.5.5 0 0 0 .495.424H16.6a.5.5 0 0 0 .49-.405l.194-1a.5.5 0 0 0-.491-.595zm.725-6a1.5 1.5 0 0 1 1.474 1.776l-.187 1A1.5 1.5 0 0 1 17.33 13H6.667a1.5 1.5 0 0 1-1.48-1.255l-.166-1A1.5 1.5 0 0 1 6.501 9zm0 1l-11.058.002-.04.005a.5.5 0 0 0-.412.575l.166 1a.5.5 0 0 0 .493.418H17.33a.5.5 0 0 0 .492-.408l.187-1a.5.5 0 0 0-.491-.592z"/></svg>
