<svg xmlns="http://www.w3.org/2000/svg" viewBox="0 0 24 24"><path d="M16 6.5a.5.5 0 01.462.309l.026.083.19.856c.052.088.076.19.067.293l.882 3.976a4 4 0 11-.977.216l-.631-2.837-2.508 4.351A4.5 4.5 0 0110 15.983V16a4 4 0 11-1.644-3.233l-.843-3.655A.502.502 0 017.5 9h-.777A.723.723 0 016 8.277a.647.647 0 01.719-.644l2.784.311A.56.56 0 0110 8.5a.5.5 0 01-.5.5h-.987l1.383 5.989a3.5 3.5 0 002.633-1.554l.115-.187 3.053-5.297-.099-.451h-.599a.5.5 0 01-.491-.41L14.499 7a.5.5 0 01.41-.492L15 6.5h1zM6 13a3 3 0 103 3v-.001L6 16a.5.5 0 01-.09-.992L6 15h2.829A3.001 3.001 0 006 13zm12 0l-.153.004.641 2.888a.5.5 0 01-.949.302l-.027-.086-.643-2.887A3.001 3.001 0 1018 13z"/></svg>
