<svg viewBox="0 0 320 416" fill="none" xmlns="http://www.w3.org/2000/svg"><path d="M187.994 398.554a.822.822 0 0 0-.914.297c-2.169 2.976-5.357 4.334-11.125 4.334-6.645 0-11.458-3.438-13.178-10.313h39.663a.823.823 0 0 0 .822-.786c.074-1.622.074-2.476.074-4.369 0-16.041-11.226-28.187-27.497-28.187s-27.726 12.146-27.726 28.187c0 16.155 11.113 28.185 28.185 28.185 9.086 0 18.669-3.664 23.428-12.5a.821.821 0 0 0 .048-.706.831.831 0 0 0-.515-.485l-11.265-3.657zm-25.315-16.233c1.488-5.952 6.3-9.967 13.175-9.967 6.53 0 12.03 4.125 13.063 9.967h-26.238zm84.836 16.233a.822.822 0 0 0-.914.297c-2.169 2.976-5.357 4.334-11.125 4.334-6.646 0-11.458-3.438-13.175-10.313h39.66a.825.825 0 0 0 .825-.786c.074-1.622.074-2.476.074-4.369 0-16.041-11.229-28.187-27.497-28.187s-27.729 12.146-27.729 28.187c0 16.155 11.116 28.185 28.188 28.185 9.083 0 18.669-3.664 23.425-12.5a.821.821 0 0 0 .048-.706.831.831 0 0 0-.515-.485l-11.265-3.657zm-25.33-16.233c1.488-5.952 6.303-9.967 13.178-9.967 6.53 0 12.03 4.125 13.06 9.967h-26.238zM62.164 360.783h-14.17a.822.822 0 0 0-.821.821v52.209a.82.82 0 0 0 .821.821h14.17a.822.822 0 0 0 .821-.821v-52.209a.822.822 0 0 0-.821-.821zm-7.087-27.155c-5.386 0-9.854 4.238-9.854 9.625 0 5.268 4.465 9.393 9.854 9.393 5.39 0 9.855-4.125 9.855-9.393 0-5.387-4.47-9.625-9.855-9.625zm90.042 27.155h-14.997v-17.509a.83.83 0 0 0-.506-.762.831.831 0 0 0-.315-.063h-14.167a.824.824 0 0 0-.822.825v17.509H94.146v-2.75c0-5.846 2.976-9.167 9.854-9.167.821 0 1.643.06 2.42.134a.816.816 0 0 0 .892-.818V337.17a.822.822 0 0 0-.672-.81 42.717 42.717 0 0 0-7.575-.792c-12.032 0-20.738 7.221-20.738 23.146v2.063h-9.696a.821.821 0 0 0-.822.821v10.714a.822.822 0 0 0 .822.822h9.72v40.655a.812.812 0 0 0 .24.581.807.807 0 0 0 .582.24h14.16a.818.818 0 0 0 .822-.821v-40.634h20.166v20.279c0 14.554 8.363 22.114 20.968 22.114a30.33 30.33 0 0 0 8.446-1.206.817.817 0 0 0 .595-.794v-11.23a.816.816 0 0 0-.255-.594.828.828 0 0 0-.605-.227c-1.723.074-3.247.074-3.836.074-7.22 0-9.524-3.553-9.524-10.312v-18.104h15.009a.822.822 0 0 0 .821-.822v-10.714a.81.81 0 0 0-.235-.591.83.83 0 0 0-.586-.245zm148.542-1.262c-16.729.116-25.78 10.416-25.78 24.979v29.464a.649.649 0 0 0 .402.602c.079.033.164.05.25.05h14.506a.647.647 0 0 0 .461-.191.657.657 0 0 0 .191-.461v-28.333c0-7.563 3.324-12.262 9.97-12.375 6.643.113 9.967 4.812 9.967 12.375v28.333a.649.649 0 0 0 .402.602c.079.033.164.05.25.05h14.506a.647.647 0 0 0 .461-.191.657.657 0 0 0 .191-.461V384.5c0-14.551-9.051-24.863-25.777-24.979zm-252.218 1.262h-14.53v-2.75c0-5.846 2.977-9.167 9.855-9.167.893 0 1.786.068 2.607.152a.66.66 0 0 0 .502-.165.652.652 0 0 0 .212-.484v-11.336a.657.657 0 0 0-.535-.643 42.986 42.986 0 0 0-7.715-.816c-12.03 0-20.738 7.221-20.738 23.146v2.063H1.384a.81.81 0 0 0-.582.239.835.835 0 0 0-.24.582v10.714a.82.82 0 0 0 .822.822H11.1v40.655a.822.822 0 0 0 .825.821h14.166a.818.818 0 0 0 .822-.821v-40.64h14.53a.831.831 0 0 0 .582-.24.816.816 0 0 0 .242-.582v-10.714a.827.827 0 0 0-.236-.592.832.832 0 0 0-.589-.244zm50.369-58.441l6.265 2.789a2.285 2.285 0 0 0 3.015-1.158l44.643-100.297a2.297 2.297 0 0 0-.535-2.599 2.302 2.302 0 0 0-.801-.485 45.663 45.663 0 0 1-5.914-2.631 2.304 2.304 0 0 0-1.828-.162 2.296 2.296 0 0 0-1.36 1.234L90.655 299.33a2.285 2.285 0 0 0 1.157 3.012zm28.801-116.943l-81.598 73.47a2.284 2.284 0 0 0-.17 3.226l4.587 5.096a2.278 2.278 0 0 0 1.578.753 2.276 2.276 0 0 0 1.648-.584l81.601-73.473a2.284 2.284 0 0 0 .751-1.674 2.304 2.304 0 0 0-.715-1.689 46.083 46.083 0 0 1-4.337-4.81 2.291 2.291 0 0 0-2.534-.784c-.3.099-.576.258-.811.469zM6.824 203.786l2.12 6.521a2.284 2.284 0 0 0 2.877 1.464l104.429-33.914a2.286 2.286 0 0 0 1.367-1.224 2.297 2.297 0 0 0 .032-1.835 45.285 45.285 0 0 1-1.994-6.167 2.289 2.289 0 0 0-1.104-1.466 2.3 2.3 0 0 0-1.825-.189L8.301 200.905a2.282 2.282 0 0 0-1.58 1.993c-.025.3.01.602.103.888zM23.2 74.679l-3.43 5.937a2.286 2.286 0 0 0 .837 3.122l95.087 54.899a2.297 2.297 0 0 0 2.64-.258c.239-.207.432-.46.568-.745a45.274 45.274 0 0 1 3.244-5.61 2.3 2.3 0 0 0 .346-1.795 2.286 2.286 0 0 0-1.075-1.479L26.318 73.842a2.284 2.284 0 0 0-3.119.837zm45.559-48.471l-5.545 4.03a2.285 2.285 0 0 0-.506 3.19l64.554 88.846a2.297 2.297 0 0 0 1.587.922 2.288 2.288 0 0 0 1.755-.538 46.19 46.19 0 0 1 5.232-3.813 2.305 2.305 0 0 0 1.045-1.505 2.3 2.3 0 0 0-.393-1.789L71.952 26.714a2.29 2.29 0 0 0-3.193-.506zM130.098.458l-6.705 1.426a2.286 2.286 0 0 0-1.759 2.711l22.83 107.411a2.296 2.296 0 0 0 2.896 1.711 45.861 45.861 0 0 1 6.33-1.336 2.292 2.292 0 0 0 1.95-2.741L132.809 2.217a2.285 2.285 0 0 0-2.711-1.759zm66.509 1.426L189.902.458a2.288 2.288 0 0 0-2.711 1.76L164.36 109.636a2.298 2.298 0 0 0 .375 1.798 2.29 2.29 0 0 0 1.575.946 45.87 45.87 0 0 1 6.33 1.339 2.287 2.287 0 0 0 1.821-.224 2.284 2.284 0 0 0 1.075-1.487l22.83-107.41a2.291 2.291 0 0 0-.939-2.362 2.282 2.282 0 0 0-.82-.353zm60.179 28.354l-5.545-4.03a2.289 2.289 0 0 0-3.193.506l-64.536 88.837a2.29 2.29 0 0 0 .664 3.294 45.858 45.858 0 0 1 5.232 3.813 2.293 2.293 0 0 0 3.33-.384l64.554-88.845a2.288 2.288 0 0 0-.506-3.19zm43.443 50.378l-3.428-5.937a2.285 2.285 0 0 0-3.119-.837l-95.099 54.908a2.292 2.292 0 0 0-1.075 1.479 2.291 2.291 0 0 0 .346 1.795 45.165 45.165 0 0 1 3.244 5.601 2.302 2.302 0 0 0 1.386 1.201 2.296 2.296 0 0 0 1.823-.198l95.086-54.899a2.284 2.284 0 0 0 .836-3.113zm-96.479 97.241l104.42 33.929a2.276 2.276 0 0 0 2.442-.687c.195-.228.343-.492.436-.777l2.119-6.521a2.287 2.287 0 0 0-1.468-2.878l-104.425-33.929a2.302 2.302 0 0 0-1.82.182 2.305 2.305 0 0 0-1.109 1.455 45.22 45.22 0 0 1-1.994 6.155 2.29 2.29 0 0 0 .584 2.6c.236.212.514.372.815.471zm-12.009 16.03l81.601 73.473a2.277 2.277 0 0 0 1.649.584 2.28 2.28 0 0 0 1.577-.753l4.587-5.096a2.277 2.277 0 0 0 .364-2.512 2.283 2.283 0 0 0-.534-.714l-81.598-73.47a2.284 2.284 0 0 0-2.636-.297 2.291 2.291 0 0 0-.709.612 46.083 46.083 0 0 1-4.337 4.81 2.303 2.303 0 0 0-.715 1.689 2.29 2.29 0 0 0 .751 1.674zm30.182 111.244l6.25-2.789a2.284 2.284 0 0 0 1.157-3.018l-44.642-100.297a2.3 2.3 0 0 0-1.36-1.233 2.279 2.279 0 0 0-1.828.161 45.663 45.663 0 0 1-5.914 2.631 2.302 2.302 0 0 0-1.341 1.25 2.296 2.296 0 0 0 .005 1.834l44.643 100.297a2.285 2.285 0 0 0 3.03 1.164zm-67.634-99.649V315.28c-.001.3.058.597.173.874a2.264 2.264 0 0 0 1.235 1.238c.277.114.575.174.875.174h6.845a2.292 2.292 0 0 0 2.11-1.412c.114-.277.173-.574.173-.874V205.482a2.277 2.277 0 0 0-2.435-2.277 43.79 43.79 0 0 1-3.274.125c-1.101 0-2.196-.044-3.274-.125a2.286 2.286 0 0 0-2.242 1.369 2.287 2.287 0 0 0-.186.908zm-41.295-58.509L3.804 135.458a2.291 2.291 0 0 0-2.512 2.033l-.717 6.818a2.287 2.287 0 0 0 1.18 2.248c.264.143.554.233.852.264l109.179 11.515a2.275 2.275 0 0 0 2.299-1.282 2.3 2.3 0 0 0 .222-.902 43.324 43.324 0 0 1 .687-6.521 2.294 2.294 0 0 0-.028-.926 2.287 2.287 0 0 0-1.091-1.448 2.27 2.27 0 0 0-.881-.284zm94.012 0l109.19-11.515a2.29 2.29 0 0 1 2.512 2.033l.718 6.818a2.283 2.283 0 0 1-2.033 2.512l-109.179 11.515a2.275 2.275 0 0 1-2.299-1.282 2.3 2.3 0 0 1-.222-.902 43.324 43.324 0 0 0-.687-6.521 2.294 2.294 0 0 1 .028-.926 2.287 2.287 0 0 1 1.091-1.448 2.27 2.27 0 0 1 .881-.284z" fill="#000"/></svg>