<svg viewBox="0 0 320 83" fill="none" xmlns="http://www.w3.org/2000/svg"><path d="M187.994 64.926a.818.818 0 0 0-.914.297c-2.169 2.977-5.357 4.334-11.125 4.334-6.645 0-11.458-3.438-13.178-10.313h39.663a.824.824 0 0 0 .822-.785c.074-1.623.074-2.477.074-4.37 0-16.041-11.226-28.187-27.497-28.187s-27.726 12.146-27.726 28.187c0 16.155 11.113 28.185 28.185 28.185 9.086 0 18.669-3.664 23.428-12.5a.818.818 0 0 0 .048-.706.832.832 0 0 0-.515-.485l-11.265-3.657zm-25.315-16.232c1.488-5.953 6.3-9.968 13.175-9.968 6.53 0 12.03 4.125 13.063 9.968h-26.238zm84.836 16.232a.818.818 0 0 0-.914.297c-2.169 2.977-5.357 4.334-11.125 4.334-6.646 0-11.458-3.438-13.175-10.313h39.66a.827.827 0 0 0 .825-.785c.074-1.623.074-2.477.074-4.37 0-16.041-11.229-28.187-27.497-28.187s-27.729 12.146-27.729 28.187c0 16.155 11.116 28.185 28.188 28.185 9.083 0 18.669-3.664 23.425-12.5a.818.818 0 0 0 .048-.706.832.832 0 0 0-.515-.485l-11.265-3.657zm-25.33-16.232c1.488-5.953 6.303-9.968 13.178-9.968 6.53 0 12.03 4.125 13.06 9.968h-26.238zM62.164 27.155h-14.17a.821.821 0 0 0-.821.821v52.209a.82.82 0 0 0 .821.821h14.17a.821.821 0 0 0 .821-.821V27.976a.821.821 0 0 0-.821-.821zM55.077 0c-5.386 0-9.854 4.238-9.854 9.625 0 5.268 4.465 9.393 9.854 9.393 5.39 0 9.855-4.125 9.855-9.393 0-5.387-4.47-9.625-9.855-9.625zm90.042 27.155h-14.997V9.645a.831.831 0 0 0-.24-.582.824.824 0 0 0-.581-.242h-14.167a.825.825 0 0 0-.822.825v17.509H94.146v-2.75c0-5.846 2.976-9.167 9.854-9.167.821 0 1.643.06 2.42.134a.818.818 0 0 0 .892-.818V3.542a.822.822 0 0 0-.672-.81 42.633 42.633 0 0 0-7.575-.792c-12.032 0-20.738 7.22-20.738 23.146v2.063h-9.696a.821.821 0 0 0-.822.821v10.715a.822.822 0 0 0 .822.82h9.72v40.656a.82.82 0 0 0 .822.821h14.16a.821.821 0 0 0 .822-.821V39.527h20.166v20.28c0 14.553 8.363 22.113 20.968 22.113a30.314 30.314 0 0 0 8.446-1.206.819.819 0 0 0 .595-.794V68.69a.816.816 0 0 0-.255-.593.817.817 0 0 0-.605-.228 89.048 89.048 0 0 1-3.836.074c-7.22 0-9.524-3.553-9.524-10.312V39.527h15.009a.822.822 0 0 0 .821-.822V27.991a.81.81 0 0 0-.235-.59.821.821 0 0 0-.586-.246zm148.542-1.262c-16.729.116-25.78 10.416-25.78 24.979v29.464a.648.648 0 0 0 .191.461.646.646 0 0 0 .461.191h14.506a.65.65 0 0 0 .652-.652V52.003c0-7.563 3.324-12.262 9.97-12.375 6.643.113 9.967 4.813 9.967 12.375v28.333a.648.648 0 0 0 .191.461.646.646 0 0 0 .461.191h14.506a.65.65 0 0 0 .652-.652V50.872c0-14.55-9.051-24.863-25.777-24.98zM41.443 27.155h-14.53v-2.75c0-5.845 2.977-9.167 9.855-9.167.893 0 1.786.069 2.607.152a.65.65 0 0 0 .714-.649V3.405a.657.657 0 0 0-.535-.643 43 43 0 0 0-7.715-.816c-12.03 0-20.738 7.22-20.738 23.146v2.063H1.384a.819.819 0 0 0-.821.821v10.715a.818.818 0 0 0 .82.82h9.718v40.656a.82.82 0 0 0 .825.821h14.166a.821.821 0 0 0 .822-.821v-40.64h14.53a.821.821 0 0 0 .824-.822V27.991a.822.822 0 0 0-.825-.836z" fill="#000"/></svg>