<svg fill="none" xmlns="http://www.w3.org/2000/svg" viewBox="0 0 24 24"><g clip-path="url(#a)"><path d="M0 12c0 .822.083 1.625.24 2.4l11.76.73 11.76-.73a12.047 12.047 0 0 0 0-4.8L12 8.87.24 9.6C.084 10.376 0 11.178 0 12Z" fill="#0052B4"/><path d="M23.76 14.4H.24C1.353 19.878 6.196 24 12 24c5.806 0 10.648-4.122 11.76-9.6Z" fill="#fff"/><path d="M.24 9.6h23.52C22.648 4.123 17.806 0 12 0 6.195 0 1.352 4.123.24 9.6Z" fill="#000"/><path d="M17.217 9.6H6.782l2.132-1.003L7.78 6.533l2.315.442.293-2.338L12 6.357l1.612-1.72.293 2.338 2.315-.442-1.135 2.064L17.217 9.6Z" fill="#FFD293"/><path d="M0 12c0 6.627 5.373 12 12 12L2.4 4.8A11.946 11.946 0 0 0 0 12Zm12 12c6.628 0 12-5.373 12-12 0-2.702-.892-5.195-2.4-7.2L12 24Z" fill="#A2001D"/></g><defs><clipPath id="a"><path fill="#fff" d="M0 0h24v24H0z"/></clipPath></defs></svg>