<svg fill="none" xmlns="http://www.w3.org/2000/svg" viewBox="0 0 24 24"><g clip-path="url(#a)"><path d="M24 12c0 6.627-5.373 12-12 12S0 18.627 0 12C0 12.003 12 .001 12 0c6.627 0 12 5.373 12 12Z" fill="#0052B4"/><path d="M11.968 12.004h.036v-.036a5.974 5.974 0 0 1-.036.036ZM12 6.26V0h-.002C5.371.001 0 5.373 0 12h6.26V8.474L9.787 12h2.182l.032-.032V9.786L8.474 6.261H12Z" fill="#fff"/><path d="M6.071 1.565a12.057 12.057 0 0 0-4.506 4.506V12h3.13V4.696H12v-3.13H6.071Z" fill="#FF0062"/><path d="M12 10.524 7.736 6.26H6.261L12 12v-1.476Z" fill="#FF0062"/><path d="M20.294 13.756A2.926 2.926 0 0 0 20.869 12V6.782a2.605 2.605 0 0 1-3.652-.522 2.605 2.605 0 0 1-3.652.522V12c0 .703.23 1.282.576 1.757h6.153Z" fill="#fff"/><path d="M19.209 11.032c.166-.405.295-.998.295-1.292 0-.474-.618-.858-.618-.858s-.617.384-.617.858c0 .294.13.887.295 1.292l-.356.805a1.796 1.796 0 0 0 1.357 0l-.356-.805Zm-2.414-2.606c-.434.059-1.012.243-1.267.39-.41.237-.434.964-.434.964s.642.343 1.052.106c.255-.147.703-.555.971-.902l.875-.094a1.798 1.798 0 0 0-.678-1.175l-.52.711Zm-1.05 3.393c.267.346.716.754.971.902.41.236 1.052-.106 1.052-.106s-.024-.727-.434-.964c-.256-.147-.833-.332-1.267-.39l-.52-.711a1.801 1.801 0 0 0-.678 1.175l.876.094Z" fill="#FF9811"/><path d="M14.012 13.565c.974 1.564 3.206 2.087 3.206 2.087s2.231-.523 3.206-2.087h-6.412Z" fill="#338AF3"/></g><defs><clipPath id="a"><path fill="#fff" d="M0 0h24v24H0z"/></clipPath></defs></svg>