<svg fill="none" xmlns="http://www.w3.org/2000/svg" viewBox="0 0 24 24"><g clip-path="url(#a)"><path d="M17.217 1.19A11.953 11.953 0 0 0 12 0c-1.87 0-3.64.428-5.217 1.19L5.739 12l1.044 10.81A11.953 11.953 0 0 0 12 24c1.87 0 3.64-.428 5.217-1.19L18.261 12 17.217 1.19Z" fill="#FFD293"/><path d="M6.783 1.19A12 12 0 0 0 0 12a12 12 0 0 0 6.783 10.808V1.191Zm10.434 0v21.618A12 12 0 0 0 23.999 12a12 12 0 0 0-6.782-10.81Z" fill="#0052B4"/><path d="m15.652 7.304.7.35-.7-.35-.7-.35c-.043.084-.957 1.944-1.106 4.785h-1.064V7.304L12 6.26l-.782 1.044v4.434h-1.064c-.15-2.84-1.063-4.7-1.106-4.784l-1.4.7c.01.019.961 1.955.961 4.867v.783h2.609v4.435h1.565v-4.435h2.609v-.783c0-1.505.26-2.747.479-3.523.238-.847.48-1.341.482-1.346l-.7-.348Z" fill="#000"/></g><defs><clipPath id="a"><path fill="#fff" d="M0 0h24v24H0z"/></clipPath></defs></svg>