<svg fill="none" xmlns="http://www.w3.org/2000/svg" viewBox="0 0 24 24"><g clip-path="url(#a)"><path d="M16.175.746A11.975 11.975 0 0 0 12 0c-1.468 0-2.874.264-4.174.746L6.783 12l1.044 11.253c1.3.483 2.706.747 4.174.747a11.96 11.96 0 0 0 4.174-.747L17.218 12 16.175.746Z" fill="#FFD293"/><path d="M24.001 12c0-5.159-3.257-9.557-7.826-11.253v22.507C20.745 21.56 24 17.16 24 12.001Z" fill="#FF0062"/><path d="M0 12c0 5.16 3.257 9.559 7.827 11.254V.747C3.257 2.443 0 6.841 0 12.001Z" fill="#000"/></g><defs><clipPath id="a"><path fill="#fff" d="M0 0h24v24H0z"/></clipPath></defs></svg>