<svg fill="none" xmlns="http://www.w3.org/2000/svg" viewBox="0 0 24 24"><g clip-path="url(#a)"><path d="M12 24c6.627 0 12-5.373 12-12S18.627 0 12 0 0 5.373 0 12s5.373 12 12 12Z" fill="#6DA544"/><path d="m18.42 17.217.33.689.744-.172-.333.687.598.474-.745.168.002.763-.595-.477-.595.477.002-.763-.745-.168.598-.474-.333-.687.744.172.329-.689Zm-3.062-7.304.329.688.744-.172-.333.687.598.474-.745.168.002.763-.595-.477-.596.477.002-.763-.744-.168.598-.474-.333-.687.743.172.33-.688Zm3.062-4.174.33.689.744-.172-.333.686.598.475-.745.167.002.764-.595-.478-.596.478.003-.764-.745-.167.598-.475-.333-.686.744.172.329-.689Zm2.676 3.13.33.688.743-.171-.333.686.598.475-.744.167.002.764-.596-.478-.595.478.002-.764-.745-.167.598-.475-.333-.686.744.171.33-.688Zm-1.913 3.653.259.797h.838l-.678.493.259.797-.678-.493-.678.493.259-.797-.678-.493h.838l.259-.797Z" fill="#FFD293"/><path d="M13.303 15.391a3.391 3.391 0 1 1 1.614-6.375 4.174 4.174 0 1 0 0 5.967 3.38 3.38 0 0 1-1.614.408ZM7.545 4.695a2.086 2.086 0 0 0-3.614 0h3.614Zm.008.012L5.739 6.521 3.925 4.707a2.087 2.087 0 1 0 3.628 0Z" fill="#FFD293"/><path d="M5.217 6v1.76a2.092 2.092 0 0 0 1.043 0V6H5.217Z" fill="#A2001D"/></g><defs><clipPath id="a"><path fill="#fff" d="M0 0h24v24H0z"/></clipPath></defs></svg>