<svg fill="none" xmlns="http://www.w3.org/2000/svg" viewBox="0 0 24 24"><g clip-path="url(#a)"><path d="M12 24c6.627 0 12-5.372 12-12 0-6.627-5.373-12-12-12S0 5.373 0 12c0 6.628 5.373 12 12 12Z" fill="#fff"/><path d="M12 24.001c3.636 0 6.895-1.618 9.096-4.174H2.903a11.972 11.972 0 0 0 9.096 4.174ZM24 12c0-6.627-5.373-12-12-12S0 5.373 0 12c0 1.083.144 2.133.413 3.13h23.174c.269-.997.413-2.047.413-3.13Z" fill="#0052B4"/><path d="M.953 16.697c.232.543.502 1.066.808 1.565h20.477c.306-.5.576-1.022.808-1.566H.953Z" fill="#FF0062"/><path d="m8.577 12.784.194.598h.63l-.51.37.195.597-.509-.37-.508.37.194-.598-.509-.37h.629l.194-.597Zm0 7.826.194.597h.63l-.51.37.195.598-.509-.37-.508.37.194-.598-.509-.37h.629l.194-.598Zm-3.643-2.647.194.597h.63l-.51.37.195.598-.509-.37-.508.37.194-.598-.509-.37h.629l.194-.597Zm1.392-4.397.194.598h.628l-.508.37.194.598-.508-.37-.509.37.194-.598-.508-.37h.628l.195-.598Zm-2.215 2.462h.629l.194-.598.194.598h.63l-.51.37.195.598-.509-.37-.508.37.194-.598-.509-.37Zm1.706 5.25.194-.598-.508-.37h.628l.195-.597.194.598h.629l-.51.369.195.598-.508-.37-.509.37Zm6.402-3.315-.194.597h-.629l.508.37-.194.598.509-.37.508.37-.194-.598.509-.37h-.629l-.194-.597Zm-1.392-4.397-.194.598h-.629l.509.37-.195.598.509-.37.509.37-.195-.598.509-.37h-.629l-.194-.598Zm2.215 2.462h-.629l-.194-.598-.194.598h-.629l.508.37-.194.598.509-.37.508.37-.194-.598.509-.37Zm-1.706 5.25-.195-.598.509-.37h-.629l-.194-.597-.194.598h-.629l.509.369-.194.598.508-.37.509.37Z" fill="#FFD293"/></g><defs><clipPath id="a"><path fill="#fff" d="M0 0h24v24H0z"/></clipPath></defs></svg>