<svg fill="none" xmlns="http://www.w3.org/2000/svg" viewBox="0 0 24 24"><g clip-path="url(#a)"><path d="M12 24c6.627 0 12-5.373 12-12 0-6.628-5.373-12-12-12S0 5.371 0 12c0 6.627 5.373 12 12 12Z" fill="#fff"/><path d="M2.481 4.694A11.956 11.956 0 0 0 .414 8.869h6.243L2.48 4.694ZM23.587 8.87a11.957 11.957 0 0 0-2.067-4.176l-4.175 4.175h6.242ZM.414 15.13a11.957 11.957 0 0 0 2.067 4.176l4.176-4.175H.414ZM19.305 2.48A11.957 11.957 0 0 0 15.13.413v6.243l4.175-4.176ZM4.694 21.52a11.957 11.957 0 0 0 4.176 2.066v-6.242l-4.176 4.175ZM8.87.413A11.957 11.957 0 0 0 4.694 2.48L8.87 6.656V.413Zm6.26 23.173a11.958 11.958 0 0 0 4.175-2.067l-4.175-4.175v6.242Zm2.215-8.456 4.175 4.176a11.958 11.958 0 0 0 2.067-4.175h-6.242Z" fill="#0052B4"/><path d="M23.898 10.435H13.565V.1a12.12 12.12 0 0 0-3.13 0v10.334H.102a12.12 12.12 0 0 0 0 3.13h10.333v10.333a12.117 12.117 0 0 0 3.13 0V13.565h10.333a12.12 12.12 0 0 0 0-3.13Z" fill="#FF0062"/><path d="m15.13 15.13 5.355 5.355c.246-.246.48-.503.705-.77l-4.584-4.585H15.13Zm-6.26 0-5.355 5.355c.246.246.503.481.77.706l4.585-4.585V15.13Zm-.001-6.26L3.514 3.515a12.03 12.03 0 0 0-.705.77L7.393 8.87H8.87Zm6.261 0 5.355-5.356a11.994 11.994 0 0 0-.77-.705L15.13 7.393V8.87Z" fill="#FF0062"/></g><defs><clipPath id="a"><path fill="#fff" d="M0 0h24v24H0z"/></clipPath></defs></svg>