<svg fill="none" xmlns="http://www.w3.org/2000/svg" viewBox="0 0 24 24"><g clip-path="url(#a)"><path d="M16.174.747A11.974 11.974 0 0 0 12 0c-1.468 0-2.874.265-4.174.747L7.304 12l.522 11.253c1.3.482 2.706.746 4.174.746 1.468 0 2.874-.264 4.174-.746L16.695 12 16.174.748Z" fill="#FFD293"/><path d="M0 12c0 5.159 3.256 9.558 7.826 11.253V.746C3.256 2.44 0 6.84 0 11.999Z" fill="#FF0062"/><path d="M24 12c0-5.16-3.257-9.56-7.826-11.255v22.507C20.744 21.558 24 17.16 24 12Z" fill="#6DA544"/></g><defs><clipPath id="a"><path fill="#fff" d="M0 0h24v24H0z"/></clipPath></defs></svg>