<svg fill="none" xmlns="http://www.w3.org/2000/svg" viewBox="0 0 24 24"><g clip-path="url(#a)"><path d="M24 12c0 6.627-5.373 12-12 12S0 18.627 0 12c0 .003 12-12 12-12 6.627 0 12 5.372 12 12Z" fill="#0052B4"/><path d="M11.968 12.003h.035v-.035l-.035.035ZM12 6.26V0h-.002C5.371 0 0 5.373 0 12h6.26V8.474L9.787 12h2.182l.032-.032V9.786L8.474 6.261H12Z" fill="#fff"/><path d="M6.071 1.565a12.057 12.057 0 0 0-4.506 4.506v5.93h3.13V4.695H12v-3.13H6.071Z" fill="#FF0062"/><path d="M12 10.524 7.738 6.26H6.262L12 12v-1.476Z" fill="#FF0062"/><path d="M13.565 6.26V12c0 2.795 3.653 3.652 3.653 3.652s3.652-.857 3.652-3.653V6.26h-7.305Z" fill="#338AF3"/><path d="M13.565 12c0 2.796 3.653 3.652 3.653 3.652S20.87 14.796 20.87 12h-7.305Z" fill="#A2001D"/><path d="M18.783 8.87h-1.044V7.826h-1.043V8.87h-1.044v1.043h1.044v3.13h1.043v-3.13h1.044V8.87Z" fill="#000"/></g><defs><clipPath id="a"><path fill="#fff" d="M0 0h24v24H0z"/></clipPath></defs></svg>