<svg fill="none" xmlns="http://www.w3.org/2000/svg" viewBox="0 0 24 24"><g clip-path="url(#a)"><path d="M12 24c6.627 0 12-5.373 12-12S18.627 0 12 0 0 5.373 0 12s5.373 12 12 12Z" fill="#fff"/><path d="m6.486 16.696-2.971 3.789A11.96 11.96 0 0 0 12 24c4.96 0 9.217-3.01 11.045-7.304H6.485Z" fill="#FFD293"/><path d="M23.063 7.348C21.246 3.03 16.977 0 12 0a11.96 11.96 0 0 0-8.485 3.515L6.52 7.348h16.543Z" fill="#496E2D"/><path d="M2.61 8.826v6.304h20.977c.27-.998.414-2.047.414-3.13 0-1.099-.148-2.163-.425-3.174H2.609Z" fill="#000"/><path d="M3.515 3.515c-4.687 4.686-4.687 12.284 0 16.97L12 12.002 3.515 3.514Z" fill="#A2001D"/><path d="m4.857 8.87.777 2.391h2.515l-2.035 1.478.777 2.391-2.034-1.478-2.034 1.479.777-2.392-2.035-1.478H4.08l.777-2.391Z" fill="#FFD293"/><path d="M2.584 12h4.548v2.087H2.584V12Z" fill="#fff"/><path d="m7.993 9.608-.738-.738-2.398 2.397L2.46 8.87l-.738.738 2.4 2.395-2.4 2.4.738.727 2.397-2.393 2.398 2.393.738-.727-2.4-2.4 2.4-2.395Z" fill="#000"/></g><defs><clipPath id="a"><path fill="#fff" d="M0 0h24v24H0z"/></clipPath></defs></svg>