<svg fill="none" xmlns="http://www.w3.org/2000/svg" viewBox="0 0 24 24"><g clip-path="url(#a)"><path d="M0 12c0 5.16 3.256 9.558 7.826 11.253L8.87 12 7.826.746C3.256 2.442 0 6.84 0 12Z" fill="#6DA544"/><path d="M24 12c0-6.627-5.373-12-12-12-1.469 0-2.875.264-4.175.746v22.508c1.3.482 2.706.746 4.174.746 6.628 0 12-5.373 12-12Z" fill="#FF0062"/><path d="M7.826 16.174a4.174 4.174 0 1 0 0-8.348 4.174 4.174 0 0 0 0 8.348Z" fill="#FFD293"/><path d="M5.479 9.913v2.608a2.348 2.348 0 0 0 4.695 0V9.913H5.48Z" fill="#FF0062"/><path d="M7.826 13.304a.784.784 0 0 1-.783-.783v-1.043h1.565v1.043a.784.784 0 0 1-.782.783Z" fill="#fff"/></g><defs><clipPath id="a"><path fill="#fff" d="M0 0h24v24H0z"/></clipPath></defs></svg>