<svg xmlns="http://www.w3.org/2000/svg" viewBox="0 0 120 40"><path d="M100.3.436V15.76c0 1.83.509 5.222 4.749 5.222 6.009 0 6.106-5.38 6.106-6.906V.436h7.963v21.8c0 5.318-.9 8.528-3.27 11.388-2.609 3.15-7.176 5.366-13.536 6.372l-1.72-6.93c6.748-.86 10.551-3.929 10.551-7.886-1.454 1.83-4.363 2.993-8.008 2.993a11.089 11.089 0 0 1-7.341-2.395c-2.266-1.868-3.393-4.593-3.393-8.955V.437h7.9zM14.609 0c6.421 0 13.92 4.555 13.92 14.09l-.007.514c-.265 9.172-7.608 13.55-13.9 13.55a34.49 34.49 0 0 1-5.913-.545v9.632H.75V.194h3.27a.5.5 0 0 1 .51.242.666.666 0 0 1-.048.669 6.1 6.1 0 0 0-.28.63c-.6 1.66-.157 5.524 1.1 6.178a2.189 2.189 0 0 0 .344.12c-1.095-1.637-1.192-5.9.1-6.6C7.39.546 11.891 0 14.61 0zM45.1 0c8.335 0 14.392 5.949 14.392 14.078S53.43 28.155 45.1 28.155c-8.443 0-14.392-5.949-14.392-14.078S36.658 0 45.1 0zm33.57 0c8.044 0 10.443 6.433 10.443 10.3v17.42h-7.9v-15.2c0-1.83-.606-5.222-5.124-5.222-4.047 0-6.01 3.332-6.01 7.826v12.583h-7.958V.436h7.96v3.045l.269-.285A10.984 10.984 0 0 1 78.67 0zM14.7 7.817a44.876 44.876 0 0 0-5.99.833v9.172a.544.544 0 0 1-.146.424.613.613 0 0 1-.509.157 4.541 4.541 0 0 0-2.46.4 3.886 3.886 0 0 0-1.259 2.616c-.3 1.842-.073 4.035.824 4.52.012.01.024.01.036.023-.727-1.827-.279-5.84 1.127-6.409 1.477-.593 5.282.8 8.359.8 3.816 0 6.009-2.883 6.009-6.276s-2.18-6.26-5.991-6.26zm2.44 15.106a1.054 1.054 0 0 0-.065 2.107h.065a1.054 1.054 0 0 0 0-2.107zm-6.118-.05a1.054 1.054 0 0 0 0 2.108 1.054 1.054 0 0 0 0-2.107zM22.544 19.5a1.054 1.054 0 0 0 0 2.108 1.054 1.054 0 0 0 0-2.108zM45.1 7.269c-3.974 0-6.615 2.774-6.615 6.809s2.659 6.808 6.615 6.808c3.913 0 6.554-2.774 6.554-6.808s-2.64-6.81-6.554-6.81zm-20.5 5.757a1.054 1.054 0 0 0-1.054 1.053l.011.156a1.054 1.054 0 1 0 1.043-1.21zm-2.08-6.447a1.055 1.055 0 0 0-.135 2.106 1 1 0 0 0 .145 0 1.055 1.055 0 0 0-.01-2.1zM11.01 3.2l-.154.011a1.076 1.076 0 1 0 .153-.011zm6.142-.05L17 3.161a1.077 1.077 0 1 0 .219-.011h-.065z"/></svg>