<svg xmlns="http://www.w3.org/2000/svg" viewBox="0 0 24 24"><g clip-path="url(#a)"><path d="M6.783 22.81A11.953 11.953 0 0 0 12 24c1.87 0 3.64-.428 5.218-1.19L18.26 12 17.218 1.19A11.952 11.952 0 0 0 12 0c-1.87 0-3.64.428-5.217 1.19L5.739 12l1.044 10.81Z" fill="#FFD293"/><path d="M17.218 22.81A12 12 0 0 0 24.001 12a12 12 0 0 0-6.783-10.809V22.81Z" fill="#FF0062"/><path d="M6.783 22.81V1.19A12 12 0 0 0 0 12.001a12 12 0 0 0 6.783 10.808Z" fill="#0052B4"/><path d="M12 16.174v-4.173h3.13v1.565c0 .272-.52 1.268-1.809 2.087-.487.31-.992.41-1.32.521ZM8.87 8.87H12V12H8.87V8.87Z" fill="#FF0062"/><path d="M13.566 7.825A1.043 1.043 0 0 0 12 6.923a1.043 1.043 0 0 0-1.565.903H7.827v5.217c0 1.942 1.542 3.065 2.752 3.648A1.044 1.044 0 0 0 12 18.12a1.044 1.044 0 0 0 1.422-1.429c1.209-.583 2.751-1.706 2.751-3.648V7.825h-2.608Zm1.043 5.218c0 .272 0 1.1-1.288 1.918a6.31 6.31 0 0 1-1.32.623 6.308 6.308 0 0 1-1.321-.623c-1.288-.819-1.288-1.646-1.288-1.918V9.39h5.217v3.652Z" fill="#FF9811"/></g><defs><clipPath id="a"><path fill="#fff" d="M0 0h24v24H0z"/></clipPath></defs></svg>