<svg width="24" height="24" fill="none" xmlns="http://www.w3.org/2000/svg"><g clip-path="url(#a)"><path d="M12 24c6.627 0 12-5.373 12-12 0-6.628-5.373-12-12-12S0 5.372 0 12c0 6.627 5.373 12 12 12Z" fill="#fff"/><path d="m6.782 16.174 1.044 7.08c1.3.482 2.706.746 4.174.746 5.16 0 9.558-3.257 11.253-7.826H6.783Z" fill="#000"/><path d="M6.782 7.826 7.826.746C9.126.264 10.532 0 12 0c5.16 0 9.558 3.256 11.253 7.826H6.783Z" fill="#6DA544"/><path d="M0 12c0 5.16 3.257 9.558 7.826 11.253V.746C3.256 2.442 0 6.84 0 12Z" fill="#A2001D"/></g><defs><clipPath id="a"><path fill="#fff" d="M0 0h24v24H0z"/></clipPath></defs></svg>