<svg width="24" height="24" fill="none" xmlns="http://www.w3.org/2000/svg"><g clip-path="url(#a)"><path d="M17.217 1.19A11.953 11.953 0 0 0 12 0c-1.87 0-3.64.428-5.218 1.19L5.74 12l1.043 10.81A11.953 11.953 0 0 0 12 24c1.87 0 3.64-.428 5.217-1.19L18.261 12 17.217 1.19Z" fill="#FF0062"/><path d="M6.783 1.191A12 12 0 0 0 0 12.001a12 12 0 0 0 6.783 10.808V1.191Z" fill="#000"/><path d="M17.217 1.191V22.81A12 12 0 0 0 23.999 12a12 12 0 0 0-6.782-10.809Z" fill="#496E2D"/><path d="M11.998 7.826a4.174 4.174 0 1 0 0 8.348 4.174 4.174 0 0 0 0-8.348Zm0 6.783a2.609 2.609 0 1 1 0-5.217 2.609 2.609 0 0 1 0 5.217Z" fill="#FFD293"/><path d="M11.999 10.435c-.577 0-1.044.467-1.044 1.043v1.566h2.087v-1.566c0-.576-.467-1.043-1.043-1.043Z" fill="#FFD293"/></g><defs><clipPath id="a"><path fill="#fff" d="M0 0h24v24H0z"/></clipPath></defs></svg>