<svg fill="none" xmlns="http://www.w3.org/2000/svg" viewBox="0 0 24 24"><g clip-path="url(#a)"><path d="M12 24c6.628 0 12-5.373 12-12S18.628 0 12 0C5.373 0 0 5.373 0 12s5.373 12 12 12Z" fill="#FF0062"/><path d="M18.783 8.906h-4.347A1.565 1.565 0 1 0 12 6.96a1.564 1.564 0 0 0-2.87.866c0 .419.166.8.434 1.08H5.218c0 1.153 1.004 2.087 2.156 2.087h-.07c0 1.153.935 2.087 2.088 2.087 0 .373.098.723.27 1.027l-1.731 1.73 1.328 1.329 1.884-1.884c.074.027.15.049.229.063l-1.139 2.57L12 19.826l1.767-1.91-1.138-2.57a1.46 1.46 0 0 0 .229-.063l1.884 1.884 1.328-1.329-1.731-1.73c.172-.304.27-.654.27-1.027a2.087 2.087 0 0 0 2.087-2.087h-.07c1.153 0 2.157-.934 2.157-2.087Z" fill="#000"/></g><defs><clipPath id="a"><path fill="#fff" d="M0 0h24v24H0z"/></clipPath></defs></svg>