<svg fill="none" xmlns="http://www.w3.org/2000/svg" viewBox="0 0 24 24"><g clip-path="url(#a)"><path d="M24 12c0-1.469-.264-2.875-.746-4.175L12 7.303.746 7.825A11.974 11.974 0 0 0 0 12c0 1.468.264 2.874.746 4.174L12 16.695l11.254-.522c.482-1.3.746-2.706.746-4.174Z" fill="#0052B4"/><path d="M12 23.999c5.16 0 9.558-3.256 11.253-7.826H.746C2.442 20.743 6.84 23.999 12 23.999Z" fill="#FF9811"/><path d="M.746 7.826h22.507C21.558 3.256 17.16 0 12 0S2.442 3.256.746 7.826Z" fill="#FF0062"/></g><defs><clipPath id="a"><path fill="#fff" d="M0 0h24v24H0z"/></clipPath></defs></svg>