<svg fill="none" xmlns="http://www.w3.org/2000/svg" viewBox="0 0 24 24"><g clip-path="url(#a)"><path d="M12 24c6.628 0 12-5.373 12-12S18.628 0 12 0C5.373 0 0 5.373 0 12s5.373 12 12 12Z" fill="#fff"/><path d="M12 0A12 12 0 0 0 1.192 6.782H22.81A12 12 0 0 0 12 0Zm0 23.999a12 12 0 0 0 10.81-6.783H1.19A12 12 0 0 0 12.001 24Z" fill="#338AF3"/><path d="m15.587 12-1.466.688.78 1.42-1.59-.305-.202 1.608L12 14.229l-1.108 1.182-.202-1.608-1.591.305.78-1.42L8.414 12l1.465-.69L9.1 9.89l1.591.305.202-1.608L12 9.77l1.109-1.183.201 1.608 1.592-.305-.78 1.42 1.465.69Z" fill="#FFD293"/></g><defs><clipPath id="a"><path fill="#fff" d="M0 0h24v24H0z"/></clipPath></defs></svg>