<svg width="24" height="24" fill="none" xmlns="http://www.w3.org/2000/svg"><g clip-path="url(#a)"><path d="M12 24c6.628 0 12-5.373 12-12S18.628 0 12 0C5.373 0 0 5.373 0 12s5.373 12 12 12Z" fill="#fff"/><path d="M17.822 1.505A11.945 11.945 0 0 0 12 0C5.373 0 .001 5.372 0 11.999l8.348-4.173 9.474-6.32ZM0 12.002c.001 6.627 5.373 11.999 12 11.999 2.113 0 4.098-.547 5.822-1.506l-9.474-6.32L0 12.001Z" fill="#0052B4"/><path d="M18.822 2.128c-.322-.223-.656-.43-1-.622L0 12v.003l17.821 10.493c.345-.191.678-.399 1-.622L2.055 12.001l16.768-9.873Z" fill="#FF0062"/><path d="M20.87 11.552h-1.43a1.135 1.135 0 0 0-.07-1.529 1.136 1.136 0 0 0 0-1.606l-.027.027c.444-.444.47-1.19.027-1.633l-6.424 6.425a1.12 1.12 0 0 0 1.593-.006l.124-.113 3.076-.28v1.324h1.043v-1.418l1.566-.143.521-1.048Z" fill="#A2001D"/><path d="M13.043 14.609 12 14.087l1.043-.522h6.783v1.044h-6.783Z" fill="#FFD293"/></g><defs><clipPath id="a"><path fill="#fff" d="M0 0h24v24H0z"/></clipPath></defs></svg>