<svg fill="none" xmlns="http://www.w3.org/2000/svg" viewBox="0 0 24 24"><g clip-path="url(#a)"><path d="M23.254 16.173c.482-1.3.746-2.706.746-4.174 0-1.468-.264-2.874-.746-4.174L12 6.782.748 7.825A11.975 11.975 0 0 0 0 12c0 1.468.265 2.874.747 4.174L12 17.217l11.253-1.044Z" fill="#fff"/><path d="M12.001 23.999c5.16 0 9.558-3.257 11.254-7.826H.747c1.696 4.57 6.094 7.826 11.254 7.826Zm0-23.999C6.841 0 2.443 3.256.747 7.826h22.508C21.559 3.256 17.16 0 12 0Z" fill="#FF0062"/></g><defs><clipPath id="a"><path fill="#fff" d="M0 0h24v24H0z"/></clipPath></defs></svg>