<svg width="24" height="24" fill="none" xmlns="http://www.w3.org/2000/svg"><g clip-path="url(#a)"><path d="M24 12c0 6.627-5.372 12-12 12-6.627 0-12-5.373-12-12C0 12.003 12 .001 12 0c6.628 0 12 5.373 12 12Z" fill="#0052B4"/><path d="M11.968 12.003h.036v-.036l-.036.036ZM12 6.26V0h-.002C5.372 0 0 5.373 0 12h6.261V8.474L9.787 12h2.181l.032-.032V9.786L8.475 6.261H12Z" fill="#fff"/><path d="M6.071 1.565A12.057 12.057 0 0 0 1.565 6.07v5.928h3.13V4.695H12v-3.13H6.071Z" fill="#FF0062"/><path d="M12 10.523 7.736 6.26H6.261L12 12v-1.477Z" fill="#FF0062"/><path d="m7.237 14.086.658 1.377 1.488-.343-.666 1.373 1.196.949-1.49.335.005 1.527-1.191-.955-1.191.955.004-1.527-1.489-.335 1.196-.949-.666-1.373 1.487.343.659-1.377ZM17.966 16.695l.33.688.743-.171-.333.686.598.474-.744.168.002.764-.596-.478-.595.477.002-.763-.745-.168.598-.474-.333-.686.744.171.33-.688ZM14.903 9.39l.329.69.744-.173-.333.687.598.474-.745.168.002.763-.595-.477-.596.477.002-.763-.744-.168.598-.474-.333-.687.743.172.33-.688ZM17.966 5.217l.33.688.743-.171-.333.686.598.474-.744.168.002.764-.596-.478-.595.478.002-.764-.745-.168.598-.474-.333-.686.744.171.33-.688ZM20.642 8.346l.329.689.744-.172-.333.687.598.474-.745.168.002.763-.595-.477-.596.477.002-.763-.744-.168.598-.474-.333-.687.743.172.33-.689ZM18.729 12l.259.796h.838l-.678.493.259.797-.678-.492-.678.492.259-.797-.678-.493h.838l.259-.797Z" fill="#fff"/></g><defs><clipPath id="a"><path fill="#fff" d="M0 0h24v24H0z"/></clipPath></defs></svg>