<svg width="24" height="24" fill="none" xmlns="http://www.w3.org/2000/svg"><g clip-path="url(#a)"><path d="M12 24c6.628 0 12-5.373 12-12S18.628 0 12 0C5.373 0 0 5.373 0 12s5.373 12 12 12Z" fill="#FFD293"/><path d="M12 23.999c3.637 0 6.896-1.619 9.097-4.174H2.903A11.972 11.972 0 0 0 12 23.999ZM24 12c0-6.627-5.372-12-12-12C5.373 0 0 5.373 0 12c0 1.083.145 2.132.414 3.13h23.173c.269-.998.413-2.047.413-3.13ZM.955 16.695c.23.543.501 1.066.807 1.565h20.477c.306-.499.577-1.022.808-1.565H.955Z" fill="#338AF3"/><path d="M5.5 7.567 3.156 6.533 5.5 5.498l1.035-2.344 1.034 2.344 2.345 1.035-2.345 1.034-1.034 2.345L5.5 7.567Z" fill="#fff"/><path d="m6.534 4.446.64 1.448 1.447.64-1.448.638-.639 1.448-.639-1.448-1.447-.639 1.447-.639.64-1.448Z" fill="#FF0062"/></g><defs><clipPath id="a"><path fill="#fff" d="M0 0h24v24H0z"/></clipPath></defs></svg>