<svg width="24" height="24" fill="none" xmlns="http://www.w3.org/2000/svg"><g clip-path="url(#a)"><path d="M24 12c0-1.469-.264-2.875-.746-4.175L12 7.303.747 7.825A11.974 11.974 0 0 0 0 12c0 1.468.264 2.874.747 4.174L12 16.695l11.254-.522c.482-1.3.746-2.706.746-4.174Z" fill="#FF0062"/><path d="M12 23.999c5.16 0 9.558-3.256 11.253-7.826H.746C2.442 20.743 6.84 23.999 12 23.999Z" fill="#6DA544"/><path d="M.746 7.826h22.508C21.557 3.256 17.159 0 12 0 6.84 0 2.442 3.256.746 7.826Z" fill="#338AF3"/><path d="M12.26 15.39a3.391 3.391 0 1 1 1.614-6.375 4.174 4.174 0 1 0 0 5.967c-.48.26-1.03.408-1.613.408Z" fill="#fff"/><path d="m14.87 9.65.45 1.264 1.21-.575-.576 1.21 1.264.45-1.264.449.576 1.21-1.21-.575-.45 1.264-.45-1.264-1.21.576.575-1.211-1.263-.45 1.264-.448-.576-1.212 1.21.576.45-1.263Z" fill="#fff"/></g><defs><clipPath id="a"><path fill="#fff" d="M0 0h24v24H0z"/></clipPath></defs></svg>