<svg fill="none" xmlns="http://www.w3.org/2000/svg" viewBox="0 0 24 24"><g clip-path="url(#a)"><path d="M12 24c6.628 0 12-5.373 12-12S18.628 0 12 0C5.373 0 0 5.373 0 12s5.373 12 12 12Z" fill="#fff"/><path d="M12 0A11.99 11.99 0 0 0 1.875 5.554L18.15 22.306A11.993 11.993 0 0 0 24 12c0-6.627-5.372-12-12-12Z" fill="#FFD293"/><path d="M24 12a11.96 11.96 0 0 0-3.13-8.083v16.165A11.956 11.956 0 0 0 24 11.999Zm-9.01 10.587h1.257l.388-1.196.389 1.195h.63c.387-.207.76-.435 1.12-.681L2.095 5.224a12 12 0 0 0-.75 1.254l.148.455 1.257-.001-1.017.74.39 1.195-1.018-.739-.607.442A11.996 11.996 0 0 0 0 11.999c0 6.628 5.373 12 12 12 1.401 0 2.746-.24 3.996-.682l-1.006-.73ZM2.676 11.477l.388-1.195-1.017-.738 1.257-.001.387-1.196.39 1.195h1.257l-1.017.74.39 1.194-1.018-.738-1.017.74Zm2.59 2.61.387-1.196-1.018-.739h1.257l.388-1.196.39 1.195h1.256l-1.016.739.389 1.195-1.017-.738-1.017.74Zm2.588 2.608L8.24 15.5l-1.017-.738H8.48l.388-1.196.389 1.195 1.257-.001-1.017.74.39 1.195-1.018-.738-1.016.74Zm3.605 1.87-1.017.739.388-1.196-1.017-.738 1.257-.001.387-1.196.39 1.196 1.257-.001-1.017.74.39 1.194-1.018-.738Zm1.572 3.348.388-1.196-1.018-.738 1.257-.001.388-1.196.39 1.195h1.256l-1.016.739.389 1.195-1.018-.738-1.016.74Z" fill="#0052B4"/></g><defs><clipPath id="a"><path fill="#fff" d="M0 0h24v24H0z"/></clipPath></defs></svg>