<svg fill="none" xmlns="http://www.w3.org/2000/svg" viewBox="0 0 24 24"><g clip-path="url(#a)"><path d="M0 12C0 5.373 5.372 0 12 0c6.627 0 12 5.373 12 12-.522 0-12 1.566-12 1.566L0 12Z" fill="#FF0062"/><path d="M24 11.999c0 6.627-5.373 12-12 12-6.628 0-12-5.373-12-12" fill="#6DA544"/><path d="m12 7.826.906 2.79h2.934l-2.373 1.724.906 2.79L12 13.406 9.627 15.13l.906-2.79-2.373-1.724h2.934L12 7.826Z" fill="#FFD293"/></g><defs><clipPath id="a"><path fill="#fff" d="M0 0h24v24H0z"/></clipPath></defs></svg>