<svg width="24" height="24" fill="none" xmlns="http://www.w3.org/2000/svg"><g clip-path="url(#a)"><path d="M12 24c6.627 0 12-5.372 12-12 0-6.627-5.373-12-12-12S0 5.373 0 12c0 6.628 5.373 12 12 12Z" fill="#fff"/><path d="M19.306 2.48a12.006 12.006 0 0 0-14.613 0L12 9.787l7.306-7.307ZM12 14.214l-7.307 7.307a12.006 12.006 0 0 0 14.614 0L12 14.214Z" fill="#FF0062"/><path d="M9.787 12 2.48 4.694a12.006 12.006 0 0 0 0 14.613L9.787 12ZM14.214 12l7.306 7.307a12.006 12.006 0 0 0 0-14.614L14.214 12Z" fill="#6DA544"/><path d="M12 17.218a5.217 5.217 0 1 0 0-10.435 5.217 5.217 0 0 0 0 10.435Z" fill="#fff"/><path d="m12 8.349.451.782h.904l-.452.783.452.783h-.904l-.452.782-.451-.782h-.904l.452-.783-.452-.783h.904l.451-.782ZM9.703 12l.452.783h.904l-.452.783.452.782h-.904l-.452.783-.452-.783h-.903l.451-.782-.451-.783h.903l.452-.782ZM14.296 12l.452.783h.903l-.451.783.451.782h-.903l-.452.783-.452-.783h-.904l.452-.782-.452-.783h.904l.452-.782Z" fill="#FF0062"/></g><defs><clipPath id="a"><path fill="#fff" d="M0 0h24v24H0z"/></clipPath></defs></svg>