<svg fill="none" xmlns="http://www.w3.org/2000/svg" viewBox="0 0 24 24"><g clip-path="url(#a)"><path d="M24 12c0 6.627-5.372 12-12 12-6.627 0-12-5.373-12-12 0 .003 12-12 12-12 6.628 0 12 5.372 12 12Z" fill="#FF0062"/><path d="M12 5.74v4.047L7.826 5.739H12ZM6.26 12h3.526L6.261 7.304l-.522 3.652L6.26 12Z" fill="#0052B4"/><path d="M11.968 12.003h.035v-.035l-.035.035ZM12 6.26V0h-.002C5.372 0 0 5.373 0 12h6.261V8.474L9.787 12h2.181l.032-.032V9.786L8.475 6.261H12Z" fill="#fff"/><path d="M6.07 1.565a12.057 12.057 0 0 0-4.505 4.506v6.451h3.13V4.696h7.827v-3.13H6.07Z" fill="#FF0062"/><path d="m12.477 11-4.74-4.74H6.26l6.216 6.216v-1.475Z" fill="#FF0062"/><path d="M13.565 6.26V12c0 2.795 7.304 2.795 7.304 0V6.26h-7.304Z" fill="#fff"/><path d="M13.565 12c0 2.796 3.652 3.652 3.652 3.652s3.652-.856 3.652-3.652h-7.304Z" fill="#6DA544"/><path d="m17.218 9.704-1.696.73V12l1.696 1.043L18.913 12v-1.565l-1.695-.73Z" fill="#A2001D"/><path d="M15.522 8.87h3.391v1.565h-3.39V8.87Z" fill="#338AF3"/></g><defs><clipPath id="a"><path fill="#fff" d="M0 0h24v24H0z"/></clipPath></defs></svg>