<svg width="24" height="24" fill="none" xmlns="http://www.w3.org/2000/svg"><g clip-path="url(#a)"><path d="M12 23.998c6.626 0 11.998-5.372 11.998-11.998C23.998 5.374 18.626.002 12 .002 5.374.002.002 5.374.002 12c0 6.627 5.372 11.998 11.998 11.998Z" fill="#fff"/><path d="M1.61 6A12.006 12.006 0 0 0 .401 8.917l20.065 11.585a12.006 12.006 0 0 0 1.923-2.504L1.61 6Z" fill="#000"/><path d="M18 1.61C13.198-1.162 7.28-.238 3.532 3.498l20.065 11.584C24.96 9.97 22.8 4.382 17.999 1.61ZM6.002 22.39c4.8 2.772 10.72 1.848 14.466-1.887L.403 8.918c-1.362 5.113.798 10.7 5.599 13.473Z" fill="#FFD293"/><path d="M15.391 10.696a3.39 3.39 0 1 1-6.374-1.613 4.173 4.173 0 1 0 5.966 0c.26.48.408 1.029.408 1.613Z" fill="#FF0062"/><path d="M11.217 6.783h1.566v7.825h-1.566V6.783Z" fill="#FF0062"/><path d="M14.609 8.348H9.392c0 .36.314.652.674.652h-.022c0 .36.292.652.652.652 0 .36.293.652.653.652h1.304c.36 0 .652-.292.652-.652.36 0 .652-.292.652-.652h-.022c.36 0 .674-.292.674-.652ZM8.349 15.13h7.303v1.565H8.349V15.13Z" fill="#FF0062"/><path d="M13.565 15.651h3.13v1.565h-3.13v-1.565ZM7.306 15.651h3.13v1.565h-3.13v-1.565Z" fill="#FF0062"/></g><defs><clipPath id="a"><path fill="#fff" d="M0 0h24v24H0z"/></clipPath></defs></svg>