<svg width="24" height="24" fill="none" xmlns="http://www.w3.org/2000/svg"><g clip-path="url(#a)"><path d="M12 24c6.628 0 12-5.373 12-12S18.628 0 12 0C5.373 0 0 5.373 0 12s5.373 12 12 12Z" fill="#6DA544"/><path d="M12 4.695 21.911 12 12 19.304 2.086 12 12 4.695Z" fill="#FFD293"/><path d="M12 16.174a4.174 4.174 0 1 0 0-8.348 4.174 4.174 0 0 0 0 8.348Z" fill="#fff"/><path d="M9.913 11.739c-.726 0-1.426.11-2.086.315a4.173 4.173 0 0 0 7.591 2.34 7.034 7.034 0 0 0-5.505-2.655ZM16.096 12.8a4.174 4.174 0 0 0-7.932-2.447 8.584 8.584 0 0 1 7.932 2.447Z" fill="#0052B4"/></g><defs><clipPath id="a"><path fill="#fff" d="M0 0h24v24H0z"/></clipPath></defs></svg>