<svg fill="none" xmlns="http://www.w3.org/2000/svg" viewBox="0 0 24 24"><g clip-path="url(#a)"><path d="M12 24c6.628 0 12-5.373 12-12 0-6.628-5.372-12-12-12C5.373 0 0 5.372 0 12c0 6.627 5.373 12 12 12Z" fill="#FFD293"/><path d="M7.305 7.826h15.95C21.558 3.256 17.16 0 12 0a11.96 11.96 0 0 0-8.485 3.515l3.789 4.31Zm0 8.347h15.95c-1.696 4.57-6.095 7.826-11.254 7.826a11.961 11.961 0 0 1-8.485-3.515l3.789-4.311Z" fill="#338AF3"/><path d="M3.515 3.514c-4.686 4.686-4.686 12.284 0 16.97L12 12 3.515 3.514Z" fill="#000"/></g><defs><clipPath id="a"><path fill="#fff" d="M0 0h24v24H0z"/></clipPath></defs></svg>