<svg width="24" height="24" fill="none" xmlns="http://www.w3.org/2000/svg"><g clip-path="url(#a)"><path d="M20.485 20.485c-4.686 4.686-12.284 4.686-16.97 0-4.686-4.686-4.686-12.284 0-16.97.002 0 10.784-3.187 15.47 1.5 4.687 4.686 1.504 15.467 1.5 15.47Z" fill="#FFD293"/><path d="M20.485 20.485c4.686-4.686 4.686-12.284 0-16.97-4.686-4.687-12.284-4.687-16.97 0l16.97 16.97Z" fill="#FF0062"/><path d="M15.137 15.138a1.824 1.824 0 0 1-2.26-2.592l-.15-.084a3.396 3.396 0 0 0 2.595-3.337 3.383 3.383 0 0 0-1.159-2.51l-1.095 1.123c.414.33.683.836.69 1.406a1.828 1.828 0 0 1-1.804 1.848l.002.172a3.396 3.396 0 0 0-4.188-.58 3.384 3.384 0 0 0-1.594 2.259l1.52.387c.079-.523.383-1.01.873-1.3a1.828 1.828 0 0 1 2.502.638l.147-.087a3.396 3.396 0 0 0 1.593 3.916c.873.49 1.872.55 2.753.251l-.425-1.51Zm-3.17-3.103Z" fill="#FF9811"/><path d="m16.443 8.127-.848 3.027-2.545-.47-1.638-3.377-4.425 1.57-.35-.983-1.157-.142.872 2.458 3.046-.779.865 2.44-2.105 3.106 3.573 3.047-.678.794.456 1.074 1.693-1.985-2.197-2.248 1.679-1.968 3.743.27.853-4.618 1.026.19.703-.932-2.566-.474ZM12 12.082Z" fill="#FFEACF"/></g><defs><clipPath id="a"><path fill="#fff" d="M0 0h24v24H0z"/></clipPath></defs></svg>