<svg width="24" height="24" fill="none" xmlns="http://www.w3.org/2000/svg"><g clip-path="url(#a)"><path d="M.567 8.347A11.989 11.989 0 0 0 0 12c0 1.273.2 2.5.567 3.652L12 16.174l11.433-.522C23.801 14.5 24 13.273 24 12c0-1.274-.199-2.5-.567-3.653L12 7.826.567 8.347Z" fill="#fff"/><path d="M24 12c0-.712-.062-1.41-.181-2.087H.182a12.064 12.064 0 0 0 0 4.174h23.637c.119-.678.181-1.375.181-2.087Z" fill="#000"/><path d="M12 24c5.354 0 9.888-3.506 11.433-8.348H.567C2.112 20.494 6.647 24 12 24ZM12 0C6.646 0 2.112 3.507.567 8.348h22.866C21.888 3.507 17.353 0 12 0Z" fill="#338AF3"/></g><defs><clipPath id="a"><path fill="#fff" d="M0 0h24v24H0z"/></clipPath></defs></svg>