<svg width="24" height="24" fill="none" xmlns="http://www.w3.org/2000/svg"><g clip-path="url(#a)"><path d="M12 24c6.628 0 12-5.373 12-12 0-6.628-5.372-12-12-12C5.374 0 0 5.372 0 12c0 6.627 5.373 12 12 12Z" fill="#fff"/><path d="M4.956 11.131 3.652 8.765l1.304-2.33 1.305 2.33-1.305 2.366ZM2.348 11.131 1.044 8.765l1.304-2.33 1.304 2.33-1.304 2.366ZM4.956 17.565 3.652 15.2l1.304-2.33 1.305 2.33-1.305 2.366ZM2.348 17.565 1.044 15.2l1.304-2.33 1.304 2.33-1.304 2.366ZM6.26 2.33l-.368-.66c-.663.392-1.284.847-1.856 1.355l.92 1.67L6.262 2.33ZM4.957 19.305l-.931 1.662c.572.509 1.193.964 1.855 1.357l.38-.69-1.304-2.33Z" fill="#A2001D"/><path d="M7.304 15.13v7.916C8.746 23.66 10.334 24 12 24c5.16 0 9.558-3.257 11.253-7.826L7.304 15.13Z" fill="#6DA544"/><path d="M23.253 16.174c.483-1.3.747-2.706.747-4.174 0-6.628-5.373-12-12-12-1.666 0-3.254.34-4.696.954v15.22h15.95Z" fill="#A2001D"/></g><defs><clipPath id="a"><path fill="#fff" d="M0 0h24v24H0z"/></clipPath></defs></svg>