<svg fill="none" xmlns="http://www.w3.org/2000/svg" viewBox="0 0 24 24"><g clip-path="url(#a)"><path d="M12 24c6.628 0 12-5.372 12-12 0-6.627-5.372-12-12-12C5.373 0 0 5.373 0 12c0 6.628 5.373 12 12 12Z" fill="#fff"/><path d="M24 12a12 12 0 0 0-6.783-10.809V22.81A12 12 0 0 0 24 12ZM0 12a12 12 0 0 0 6.783 10.81V1.19A12 12 0 0 0 0 12.001Zm14.087 1.566 2.087-1.043L15.13 12v-1.043L13.043 12l1.044-2.087h-1.044L12 8.35l-1.044 1.565H9.913l1.043 2.087-2.087-1.043V12l-1.043.522 2.087 1.043-.522 1.044h2.087v1.565h1.043V14.61h2.087l-.521-1.044Z" fill="#FF0062"/></g><defs><clipPath id="a"><path fill="#fff" d="M0 0h24v24H0z"/></clipPath></defs></svg>