<svg fill="none" xmlns="http://www.w3.org/2000/svg" viewBox="0 0 24 24"><g clip-path="url(#a)"><path d="M12 24c6.627 0 12-5.373 12-12 0-6.628-5.373-12-12-12C5.372 0 0 5.372 0 12c0 6.627 5.372 12 12 12Z" fill="#fff"/><path d="M22.54 6.26A12.027 12.027 0 0 0 15.13.414l-.522 5.848h7.932Zm-21.082 0h7.933L8.869.414a12.027 12.027 0 0 0-7.41 5.848Z" fill="#0052B4"/><path d="M14.608 12v5.74h7.932A11.961 11.961 0 0 0 24 12h-9.392Zm-5.217 0H0c0 2.079.529 4.034 1.459 5.74H9.39V12Z" fill="#6DA544"/><path d="M1.458 17.74a12.027 12.027 0 0 0 7.411 5.848l.522-5.115-7.933-.733Zm13.672 5.848a12.027 12.027 0 0 0 7.41-5.848l-7.932.733.522 5.115Zm-.522-5.115 7.932-.733h-7.932v.733ZM9.39 17.74H1.459l7.933.733v-.733Z" fill="#FFD293"/><path d="M12 0c-1.084 0-2.133.144-3.131.413v23.173a12.014 12.014 0 0 0 6.26 0V.413A12.013 12.013 0 0 0 12 0Z" fill="#FF0062"/><path d="m6.455 2.609.323.996h1.048l-.847.616.323.996-.847-.615-.848.615.324-.996-.848-.616h1.048l.324-.996Z" fill="#FFD293"/></g><defs><clipPath id="a"><path fill="#fff" d="M0 0h24v24H0z"/></clipPath></defs></svg>