<svg fill="none" xmlns="http://www.w3.org/2000/svg" viewBox="0 0 24 24"><g clip-path="url(#a)"><path d="M24 12c0 6.627-5.372 12-12 12-6.627 0-12-5.373-12-12C0 12.003 12 .001 12 0c6.628 0 12 5.373 12 12Z" fill="#0052B4"/><path d="M11.968 12.003h.036v-.036l-.036.036ZM12 6.26V0h-.002C5.372.001 0 5.373 0 12h6.261V8.474L9.787 12h2.181l.032-.032V9.786L8.475 6.261H12Z" fill="#fff"/><path d="M6.071 1.565A12.057 12.057 0 0 0 1.565 6.07v5.928h3.13V4.695H12v-3.13H6.071Z" fill="#FF0062"/><path d="M12 10.524 7.736 6.26H6.261L12 12v-1.476Z" fill="#FF0062"/><path d="m16.174 11.999.222.683h.718l-.58.422.221.684-.581-.422-.581.422.222-.684-.581-.422h.718l.222-.683Zm-2.951 1.223.64.326.508-.508-.112.71.64.326-.71.112-.112.71-.326-.64-.71.112.508-.508-.326-.64Zm-1.222 2.952.683-.222v-.718l.423.58.683-.221-.422.581.422.581-.683-.222-.423.581v-.718l-.683-.222Zm1.222 2.951.326-.64-.508-.508.71.112.326-.64.112.71.71.112-.64.326.112.71-.508-.509-.64.327Zm2.951 1.222-.222-.683h-.718l.58-.423-.221-.683.581.422.581-.422-.222.683.581.423h-.718l-.222.683Zm2.952-1.222-.64-.326-.508.508.112-.71-.64-.326.71-.113.112-.71.326.64.71-.111-.508.508.326.64Zm1.222-2.951-.683.222v.718l-.423-.58-.683.221.422-.581-.422-.581.683.222.423-.581v.718l.683.222Zm-1.222-2.952-.326.64.508.508-.71-.112-.326.64-.112-.71-.71-.112.64-.326-.112-.71.508.508.64-.326Z" fill="#fff"/></g><defs><clipPath id="a"><path fill="#fff" d="M0 0h24v24H0z"/></clipPath></defs></svg>