<svg fill="none" xmlns="http://www.w3.org/2000/svg" viewBox="0 0 24 24"><g clip-path="url(#a)"><path d="M12 24c6.627 0 12-5.373 12-12S18.627 0 12 0 0 5.373 0 12s5.373 12 12 12Z" fill="#fff"/><path d="M24 12c0 6.627-5.373 12-12 12S0 18.627 0 12c0-6.628 12 0 12 0h12Z" fill="#FF0062"/><path d="M0 12C0 5.373 5.373 0 12 0v12H0Z" fill="#0052B4"/><path d="m7.143 4.173.777 2.392h2.515L8.4 8.043l.777 2.391-2.034-1.478-2.034 1.478.777-2.391-2.034-1.478h2.514l.777-2.392Z" fill="#fff"/></g><defs><clipPath id="a"><path fill="#fff" d="M0 0h24v24H0z"/></clipPath></defs></svg>