<svg fill="none" xmlns="http://www.w3.org/2000/svg" viewBox="0 0 24 24"><g clip-path="url(#a)"><path d="M17.218 1.191A11.952 11.952 0 0 0 12 .001c-1.87 0-3.64.427-5.217 1.19l-1.044 10.81L6.783 22.81A11.952 11.952 0 0 0 12 24c1.87 0 3.64-.428 5.218-1.19L18.26 12 17.218 1.191Z" fill="#FF0062"/><path d="m12 7.827 1.036 3.188h3.353l-2.712 1.971 1.036 3.189L12 14.205l-2.712 1.97 1.036-3.189-2.712-1.97h3.352L12 7.826Z" fill="#FFD293"/><path d="M6.782 1.192A12 12 0 0 0 0 12a12 12 0 0 0 6.782 10.81V1.192Z" fill="#496E2D"/><path d="M17.218 1.192V22.81A12 12 0 0 0 24 12a12 12 0 0 0-6.782-10.808Z" fill="#FFD293"/></g><defs><clipPath id="a"><path fill="#fff" d="M0 0h24v24H0z"/></clipPath></defs></svg>