<svg fill="none" xmlns="http://www.w3.org/2000/svg" viewBox="0 0 24 24"><g clip-path="url(#a)"><path d="M12 24c6.627 0 12-5.373 12-12S18.627 0 12 0C5.372 0 0 5.373 0 12s5.372 12 12 12Z" fill="#FF0062"/><path d="m6.566 7.302 1.036 3.188h3.351l-2.71 1.973 1.037 3.188-2.714-1.969-2.714 1.969 1.04-3.188-2.714-1.973H5.53l1.036-3.188Zm7.66 11.284-.793-.975-1.172.454.68-1.054-.792-.98 1.214.324.684-1.055.066 1.256 1.219.323-1.177.45.07 1.257Zm1.574-2.86.375-1.2-1.026-.726 1.256-.02.37-1.2.408 1.191 1.257-.014-1.008.75.403 1.191-1.027-.727-1.008.755Zm2.124-6.918-.553 1.13.9.876-1.242-.178-.553 1.125-.216-1.238-1.247-.178 1.116-.586-.216-1.242.9.877 1.111-.586Zm-3.665-3.422-.094 1.251 1.167.474-1.223.3-.09 1.256-.66-1.069-1.224.3.811-.96-.665-1.065 1.167.474.81-.961Z" fill="#FFD293"/></g><defs><clipPath id="a"><path fill="#fff" d="M0 0h24v24H0z"/></clipPath></defs></svg>