<svg width="24" height="24" fill="none" xmlns="http://www.w3.org/2000/svg"><g clip-path="url(#a)"><path d="M12 24c6.627 0 12-5.373 12-12S18.627 0 12 0 0 5.373 0 12s5.373 12 12 12Z" fill="#fff"/><path d="M12 0a11.982 11.982 0 0 0-9.6 4.8h19.2A11.982 11.982 0 0 0 12 0ZM12 24c3.926 0 7.41-1.885 9.6-4.8H2.4A11.981 11.981 0 0 0 12 24ZM0 12c0 .822.083 1.625.24 2.4h23.52a12.048 12.048 0 0 0 0-4.8H.24C.083 10.376 0 11.178 0 12Z" fill="#0052B4"/><path d="M3.515 3.515c-4.686 4.686-4.686 12.284 0 16.97L12 12 3.515 3.515Z" fill="#FF0062"/><path d="m4.857 8.87.777 2.391h2.514L6.114 12.74l.777 2.392-2.034-1.478-2.035 1.478.777-2.392-2.034-1.478H4.08l.777-2.391Z" fill="#fff"/></g><defs><clipPath id="a"><path fill="#fff" d="M0 0h24v24H0z"/></clipPath></defs></svg>