<svg fill="none" xmlns="http://www.w3.org/2000/svg" viewBox="0 0 24 24"><g clip-path="url(#a)"><path d="M12 24c6.627 0 12-5.373 12-12S18.627 0 12 0C5.372 0 0 5.373 0 12s5.372 12 12 12Z" fill="#FFD293"/><path d="M11.998 24c3.938 0 7.432-1.896 9.62-4.825H2.379A11.982 11.982 0 0 0 11.998 24ZM24 12c0-6.627-5.373-12-12-12C5.371 0 0 5.373 0 12c0 1.42.246 2.78.698 4.044H23.3c.452-1.264.7-2.625.7-4.044Z" fill="#0052B4"/><path d="m8.213 7.697.647 1.992h2.096L9.26 10.921l.648 1.993-1.695-1.232-1.696 1.232.648-1.993L5.47 9.69h2.095l.648-1.992ZM4.614 5.61l.388 1.195H6.26l-1.017.739.388 1.196L4.614 8l-1.017.74.388-1.196-1.017-.74h1.258l.388-1.195Z" fill="#fff"/></g><defs><clipPath id="a"><path fill="#fff" d="M0 0h24v24H0z"/></clipPath></defs></svg>