<svg width="24" height="24" fill="none" xmlns="http://www.w3.org/2000/svg"><g clip-path="url(#a)"><path d="M12 24c6.627 0 12-5.373 12-12S18.627 0 12 0C5.372 0 0 5.373 0 12s5.372 12 12 12Z" fill="#fff"/><path d="M18.783 10.435h-1.565a5.217 5.217 0 1 1-10.435 0H5.218a6.785 6.785 0 0 0 4.93 6.527 1.736 1.736 0 0 0 .182 1.895l1.705-1.367 1.706 1.367c.45-.562.494-1.318.172-1.913a6.785 6.785 0 0 0 4.87-6.509Z" fill="#6DA544"/><path d="M7.826 9.913s0 2.609 2.61 2.609l.52.521H12s.522-1.565 1.566-1.565c0 0 0-1.043 1.043-1.043h1.565s-.521-2.087 2.087-3.653l-1.043-.521s-3.652 2.608-6.261 2.087V9.39H9.913l-.521-.522-1.566 1.044Z" fill="#FFD293"/></g><defs><clipPath id="a"><path fill="#fff" d="M0 0h24v24H0z"/></clipPath></defs></svg>