<svg width="24" height="24" fill="none" xmlns="http://www.w3.org/2000/svg"><g clip-path="url(#a)"><path d="M.746 16.173C2.44 20.743 6.84 24 11.999 24c5.16 0 9.558-3.256 11.254-7.826L11.999 15.13.746 16.173Z" fill="#FFD293"/><path d="M12 0C6.84 0 2.44 3.257.745 7.826L11.999 8.87l11.254-1.044C21.557 3.256 17.159 0 11.999 0Z" fill="#000"/><path d="M.746 7.826A11.974 11.974 0 0 0 0 12c0 1.468.264 2.874.746 4.174h22.508c.482-1.3.746-2.706.746-4.174 0-1.468-.264-2.874-.746-4.174H.746Z" fill="#FF0062"/></g><defs><clipPath id="a"><path fill="#fff" d="M0 0h24v24H0z"/></clipPath></defs></svg>