<svg fill="none" xmlns="http://www.w3.org/2000/svg" viewBox="0 0 24 24"><g clip-path="url(#a)"><path d="M10.956 13.043s-7.435-9.53-7.442-9.528A11.962 11.962 0 0 1 12 0c6.627 0 12 5.373 12 12l-13.044 1.043Z" fill="#338AF3"/><path d="M10.956 12s-7.435 8.487-7.442 8.485A11.962 11.962 0 0 0 12 24c6.627 0 12-5.372 12-12H10.956Z" fill="#6DA544"/><path d="M3.515 3.514c-4.687 4.687-4.687 12.285 0 16.971L12 12 3.515 3.514Z" fill="#fff"/><path d="m4.857 8.87.777 2.391h2.514L6.114 12.74l.777 2.392-2.034-1.478-2.035 1.478.777-2.392-2.034-1.478H4.08l.777-2.391Z" fill="#FF0062"/></g><defs><clipPath id="a"><path fill="#fff" d="M0 0h24v24H0z"/></clipPath></defs></svg>