<svg width="24" height="24" fill="none" xmlns="http://www.w3.org/2000/svg"><g clip-path="url(#a)"><path d="M12 24c6.627 0 12-5.373 12-12S18.627 0 12 0 0 5.373 0 12s5.373 12 12 12Z" fill="#fff"/><path d="M9.39 10.435h14.508C23.131 4.547 18.096 0 12 0c-.896 0-1.77.099-2.61.285v10.15ZM6.26 10.435V1.459a12.008 12.008 0 0 0-6.158 8.976H6.26ZM6.26 13.565H.103a12.007 12.007 0 0 0 6.159 8.976v-8.976ZM9.39 13.566v10.149c.84.186 1.713.285 2.61.285 6.096 0 11.131-4.547 11.898-10.435H9.391Z" fill="#FF0062"/></g><defs><clipPath id="a"><path fill="#fff" d="M0 0h24v24H0z"/></clipPath></defs></svg>