<svg fill="none" xmlns="http://www.w3.org/2000/svg" viewBox="0 0 24 24"><g clip-path="url(#a)"><path d="M12 24c6.627 0 12-5.373 12-12S18.627 0 12 0C5.372 0 0 5.373 0 12s5.372 12 12 12Z" fill="#fff"/><path d="M14.347 23.77a12.013 12.013 0 0 0 9.422-9.422h-9.422v9.422ZM.23 14.348a12.013 12.013 0 0 0 9.422 9.422v-9.422H.23Zm23.539-4.696A12.013 12.013 0 0 0 14.347.23v9.422h9.422ZM9.652.23A12.013 12.013 0 0 0 .23 9.652h9.422V.23Z" fill="#496E2D"/><path d="M11.217 14.348H9.652v9.422c.511.102 1.034.17 1.566.204v-9.626Zm0-4.696V.026A12.02 12.02 0 0 0 9.652.23v9.422h1.565Z" fill="#FFD293"/><path d="M12.782.026a12.122 12.122 0 0 0-1.565 0v9.626h1.565V.026Zm-1.565 23.948a12.146 12.146 0 0 0 1.565 0v-9.626h-1.565v9.626Z" fill="#000"/><path d="M9.652 11.218V9.653H.23c-.101.51-.17 1.033-.204 1.565h9.626Zm4.695-.001h9.627a12.006 12.006 0 0 0-.205-1.565h-9.421v1.566Z" fill="#FFD293"/><path d="M14.347 12.783h9.626a12.147 12.147 0 0 0 0-1.566h-9.626v1.566ZM.026 11.217a12.156 12.156 0 0 0 0 1.566h9.626v-1.565H.026Z" fill="#000"/><path d="M12 17.74a5.74 5.74 0 1 0 0-11.48 5.74 5.74 0 0 0 0 11.478Z" fill="#FF0062"/><path d="M13.307 12.64c-.427-.853-.982-1.718-.982-1.718s.014-.394.014-.63a.64.64 0 0 0-1.277-.054.505.505 0 0 0-.2.95.727.727 0 0 1 .431-.4.65.65 0 0 0 .102.069l.082.039s-.304.857-.304 1.318c0 1.295.854 1.694.854 1.694v.013l-.427.427h.854v-.854l.426.427c.004-.008.81-.517.427-1.28ZM12 7.304l.194.598h.628l-.508.37.194.597L12 8.5l-.509.37.194-.597-.508-.37h.628L12 7.304Zm-2.76.897.508.37.509-.37-.195.598.509.37h-.629l-.194.597-.194-.598h-.629l.509-.37-.195-.597Zm-1.706 2.348h.628l.195-.598.194.598h.628l-.508.37.194.597-.508-.37-.509.37.194-.598-.508-.369Zm0 2.902.508-.369-.194-.598.509.37.508-.37-.194.598.508.37h-.628l-.194.597-.195-.598h-.628Zm1.706 2.348.194-.598-.509-.37h.629l.194-.597.194.598h.629l-.509.369.195.598-.51-.37-.508.37Zm2.76.897-.195-.598h-.628l.508-.37-.194-.597.509.37.508-.37-.194.598.508.369h-.628l-.194.598Zm2.76-.897-.508-.37-.509.37.194-.598-.508-.37h.628l.195-.597.194.598h.629l-.51.369.195.598Zm1.705-2.348h-.628l-.195.598-.194-.598h-.629l.509-.37-.194-.597.508.37.509-.37-.194.598.508.37Zm0-2.902-.508.37.194.597-.509-.37-.508.37.194-.598-.509-.369h.629l.194-.598.195.598h.628ZM14.76 8.2l-.194.599.508.37h-.628l-.194.597-.195-.598h-.628l.508-.37-.194-.597.509.37.508-.37Z" fill="#496E2D"/></g><defs><clipPath id="a"><path fill="#fff" d="M0 0h24v24H0z"/></clipPath></defs></svg>