<svg width="24" height="24" fill="none" xmlns="http://www.w3.org/2000/svg"><g clip-path="url(#a)"><path d="M12 24c6.627 0 12-5.373 12-12S18.627 0 12 0C5.372 0 0 5.373 0 12s5.372 12 12 12Z" fill="#fff"/><path d="M.413 15.13a12.021 12.021 0 0 0 8.456 8.457V15.13H.413Z" fill="#FF0062"/><path d="M8.869.413A12.02 12.02 0 0 0 .413 8.87h8.456V.413Z" fill="#0052B4"/><path d="M23.586 8.87A12.02 12.02 0 0 0 15.13.412V8.87h8.456Z" fill="#FF0062"/><path d="M15.13 23.587a12.021 12.021 0 0 0 8.456-8.456H15.13v8.456Z" fill="#0052B4"/><path d="M15.13 12a3.13 3.13 0 1 1-6.26 0c0-1.729 3.13-3.13 3.13-3.13s3.13 1.401 3.13 3.13Z" fill="#496E2D"/><path d="M8.87 12a3.13 3.13 0 0 1 6.26 0" fill="#0052B4"/><path d="M10.239 10.435v1.957a1.76 1.76 0 0 0 3.522 0v-1.957h-3.522Z" fill="#FF0062"/></g><defs><clipPath id="a"><path fill="#fff" d="M0 0h24v24H0z"/></clipPath></defs></svg>