<svg fill="none" xmlns="http://www.w3.org/2000/svg" viewBox="0 0 24 24"><g clip-path="url(#a)"><path d="M0 12C0 5.372 5.373 0 12 0s12 5.372 12 12l-12 1.043L0 12Z" fill="#FFD293"/><path d="M1.606 18C3.68 21.585 7.558 24 12 24s8.32-2.414 10.394-6L12 17.216l-10.394.782Z" fill="#FF0062"/><path d="M22.394 18A11.945 11.945 0 0 0 24 12H0c0 2.185.585 4.235 1.606 6h20.788Z" fill="#0052B4"/><path d="M12 16.173a4.174 4.174 0 1 0 0-8.348 4.174 4.174 0 0 0 0 8.348Z" fill="#FFD293"/><path d="M12 14.608a2.612 2.612 0 0 1-2.608-2.609v-1.565A2.612 2.612 0 0 1 12 7.825a2.612 2.612 0 0 1 2.609 2.61v1.564A2.612 2.612 0 0 1 12 14.608Z" fill="#338AF3"/><path d="M16.174 5.739h-3.13a1.043 1.043 0 0 0-2.087 0h-3.13c0 .576.501 1.043 1.078 1.043H8.87c0 .577.467 1.044 1.043 1.044 0 .576.467 1.043 1.044 1.043h2.087c.576 0 1.043-.467 1.043-1.043.577 0 1.044-.467 1.044-1.044h-.035c.576 0 1.078-.467 1.078-1.043Z" fill="#000"/></g><defs><clipPath id="a"><path fill="#fff" d="M0 0h24v24H0z"/></clipPath></defs></svg>