<svg fill="none" xmlns="http://www.w3.org/2000/svg" viewBox="0 0 24 24"><g clip-path="url(#a)"><path d="M0 12c0 1.467.264 2.873.746 4.174L12 16.695l11.254-.521c.482-1.3.746-2.707.746-4.174 0-1.468-.264-2.874-.746-4.174L12 7.304.746 7.826A11.975 11.975 0 0 0 0 12Z" fill="#000"/><path d="M12 0C6.84 0 2.442 3.256.746 7.826h22.508C21.558 3.256 17.159 0 12 0Z" fill="#0052B4"/><path d="M23.254 16.173H.746C2.442 20.743 6.84 23.999 12 23.999c5.16 0 9.558-3.257 11.254-7.826Z" fill="#fff"/></g><defs><clipPath id="a"><path fill="#fff" d="M0 0h24v24H0z"/></clipPath></defs></svg>