<svg fill="none" xmlns="http://www.w3.org/2000/svg" viewBox="0 0 24 24"><g clip-path="url(#a)"><path d="M12 24c6.627 0 12-5.373 12-12 0-6.628-5.373-12-12-12C5.372 0 0 5.372 0 12c0 6.627 5.372 12 12 12Z" fill="#fff"/><path d="M12 0C6.84 0 2.44 3.256.745 7.826h22.507C21.558 3.256 17.16 0 12 0Z" fill="#FF0062"/><path d="M12 23.999c5.159 0 9.558-3.256 11.253-7.826H.746c1.695 4.57 6.094 7.826 11.253 7.826Z" fill="#000"/><path d="M16.173 10.695h-3.13a1.044 1.044 0 0 0-2.088 0h-3.13c0 .576.502 1.044 1.078 1.044h-.035c0 .576.468 1.043 1.044 1.043 0 .576.467 1.044 1.043 1.044h2.087c.577 0 1.044-.468 1.044-1.044.576 0 1.043-.467 1.043-1.043h-.034c.576 0 1.078-.468 1.078-1.044Z" fill="#FF9811"/></g><defs><clipPath id="a"><path fill="#fff" d="M0 0h24v24H0z"/></clipPath></defs></svg>