<svg fill="none" xmlns="http://www.w3.org/2000/svg" viewBox="0 0 24 24"><g clip-path="url(#a)"><path d="M0 12c0 1.467.264 2.873.746 4.173L12 17.217l11.253-1.044c.483-1.3.747-2.706.747-4.174 0-1.448-.257-2.835-.727-4.12L12 6.782.726 7.879A11.975 11.975 0 0 0 0 11.999Z" fill="#FFD293"/><path d="M12 24c5.159 0 9.558-3.257 11.253-7.826H.746C2.44 20.744 6.84 24 11.999 24Z" fill="#FF0062"/><path d="M12 0C6.84 0 2.44 3.256.745 7.826h22.507C21.558 3.256 17.16 0 12 0Z" fill="#6DA544"/><path d="M12 17.738A5.74 5.74 0 1 0 12 6.26a5.74 5.74 0 0 0 0 11.478Z" fill="#0052B4"/><path d="m11.999 7.556 1.036 3.189h3.358l-2.718 1.97 1.044 3.198-2.72-1.98-2.717 1.977 1.04-3.195-2.715-1.97h3.356l1.036-3.189Z" fill="#FFD293"/><path d="m16.13 12.794-3.286-1.068 2.031-2.796-.844-.613L12 11.113 9.968 8.317l-.844.613 2.031 2.796-3.286 1.068.322.992 3.287-1.068v3.456h1.043v-3.456l3.287 1.068.323-.992Z" fill="#FFD293"/></g><defs><clipPath id="a"><path fill="#fff" d="M0 0h24v24H0z"/></clipPath></defs></svg>