<svg fill="none" xmlns="http://www.w3.org/2000/svg" viewBox="0 0 24 24"><g clip-path="url(#a)"><path d="M12 24c6.627 0 12-5.373 12-12 0-6.628-5.373-12-12-12C5.372 0 0 5.372 0 12c0 6.627 5.372 12 12 12Z" fill="#fff"/><path d="M23.898 10.434H9.391V.284a11.97 11.97 0 0 0-3.13 1.176v8.975H.1a12.104 12.104 0 0 0 0 3.13h6.16v8.977c.97.529 2.021.928 3.13 1.173v-10.15h14.507a12.12 12.12 0 0 0 0-3.13Z" fill="#0052B4"/></g><defs><clipPath id="a"><path fill="#fff" d="M0 0h24v24H0z"/></clipPath></defs></svg>