<svg fill="none" xmlns="http://www.w3.org/2000/svg" viewBox="0 0 24 24"><g clip-path="url(#a)"><path d="M24 12c0 6.627-5.373 12-12 12-6.628 0-12-5.373-12-12 0 .003 12-12 12-12 6.627 0 12 5.372 12 12Z" fill="#338AF3"/><path d="M11.998 5.739v4.047L7.824 5.74h4.174ZM6.26 12h3.526L6.26 7.304l-.521 3.653L6.26 12Z" fill="#0052B4"/><path d="M11.967 12.003h.035v-.036l-.035.036ZM12 6.26V0h-.002C5.37 0 0 5.373 0 12h6.26V8.474L9.787 12h2.182l.032-.032V9.786L8.474 6.261H12Z" fill="#fff"/><path d="M6.07 1.565A12.057 12.057 0 0 0 1.566 6.07V12h3.13V4.695H12v-3.13H6.071Z" fill="#FF0062"/><path d="M12 10.524 7.735 6.26H6.26L11.999 12v-1.476Z" fill="#FF0062"/><path d="M13.565 7.826V12c0 2.795 3.652 3.652 3.652 3.652s3.652-.857 3.652-3.652V7.826l-3.652-1.044-3.652 1.044Z" fill="#fff"/><path d="M20.869 7.825V6.26h-7.304v1.565h3.13v3.131h-3.13v1.043h3.13v3.492c.315.112.522.16.522.16s.206-.048.521-.16V12h3.13v-1.043h-3.13v-3.13h3.13Z" fill="#FF0062"/></g><defs><clipPath id="a"><path fill="#fff" d="M0 0h24v24H0z"/></clipPath></defs></svg>