<svg width="24" height="24" fill="none" xmlns="http://www.w3.org/2000/svg"><g clip-path="url(#a)"><path d="M24 12c0 6.627-5.372 12-12 12-6.627 0-12-5.373-12-12C0 12.003 12 0 12 0c6.628 0 12 5.372 12 12Z" fill="#0052B4"/><path d="M11.967 12.003h.036v-.036l-.036.036ZM12 6.26V0h-.002C5.372 0 0 5.373 0 12h6.261V8.474L9.787 12h2.181l.032-.032V9.786L8.475 6.261H12Z" fill="#fff"/><path d="M6.07 1.564A12.057 12.057 0 0 0 1.564 6.07v5.929h3.13V4.695H12v-3.13H6.07Z" fill="#FF0062"/><path d="M12 10.524 7.735 6.26H6.26L12 12v-1.476Z" fill="#FF0062"/><path d="M19.304 14.086v.522H15.13v-.522h-1.565v2.087h1.043v.522h5.218v-.522h1.043v-2.087h-1.565Z" fill="#FFD293"/><path d="M13.565 6.26V12c0 2.795 3.652 3.652 3.652 3.652s3.652-.857 3.652-3.653V6.26h-7.304Z" fill="#338AF3"/><path d="M17.216 10.541c-.913 0-.913.835-1.826.835s-.913-.835-1.825-.835v1.46c.912 0 .912.836 1.825.836.913 0 .913-.835 1.826-.835s.913.835 1.827.835c.913 0 .913-.835 1.826-.835V10.54c-.913 0-.913.835-1.826.835s-.913-.835-1.827-.835ZM17.217 7.616c-.913 0-.913.835-1.826.835s-.913-.835-1.826-.835v1.46c.913 0 .913.836 1.826.836s.913-.835 1.826-.835.913.835 1.826.835.913-.835 1.826-.835V7.616c-.913 0-.913.835-1.826.835s-.913-.835-1.826-.835Z" fill="#fff"/></g><defs><clipPath id="a"><path fill="#fff" d="M0 0h24v24H0z"/></clipPath></defs></svg>