<svg fill="none" xmlns="http://www.w3.org/2000/svg" viewBox="0 0 24 24"><g clip-path="url(#a)"><path d="M12 24c6.627 0 12-5.373 12-12 0-6.628-5.373-12-12-12S0 5.372 0 12c0 6.627 5.373 12 12 12Z" fill="#338AF3"/><path d="m12 5.217.518 1.594h1.676l-1.356.985.518 1.595L12 8.405l-1.356.986.518-1.595-1.356-.985h1.676L12 5.217ZM5.218 12l1.594-.519V9.805l.985 1.356 1.595-.518-.986 1.356.986 1.356-1.595-.518-.985 1.357v-1.677L5.218 12ZM12 18.782l-.518-1.595H9.806l1.356-.985-.518-1.594 1.356.985 1.356-.985-.518 1.594 1.356.985h-1.676L12 18.782Zm6.783-6.783-1.594.518v1.677l-.985-1.357-1.595.518.986-1.356-.986-1.356 1.595.518.985-1.356v1.676l1.594.518Z" fill="#fff"/></g><defs><clipPath id="a"><path fill="#fff" d="M0 0h24v24H0z"/></clipPath></defs></svg>