<svg width="24" height="24" fill="none" xmlns="http://www.w3.org/2000/svg"><g clip-path="url(#a)"><path d="M12 24c6.627 0 12-5.373 12-12 0-6.628-5.373-12-12-12S0 5.372 0 12c0 6.627 5.373 12 12 12Z" fill="#fff"/><path d="m23.478 12 .42-1.565a11.995 11.995 0 0 0-.311-1.566h-12.63V.045a11.97 11.97 0 0 0-1.566.24l-2.087 1.28-1.043-.105c-.55.3-1.072.64-1.565 1.02v6.39H.413C.276 9.377.172 9.9.102 10.434L.522 12l-.42 1.565c.07.534.174 1.056.311 1.565h4.283v6.39c.493.379 1.016.72 1.565 1.02l1.565-.105 1.565 1.279c.51.113 1.033.194 1.566.24V15.13h12.63c.137-.509.241-1.032.311-1.565L23.478 12Z" fill="#0052B4"/><path d="M23.898 10.434H9.391V.284C8.282.532 7.231.93 6.261 1.46v8.975H.1a12.12 12.12 0 0 0 0 3.13h6.16v8.977c.97.529 2.021.928 3.13 1.173V13.565h14.507a12.12 12.12 0 0 0 0-3.13Z" fill="#FF0062"/></g><defs><clipPath id="a"><path fill="#fff" d="M0 0h24v24H0z"/></clipPath></defs></svg>