<svg width="24" height="24" fill="none" xmlns="http://www.w3.org/2000/svg"><g clip-path="url(#a)"><path d="M12 24c6.627 0 12-5.372 12-12 0-6.627-5.373-12-12-12S0 5.373 0 12c0 6.628 5.373 12 12 12Z" fill="#FFD293"/><path d="M5.237 2.087A11.943 11.943 0 0 1 12.001 0c2.509 0 4.837.77 6.763 2.087l-6.763.522-6.764-.522Z" fill="#A2001D"/><path d="m12 12-.765-.766-.203.365L12 12Z" fill="#0052B4"/><path d="M3.515 3.515c-4.687 4.686-4.687 12.284 0 16.97L12 12 3.515 3.515ZM20.486 3.515c4.686 4.686 4.686 12.284 0 16.97L12 12l8.486-8.485Z" fill="#496E2D"/><path d="M12.001 16.174a4.174 4.174 0 1 0 0-8.348 4.174 4.174 0 0 0 0 8.348Z" fill="#A2001D"/><path d="m12 7.826.936 2.88h3.028l-2.45 1.78.936 2.88-2.45-1.78-2.45 1.78.937-2.88-2.45-1.78h3.028l.936-2.88ZM12.003 0h-.006.011-.005Z" fill="#FFD293"/><path d="M12.005 0h-.008a11.962 11.962 0 0 0-8.48 3.515h16.968A11.962 11.962 0 0 0 12.005 0ZM3.516 20.486A11.962 11.962 0 0 0 12.001 24c3.313 0 6.313-1.343 8.484-3.514H3.516Z" fill="#A2001D"/><path d="m12 1.303.195.598h.628l-.508.37.194.597-.508-.369-.509.37.194-.598-.508-.37h.628l.195-.598ZM9.091 1.303l.194.598h.629l-.509.37.195.597L9.09 2.5l-.509.37.195-.598-.509-.37h.629l.194-.598ZM14.91 1.303l.195.598h.628l-.508.37.194.597-.509-.369-.508.37.194-.598-.509-.37h.629l.194-.598ZM12 21.13l.195.598h.628l-.508.37.194.598-.508-.37-.509.37.194-.598-.508-.37h.628l.195-.598ZM9.091 21.13l.194.598h.629l-.509.37.195.598-.509-.37-.509.37.195-.598-.509-.37h.629l.194-.598ZM14.91 21.13l.195.598h.628l-.508.37.194.598-.509-.37-.508.37.194-.598-.509-.37h.629l.194-.598ZM3.657 11.802a1.043 1.043 0 0 1-1.763 1.116c-.558-.882-.235-2.322-.235-2.322s1.44.324 1.998 1.206Z" fill="#FFD293"/><path d="M3.055 13.322a.522.522 0 1 0 0-1.043.522.522 0 0 0 0 1.043Z" fill="#A2001D"/></g><defs><clipPath id="a"><path fill="#fff" d="M0 0h24v24H0z"/></clipPath></defs></svg>