<svg width="24" height="24" fill="none" xmlns="http://www.w3.org/2000/svg"><g clip-path="url(#a)"><path d="M12 24c6.627 0 12-5.373 12-12 0-6.628-5.373-12-12-12S0 5.372 0 12c0 6.627 5.373 12 12 12Z" fill="#fff"/><path d="M23.898 10.435H13.565V.1a12.12 12.12 0 0 0-3.13 0v10.334H.102a12.12 12.12 0 0 0 0 3.13h10.333v10.333a12.118 12.118 0 0 0 3.13 0V13.565h10.333a12.12 12.12 0 0 0 0-3.13Z" fill="#FF0062"/><path d="M7.304 5.738V4.173H5.739v1.565H4.173v1.565H5.74V8.87h1.565V7.303h1.565V5.738H7.304ZM18.26 5.738V4.173h-1.565v1.565H15.13v1.565h1.565V8.87h1.565V7.303h1.566V5.738H18.26ZM7.304 16.695V15.13H5.739v1.565H4.173v1.565H5.74v1.565h1.565V18.26h1.565v-1.565H7.304ZM18.26 16.695V15.13h-1.565v1.565H15.13v1.565h1.565v1.565h1.565V18.26h1.566v-1.565H18.26Z" fill="#FF0062"/></g><defs><clipPath id="a"><path fill="#fff" d="M0 0h24v24H0z"/></clipPath></defs></svg>