<svg fill="none" xmlns="http://www.w3.org/2000/svg" viewBox="0 0 24 24"><g clip-path="url(#a)"><path d="M12 24c6.627 0 12-5.373 12-12 0-6.628-5.373-12-12-12S0 5.372 0 12c0 6.627 5.373 12 12 12Z" fill="#fff"/><path d="M23.898 10.435H13.565V.1a12.12 12.12 0 0 0-3.13 0v10.334H.102a12.118 12.118 0 0 0 0 3.13h10.333v10.333a12.118 12.118 0 0 0 3.13 0V13.565h10.333a12.12 12.12 0 0 0 0-3.13Z" fill="#FF0062"/><path d="m15.39 12.522.784.522v-2.087l-.783.521h-2.87v-2.87l.522-.782h-2.087l.522.783v2.87h-2.87l-.782-.522v2.087l.782-.522h2.87v2.87l-.522.782h2.087l-.522-.783v-2.87h2.87Z" fill="#FFD293"/></g><defs><clipPath id="a"><path fill="#fff" d="M0 0h24v24H0z"/></clipPath></defs></svg>