<svg width="24" height="24" fill="none" xmlns="http://www.w3.org/2000/svg"><g clip-path="url(#a)"><path d="M0 12c0 1.468.264 2.874.746 4.174L12 16.695l11.254-.521c.482-1.3.746-2.706.746-4.174 0-1.468-.264-2.874-.746-4.174L12 7.304.746 7.826A11.975 11.975 0 0 0 0 12Z" fill="#FFD293"/><path d="M12 0C6.842 0 2.444 3.257.748 7.827h22.507C21.56 3.257 17.16 0 12.001 0Z" fill="#FF0062"/><path d="M23.254 16.174H.747C2.443 20.744 6.841 24 12.001 24c5.16 0 9.558-3.257 11.253-7.826Z" fill="#496E2D"/><path d="m12 7.826 1.036 3.188h3.353l-2.712 1.97 1.036 3.19L12 14.203l-2.712 1.97 1.036-3.188-2.712-1.97h3.352L12 7.824Z" fill="#000"/></g><defs><clipPath id="a"><path fill="#fff" d="M0 0h24v24H0z"/></clipPath></defs></svg>