<svg fill="none" xmlns="http://www.w3.org/2000/svg" viewBox="0 0 24 24"><g clip-path="url(#a)"><path d="M12 24c6.627 0 12-5.372 12-12 0-6.627-5.373-12-12-12S0 5.374 0 12c0 6.628 5.373 12 12 12Z" fill="#fff"/><path d="M12 24c5.159 0 9.557-3.256 11.253-7.826H.746C2.44 20.744 6.84 24 11.999 24Zm4.695-14.087V8.348h.521V7.304h-1.043v.522h-1.044v-.522h-1.043v1.044h.522v1.565h-1.044V6.26h.522V5.217h-1.044v.522h-.521v-.522h-1.044v.522h-.522v-.522H9.912v1.044h.522v3.652H9.39V8.348h.522V7.304H8.868v.522H7.825v-.522H6.782v1.044h.521v1.565H6.26v4.174h11.478V9.913h-1.043Z" fill="#FF0062"/><path d="M11.999 13.565a1.565 1.565 0 0 0-.522 3.04v2.177H9.912v2.087h2.609v-4.263a1.566 1.566 0 0 0-.522-3.041Zm0 2.087a.522.522 0 1 1 0-1.044.522.522 0 0 1 0 1.044Z" fill="#FFD293"/></g><defs><clipPath id="a"><path fill="#fff" d="M0 0h24v24H0z"/></clipPath></defs></svg>