<svg width="24" height="24" fill="none" xmlns="http://www.w3.org/2000/svg"><g clip-path="url(#a)"><path d="M0 12C0 5.374 5.373 0 12 0s12 5.373 12 12c-.522 0-12 1.566-12 1.566L0 12Z" fill="#fff"/><path d="M24 12c0 6.628-5.373 12-12 12S0 18.628 0 12" fill="#FF0062"/><path d="M8.347 17.738a5.74 5.74 0 1 0 0-11.478 5.74 5.74 0 0 0 0 11.478Z" fill="#fff"/><path d="M2.608 12a5.74 5.74 0 0 1 11.478 0" fill="#FF0062"/></g><defs><clipPath id="a"><path fill="#fff" d="M0 0h24v24H0z"/></clipPath></defs></svg>