<svg width="24" height="24" fill="none" xmlns="http://www.w3.org/2000/svg"><g clip-path="url(#a)"><path d="M12 24c6.628 0 12-5.373 12-12 0-6.628-5.372-12-12-12C5.373 0 0 5.372 0 12c0 6.627 5.373 12 12 12Z" fill="#fff"/><path d="M7.305 7.826h15.95C21.558 3.256 17.16 0 12 0a11.96 11.96 0 0 0-8.485 3.515l3.79 4.31Z" fill="#6DA544"/><path d="M7.305 16.173h15.95c-1.696 4.57-6.095 7.826-11.254 7.826a11.961 11.961 0 0 1-8.485-3.515l3.79-4.311Z" fill="#FF0062"/><path d="M3.515 3.514c-4.686 4.686-4.686 12.285 0 16.97L12 12 3.515 3.514Z" fill="#0052B4"/><path d="M14.087 9.912v2.609c0 1.597 2.087 2.087 2.087 2.087s2.087-.49 2.087-2.087V9.912h-4.174Z" fill="#fff"/><path d="M15.653 12.051h1.043v1.513h-1.043v-1.513Z" fill="#786145"/><path d="M17.218 11.477a1.044 1.044 0 0 0-2.087 0 .522.522 0 0 0 0 1.044h2.087a.522.522 0 0 0 0-1.044Z" fill="#6DA544"/></g><defs><clipPath id="a"><path fill="#fff" d="M0 0h24v24H0z"/></clipPath></defs></svg>