<svg width="24" height="24" fill="none" xmlns="http://www.w3.org/2000/svg"><g clip-path="url(#a)"><path d="M12 24c6.627 0 12-5.372 12-12 0-6.627-5.373-12-12-12S0 5.373 0 12c0 6.628 5.373 12 12 12Z" fill="#fff"/><path d="M24 12a12 12 0 0 0-6.782-10.81v21.62A12 12 0 0 0 24.001 12ZM0 12a12 12 0 0 0 6.783 10.81V1.19A12 12 0 0 0 0 12Z" fill="#338AF3"/><path d="m15.136 14.029-2.028-2.03 1.93-1.93-.087-1.02-.553-.554-2.397 2.398-2.398-2.398-.553.553-.088 1.02L10.894 12l-2.03 2.029 1.108 1.107L12 13.106l2.029 2.03 1.107-1.107Z" fill="#A9B9C0"/><path d="m14.952 9.048-1.107 1.107a2.609 2.609 0 1 1-3.69 0L9.05 9.048a4.174 4.174 0 1 0 5.903 0Z" fill="#6DA544"/></g><defs><clipPath id="a"><path fill="#fff" d="M0 0h24v24H0z"/></clipPath></defs></svg>