<svg fill="none" xmlns="http://www.w3.org/2000/svg" viewBox="0 0 24 24"><g clip-path="url(#a)"><path d="M5.236 21.913A11.944 11.944 0 0 0 12 24c2.509 0 4.837-.77 6.763-2.087L12 20.87l-6.764 1.043ZM18.763 2.087A11.944 11.944 0 0 0 12 0C9.49 0 7.162.771 5.236 2.087L12 3.131l6.763-1.044Z" fill="#FF0062"/><path d="M24 12c0-3.97-2.377-7.958-5.236-9.913H5.237A11.987 11.987 0 0 0 0 12c0 4.119 2.075 7.752 5.237 9.913h13.526A11.987 11.987 0 0 0 24 12Z" fill="#0052B4"/><path d="M11.32 19.575c-.164-.141-4.016-3.49-4.016-7.575s3.852-7.435 4.016-7.575l.68-.582.678.582c.164.14 4.017 3.49 4.017 7.575s-3.853 7.434-4.017 7.575l-.679.582-.679-.582Z" fill="#FF0062"/><path d="M15.652 12c0-3.652-3.653-6.783-3.653-6.783S8.347 8.347 8.347 12c0 1.117.342 2.185.817 3.13h5.671c.474-.945.816-2.013.816-3.13Z" fill="#338AF3"/><path d="M15.652 12c0 1.117-.342 2.186-.817 3.13l-2.836.522-2.835-.521c-.475-.945-.817-2.014-.817-3.13h7.305Z" fill="#0052B4"/><path d="M12 18.782s1.758-1.508 2.835-3.652H9.164c1.076 2.144 2.835 3.652 2.835 3.652Z" fill="#FFD293"/><path d="M9.652 9.913h4.696L12 12.26 9.652 9.913Z" fill="#6DA544"/><path d="M11.217 11.479h1.565v4.695h-1.565V11.48Z" fill="#A2001D"/></g><defs><clipPath id="a"><path fill="#fff" d="M0 0h24v24H0z"/></clipPath></defs></svg>