<svg fill="none" xmlns="http://www.w3.org/2000/svg" viewBox="0 0 24 24"><g clip-path="url(#a)"><path d="M12 0a12 12 0 0 0-3.13.414L7.825 12l1.043 11.586c.998.27 2.047.413 3.13.413 6.628 0 12-5.372 12-12 0-6.627-5.372-12-12-12Z" fill="#FFD293"/><path d="m7.826 12 1.043 11.587a12.01 12.01 0 0 0 3.13.413c6.628 0 12-5.372 12-12H7.827Z" fill="#6DA544"/><path d="M0 12c0 4.549 2.53 8.506 6.26 10.541V1.46A11.997 11.997 0 0 0 0 12Z" fill="#FF0062"/><path d="M0 12c0 5.545 3.76 10.21 8.87 11.587V.414C3.76 1.79 0 6.456 0 12Z" fill="#FF0062"/><path d="m4.534 8.87.777 2.39h2.514l-2.034 1.48.777 2.391-2.034-1.478-2.035 1.478.777-2.391-2.034-1.479h2.515l.777-2.39Z" fill="#000"/></g><defs><clipPath id="a"><path fill="#fff" d="M0 0h24v24H0z"/></clipPath></defs></svg>