<svg fill="none" xmlns="http://www.w3.org/2000/svg" viewBox="0 0 24 24"><g clip-path="url(#a)"><path d="M12 24c6.627 0 12-5.373 12-12S18.627 0 12 0 0 5.373 0 12s5.373 12 12 12Z" fill="#fff"/><path d="M12 0C9.878 0 7.886.551 6.156 1.517v20.966A11.944 11.944 0 0 0 12 24c6.627 0 12-5.373 12-12S18.627 0 12 0Z" fill="#6DA544"/><path d="M6.192 1.498a12.026 12.026 0 0 0-1.907 1.311l9.19 9.19-9.19 9.191a12.123 12.123 0 0 1 1.907 1.312L24 12 6.192 1.498Z" fill="#fff"/><path d="M5.178 2.127a12.28 12.28 0 0 0-1.052.818L12 12l-7.874 9.055c.335.292.686.564 1.052.818L21.946 12 5.178 2.127Z" fill="#FFD293"/><path d="M4.285 2.81c-.267.223-.524.458-.77.704L10.957 12l-7.442 8.485c.246.246.503.481.77.705l9.19-9.19-9.19-9.19Z" fill="#000"/><path d="M3.515 3.514c-4.687 4.687-4.687 12.285 0 16.971L12 12 3.515 3.514Z" fill="#FF0062"/></g><defs><clipPath id="a"><path fill="#fff" d="M0 0h24v24H0z"/></clipPath></defs></svg>