<svg width="24" height="24" fill="none" xmlns="http://www.w3.org/2000/svg"><g clip-path="url(#a)"><path d="M12 24c6.627 0 12-5.373 12-12S18.627 0 12 0 0 5.373 0 12s5.373 12 12 12Z" fill="#FF0062"/><path d="M13.24 9.078c-.273 1.134-.758.918-.995 1.907a2.609 2.609 0 0 1 1.22-5.073c-.476 1.979.019 2.151-.225 3.166ZM9.605 9.918c.995.61.639 1.004 1.506 1.536a2.609 2.609 0 0 1-4.447-2.727c1.734 1.063 2.051.646 2.94 1.191ZM9.281 13.635c.888-.757 1.153-.297 1.926-.958a2.609 2.609 0 0 1-3.968 3.387c1.548-1.32 1.249-1.751 2.042-2.429ZM12.716 15.092c-.447-1.078.072-1.188-.317-2.128a2.609 2.609 0 0 1 1.996 4.82c-.778-1.88-1.28-1.728-1.68-2.692ZM15.162 12.275c-1.163.091-1.107-.437-2.121-.357a2.609 2.609 0 0 1 5.201-.408c-2.028.16-2.04.684-3.08.765Z" fill="#fff"/></g><defs><clipPath id="a"><path fill="#fff" d="M0 0h24v24H0z"/></clipPath></defs></svg>