<svg fill="none" xmlns="http://www.w3.org/2000/svg" viewBox="0 0 24 24"><g clip-path="url(#a)"><path d="M24 11.999c0-1.468-.264-2.874-.746-4.174L12 7.303.746 7.825A11.974 11.974 0 0 0 0 11.999c0 1.468.264 2.874.746 4.174L12 16.695l11.254-.522c.482-1.3.746-2.706.746-4.174Z" fill="#fff"/><path d="M12 24c5.159 0 9.558-3.257 11.253-7.827H.746C2.44 20.743 6.84 24 11.999 24Z" fill="#0052B4"/><path d="M.746 7.826h22.507C21.558 3.256 17.16 0 12 0S2.441 3.256.746 7.826Z" fill="#FF0062"/><path d="M15.13 8.347h-2.087l.348-2.609 1.391-1.043 1.392 1.043v2.087l-1.044.522Zm-6.261 0h2.087l-.348-2.609-1.391-1.043-1.392 1.043v2.087l1.044.522Z" fill="#338AF3"/><path d="M13.392 8.347h-2.783V5.738l1.392-1.043 1.39 1.043v2.609Z" fill="#0052B4"/><path d="M7.825 7.825v5.74a4.17 4.17 0 0 0 1.679 3.343l.73-.183.922.928a4.173 4.173 0 0 0 1.682 0l1.053-.875.604.129a4.169 4.169 0 0 0 1.678-3.342v-5.74H7.825Z" fill="#fff"/><path d="M7.825 7.825h1.67v1.67h-1.67v-1.67Zm3.34 0h1.67v1.67h-1.67v-1.67Zm3.338 0h1.67v1.67h-1.67v-1.67Z" fill="#FF0062"/><path d="M9.495 9.495h1.67v1.67h-1.67v-1.67Zm3.34 0h1.67v1.67h-1.67v-1.67Z" fill="#FF0062"/><path d="M7.825 11.163h1.67v1.67h-1.67v-1.67Zm1.67 1.67h1.67v1.67h-1.67v-1.67Zm1.67-1.67h1.67v1.67h-1.67v-1.67Zm3.338 0h1.67v1.67h-1.67v-1.67Zm-1.668 1.67h1.67v1.67h-1.67v-1.67Zm-1.67 1.67h1.67v1.67h-1.67v-1.67Zm-1.669 0H7.934a4.16 4.16 0 0 0 .81 1.67h.752v-1.67Z" fill="#FF0062"/><path d="M14.503 16.172h.751a4.16 4.16 0 0 0 .811-1.67h-1.562v1.67Zm-5.008.001v.728a4.157 4.157 0 0 0 1.67.753v-1.481h-1.67Zm3.34 0v1.481a4.155 4.155 0 0 0 1.67-.753v-.728h-1.67Z" fill="#FF0062"/></g><defs><clipPath id="a"><path fill="#fff" d="M0 0h24v24H0z"/></clipPath></defs></svg>