<svg width="24" height="24" fill="none" xmlns="http://www.w3.org/2000/svg"><g clip-path="url(#a)"><path d="M12 24c6.627 0 12-5.373 12-12 0-6.628-5.373-12-12-12S0 5.372 0 12c0 6.627 5.373 12 12 12Z" fill="#fff"/><path d="M23.999 12c0-5.16-3.256-9.558-7.826-11.254v22.507c4.57-1.695 7.826-6.094 7.826-11.253Z" fill="#FF9811"/><path d="M0 12c0 5.16 3.256 9.558 7.826 11.253V.746C3.256 2.442 0 6.84 0 12Z" fill="#6DA544"/></g><defs><clipPath id="a"><path fill="#fff" d="M0 0h24v24H0z"/></clipPath></defs></svg>