<svg width="24" height="24" fill="none" xmlns="http://www.w3.org/2000/svg"><g clip-path="url(#a)"><path d="M12 24c6.627 0 12-5.373 12-12 0-6.628-5.373-12-12-12S0 5.372 0 12c0 6.627 5.373 12 12 12Z" fill="#FF0062"/><path d="m16.443 8.044-.848 3.027-2.545-.47-1.638-3.377-4.426 1.57-.349-.983-1.158-.143.873 2.459 3.045-.779.866 2.439-2.105 3.107 3.572 3.047-.677.794.455 1.074 1.693-1.985-2.197-2.248 1.68-1.969 3.743.27.852-4.618 1.027.19.702-.931-2.565-.474Z" fill="#fff"/></g><defs><clipPath id="a"><path fill="#fff" d="M0 0h24v24H0z"/></clipPath></defs></svg>