<svg fill="none" xmlns="http://www.w3.org/2000/svg" viewBox="0 0 24 24"><g clip-path="url(#a)"><path d="M12 24c6.628 0 12-5.372 12-12 0-6.627-5.372-12-12-12C5.374 0 0 5.373 0 12c0 6.628 5.373 12 12 12Z" fill="#fff"/><path d="M22 13.436c-1 0-1-.915-2-.915s-1 .915-2 .915-1-.915-2-.915-1 .915-2 .915-1-.915-2-.915-1 .915-2 .915-1-.915-2-.915-1 .915-2 .915-1-.915-2-.915-1 .915-2 .915c-.995 0-1-.905-1.984-.914.027.548.093 1.087.192 1.614.797.118.867.9 1.792.9 1 0 1-.915 2-.915s1 .915 2 .915 1-.915 2-.915 1 .915 2 .915 1-.915 2-.915 1 .915 2 .915 1-.915 2-.915 1 .915 2 .915 1-.915 2-.915 1 .915 2 .915c.925 0 .995-.782 1.792-.9.1-.527.165-1.065.193-1.614-.985.01-.99.914-1.985.914Zm-2 2.216c-1 0-1 .914-2 .914s-1-.914-2-.914-1 .914-2 .914-1-.914-2-.914-1 .914-2 .914-1-.914-2-.914-1 .914-2 .914-1-.914-2-.914-1 .914-2 .914c-.737 0-.931-.495-1.382-.757.273.817.632 1.594 1.065 2.322.094.022.198.035.317.035 1 0 1-.914 2-.914s1 .914 2 .914 1-.914 2-.914 1 .914 2 .914 1-.914 2-.914 1 .914 2 .914 1-.914 2-.914 1 .914 2 .914 1-.914 2-.914 1 .914 2 .914c.119 0 .223-.013.317-.035a11.94 11.94 0 0 0 1.065-2.322c-.45.262-.645.758-1.382.758-1 0-1-.915-2-.915Zm3.72-6.233c-.73.152-.823.886-1.72.886-1 0-1-.914-2-.914s-1 .915-2 .915-1-.915-2-.915-1 .915-2 .915-1-.915-2-.915c-.54 0-.789.267-1.06.512v1.6c.271-.245.52-.512 1.06-.512 1 0 1 .914 2 .914s1-.914 2-.914 1 .914 2 .914 1-.914 2-.914 1 .914 2 .914c.925 0 .995-.781 1.792-.899h.167a11.96 11.96 0 0 0-.238-1.587Zm-.876-2.563a1.213 1.213 0 0 1-.844.32c-1 0-1-.915-2-.915s-1 .914-2 .914-1-.914-2-.914-1 .914-2 .914-1-.914-2-.914c-.54 0-.789.267-1.06.512v1.6c.271-.245.52-.512 1.06-.512 1 0 1 .914 2 .914s1-.914 2-.914 1 .914 2 .914 1-.914 2-.914 1 .914 2 .914c.71 0 .916-.46 1.333-.727a11.924 11.924 0 0 0-.489-1.192Zm-2.759-3.724A1.575 1.575 0 0 0 20 3.13c-1 0-1 .914-2 .914s-1-.914-2-.914-1 .914-2 .914-1-.914-2-.914c-.54 0-.789.267-1.06.512v1.6c.271-.245.52-.512 1.06-.512 1 0 1 .914 2 .914s1-.914 2-.914 1 .914 2 .914 1-.914 2-.914 1 .914 2 .914c.061 0 .119-.003.174-.01a12.056 12.056 0 0 0-2.089-2.502ZM15.067.397c-.274.247-.523.518-1.067.518-1 0-1-.914-2-.915-.518 0-.767.245-1.026.481v1.6c.259-.236.508-.48 1.026-.48 1 0 1 .914 2 .914s1-.914 2-.914 1 .914 2 .914c.42 0 .663-.161.878-.348a11.943 11.943 0 0 0-3.81-1.77ZM14 22.827c-1 0-1-.914-2-.914s-1 .914-2 .914-1-.914-2-.914c-.766 0-.946.536-1.437.787 1.355.69 2.858 1.13 4.449 1.26.246-.226.496-.447.988-.447s.742.221.988.446c1.591-.13 3.094-.57 4.449-1.259-.491-.251-.671-.787-1.437-.787-1 0-1 .914-2 .914Zm4-3.13c-1 0-1-.915-2-.915s-1 .915-2 .915-1-.915-2-.915-1 .915-2 .915-1-.915-2-.915-1 .915-2 .915-1-.915-2-.915c-.72 0-.921.473-1.35.739.269.334.554.653.857.956.135-.058.294-.095.493-.095 1 0 1 .915 2 .915s1-.915 2-.915 1 .915 2 .915 1-.915 2-.915 1 .915 2 .915 1-.915 2-.915 1 .915 2 .915 1-.915 2-.915c.199 0 .358.037.493.095.303-.303.588-.622.857-.956-.429-.265-.63-.739-1.35-.739-1 0-1 .915-2 .915Z" fill="#0052B4"/><path d="M11.968 12.004h.035v-.036l-.035.036Z" fill="#fff"/><path d="M12 6.26v3.526L7.828 5.74 12 6.26ZM6.262 12h3.525L6.261 7.303l-.521 3.652.522 1.043Z" fill="#0052B4"/><path d="M12 6.261V.001h-.002C5.372 0 0 5.372 0 12h6.261V8.474L9.787 12h2.181l.033-.032V9.787L8.475 6.26H12Z" fill="#fff"/><path d="M6.071 1.565A12.057 12.057 0 0 0 1.565 6.07V12h3.13V4.695H12v-3.13H6.071Z" fill="#FF0062"/><path d="M12 10.524 7.736 6.26H6.261L12 12v-1.476Z" fill="#FF0062"/><path d="M15.653 6.26h4.695L18 8.608 15.653 6.26Z" fill="#6DA544"/><path d="M17.479 8.086h1.043v2.87H17.48v-2.87Zm0 7.566h1.044v2.87h-1.044v-2.87Z" fill="#A2001D"/><path d="M21.13 14.087a1.565 1.565 0 0 0-2.608-1.166V12h.522v-1.043h-.522v-.522h-1.043v.521h-.522V12h.522v.92a1.565 1.565 0 0 0-2.087 2.333v.921h5.217v-.92c.32-.287.522-.704.522-1.167Z" fill="#FFD293"/><path d="M19.565 13.565a.514.514 0 0 0-.347.133l-.696.623h-1.044l-.696-.623a.522.522 0 0 0-.695.778l.348.31v.344h3.13v-.344l.348-.31a.522.522 0 0 0-.348-.91Z" fill="#FF0062"/></g><defs><clipPath id="a"><path fill="#fff" d="M0 0h24v24H0z"/></clipPath></defs></svg>