<svg fill="none" xmlns="http://www.w3.org/2000/svg" viewBox="0 0 24 24"><g clip-path="url(#a)"><path d="M12 24c6.627 0 12-5.373 12-12 0-6.628-5.373-12-12-12S0 5.372 0 12c0 6.627 5.373 12 12 12Z" fill="#fff"/><path d="M12 0C6.842 0 2.444 3.256.748 7.826h22.507C21.56 3.256 17.16 0 12.001 0Z" fill="#A2001D"/><path d="M12 24c5.16 0 9.559-3.257 11.254-7.826H.747C2.443 20.744 6.841 24 12.001 24Z" fill="#000"/><path d="M9.13 11.218H6.817c.116-.45.524-.783 1.01-.783V8.87a2.612 2.612 0 0 0-2.61 2.609v1.304h3.914a.26.26 0 0 1 .26.26v.523H4.174v1.565h6.782v-2.087a1.828 1.828 0 0 0-1.826-1.826Zm3.913 2.348V8.87h-1.565v6.261h2.609v-1.565h-1.044Zm5.218 0V8.87h-1.565v4.696h-.522V12H14.61v3.13h4.696v-1.565H18.26Z" fill="#496E2D"/></g><defs><clipPath id="a"><path fill="#fff" d="M0 0h24v24H0z"/></clipPath></defs></svg>