<svg width="24" height="24" fill="none" xmlns="http://www.w3.org/2000/svg"><g clip-path="url(#a)"><path d="M12 24c6.627 0 12-5.373 12-12 0-6.628-5.373-12-12-12S0 5.372 0 12c0 6.627 5.373 12 12 12Z" fill="#fff"/><path d="M15.898 8.87h-1.57c.013.172.02.347.02.522 0 1.16-.29 2.286-.796 3.087-.156.247-.418.595-.77.83V8.87h-1.565v4.44c-.35-.235-.613-.583-.769-.83-.506-.801-.796-1.926-.796-3.087 0-.175.008-.35.02-.522h-1.57c-.01.172-.015.346-.015.522 0 3.218 1.719 5.739 3.913 5.739s3.913-2.521 3.913-5.74c0-.175-.005-.35-.015-.521Z" fill="#FF0062"/><path d="M4.956 5.74h1.565v1.043h1.566V5.739h1.565v1.044h1.565V5.739h1.565v1.044h1.566V5.739h1.565v1.044h1.565V5.739h1.565v1.044h3.766A12 12 0 0 0 11.999 0 12 12 0 0 0 1.19 6.783h3.766V5.739Z" fill="#6DA544"/><path d="M19.043 17.218v1.043h-1.565v-1.043h-1.565v1.043h-1.565v-1.043h-1.566v1.043h-1.565v-1.043H9.652v1.043H8.087v-1.043H6.52v1.043H4.956v-1.043H1.19A12 12 0 0 0 12 24a12 12 0 0 0 10.809-6.782h-3.766Z" fill="#FF0062"/></g><defs><clipPath id="a"><path fill="#fff" d="M0 0h24v24H0z"/></clipPath></defs></svg>