<svg width="24" height="24" fill="none" xmlns="http://www.w3.org/2000/svg"><g clip-path="url(#a)"><path d="M12 24c6.627 0 12-5.373 12-12S18.627 0 12 0 0 5.373 0 12s5.373 12 12 12Z" fill="#fff"/><path d="M.413 15.13a12.01 12.01 0 0 0 4.282 6.39v-6.39H.413ZM10.957 23.954c.343.03.691.046 1.043.046 5.544 0 10.21-3.76 11.587-8.87h-12.63v8.824ZM23.587 8.87C22.21 3.76 17.544 0 12 0c-.352 0-.7.016-1.043.046V8.87h12.63ZM4.695 2.48A12.01 12.01 0 0 0 .413 8.87h4.282V2.48Z" fill="#0052B4"/><path d="M23.898 10.435H9.391V.285C8.282.531 7.231.93 6.261 1.46v8.976H.1a12.102 12.102 0 0 0 0 3.13h6.16v8.976c.97.53 2.021.928 3.13 1.174v-10.15h14.507a12.121 12.121 0 0 0 0-3.13Z" fill="#FF0062"/></g><defs><clipPath id="a"><path fill="#fff" d="M0 0h24v24H0z"/></clipPath></defs></svg>