<svg width="24" height="24" fill="none" xmlns="http://www.w3.org/2000/svg"><g clip-path="url(#a)"><path d="M12 24c6.627 0 12-5.373 12-12S18.627 0 12 0 0 5.373 0 12s5.373 12 12 12Z" fill="#fff"/><path d="M21.52 19.306 14.214 12l7.306-7.306a12.115 12.115 0 0 0-2.213-2.214L12 9.786 4.694 2.479A12.114 12.114 0 0 0 2.48 4.693l7.307 7.306-7.307 7.307a12.134 12.134 0 0 0 2.214 2.214L12 14.213l7.307 7.307a12.097 12.097 0 0 0 2.213-2.214Z" fill="#FF0062"/><path d="M9.913 3.652 12 4.173l2.087-.521V1.878l-.835.417L12 1.043l-1.252 1.252-.835-.417v1.774Z" fill="#FFD293"/><path d="M9.913 3.652v1.305C9.913 6.554 12 7.044 12 7.044s2.087-.49 2.087-2.087V3.652H9.913Z" fill="#FF0062"/></g><defs><clipPath id="a"><path fill="#fff" d="M0 0h24v24H0z"/></clipPath></defs></svg>