<svg width="24" height="24" fill="none" xmlns="http://www.w3.org/2000/svg"><g clip-path="url(#a)"><path d="M12 24c6.627 0 12-5.373 12-12 0-6.628-5.373-12-12-12S0 5.372 0 12c0 6.627 5.373 12 12 12Z" fill="#fff"/><path d="M7.305 7.826h15.95C21.558 3.256 17.16 0 12 0a11.96 11.96 0 0 0-8.485 3.515l3.789 4.311Z" fill="#000"/><path d="M7.305 16.174h15.95C21.558 20.744 17.16 24 12 24a11.961 11.961 0 0 1-8.485-3.515l3.789-4.311Z" fill="#6DA544"/><path d="M3.515 3.515c-4.687 4.686-4.687 12.284 0 16.97L12 12 3.515 3.515Z" fill="#FF0062"/><path d="m4.763 9.39.658 1.378 1.488-.344-.667 1.374 1.196.948-1.489.336.005 1.526-1.191-.955-1.191.955.004-1.526-1.49-.336 1.197-.948-.666-1.374 1.487.344.659-1.377Z" fill="#fff"/></g><defs><clipPath id="a"><path fill="#fff" d="M0 0h24v24H0z"/></clipPath></defs></svg>