<svg fill="none" xmlns="http://www.w3.org/2000/svg" viewBox="0 0 24 24"><g clip-path="url(#a)"><path d="M12 24c6.627 0 12-5.372 12-12 0-6.627-5.373-12-12-12S0 5.373 0 12c0 6.628 5.373 12 12 12Z" fill="#fff"/><path d="M12 0A12 12 0 0 0 1.19 6.783h21.618A12 12 0 0 0 12 0Z" fill="#000"/><path d="M12 24a12 12 0 0 1-10.81-6.782h21.618A12 12 0 0 1 12 24.001Z" fill="#496E2D"/><path d="M23.433 8.349H.567A11.991 11.991 0 0 0 0 12c0 1.274.2 2.5.567 3.652h22.866A11.99 11.99 0 0 0 24 12.001c0-1.274-.2-2.5-.567-3.652Z" fill="#A2001D"/><path d="m15.736 5.546-1.422-.656L12 10.133 9.683 4.89l-1.42.656 2.874 6.455-2.875 6.454 1.421.656L12 13.868l2.315 5.243 1.421-.656-2.874-6.454 2.874-6.455Z" fill="#fff"/><path d="M12.965 6.164c-.55-.601-.966-.946-.966-.946s-.415.345-.965.946v11.673c.55.6.965.946.965.946s.415-.346.966-.946V6.164Z" fill="#fff"/><path d="M9.39 8.402v7.196a12.586 12.586 0 0 0 1.827 2.434V5.968A12.583 12.583 0 0 0 9.39 8.402Zm5.218 0a12.578 12.578 0 0 0-1.826-2.434v12.064a12.584 12.584 0 0 0 1.826-2.434V8.402Z" fill="#A2001D"/><path d="M14.608 8.402v7.196c.588-1.043 1.043-2.276 1.043-3.598s-.455-2.555-1.043-3.598Zm-5.218 0v7.196C8.802 14.555 8.347 13.322 8.347 12s.455-2.555 1.043-3.598Z" fill="#000"/></g><defs><clipPath id="a"><path fill="#fff" d="M0 0h24v24H0z"/></clipPath></defs></svg>