<svg fill="none" xmlns="http://www.w3.org/2000/svg" viewBox="0 0 24 24"><g clip-path="url(#a)"><path d="M12 24c6.627 0 12-5.373 12-12 0-6.628-5.373-12-12-12S0 5.372 0 12c0 6.627 5.373 12 12 12Z" fill="#FF0062"/><path d="m17.869 12-2.399 1.13 1.277 2.322-2.604-.498-.33 2.63L12 15.65l-1.814 1.935-.33-2.631-2.604.498L8.53 13.13 6.131 12l2.398-1.128L7.252 8.55l2.604.499.33-2.63L12 8.352l1.814-1.935.33 2.63 2.604-.498-1.277 2.323L17.869 12Z" fill="#FFD293"/><path d="M12 15.653a3.652 3.652 0 1 0 0-7.304 3.652 3.652 0 0 0 0 7.304Z" fill="#FF0062"/><path d="M10.174 12a2.61 2.61 0 0 0-.26.013c.002.506.185.97.488 1.329a3.66 3.66 0 0 1 .705-1.168 2.595 2.595 0 0 0-.933-.174Zm1.124 1.966a2.082 2.082 0 0 0 1.404 0A2.609 2.609 0 0 0 12 12.748a2.61 2.61 0 0 0-.702 1.218Zm2.509-3.009a2.086 2.086 0 0 0-3.614 0 3.627 3.627 0 0 1 1.807.491 3.628 3.628 0 0 1 1.807-.49Zm-.914 1.217c.303.339.544.734.705 1.168.302-.36.485-.822.489-1.328a2.612 2.612 0 0 0-1.194.16Z" fill="#FFD293"/></g><defs><clipPath id="a"><path fill="#fff" d="M0 0h24v24H0z"/></clipPath></defs></svg>