<svg fill="none" xmlns="http://www.w3.org/2000/svg" viewBox="0 0 24 24"><g clip-path="url(#a)"><path d="M0 12c0 2.08.529 4.035 1.459 5.74l10.54 1.043 10.542-1.043A11.96 11.96 0 0 0 24 12c0-2.078-.53-4.034-1.46-5.739L12 5.218 1.459 6.261a11.946 11.946 0 0 0-1.46 5.74Z" fill="#FF0062"/><path d="M1.458 6.261H22.54A11.997 11.997 0 0 0 12 .001 11.996 11.996 0 0 0 1.457 6.26ZM12 24c4.548 0 8.505-2.53 10.54-6.26H1.46A11.997 11.997 0 0 0 11.998 24Z" fill="#0052B4"/><path d="M16.173 14.349v-1.565H15.13v-2.087l-1.044-1.044-1.043 1.044V8.61l-1.044-1.044-1.043 1.044v2.087L9.912 9.653 8.87 10.697v2.087H7.825v1.565H6.782v1.565h10.434v-1.565h-1.043Z" fill="#fff"/></g><defs><clipPath id="a"><path fill="#fff" d="M0 0h24v24H0z"/></clipPath></defs></svg>