<svg width="24" height="24" fill="none" xmlns="http://www.w3.org/2000/svg"><g clip-path="url(#a)"><path d="M0 12C0 5.372 5.373 0 12 0s12 5.372 12 12" fill="#FF0062"/><path d="m16.174 11.16-1.706.802.909 1.652-1.852-.354-.235 1.87L12 13.755l-1.29 1.377-.235-1.871-1.852.354.909-1.652-1.706-.802 1.706-.802-.909-1.652 1.852.354.235-1.87L12 8.564l1.29-1.376.235 1.871 1.852-.354-.908 1.652 1.705.802ZM15.13 3.913h-2.347a.783.783 0 0 0-1.566 0H8.87c0 .433.376.783.808.783h-.026c0 .432.35.783.783.783 0 .432.35.782.782.782h1.566c.432 0 .782-.35.782-.782.432 0 .783-.35.783-.783h-.026c.432 0 .809-.35.809-.783Z" fill="#FFD293"/><path d="M24 12c0 6.628-5.373 12-12 12S0 18.628 0 12h24Z" fill="#fff"/><path d="M12 24c3.751 0 7.1-1.721 9.3-4.416-.396-.27-.61-.707-1.3-.707-1 0-1 .915-2 .915s-1-.915-2-.915-1 .915-2 .915-1-.915-2-.915-1 .915-2 .915-1-.915-2-.915-1 .915-2 .915-1-.915-2-.915c-.691 0-.905.437-1.3.706a11.976 11.976 0 0 0 9.3 4.418ZM22 13.531c-1 0-1-.914-2-.914s-1 .914-2 .914-1-.914-2-.914-1 .914-2 .914-1-.914-2-.914-1 .914-2 .914-1-.914-2-.914-1 .914-2 .914-1-.914-2-.914-1 .914-2 .914c-.995 0-1-.904-1.985-.914.028.55.093 1.088.192 1.615.798.117.867.9 1.792.9 1 0 1-.915 2-.915s1 .914 2 .914 1-.914 2-.914 1 .914 2 .914 1-.914 2-.914 1 .914 2 .914 1-.914 2-.914 1 .914 2 .914 1-.914 2-.914 1 .914 2 .914c.926 0 .995-.782 1.793-.899.099-.527.164-1.066.192-1.615-.984.01-.99.914-1.985.914ZM20 15.747c-1 0-1 .914-2 .914s-1-.914-2-.914-1 .914-2 .914-1-.914-2-.914-1 .914-2 .914-1-.914-2-.914-1 .914-2 .914-1-.914-2-.914-1 .914-2 .914c-.714 0-.918-.466-1.341-.733.281.814.648 1.588 1.089 2.311.077.015.16.022.252.022 1 0 1-.914 2-.914s1 .914 2 .914 1-.914 2-.914 1 .914 2 .914 1-.914 2-.914 1 .914 2 .914 1-.914 2-.914 1 .914 2 .914 1-.914 2-.914 1 .914 2 .914c.093 0 .176-.007.253-.022.441-.723.807-1.497 1.09-2.31-.424.266-.628.732-1.343.732-1 0-1-.914-2-.914Z" fill="#0052B4"/><path d="M23.963 11.052c-.963.023-.976.913-1.963.913-1 0-1-.914-2-.914s-1 .914-2 .914-1-.914-2-.914-1 .914-2 .914-1-.914-2-.914-1 .914-2 .914-1-.914-2-.914-1 .914-2 .914-1-.914-2-.914-1 .914-2 .914c-.987 0-1-.89-1.963-.913a12.18 12.18 0 0 0-.02 1.6c.983.01.99.913 1.983.913 1 0 1-.914 2-.914s1 .914 2 .914 1-.914 2-.914 1 .914 2 .914 1-.914 2-.914 1 .914 2 .914 1-.914 2-.914 1 .914 2 .914 1-.914 2-.914 1 .914 2 .914c.994 0 1-.903 1.982-.914a12.234 12.234 0 0 0-.02-1.6Z" fill="#fff"/></g><defs><clipPath id="a"><path fill="#fff" d="M0 0h24v24H0z"/></clipPath></defs></svg>