<svg width="24" height="24" fill="none" xmlns="http://www.w3.org/2000/svg"><g clip-path="url(#a)"><path d="M12 24c6.627 0 12-5.373 12-12 0-6.628-5.373-12-12-12S0 5.372 0 12c0 6.627 5.373 12 12 12Z" fill="#fff"/><path d="M16.174 12c0 1.043-1.869 3.652-4.174 3.652-2.305 0-4.174-2.609-4.174-3.652a4.174 4.174 0 1 1 8.348 0Z" fill="#FF0062"/><path d="M16.174 12a4.174 4.174 0 0 1-8.348 0" fill="#0052B4"/><path d="m16.425 15.69 1.106-1.107.738.737-1.106 1.107-.738-.738ZM14.58 17.534l1.106-1.107.737.738-1.106 1.107-.738-.738ZM18.637 17.902l1.106-1.107.738.738-1.107 1.107-.737-.738ZM16.793 19.747 17.9 18.64l.737.738-1.106 1.107-.738-.738ZM17.53 16.796l1.107-1.107.738.738-1.107 1.107-.738-.738ZM15.687 18.64l1.106-1.106.738.738-1.107 1.106-.737-.737ZM18.643 8.312l-2.951-2.95.737-.738 2.951 2.95-.737.738ZM15.691 7.575l-1.106-1.107.737-.738 1.107 1.107-.738.738ZM17.535 9.42 16.43 8.312l.737-.738 1.107 1.107-.738.737ZM17.903 5.362l-1.106-1.107.738-.738 1.106 1.107-.738.738ZM19.749 7.206l-1.107-1.107.738-.738 1.107 1.107-.738.738ZM4.254 16.794l2.95 2.95-.737.738-2.95-2.95.737-.738ZM7.205 17.531l1.107 1.107-.738.737-1.107-1.106.738-.738ZM5.36 15.687l1.107 1.106-.738.738-1.106-1.107.737-.737ZM6.467 14.58l2.95 2.95-.737.738-2.95-2.95.737-.738ZM7.204 4.253l-2.95 2.95-.739-.737 2.951-2.951.738.738ZM8.312 5.36 5.36 8.31l-.738-.737 2.95-2.951.739.737ZM9.42 6.466 6.469 9.417l-.738-.738 2.951-2.95.738.737Z" fill="#000"/></g><defs><clipPath id="a"><path fill="#fff" d="M0 0h24v24H0z"/></clipPath></defs></svg>