<svg fill="none" xmlns="http://www.w3.org/2000/svg" viewBox="0 0 24 24"><g clip-path="url(#a)"><path d="M12 24c6.627 0 12-5.372 12-12 0-6.627-5.373-12-12-12S0 5.373 0 12c0 6.628 5.373 12 12 12Z" fill="#fff"/><path d="M11.999 0a11.972 11.972 0 0 0-9.097 4.174h18.194A11.972 11.972 0 0 0 11.999 0Zm9.097 19.826H2.902A11.972 11.972 0 0 0 12 24c3.637 0 6.896-1.619 9.097-4.174Z" fill="#0052B4"/><path d="M22.239 5.739H1.76A11.943 11.943 0 0 0 0 11.999c0 2.295.644 4.44 1.761 6.262H22.24A11.942 11.942 0 0 0 24 12c0-2.295-.644-4.438-1.761-6.261Z" fill="#FF0062"/><path d="M7.383 16.617a4.617 4.617 0 1 0 0-9.235 4.617 4.617 0 0 0 0 9.235Z" fill="#fff"/><path d="m7.382 7.382 1.036 3.189h3.358l-2.718 1.97 1.044 3.198-2.72-1.98-2.716 1.977 1.04-3.195-2.716-1.97h3.356l1.036-3.189Z" fill="#FF0062"/></g><defs><clipPath id="a"><path fill="#fff" d="M0 0h24v24H0z"/></clipPath></defs></svg>