<svg fill="none" xmlns="http://www.w3.org/2000/svg" viewBox="0 0 24 24"><g clip-path="url(#a)"><path d="M23.254 16.174c.482-1.3.746-2.706.746-4.174 0-1.468-.264-2.874-.746-4.174L12 6.783.746 7.826A11.974 11.974 0 0 0 0 12c0 1.468.264 2.874.746 4.174L12 17.218l11.254-1.044Z" fill="#fff"/><path d="M12 24c5.16 0 9.559-3.256 11.254-7.826H.747C2.443 20.744 6.841 24 12.001 24Z" fill="#FF0062"/><path d="M12 0C6.842 0 2.444 3.256.748 7.826h22.507C21.56 3.256 17.16 0 12.001 0Z" fill="#6DA544"/><path d="M3.515 3.515c-4.687 4.686-4.687 12.284 0 16.97l4.311-4.31v-8.35l-4.311-4.31Z" fill="#000"/></g><defs><clipPath id="a"><path fill="#fff" d="M0 0h24v24H0z"/></clipPath></defs></svg>