<svg width="24" height="24" fill="none" xmlns="http://www.w3.org/2000/svg"><g clip-path="url(#a)"><path d="M24 12c0 6.628-5.373 12-12 12S0 18.628 0 12C0 12.003 12 .002 12 0c6.627 0 12 5.373 12 12Z" fill="#0052B4"/><path d="M11.968 12.005h.036v-.036a5.974 5.974 0 0 1-.036.036ZM12 6.261V.001h-.002C5.371 0 0 5.372 0 12h6.26V8.474L9.787 12h2.182l.032-.032V9.787L8.474 6.26H12Z" fill="#fff"/><path d="M17.218 8.87a2.087 2.087 0 1 0 0-4.174 2.087 2.087 0 0 0 0 4.174Z" fill="#6DA544"/><path d="M6.071 1.566a12.057 12.057 0 0 0-4.506 4.506V12h3.13V4.696H12v-3.13H6.071Z" fill="#FF0062"/><path d="M12 10.524 7.736 6.261H6.261l5.738 5.74v-1.477ZM13.565 6.261h7.304v3.13h-7.304v-3.13Z" fill="#FF0062"/><path d="M13.565 14.087v2.087h1.098a3.638 3.638 0 0 0 2.555 1.044c.994 0 1.895-.398 2.554-1.044h1.098v-2.087h-7.305Z" fill="#FFD293"/><path d="M13.565 8.87V12c0 2.796 3.653 3.653 3.653 3.653s3.652-.857 3.652-3.652V8.87h-7.305Z" fill="#338AF3"/><path d="M17.217 10.542c-.913 0-.913.835-1.826.835s-.913-.835-1.826-.835v1.461c.913 0 .913.835 1.826.835s.913-.835 1.826-.835.913.835 1.827.835c.913 0 .913-.835 1.826-.835v-1.46c-.913 0-.913.834-1.826.834-.914 0-.914-.835-1.827-.835ZM17.217 7.618c-.913 0-.913.835-1.826.835s-.913-.835-1.826-.835V9.08c.913 0 .913.835 1.826.835s.913-.835 1.826-.835.913.835 1.827.835c.913 0 .913-.835 1.826-.835v-1.46c-.913 0-.913.834-1.826.834-.914 0-.914-.835-1.827-.835Z" fill="#fff"/></g><defs><clipPath id="a"><path fill="#fff" d="M0 0h24v24H0z"/></clipPath></defs></svg>