<svg width="24" height="24" fill="none" xmlns="http://www.w3.org/2000/svg"><g clip-path="url(#a)"><path d="M12 24c6.627 0 12-5.373 12-12S18.627 0 12 0 0 5.373 0 12s5.373 12 12 12Z" fill="#338AF3"/><path d="M18.782 12.13H5.217c0 .937.816 1.696 1.752 1.696h-.056c0 .937.76 1.696 1.696 1.696 0 .937.759 1.696 1.695 1.696h3.392c.936 0 1.695-.76 1.695-1.696.937 0 1.696-.759 1.696-1.696h-.057c.937 0 1.752-.759 1.752-1.695Z" fill="#FFD293"/><path d="M16.695 9.914a4.696 4.696 0 1 1-9.39 0" fill="#338AF3"/><path d="m15.587 9.913-1.466.69.78 1.419-1.59-.305-.202 1.608L12 12.142l-1.108 1.183-.202-1.608-1.591.304.78-1.419-1.465-.69 1.465-.688-.78-1.42 1.591.305.202-1.608L12 7.683l1.109-1.182.201 1.608 1.592-.305-.78 1.42 1.465.689Z" fill="#FFD293"/></g><defs><clipPath id="a"><path fill="#fff" d="M0 0h24v24H0z"/></clipPath></defs></svg>