<svg fill="none" xmlns="http://www.w3.org/2000/svg" viewBox="0 0 24 24"><g clip-path="url(#a)"><path d="M22.809 6.783A12 12 0 0 0 11.999 0 12 12 0 0 0 1.19 6.783L12 7.827l10.809-1.044ZM1.19 17.218A12 12 0 0 0 12 24a12 12 0 0 0 10.809-6.782l-10.81-1.044L1.19 17.218Z" fill="#FF0062"/><path d="M22.81 6.783H1.19A11.952 11.952 0 0 0 0 12c0 1.87.428 3.64 1.19 5.218h21.62A11.95 11.95 0 0 0 24 12c0-1.87-.428-3.64-1.19-5.217Z" fill="#0052B4"/><path d="M12 16.174a4.174 4.174 0 1 0 0-8.348 4.174 4.174 0 0 0 0 8.348Z" fill="#fff"/></g><defs><clipPath id="a"><path fill="#fff" d="M0 0h24v24H0z"/></clipPath></defs></svg>