<svg width="24" height="24" fill="none" xmlns="http://www.w3.org/2000/svg"><g clip-path="url(#a)"><path d="M24 12c0 6.628-5.373 12-12 12S0 18.628 0 12c.522 0 12-1.565 12-1.565L24 12Z" fill="#FF0062"/><path d="M0 12C0 5.373 5.373 0 12 0s12 5.373 12 12" fill="#0052B4"/><path d="M8.87 8.348A1.565 1.565 0 0 0 6.26 7.18v-.92h.522V5.217H6.26v-.521H5.218v.521h-.522v1.044h.522v.92A1.565 1.565 0 0 0 3.13 9.514v.92h5.217v-.92a1.56 1.56 0 0 0 .522-1.166Z" fill="#FFD293"/></g><defs><clipPath id="a"><path fill="#fff" d="M0 0h24v24H0z"/></clipPath></defs></svg>