<svg width="24" height="24" fill="none" xmlns="http://www.w3.org/2000/svg"><g clip-path="url(#a)"><path d="M12 24c6.627 0 12-5.372 12-12 0-6.627-5.373-12-12-12S0 5.373 0 12c0 6.628 5.373 12 12 12Z" fill="#FFD293"/><path d="M9.391 2.087H5.237a12.08 12.08 0 0 0-.541.392L3.652 12l1.044 9.521c.176.136.357.267.54.393h4.155V2.087Z" fill="#FF9811"/><path d="M0 12a11.98 11.98 0 0 0 4.696 9.52V2.479A11.98 11.98 0 0 0 0 11.999Z" fill="#6DA544"/><path d="M19.304 7.315v.301l.01.002-.01-.303Z" fill="#FFD293"/><path d="M23.043 15.13h-2.26l-.957 1.044v2.087h-2.087v-1.044h1.043V15.13h-4.696v1.305h-1.043v-2.486a1.56 1.56 0 0 1-.522-1.166V6c0-.864.701-1.565 1.565-1.565v9.652h2.087l.717-.597a2.495 2.495 0 0 1-.195-.968v-1.566H15.13v-3.13h3.13c0-.522.783-1.043.783-1.043s.783.521.783 1.043v3.131c.58.006 1.502-.009 2.499 0-.262-.458-.412-1-.412-1.566 0-.92.397-1.748 1.03-2.32a12.048 12.048 0 0 0-4.18-4.984h-7.807v19.826h7.807a12.027 12.027 0 0 0 4.693-6.332l-.413-.45Z" fill="#A2001D"/></g><defs><clipPath id="a"><path fill="#fff" d="M0 0h24v24H0z"/></clipPath></defs></svg>