<svg fill="none" xmlns="http://www.w3.org/2000/svg" viewBox="0 0 24 24"><g clip-path="url(#a)"><path d="M12 24c6.627 0 12-5.373 12-12S18.627 0 12 0 0 5.373 0 12s5.373 12 12 12Z" fill="#fff"/><path d="M2.743 4.364h18.514a12.066 12.066 0 0 0-2.356-2.182H5.1c-.88.62-1.673 1.354-2.357 2.182ZM0 12c0 .368.017.732.05 1.091h23.9a12.146 12.146 0 0 0 0-2.182H.05C.017 11.27 0 11.632 0 12Zm1.308 5.454h21.383c.354-.69.642-1.42.857-2.181H.452c.215.76.503 1.49.856 2.181ZM5.1 21.818h13.8c.88-.62 1.673-1.354 2.357-2.181H2.743A12.074 12.074 0 0 0 5.1 21.818ZM.452 8.727h23.096c-.215-.76-.503-1.49-.857-2.182H1.308a11.921 11.921 0 0 0-.856 2.182Z" fill="#fff"/><path d="M5.739 2.182H18.9A11.945 11.945 0 0 0 12 0c-1.566 0-4.31.808-6.261 2.182Zm5.739 4.364h11.213a12 12 0 0 0-1.434-2.182h-9.779v2.182Zm0 4.364H23.95a11.958 11.958 0 0 0-.402-2.183h-12.07v2.182ZM.451 15.273h23.097c.198-.703.334-1.432.402-2.182H.05c.067.75.202 1.479.401 2.182Zm2.292 4.363h18.514a12.02 12.02 0 0 0 1.434-2.181H1.31c.399.78.88 1.511 1.434 2.181ZM12 24c2.569 0 4.949-.807 6.9-2.181H5.1A11.945 11.945 0 0 0 12 24Z" fill="#FF0062"/><path d="M.451 8.727A11.955 11.955 0 0 0 .05 10.91H12V0C6.507 0 1.877 3.69.451 8.727Z" fill="#0052B4"/><path d="m7.143 3.13.777 2.392h2.514L8.4 7l.777 2.391-2.034-1.478-2.035 1.478L5.885 7 3.851 5.522h2.515l.777-2.392Z" fill="#fff"/></g><defs><clipPath id="a"><path fill="#fff" d="M0 0h24v24H0z"/></clipPath></defs></svg>