<svg fill="none" xmlns="http://www.w3.org/2000/svg" viewBox="0 0 24 24"><g clip-path="url(#a)"><path d="M0 12c0 1.87.428 3.64 1.19 5.218l10.81.521 10.81-.521A11.952 11.952 0 0 0 24 12c0-1.87-.428-3.64-1.19-5.217L12 6.261l-10.81.522A11.952 11.952 0 0 0 0 12Z" fill="#fff"/><path d="M12 24a12 12 0 0 0 10.809-6.782H1.19A12 12 0 0 0 12 24.001Z" fill="#6DA544"/><path d="M12 0A12 12 0 0 0 1.19 6.783h21.62A12 12 0 0 0 11.999 0Z" fill="#0052B4"/><path d="M12.782 11.74V8.87h-1.565v2.87l-1.89 1.89a3.129 3.129 0 0 0 5.346 0l-1.89-1.89Z" fill="#000"/></g><defs><clipPath id="a"><path fill="#fff" d="M0 0h24v24H0z"/></clipPath></defs></svg>