<svg width="24" height="24" fill="none" xmlns="http://www.w3.org/2000/svg"><g clip-path="url(#a)"><path d="M23.254 16.173c.482-1.3.746-2.706.746-4.174 0-1.468-.264-2.874-.746-4.174L12 6.782.746 7.825A11.973 11.973 0 0 0 0 12c0 1.468.264 2.874.746 4.174L12 17.217l11.254-1.044Z" fill="#6DA544"/><path d="M23.253 7.826C21.558 3.256 17.16 0 12 0 6.84 0 2.442 3.256.746 7.826h22.507Z" fill="#FFD293"/><path d="M12 24c5.16 0 9.558-3.257 11.253-7.826H.746C2.442 20.744 6.84 24 12 24Z" fill="#FF0062"/></g><defs><clipPath id="a"><path fill="#fff" d="M0 0h24v24H0z"/></clipPath></defs></svg>