<svg width="24" height="24" fill="none" xmlns="http://www.w3.org/2000/svg"><g clip-path="url(#a)"><path d="M12 24c6.627 0 12-5.373 12-12 0-6.628-5.373-12-12-12S0 5.372 0 12c0 6.627 5.373 12 12 12Z" fill="#FF0062"/><path d="M19.091 9.848h-5.417L12 4.696l-1.674 5.152H4.908l4.383 3.184-1.674 5.153L12 15l4.383 3.184-1.674-5.152 4.383-3.185Zm-8.573 2.786.566-1.742h1.832l.566 1.742L12 13.71l-1.482-1.077Zm2.059-2.786h-1.154L12 8.072l.577 1.776Zm1.793 2.141-.357-1.097h1.867l-1.51 1.097Zm-4.383-1.097-.357 1.097-1.51-1.097h1.867Zm-.385 4.561.577-1.776.933.679-1.51 1.097Zm3.285-1.097.934-.678.577 1.775-1.51-1.097Z" fill="#FFD293"/></g><defs><clipPath id="a"><path fill="#fff" d="M0 0h24v24H0z"/></clipPath></defs></svg>