<svg fill="none" xmlns="http://www.w3.org/2000/svg" viewBox="0 0 24 24"><g clip-path="url(#a)"><path d="M12 24c6.627 0 12-5.373 12-12 0-2.014-.497-3.912-1.373-5.578l-10.641 5.592 5.592-10.64A11.947 11.947 0 0 0 12 0C5.373 0 0 5.372 0 12a11.96 11.96 0 0 0 3.515 8.485A11.962 11.962 0 0 0 12 24Z" fill="#0052B4"/><path d="M22.614 6.434a11.995 11.995 0 0 0-2.143-2.906 11.956 11.956 0 0 0-2.906-2.143L3.5 20.498 22.614 6.434Z" fill="#fff"/><path d="M3.5 20.498 22.614 6.434a11.995 11.995 0 0 0-2.143-2.906l-16.97 16.97Z" fill="#FF9811"/><path d="m10.42 7.036-1.465.69.78 1.418-1.59-.304-.202 1.608-1.109-1.183-1.108 1.183-.202-1.608-1.591.304.78-1.419-1.465-.69 1.465-.689-.78-1.419 1.591.304.202-1.607 1.108 1.182 1.109-1.182.201 1.607 1.592-.304-.78 1.42 1.465.689Z" fill="#fff"/></g><defs><clipPath id="a"><path fill="#fff" d="M0 0h24v24H0z"/></clipPath></defs></svg>