<svg width="24" height="24" fill="none" xmlns="http://www.w3.org/2000/svg"><g clip-path="url(#a)"><path d="M12 24c6.627 0 12-5.373 12-12S18.627 0 12 0 0 5.373 0 12s5.373 12 12 12Z" fill="#FFD293"/><path d="M13.824 23.862a11.936 11.936 0 0 0 5.271-2.185L12 12l1.825 11.862ZM10.175.138a11.937 11.937 0 0 0-5.272 2.185L12 12 10.175.138ZM4.903 21.677a11.937 11.937 0 0 0 5.272 2.185L12 12l-7.097 9.677ZM2.323 4.904a11.937 11.937 0 0 0-2.185 5.271L12 12 2.323 4.905ZM.138 13.825a11.936 11.936 0 0 0 2.185 5.272L12 12 .138 13.825Z" fill="#FF0062"/><path d="M23.861 10.175a11.937 11.937 0 0 0-2.185-5.271L11.999 12l11.862-1.825ZM19.095 2.323A11.936 11.936 0 0 0 13.824.138L11.999 12l7.096-9.677ZM21.676 19.097a11.94 11.94 0 0 0 2.185-5.272L12 12l9.677 7.097Z" fill="#FF0062"/><path d="M12 16.174a4.174 4.174 0 1 0 0-8.348 4.174 4.174 0 0 0 0 8.348Z" fill="#FF0062"/><path d="M12 15.13a3.13 3.13 0 1 0 0-6.26 3.13 3.13 0 0 0 0 6.26Z" fill="#FFD293"/></g><defs><clipPath id="a"><path fill="#fff" d="M0 0h24v24H0z"/></clipPath></defs></svg>