<svg width="24" height="24" fill="none" xmlns="http://www.w3.org/2000/svg"><g clip-path="url(#a)"><path d="M16.174.746A11.975 11.975 0 0 0 12 0c-1.468 0-2.874.264-4.174.746L6.783 12l1.043 11.253c1.3.483 2.706.747 4.174.747 1.468 0 2.874-.264 4.174-.747L17.218 12 16.174.746Z" fill="#FFD293"/><path d="M24 12C24 6.84 20.742 2.44 16.172.745v22.507C20.743 21.558 24 17.16 24 12Z" fill="#FF0062"/><path d="M0 12c0 5.159 3.256 9.558 7.826 11.253V.746C3.256 2.44 0 6.84 0 11.999Z" fill="#6DA544"/></g><defs><clipPath id="a"><path fill="#fff" d="M0 0h24v24H0z"/></clipPath></defs></svg>