<svg fill="none" xmlns="http://www.w3.org/2000/svg" viewBox="0 0 24 24"><g clip-path="url(#a)"><path d="M12 24a11.96 11.96 0 0 0 4.174-.747L16.696 12 16.174.746A11.975 11.975 0 0 0 12 0c-1.467 0-2.874.264-4.174.746L7.305 12l.521 11.253c1.3.483 2.707.747 4.174.747Z" fill="#0052B4"/><path d="M0 12c0 5.16 3.256 9.559 7.826 11.254V.747C3.256 2.443 0 6.841 0 12.001ZM16.174.747v22.507C20.744 21.56 24 17.16 24 12.001c0-5.16-3.257-9.558-7.826-11.254Z" fill="#A2001D"/><path d="M5.739 12h1.043v4.174H5.74V12Zm-4.174 0H2.61v4.174H1.565V12Zm2.609 2.608a1.043 1.043 0 1 0 0-2.086 1.043 1.043 0 0 0 0 2.086Zm.001-4.173a.522.522 0 1 0 0-1.043.522.522 0 0 0 0 1.043ZM3.13 15.13h2.088v1.044H3.13V15.13Zm0-4.174h2.088V12H3.13v-1.044ZM4.174 6.26l.37 1.137h1.195l-.967.703.37 1.137-.968-.702-.967.702.37-1.137-.968-.703h1.196l.37-1.137Z" fill="#FFD293"/></g><defs><clipPath id="a"><path fill="#fff" d="M0 0h24v24H0z"/></clipPath></defs></svg>