<svg width="24" height="24" fill="none" xmlns="http://www.w3.org/2000/svg"><g clip-path="url(#a)"><path d="M12 24c6.627 0 12-5.373 12-12S18.627 0 12 0 0 5.373 0 12s5.373 12 12 12Z" fill="#496E2D"/><path d="M14.087 11.5c-.294 0-.574.058-.834.152.143-.317.238-.67.238-1.047 0-1.49-1.49-2.608-1.49-2.608s-1.491 1.118-1.491 2.608c0 .377.095.73.237 1.047a2.46 2.46 0 0 0-.834-.152c-1.49 0-2.608 1.49-2.608 1.49s1.118 1.491 2.608 1.491c.874 0 1.62-.512 2.087-.936.468.424 1.213.936 2.087.936 1.491 0 2.609-1.49 2.609-1.49S15.578 11.5 14.087 11.5Z" fill="#fff"/><path d="m12 4.695.309.948h.996l-.806.586.308.947L12 6.591l-.806.585.307-.947-.806-.586h.997L12 4.695ZM8.211 6.353l.593.533.69-.398-.324.728.592.533-.793-.083-.324.728-.166-.78-.792-.083.69-.399-.166-.78ZM5.438 9.126l.78.166.398-.69.083.793.78.165-.728.325.083.792-.534-.592-.728.324.399-.69-.534-.593ZM15.79 6.353l-.592.533-.69-.398.324.728-.593.533.793-.083.324.728.166-.78.793-.083-.69-.399.165-.78ZM18.563 9.126l-.78.166-.399-.69-.083.793-.78.165.729.325-.084.792.534-.592.728.324-.399-.69.534-.593Z" fill="#FFD293"/><path d="M11.999 18.655a5.193 5.193 0 0 0 3.15-1.06H8.849a5.193 5.193 0 0 0 3.15 1.06ZM7.217 15.524c.165.38.375.734.622 1.06h8.321c.247-.325.457-.68.622-1.06H7.217Z" fill="#fff"/></g><defs><clipPath id="a"><path fill="#fff" d="M0 0h24v24H0z"/></clipPath></defs></svg>