<svg width="24" height="24" fill="none" xmlns="http://www.w3.org/2000/svg"><g clip-path="url(#a)"><path d="M12 24c6.627 0 12-5.372 12-12 0-6.627-5.373-12-12-12S0 5.373 0 12c0 6.628 5.373 12 12 12Z" fill="#338AF3"/><path d="M11.622 19.556a.782.782 0 0 1-.696-.51.784.784 0 0 1-1.397-.36.783.783 0 0 1-1.294-.636.782.782 0 0 1-1.14-.882.781.781 0 0 1-.94-1.092.783.783 0 0 1-.701-1.26.782.782 0 0 1-.433-1.374.782.782 0 0 1-.147-1.434.783.783 0 0 1 .143-1.434.783.783 0 0 1 .43-1.376.784.784 0 0 1 .7-1.26.782.782 0 0 1 .937-1.095.782.782 0 0 1 1.137-.884.783.783 0 0 1 1.294-.637.783.783 0 0 1 1.394-.364.783.783 0 0 1 1.44-.075.783.783 0 0 1 1.425.215.783.783 0 0 1 1.353.5.783.783 0 0 1 1.224.76.783.783 0 0 1 1.046.99.783.783 0 0 1 .827 1.181.784.784 0 0 1 .571 1.324.782.782 0 0 1 .293 1.411c.28.119.476.396.477.72V12a.784.784 0 0 1-.476.721.782.782 0 0 1-.29 1.412.783.783 0 0 1-.568 1.325.783.783 0 0 1-.824 1.182.783.783 0 0 1-1.044.994.783.783 0 0 1-1.222.763.783.783 0 0 1-.51.699c-.304.112 0 0 0 0a.783.783 0 0 1-.842-.198.783.783 0 0 1-1.425.218.782.782 0 0 1-.742.44Z" fill="#fff"/><path d="M12 17.218a5.217 5.217 0 1 0 0-10.435 5.217 5.217 0 0 0 0 10.435Z" fill="#338AF3"/><path d="M13.142 10.23a1.04 1.04 0 0 0 .423-.838v-.521c0-.577-.467-1.044-1.044-1.044h-1.043c-.576 0-1.044.467-1.044 1.044v.521c0 .344.167.648.424.838l-.945 9.597s.521.522 2.087.522c1.565 0 2.086-.522 2.086-.522l-.944-9.597Z" fill="#A9B9C0"/><path d="m12 7.827.907 2.79h2.933l-2.373 1.724.906 2.79L12 13.408l-2.373 1.725.906-2.79-2.373-1.725h2.934L12 7.827Z" fill="#fff"/></g><defs><clipPath id="a"><path fill="#fff" d="M0 0h24v24H0z"/></clipPath></defs></svg>