<svg width="24" height="24" fill="none" xmlns="http://www.w3.org/2000/svg"><g clip-path="url(#a)"><path d="M12 24c6.627 0 12-5.373 12-12 0-6.628-5.373-12-12-12S0 5.372 0 12c0 6.627 5.373 12 12 12Z" fill="#fff"/><path d="M23.897 10.434a11.946 11.946 0 0 0-3.412-6.92 11.946 11.946 0 0 0-6.92-3.412v10.332h10.332ZM10.434.102a11.946 11.946 0 0 0-6.92 3.412 11.947 11.947 0 0 0-3.411 6.92h10.332V.102ZM.103 13.565a11.947 11.947 0 0 0 3.411 6.92 11.948 11.948 0 0 0 6.92 3.412V13.565H.104ZM13.565 23.897a11.946 11.946 0 0 0 6.92-3.412 11.946 11.946 0 0 0 3.412-6.92H13.565v10.332Z" fill="#0052B4"/><path d="M16.096 7.613c0-.16.13-.289.29-.289h.62c.98 0 1.776-.797 1.776-1.777 0-.98-.797-1.777-1.777-1.777h-.588a1.225 1.225 0 0 0-.735-.233c-.593 0-1.074.384-1.074.859 0 .47.472.85 1.057.858v.004h1.34a.29.29 0 0 1 0 .578h-.62c-.98 0-1.777.797-1.777 1.777 0 .98.797 1.777 1.777 1.777h2.397V7.902h-2.397a.29.29 0 0 1-.289-.289ZM6.704 7.613c0-.16.13-.289.29-.289h.62c.98 0 1.777-.797 1.777-1.777A1.78 1.78 0 0 0 7.614 3.77h-.59a1.225 1.225 0 0 0-.733-.233c-.593 0-1.074.384-1.074.859 0 .47.471.85 1.057.858v.004h1.34a.29.29 0 0 1 0 .578h-.62c-.98 0-1.777.797-1.777 1.777 0 .98.797 1.777 1.777 1.777H9.39V7.902H6.994a.29.29 0 0 1-.29-.289ZM16.096 18.684c0-.16.13-.289.29-.289h.62c.98 0 1.776-.797 1.776-1.777a1.78 1.78 0 0 0-1.777-1.777h-.588a1.225 1.225 0 0 0-.735-.233c-.593 0-1.074.384-1.074.859 0 .47.472.85 1.057.858v.004h1.34a.29.29 0 0 1 0 .578h-.62c-.98 0-1.777.797-1.777 1.777 0 .98.797 1.777 1.777 1.777h2.397v-1.487h-2.397a.29.29 0 0 1-.289-.29ZM6.704 18.684c0-.16.13-.289.29-.289h.62c.98 0 1.777-.797 1.777-1.777a1.78 1.78 0 0 0-1.777-1.777h-.589a1.225 1.225 0 0 0-.734-.233c-.593 0-1.074.384-1.074.859 0 .47.471.85 1.057.858v.004h1.34a.29.29 0 0 1 0 .578h-.62c-.98 0-1.777.797-1.777 1.777 0 .98.797 1.777 1.777 1.777H9.39v-1.487H6.994a.29.29 0 0 1-.29-.29Z" fill="#fff"/></g><defs><clipPath id="a"><path fill="#fff" d="M0 0h24v24H0z"/></clipPath></defs></svg>