<svg width="24" height="24" fill="none" xmlns="http://www.w3.org/2000/svg"><g clip-path="url(#a)"><path d="M12 24c6.627 0 12-5.373 12-12S18.627 0 12 0 0 5.373 0 12s5.373 12 12 12Z" fill="#496E2D"/><path d="M12 13.862a4.175 4.175 0 0 1-4.077-3.28 4.174 4.174 0 1 0 8.154 0A4.175 4.175 0 0 1 12 13.862Z" fill="#FFD293"/><path d="m12 8.346.389 1.196h1.257l-1.017.739.388 1.196-1.017-.74-1.017.74.389-1.196-1.018-.74h1.258L12 8.347Z" fill="#FFD293"/></g><defs><clipPath id="a"><path fill="#fff" d="M0 0h24v24H0z"/></clipPath></defs></svg>