<svg width="24" height="24" fill="none" xmlns="http://www.w3.org/2000/svg"><g clip-path="url(#a)"><path d="M1.46 6.26 12 7.305l10.542-1.043A11.997 11.997 0 0 0 12 0C7.452 0 3.495 2.53 1.46 6.26Z" fill="#FF0062"/><path d="M1.46 17.738 12 18.781l10.54-1.043c.931-1.705 1.46-3.66 1.46-5.74l-12-1.043L0 12c0 2.079.529 4.034 1.46 5.739Z" fill="#FFD293"/><path d="M1.46 6.26A11.946 11.946 0 0 0 0 11.999h24c0-2.079-.529-4.034-1.46-5.74H1.46Z" fill="#0052B4"/><path d="M12 23.999c4.55 0 8.507-2.53 10.542-6.261H1.46A11.997 11.997 0 0 0 12 23.998Z" fill="#6DA544"/></g><defs><clipPath id="a"><path fill="#fff" d="M0 0h24v24H0z"/></clipPath></defs></svg>