<svg fill="none" xmlns="http://www.w3.org/2000/svg" viewBox="0 0 24 24"><g clip-path="url(#a)"><path d="M0 12c0 1.468.264 2.874.746 4.174L12 16.695l11.254-.521c.482-1.3.746-2.706.746-4.174 0-1.468-.264-2.874-.746-4.174L12 7.304.746 7.826A11.975 11.975 0 0 0 0 12Z" fill="#FF0062"/><path d="M12 0C6.842 0 2.444 3.256.748 7.826h22.507C21.56 3.256 17.16 0 12.001 0Z" fill="#000"/><path d="M23.254 16.174H.747C2.443 20.744 6.841 24 12.001 24c5.16 0 9.558-3.257 11.253-7.826Z" fill="#496E2D"/><path d="m15.587 5.738-1.465-.689.78-1.42-1.591.305-.202-1.608-1.108 1.183-1.109-1.183-.201 1.608-1.592-.304.78 1.419-1.465.69h7.173Z" fill="#FF0062"/></g><defs><clipPath id="a"><path fill="#fff" d="M0 0h24v24H0z"/></clipPath></defs></svg>