<svg fill="none" xmlns="http://www.w3.org/2000/svg" viewBox="0 0 24 24"><g clip-path="url(#a)"><path d="M12 24c6.627 0 12-5.373 12-12 0-6.628-5.373-12-12-12S0 5.372 0 12c0 6.627 5.373 12 12 12Z" fill="#fff"/><path d="M24 12a12 12 0 0 0-6.782-10.81v21.618A12 12 0 0 0 24 12Z" fill="#FF0062"/><path d="M0 12a12 12 0 0 0 6.783 10.808V1.19A12 12 0 0 0 0 12Zm8.87-.001a3.13 3.13 0 0 0 6.26 0v-1.044H8.87V12Z" fill="#6DA544"/><path d="M16.174 9.911h-3.13a1.044 1.044 0 0 0-2.087 0h-3.13c0 .577.501 1.044 1.077 1.044H8.87c0 .576.467 1.043 1.043 1.043 0 .577.467 1.044 1.044 1.044h2.087c.576 0 1.043-.467 1.043-1.044.576 0 1.044-.467 1.044-1.043h-.035c.576 0 1.078-.467 1.078-1.044Z" fill="#FF9811"/></g><defs><clipPath id="a"><path fill="#fff" d="M0 0h24v24H0z"/></clipPath></defs></svg>