<svg width="24" height="24" fill="none" xmlns="http://www.w3.org/2000/svg"><g clip-path="url(#a)"><path d="M12 24c6.627 0 12-5.373 12-12S18.627 0 12 0 0 5.373 0 12s5.373 12 12 12Z" fill="#fff"/><path d="M11.479 12H24c0-1.083-.144-2.132-.413-3.13H11.479V12ZM11.479 5.74h10.76a12.063 12.063 0 0 0-2.769-3.131H11.48v3.13ZM12 24c2.823 0 5.42-.976 7.469-2.609H4.529A11.95 11.95 0 0 0 12 24ZM1.761 18.26h20.477a11.924 11.924 0 0 0 1.348-3.13H.413c.3 1.117.758 2.169 1.348 3.13Z" fill="#FF0062"/><path d="M12 12V0C5.373 0 0 5.373 0 12h12Z" fill="#0052B4"/><path d="M7.98 10.272a2.967 2.967 0 1 1 1.412-5.578 3.652 3.652 0 1 0 0 5.221c-.42.228-.901.357-1.412.357Z" fill="#FFD293"/><path d="m8.816 5.217.527 1.102 1.19-.275L10 7.143l.957.758-1.191.269.003 1.221-.953-.764-.952.764.003-1.221L6.676 7.9l.957-.758-.533-1.1 1.19.276.526-1.102Z" fill="#FFD293"/></g><defs><clipPath id="a"><path fill="#fff" d="M0 0h24v24H0z"/></clipPath></defs></svg>