<svg fill="none" xmlns="http://www.w3.org/2000/svg" viewBox="0 0 24 24"><g clip-path="url(#a)"><path d="M12 24c6.627 0 12-5.373 12-12 0-6.628-5.373-12-12-12S0 5.372 0 12c0 6.627 5.373 12 12 12Z" fill="#fff"/><path d="M3.515 20.485c.504.503 1.041.952 1.604 1.348L21.834 5.118a12.067 12.067 0 0 0-2.952-2.951L2.168 18.881c.395.564.844 1.1 1.347 1.604Z" fill="#A2001D"/><path d="M3.515 3.514C-.27 7.3-.997 12.986 1.333 17.502l16.17-16.17C12.987-.997 7.3-.27 3.515 3.515Z" fill="#0052B4"/><path d="M20.485 20.485c3.786-3.785 4.513-9.47 2.182-13.987L6.498 22.668c4.516 2.33 10.202 1.603 13.987-2.183Z" fill="#496E2D"/><path d="m9.913 6.783-1.345.633.716 1.302-1.46-.28-.185 1.475L6.622 8.83 5.605 9.913 5.42 8.44l-1.46.279.716-1.303-1.345-.632 1.345-.632-.716-1.303 1.46.28.185-1.475 1.017 1.084 1.017-1.084.185 1.475 1.46-.28-.716 1.303 1.345.632Z" fill="#FFD293"/></g><defs><clipPath id="a"><path fill="#fff" d="M0 0h24v24H0z"/></clipPath></defs></svg>