<svg width="24" height="24" fill="none" xmlns="http://www.w3.org/2000/svg"><g clip-path="url(#a)"><path d="M1.19 6.782A11.952 11.952 0 0 0 0 12c0 1.87.428 3.64 1.19 5.217L12 18.261l10.81-1.044A11.953 11.953 0 0 0 24 12c0-1.87-.428-3.64-1.19-5.218L12 5.74 1.19 6.782Z" fill="#fff"/><path d="M1.191 17.217A12 12 0 0 0 12.001 24a12 12 0 0 0 10.808-6.783H1.191Z" fill="#6DA544"/><path d="M1.191 6.783H22.81A12 12 0 0 0 12 0 12 12 0 0 0 1.191 6.783ZM12 16.174a4.174 4.174 0 1 0 0-8.348 4.174 4.174 0 0 0 0 8.348Z" fill="#FF9811"/></g><defs><clipPath id="a"><path fill="#fff" d="M0 0h24v24H0z"/></clipPath></defs></svg>