<svg width="24" height="24" fill="none" xmlns="http://www.w3.org/2000/svg"><g clip-path="url(#a)"><path d="M17.218 1.191A11.952 11.952 0 0 0 12 .001c-1.87 0-3.64.427-5.217 1.19l-1.044 10.81L6.783 22.81A11.952 11.952 0 0 0 12 24c1.87 0 3.64-.428 5.218-1.19L18.26 12 17.218 1.191Z" fill="#fff"/><path d="M6.783 1.19A12 12 0 0 0 0 12a12 12 0 0 0 6.783 10.808V1.191ZM17.218 1.19V22.81A12 12 0 0 0 24 11.999a12 12 0 0 0-6.782-10.808ZM15.13 15.652 12 5.74l-3.13 9.913h2.347v2.609h1.565v-2.609h2.348Z" fill="#6DA544"/></g><defs><clipPath id="a"><path fill="#fff" d="M0 0h24v24H0z"/></clipPath></defs></svg>