<svg width="24" height="24" fill="none" xmlns="http://www.w3.org/2000/svg"><g clip-path="url(#a)"><path d="M12 24c6.627 0 12-5.373 12-12S18.627 0 12 0 0 5.373 0 12s5.373 12 12 12Z" fill="#fff"/><path d="m23.93 13.306-.001-.002v.002h.002Z" fill="#0052B4"/><path d="M23.93 13.304 10.77.062A11.96 11.96 0 0 0 9.03.37C3.839 1.692 0 12 0 12s16.8 11.242 18.716 9.945c.384-.26.752-.54 1.102-.842l-7.8-7.799H23.93Z" fill="#0052B4"/><path d="M20.87 12 9.199.33C3.923 1.59 0 6.336 0 12c0 6.627 5.373 12 12 12 2.514 0 4.847-.774 6.775-2.095L8.87 12h12Z" fill="#FF0062"/><path d="m11.412 17.718-1.465-.689.78-1.42-1.591.305-.202-1.608-1.109 1.183-1.108-1.183-.202 1.608-1.591-.304.78 1.419-1.465.69 1.465.689-.78 1.419 1.591-.304.202 1.607 1.108-1.182 1.109 1.182.202-1.607 1.59.304-.78-1.42 1.466-.689ZM10.435 6.655l-1.066-.5.567-1.033-1.157.221-.147-1.17-.806.86-.806-.86-.147 1.17-1.157-.221.567 1.032-1.066.501 2.609.522 2.609-.522Z" fill="#fff"/><path d="M10.957 6.655a3.13 3.13 0 0 1-6.26 0" fill="#fff"/></g><defs><clipPath id="a"><path fill="#fff" d="M0 0h24v24H0z"/></clipPath></defs></svg>