<svg fill="none" xmlns="http://www.w3.org/2000/svg" viewBox="0 0 24 24"><g clip-path="url(#a)"><path d="M12 24c6.627 0 12-5.372 12-12 0-6.627-5.373-12-12-12S0 5.373 0 12c0 6.628 5.373 12 12 12Z" fill="#0052B4"/><path d="M12 24c6.627 0 12-5.372 12-12 0-6.627-5.373-12-12-12S0 5.373 0 12c0 6.628 5.373 12 12 12Z" fill="#FFD293"/><path d="M12 0C5.726 0 .576 4.818.047 10.957h23.909C23.426 4.818 18.277 0 12.001 0Zm0 24c6.276 0 11.426-4.817 11.955-10.956H.046C.576 19.183 5.725 24 12.001 24Z" fill="#0052B4"/><path d="m9.913 16.174-1.345.632.716 1.302-1.46-.279-.185 1.475-1.017-1.085-1.017 1.085-.185-1.475-1.46.28.716-1.303-1.344-.632 1.344-.633-.716-1.302 1.46.28.185-1.476 1.017 1.085 1.017-1.085.185 1.475 1.46-.28-.715 1.303 1.344.633Z" fill="#fff"/></g><defs><clipPath id="a"><path fill="#fff" d="M0 0h24v24H0z"/></clipPath></defs></svg>