<svg width="24" height="24" fill="none" xmlns="http://www.w3.org/2000/svg"><g clip-path="url(#a)"><path d="M24 12c0 6.628-5.373 12-12 12S0 18.628 0 12C0 12.003 12 .002 12 0c6.627 0 12 5.373 12 12Z" fill="#FFD293"/><path d="M12 5.739v4.047L7.826 5.74H12ZM6.261 12h3.526L6.26 7.303l-.522 3.652.522 1.043Z" fill="#0052B4"/><path d="M11.969 12.004h.035v-.036l-.035.036ZM12 6.261V.001h-.002C5.371 0 0 5.372 0 12h6.26V8.474L9.787 12h2.182l.032-.032V9.787L8.474 6.26H12Z" fill="#fff"/><path d="M11.999 10.524 7.735 6.26H6.26L11.999 12v-1.476Z" fill="#FF0062"/><path d="M6.07 1.565c-.462.263-.906.557-1.327.877h.492l-1.301.946.497 1.53-1.301-.946-.139.101c-.54.614-1.02 1.283-1.427 1.998V12h3.13V4.695H12v-3.13H6.07Z" fill="#FF0062"/><path d="M5.127 2.163c-.13.09-.257.184-.383.28l-.809.945-.804.584-.14.102c-.294.334-.57.685-.827 1.052a2.217 2.217 0 0 0 2.963-2.963Z" fill="#0052B4"/><path d="m2.991 4.074.14-.102 1.301.946-.497-1.53 1.301-.946h-.492a12.075 12.075 0 0 0-1.753 1.632ZM8.295 2.086l.259.797h.838l-.678.493.259.797-.678-.493-.679.493.26-.797-.679-.493h.838l.26-.797ZM3.13 7.304l.26.797h.838l-.678.493.258.797-.678-.493-.678.493.26-.797-.679-.493h.838l.26-.797Z" fill="#FFD293"/></g><defs><clipPath id="a"><path fill="#fff" d="M0 0h24v24H0z"/></clipPath></defs></svg>