<svg width="24" height="24" fill="none" xmlns="http://www.w3.org/2000/svg"><g clip-path="url(#a)"><path d="M12 24c6.627 0 12-5.372 12-12 0-6.627-5.373-12-12-12S0 5.373 0 12c0 6.628 5.373 12 12 12Z" fill="#fff"/><path d="M0 12c0 4.549 2.53 8.506 6.26 10.541V1.46A11.997 11.997 0 0 0 0 12Z" fill="#FF0062"/><path d="M23.254 16.175c.482-1.3.746-2.706.746-4.174 0-1.468-.264-2.874-.746-4.174H.746A11.973 11.973 0 0 0 0 12c0 1.468.264 2.874.746 4.174L12 17.218l11.254-1.043Z" fill="#FF0062"/><path d="M12 24c5.16 0 9.558-3.256 11.253-7.825H.746C2.442 20.745 6.84 24 12 24Z" fill="#6DA544"/><path d="M0 12c0 5.545 3.76 10.21 8.87 11.587V.414C3.76 1.79 0 6.456 0 12Z" fill="#FF0062"/><path d="M7.342 5.281 6.235 4.174l-.738.738-.738-.738-1.107 1.107.738.738-.738.738L4.76 7.864l.738-.738.738.738 1.107-1.107-.738-.738.738-.738Z" fill="#fff"/></g><defs><clipPath id="a"><path fill="#fff" d="M0 0h24v24H0z"/></clipPath></defs></svg>