<svg fill="none" xmlns="http://www.w3.org/2000/svg" viewBox="0 0 24 24"><g clip-path="url(#a)"><path d="M12 24c6.628 0 12-5.373 12-12 0-6.628-5.372-12-12-12C5.373 0 0 5.372 0 12c0 6.627 5.373 12 12 12Z" fill="#fff"/><path d="M1.46 6.261h21.08A11.997 11.997 0 0 0 12 .001 11.995 11.995 0 0 0 1.458 6.26ZM12 24c4.548 0 8.506-2.53 10.54-6.26H1.46A11.997 11.997 0 0 0 11.999 24Z" fill="#FF0062"/><path d="M16.175 12c0 2.305-1.869 3.652-4.174 3.652-2.305 0-4.174-1.347-4.174-3.652a4.174 4.174 0 1 1 8.348 0Z" fill="#FFD293"/><path d="M16.175 12a4.174 4.174 0 1 1-8.348 0" fill="#0052B4"/><path d="M9.393 10.956h1.043v2.087H9.393v-2.087Zm4.174 0h1.043v2.087h-1.043v-2.087ZM11.48 9.391h1.043v3.652h-1.044V9.391Z" fill="#FF0062"/></g><defs><clipPath id="a"><path fill="#fff" d="M0 0h24v24H0z"/></clipPath></defs></svg>