<svg width="24" height="24" fill="none" xmlns="http://www.w3.org/2000/svg"><g clip-path="url(#a)"><path d="M20.485 20.485c-4.686 4.686-12.284 4.686-16.97 0-4.687-4.686-4.687-12.285 0-16.97C8.2-1.173 15.06-.436 19.747 4.251c4.687 4.686 5.425 11.547.738 16.233Z" fill="#000"/><path d="M3.514 3.515c4.686-4.687 12.284-4.687 16.97 0 4.687 4.686 4.687 12.284 0 16.97" fill="#A2001D"/><path d="m9.17 16.174.194.598h.629l-.509.369.195.598-.509-.37-.509.37.195-.598-.509-.37h.629l.194-.597ZM7.565 10.435l.324.996h1.047l-.847.616.323.996-.847-.616-.848.616.324-.996-.848-.616h1.048l.324-.996ZM7.565 17.74l.324.996h1.047l-.847.616.323.996-.847-.616-.848.616.324-.996-.848-.616h1.048l.324-.997ZM10.628 13.043l.324.997H12l-.848.616.324.996-.848-.616-.847.616.323-.996-.847-.616h1.048l.323-.996ZM4.501 13.043l.324.997h1.048l-.848.616.324.996-.848-.616-.847.616.324-.996-.848-.616h1.048l.323-.996Z" fill="#fff"/><path d="M20.088 8.886a3.107 3.107 0 0 0-1.982-.908l2.241-1.743a4.163 4.163 0 0 0-3.256-1.21 3.116 3.116 0 0 0-.802-1.373l-.885 1.771a1.304 1.304 0 1 0-1.77 1.77l-1.772.886c.395.396.87.662 1.373.802a4.162 4.162 0 0 0 1.21 3.257l1.958-2.518a.777.777 0 0 1 .55-.226c.208 0 .405.082.553.23.147.147.229.344.229.553a.778.778 0 0 1-.23.553l.738.738c.345-.345.535-.803.535-1.29 0-.4-.127-.78-.362-1.093a2.09 2.09 0 0 1 .934 3.49l.738.738a3.11 3.11 0 0 0 .917-2.214c0-.836-.326-1.622-.917-2.213Z" fill="#FFD293"/></g><defs><clipPath id="a"><path fill="#fff" d="M0 0h24v24H0z"/></clipPath></defs></svg>