<svg fill="none" xmlns="http://www.w3.org/2000/svg" viewBox="0 0 24 24"><g clip-path="url(#a)"><path d="M12 24c6.627 0 12-5.372 12-12 0-6.627-5.373-12-12-12S0 5.373 0 12c0 6.628 5.373 12 12 12Z" fill="#fff"/><path d="M0 12c0 4.549 2.53 8.506 6.26 10.541V1.46A11.997 11.997 0 0 0 0 12Z" fill="#fff"/><path d="M12 0C9.923 0 7.968.53 6.263 1.46v21.08c1.705.93 3.66 1.46 5.739 1.46 6.627 0 12-5.373 12-12 0-6.628-5.373-12-12-12Z" fill="#496E2D"/><path d="M17.132 13.986a3.391 3.391 0 1 1-2.426-6.112A4.174 4.174 0 1 0 18.2 12.71a3.375 3.375 0 0 1-1.07 1.275Zm-.066-6.159.855.922 1.14-.529-.611 1.098.855.922-1.234-.243-.612 1.098-.15-1.248-1.234-.243 1.141-.529-.15-1.248Z" fill="#fff"/></g><defs><clipPath id="a"><path fill="#fff" d="M0 0h24v24H0z"/></clipPath></defs></svg>