<svg fill="none" xmlns="http://www.w3.org/2000/svg" viewBox="0 0 24 24"><g clip-path="url(#a)"><path d="M24 12c0 6.627-5.373 12-12 12S0 18.627 0 12C0 12.003 12 .001 12 0c6.627 0 12 5.373 12 12Z" fill="#0052B4"/><path d="M11.968 12.003h.035v-.036l-.035.036ZM12 6.26V0h-.002C5.371.001 0 5.373 0 12h6.26V8.474L9.787 12h2.182l.032-.032V9.786L8.474 6.261H12Z" fill="#fff"/><path d="M6.071 1.565A12.057 12.057 0 0 0 1.565 6.07v5.928h3.13V4.695H12v-3.13H6.071Z" fill="#FF0062"/><path d="M12 10.524 7.737 6.26H6.26L12 12v-1.476Z" fill="#FF0062"/><path d="m18.782 7.304-1.565.522-1.565-.522L15.13 6l.522-1.305h3.13L18.261 6l.521 1.304Z" fill="#A9B9C0"/><path d="M13.565 7.304v5.739c0 2.795 3.652 3.652 3.652 3.652s3.652-.857 3.652-3.652v-5.74h-7.304Z" fill="#338AF3"/><path d="M13.894 14.403c.897 1.723 3.322 2.292 3.322 2.292s2.426-.569 3.323-2.292l-3.323-5.534-3.322 5.534Z" fill="#6DA544"/><path d="m20.87 12.985-3.653-5.681-3.652 5.68v.059c0 .517.125.968.33 1.36l3.322-5.17 3.323 5.17c.204-.392.33-.843.33-1.36v-.058Z" fill="#FFD293"/></g><defs><clipPath id="a"><path fill="#fff" d="M0 0h24v24H0z"/></clipPath></defs></svg>