<svg width="24" height="24" fill="none" xmlns="http://www.w3.org/2000/svg"><g clip-path="url(#a)"><path d="M12 24c6.627 0 12-5.372 12-12 0-6.627-5.373-12-12-12S0 5.373 0 12c0 6.628 5.373 12 12 12Z" fill="#fff"/><path d="M7.304 7.826h15.95C21.557 3.256 17.158 0 11.998 0a11.96 11.96 0 0 0-8.484 3.515l3.789 4.311Z" fill="#000"/><path d="M7.304 16.175h15.95C21.557 20.745 17.158 24 11.998 24a11.96 11.96 0 0 1-8.484-3.515l3.789-4.311Z" fill="#6DA544"/><path d="M3.515 3.515c-4.687 4.687-4.687 12.285 0 16.971L12 12.001 3.515 3.515Z" fill="#FF0062"/></g><defs><clipPath id="a"><path fill="#fff" d="M0 0h24v24H0z"/></clipPath></defs></svg>