<svg width="24" height="24" fill="none" xmlns="http://www.w3.org/2000/svg"><g clip-path="url(#a)"><path d="M12 24c6.627 0 12-5.373 12-12S18.627 0 12 0 0 5.373 0 12s5.373 12 12 12Z" fill="#fff"/><path d="M12 0A12 12 0 0 0 1.19 6.783h21.62A12 12 0 0 0 12 0Z" fill="#FF0062"/><path d="M12 24a12 12 0 0 0 10.81-6.783H1.19A12 12 0 0 0 12 24Z" fill="#0052B4"/><path d="m14.95 8.526-1.106 1.107a2.609 2.609 0 1 1-3.69 0L9.049 8.526a4.174 4.174 0 1 0 5.903 0Z" fill="#6DA544"/><path d="m12 9.913.389 1.195h1.257l-1.017.74.389 1.195L12 12.304l-1.017.74.389-1.197-1.018-.739h1.258L12 9.913Z" fill="#FFD293"/></g><defs><clipPath id="a"><path fill="#fff" d="M0 0h24v24H0z"/></clipPath></defs></svg>