<svg fill="none" xmlns="http://www.w3.org/2000/svg" viewBox="0 0 24 24"><g clip-path="url(#a)"><path d="M12 24c6.627 0 12-5.373 12-12 0-6.628-5.373-12-12-12S0 5.372 0 12c0 6.627 5.373 12 12 12Z" fill="#fff"/><path d="M12 0C5.373 0 0 5.372 0 12c0 1.468.264 2.874.746 4.174h22.508c.482-1.3.746-2.706.746-4.174 0-6.628-5.373-12-12-12Z" fill="#0052B4"/><path d="M12 0C6.84 0 2.442 3.256.746 7.826h22.507C21.558 3.256 17.16 0 12 0Z" fill="#FF0062"/><path d="M3.104 6.781v5.987c0 3.405 4.448 4.448 4.448 4.448S12 16.173 12 12.768V6.78H3.104Z" fill="#FF0062"/><path d="M4.942 7.826h5.218V5.739l-1.044.522-1.565-1.566-1.565 1.566-1.044-.522v2.087Zm6.015 5.776L7.565 10.21l-3.391 3.392 1.107 1.107 2.284-2.285 2.285 2.285 1.107-1.107Z" fill="#FFD293"/><path d="M10.957 10.434H9.373A1.043 1.043 0 1 0 7.551 9.42a1.043 1.043 0 1 0-1.822 1.014H4.174c0 .576.502 1.043 1.078 1.043h-.035c0 .577.467 1.044 1.044 1.044 0 .51.366.934.85 1.025l-.822 1.856a3.38 3.38 0 0 0 2.552 0l-.822-1.856c.484-.091.85-.515.85-1.025.577 0 1.044-.467 1.044-1.044h-.035c.576 0 1.079-.467 1.079-1.043Z" fill="#fff"/></g><defs><clipPath id="a"><path fill="#fff" d="M0 0h24v24H0z"/></clipPath></defs></svg>