<svg width="24" height="24" fill="none" xmlns="http://www.w3.org/2000/svg"><g clip-path="url(#a)"><path d="M12 24c6.627 0 12-5.373 12-12S18.627 0 12 0 0 5.373 0 12s5.373 12 12 12Z" fill="#fff"/><path d="M23.254 16.174c.482-1.3.746-2.706.746-4.174 0-1.467-.264-2.874-.746-4.174H.746A11.974 11.974 0 0 0 0 12c0 1.468.264 2.874.746 4.174L12 17.218l11.254-1.044Z" fill="#0052B4"/><path d="M12 24c5.16 0 9.558-3.256 11.253-7.826H.746C2.442 20.744 6.84 24 12 24Z" fill="#FF0062"/></g><defs><clipPath id="a"><path fill="#fff" d="M0 0h24v24H0z"/></clipPath></defs></svg>