<svg width="24" height="24" fill="none" xmlns="http://www.w3.org/2000/svg"><g clip-path="url(#a)"><path d="M0 12c0 2.079.529 4.034 1.46 5.74L12 18.782l10.54-1.044C23.472 16.034 24 14.08 24 12l-12-1.043L0 12Z" fill="#FFD293"/><path d="M22.54 6.26A11.997 11.997 0 0 0 12 0 11.997 11.997 0 0 0 0 12h24c0-2.079-.529-4.034-1.46-5.74Z" fill="#338AF3"/><path d="M12 24c4.548 0 8.506-2.53 10.54-6.26H1.46A11.997 11.997 0 0 0 11.999 24Z" fill="#496E2D"/><path d="m13.565 7.023 1.466.69-.78 1.418 1.591-.304.202 1.608 1.108-1.183 1.109 1.183.201-1.608 1.592.304-.78-1.419 1.465-.69-1.466-.689.78-1.419-1.59.304-.203-1.607-1.108 1.182-1.108-1.182-.202 1.607-1.591-.304.78 1.42-1.466.689Z" fill="#FFD293"/></g><defs><clipPath id="a"><path fill="#fff" d="M0 0h24v24H0z"/></clipPath></defs></svg>