<svg width="24" height="24" fill="none" xmlns="http://www.w3.org/2000/svg"><g clip-path="url(#a)"><path d="M20.485 20.485c4.5-4.5 4.679-11.686.535-16.4L12 12 4.086 21.02c4.714 4.143 11.899 3.966 16.4-.535Z" fill="#496E2D"/><path d="M3.514 3.514c4.5-4.5 11.686-4.678 16.4-.535L12 12l-9.02 7.915c-4.144-4.714-3.966-11.9.534-16.4Z" fill="#0052B4"/><path d="M19.913 2.98 2.979 19.914a12.118 12.118 0 0 0 1.106 1.107L21.02 4.087a12.172 12.172 0 0 0-1.107-1.107Z" fill="#FFD293"/><path d="m5.055 4.173.26.797h.837l-.678.493.26.797-.679-.493-.678.493.26-.797-.679-.493h.838l.26-.797ZM9.337 4.173l.26.797h.838l-.678.493.259.797-.679-.493-.678.493.26-.797-.679-.493h.838l.26-.797ZM5.055 8.347l.26.798h.837l-.678.492.26.797-.679-.492-.678.492.26-.797-.679-.492h.838l.26-.798ZM9.337 8.347l.26.798h.838l-.678.492.259.797-.679-.492-.678.492.26-.797-.679-.492h.838l.26-.798ZM7.196 6.26l.259.797h.838l-.678.493.259.797-.678-.493-.678.493.259-.797-.678-.493h.838l.259-.797Z" fill="#fff"/></g><defs><clipPath id="a"><path fill="#fff" d="M0 0h24v24H0z"/></clipPath></defs></svg>