<svg width="24" height="24" fill="none" xmlns="http://www.w3.org/2000/svg"><g clip-path="url(#a)"><path d="M1.19 6.782A11.952 11.952 0 0 0 0 11.999c0 1.87.428 3.64 1.19 5.217L12 18.26l10.81-1.044A11.953 11.953 0 0 0 24 12c0-1.87-.428-3.64-1.19-5.217L12 5.738 1.19 6.782Z" fill="#fff"/><path d="M1.19 17.217A12 12 0 0 0 12 24a12 12 0 0 0 10.808-6.783H1.19Z" fill="#000"/><path d="M1.19 6.783h21.618A12 12 0 0 0 12 0 12 12 0 0 0 1.19 6.783Z" fill="#FF0062"/><path d="M3.515 3.515c-4.687 4.686-4.687 12.284 0 16.97L12 12 3.515 3.515Z" fill="#496E2D"/></g><defs><clipPath id="a"><path fill="#fff" d="M0 0h24v24H0z"/></clipPath></defs></svg>