<svg width="24" height="24" fill="none" xmlns="http://www.w3.org/2000/svg"><g clip-path="url(#a)"><path d="M12 24c6.627 0 12-5.372 12-12 0-6.627-5.373-12-12-12S0 5.373 0 12c0 6.628 5.373 12 12 12Z" fill="#FFD293"/><path d="M9.393 10.435H23.9C23.133 4.547 18.098 0 12 0c-.896 0-1.768.1-2.608.286v10.15ZM6.262 10.435V1.459a12.007 12.007 0 0 0-6.16 8.976h6.16ZM6.262 13.565H.102a12.007 12.007 0 0 0 6.16 8.976v-8.976ZM9.393 13.565v10.15c.84.186 1.712.285 2.608.285 6.097 0 11.132-4.547 11.899-10.435H9.393Z" fill="#0052B4"/></g><defs><clipPath id="a"><path fill="#fff" d="M0 0h24v24H0z"/></clipPath></defs></svg>