<svg width="24" height="24" fill="none" xmlns="http://www.w3.org/2000/svg"><g clip-path="url(#a)"><path d="M12 24c6.627 0 12-5.373 12-12 0-6.628-5.373-12-12-12S0 5.372 0 12c0 6.627 5.373 12 12 12Z" fill="#fff"/><path d="M0 12C0 5.372 5.373 0 12 0s12 5.372 12 12" fill="#FF0062"/><path d="M7.305 6.26a3.653 3.653 0 0 1 2.87-3.567 3.652 3.652 0 1 0 0 7.135 3.653 3.653 0 0 1-2.87-3.568ZM12 2.869l.26.797h.838l-.679.493.26.797L12 4.463l-.679.493.26-.797-.679-.493h.838l.26-.797Z" fill="#fff"/><path d="m9.966 4.435.26.797h.837l-.678.492.26.797-.679-.492-.678.492.26-.797-.679-.492h.838l.26-.797ZM14.034 4.435l.259.797h.838l-.678.492.259.797-.678-.492-.678.492.259-.797-.678-.492h.838l.259-.797ZM13.25 6.782l.26.797h.838l-.679.493.26.797-.678-.493-.679.493.26-.797-.679-.493h.838l.26-.797ZM10.75 6.782l.258.797h.839l-.678.493.259.797-.679-.493-.678.493.26-.797-.679-.493h.839l.258-.797Z" fill="#fff"/></g><defs><clipPath id="a"><path fill="#fff" d="M0 0h24v24H0z"/></clipPath></defs></svg>