<svg width="24" height="24" fill="none" xmlns="http://www.w3.org/2000/svg"><g clip-path="url(#a)"><path d="M24 12c0 6.628-5.373 12-12 12S0 18.628 0 12c.522 0 12-1.565 12-1.565L24 12Z" fill="#338AF3"/><path d="M0 12C0 5.373 5.373 0 12 0s12 5.373 12 12" fill="#fff"/><path d="M16.763 8.28 12 13.045 7.237 8.281a5.706 5.706 0 0 0-.976 3.198v1.565a5.75 5.75 0 0 0 3.877 5.43c-.3.589-.25 1.324.191 1.874l1.706-1.366 1.705 1.366a1.736 1.736 0 0 0 .18-1.896 5.749 5.749 0 0 0 3.819-5.408v-1.565c0-1.183-.36-2.284-.976-3.198Z" fill="#6DA544"/><path d="M12 17.218a4.179 4.179 0 0 1-4.174-4.174v-1.565A4.179 4.179 0 0 1 12 7.305a4.179 4.179 0 0 1 4.174 4.174v1.565A4.179 4.179 0 0 1 12 17.218Z" fill="#FFD293"/><path d="M14.609 13.044v-1.565A2.612 2.612 0 0 0 12 8.869a2.612 2.612 0 0 0-2.608 2.61v1.565l2.608.521 2.609-.521Z" fill="#338AF3"/><path d="M9.392 13.044A2.612 2.612 0 0 0 12 15.653a2.612 2.612 0 0 0 2.609-2.61H9.392Z" fill="#6DA544"/><path d="M15.131 7.305a1.565 1.565 0 0 0-2.609-1.167v-.92h.522V4.174h-.522v-.522H11.48v.522h-.522v1.044h.522v.92a1.565 1.565 0 0 0-2.087 2.333v.92h5.217v-.92c.32-.287.522-.703.522-1.166Z" fill="#FFD293"/></g><defs><clipPath id="a"><path fill="#fff" d="M0 0h24v24H0z"/></clipPath></defs></svg>