<svg fill="none" xmlns="http://www.w3.org/2000/svg" viewBox="0 0 24 24"><g clip-path="url(#a)"><path d="M12 24c6.627 0 12-5.373 12-12 0-6.628-5.373-12-12-12S0 5.372 0 12c0 6.627 5.373 12 12 12Z" fill="#fff"/><path d="M23.063 7.348C21.246 3.03 16.977 0 12 0a11.96 11.96 0 0 0-8.485 3.515L6.52 7.348h16.543Z" fill="#000"/><path d="m6.554 16.608-3.04 3.877A11.96 11.96 0 0 0 12 24c4.994 0 9.275-3.052 11.082-7.392H6.554Z" fill="#496E2D"/><path d="M2.61 8.826v6.304h20.977c.27-.998.414-2.047.414-3.13 0-1.099-.148-2.163-.425-3.174H2.609Z" fill="#A2001D"/><path d="M3.515 3.514c-4.687 4.686-4.687 12.285 0 16.97L12 12 3.515 3.514Z" fill="#0052B4"/><path d="m3.909 9.016 1.465 2.044 2.396-.762-1.491 2.025 1.465 2.044-2.387-.793-1.49 2.025.015-2.515-2.386-.792 2.397-.762.016-2.514Z" fill="#FFD293"/></g><defs><clipPath id="a"><path fill="#fff" d="M0 0h24v24H0z"/></clipPath></defs></svg>