<svg width="24" height="24" fill="none" xmlns="http://www.w3.org/2000/svg"><g clip-path="url(#a)"><path d="M12 24c6.627 0 12-5.373 12-12 0-6.628-5.373-12-12-12S0 5.372 0 12c0 6.627 5.373 12 12 12Z" fill="#FFD293"/><path d="M7.304 7.826h15.95C21.557 3.256 17.158 0 11.998 0a11.96 11.96 0 0 0-8.484 3.515l3.789 4.31ZM7.304 16.173h15.95c-1.696 4.57-6.095 7.826-11.255 7.826a11.96 11.96 0 0 1-8.484-3.515l3.789-4.311Z" fill="#6DA544"/><path d="M3.515 3.514c-4.687 4.686-4.687 12.285 0 16.97L12 12 3.515 3.514Z" fill="#FF0062"/><path d="m15.237 9.912.518 1.594h1.677l-1.356.986.517 1.594-1.356-.985-1.356.985.518-1.594-1.356-.986h1.676l.518-1.594ZM20.455 9.912l.518 1.594h1.677l-1.357.986.518 1.594-1.356-.985-1.356.985.518-1.594-1.356-.986h1.676l.518-1.594Z" fill="#000"/></g><defs><clipPath id="a"><path fill="#fff" d="M0 0h24v24H0z"/></clipPath></defs></svg>