<svg fill="none" xmlns="http://www.w3.org/2000/svg" viewBox="0 0 24 24"><g clip-path="url(#a)"><path d="M10.956 13.043S3.52 3.513 3.514 3.514A11.962 11.962 0 0 1 11.999 0c6.627 0 12 5.372 12 12l-13.043 1.043Z" fill="#FF0062"/><path d="M10.956 12s-7.435 8.487-7.442 8.485A11.962 11.962 0 0 0 11.999 24c6.627 0 12-5.373 12-12H10.956Z" fill="#0052B4"/><path d="M3.515 3.514c-4.687 4.686-4.687 12.285 0 16.97L12 12 3.515 3.514Z" fill="#fff"/><path d="M1.316 12a3.391 3.391 0 1 0 6.76 0h-6.76Zm3.38-1.565a1.043 1.043 0 1 0 0-2.087 1.043 1.043 0 0 0 0 2.087Z" fill="#FFD293"/><path d="M2.348 9.13v3.392c0 1.797 2.347 2.348 2.347 2.348s2.348-.55 2.348-2.348V9.13H2.348Z" fill="#FF0062"/><path d="M4.696 13.777c-.435-.157-1.305-.557-1.305-1.256v-2.348h2.608v2.348c0 .7-.87 1.1-1.303 1.256Z" fill="#338AF3"/><path d="M5.217 11.477v-.521l-.521-.261-.522.26v.522l-.26.261v1.044h1.564v-1.044l-.26-.26Z" fill="#fff"/></g><defs><clipPath id="a"><path fill="#fff" d="M0 0h24v24H0z"/></clipPath></defs></svg>