<svg fill="none" xmlns="http://www.w3.org/2000/svg" viewBox="0 0 24 24"><g clip-path="url(#a)"><path d="M12 24c6.627 0 12-5.372 12-12 0-6.627-5.373-12-12-12S0 5.373 0 12c0 6.628 5.373 12 12 12Z" fill="#fff"/><path d="M12 0C6.84 0 2.442 3.257.746 7.827h22.507C21.558 3.257 17.16 0 12 0Z" fill="#FF0062"/><path d="M12 24c5.16 0 9.558-3.257 11.253-7.826H.746C2.442 20.744 6.84 24 12 24Z" fill="#000"/><path d="m7.17 9.13.647 1.993h2.096l-1.696 1.232.648 1.993-1.695-1.232-1.696 1.232.648-1.993-1.695-1.232h2.095L7.17 9.13Zm9.66 0 .647 1.993h2.096l-1.695 1.232.647 1.993-1.695-1.232-1.695 1.232.647-1.993-1.695-1.232h2.095l.648-1.993Z" fill="#6DA544"/></g><defs><clipPath id="a"><path fill="#fff" d="M0 0h24v24H0z"/></clipPath></defs></svg>