<svg width="24" height="24" fill="none" xmlns="http://www.w3.org/2000/svg"><g clip-path="url(#a)"><path d="M24 12c0 6.627-5.373 12-12 12S0 18.627 0 12C0 12.003 12 0 12 0c6.627 0 12 5.372 12 12Z" fill="#0052B4"/><path d="M11.968 12.003h.035v-.036l-.035.036ZM12 6.26V0h-.002C5.371 0 0 5.373 0 12h6.26V8.474L9.787 12h2.182l.032-.032V9.786L8.474 6.261H12Z" fill="#fff"/><path d="M6.07 1.565a12.057 12.057 0 0 0-4.506 4.506V12h3.13V4.696H12v-3.13H6.07Z" fill="#FF0062"/><path d="M12 10.524 7.736 6.26H6.261L12 12v-1.476Z" fill="#FF0062"/><path d="M13.565 6.26V12c0 2.796 3.652 3.652 3.652 3.652s3.652-.856 3.652-3.652V6.26h-7.304Z" fill="#FFD293"/><path d="M16.695 8.348c0 .576-.467 2.087-1.043 2.087-.576 0-1.044-1.511-1.044-2.087 0-.577 1.044-1.044 1.044-1.044s1.043.467 1.043 1.044Z" fill="#FF9811"/><path d="M19.464 9.484c.169-.41.3-1.011.3-1.31 0-.48-.627-.87-.627-.87s-.626.39-.626.87c0 .299.131.9.3 1.31l-.362.816a1.825 1.825 0 0 0 1.377 0l-.362-.816Z" fill="#A2001D"/><path d="M16.435 12s-.522 1.043-.522 2.087h2.609C18.522 13.044 18 12 18 12l-.783-.522-.782.522Z" fill="#6DA544"/><path d="M18 12v-.26a.783.783 0 0 0-1.565 0V12H18Z" fill="#FF0062"/></g><defs><clipPath id="a"><path fill="#fff" d="M0 0h24v24H0z"/></clipPath></defs></svg>