<svg width="24" height="24" fill="none" xmlns="http://www.w3.org/2000/svg"><g clip-path="url(#a)"><path d="M12 24c6.627 0 12-5.373 12-12S18.627 0 12 0 0 5.373 0 12s5.373 12 12 12Z" fill="#FFD293"/><path d="M12 0c-.01 0-.523 4.8-.523 4.8H21.6A11.982 11.982 0 0 0 12 0ZM11.999 24c3.926 0 7.411-1.886 9.6-4.8H2.4a11.982 11.982 0 0 0 9.6 4.8ZM23.759 9.6H11.477L12 14.4h11.76a12.049 12.049 0 0 0 0-4.8Z" fill="#496E2D"/><path d="M12 14.4V0C5.373 0 0 5.373 0 12c0 .822.083 1.625.24 2.4H12Z" fill="#FF0062"/><path d="m6.622 5.739.777 2.391h2.514L7.88 9.608 8.656 12l-2.034-1.478L4.587 12l.777-2.392L3.33 8.13h2.515l.777-2.391Z" fill="#fff"/></g><defs><clipPath id="a"><path fill="#fff" d="M0 0h24v24H0z"/></clipPath></defs></svg>