<svg width="24" height="24" fill="none" xmlns="http://www.w3.org/2000/svg"><g clip-path="url(#a)"><path d="M1.19 6.783A11.953 11.953 0 0 0 0 12c0 1.87.428 3.64 1.19 5.218L12 18.26l10.81-1.043A11.953 11.953 0 0 0 24 12c0-1.87-.428-3.64-1.19-5.217L12 5.739 1.19 6.783Z" fill="#fff"/><path d="M1.191 17.217A12 12 0 0 0 12.001 24a12 12 0 0 0 10.808-6.783H1.191Z" fill="#6DA544"/><path d="M1.191 6.783H22.81A12 12 0 0 0 12 0 12 12 0 0 0 1.191 6.783Z" fill="#FF0062"/><path d="M9.912 15.13h4.174v-1.774l-.835.418L12 12.522l-1.252 1.252-.835-.417v1.774ZM7.524 13.043l.194.598h.629l-.509.37.195.597-.509-.37-.509.37.195-.597-.509-.37h.629l.194-.598ZM8.127 10.957l.194.597h.628l-.508.37.194.598-.508-.37-.509.37.194-.598-.508-.37h.628l.195-.598ZM9.85 9.392l.194.597h.628l-.508.37.194.598-.509-.37-.508.37.194-.598-.509-.37h.629l.194-.597ZM16.474 13.043l-.194.598h-.629l.509.37-.194.597.508-.37.509.37-.194-.597.508-.37h-.628l-.195-.598ZM15.873 10.957l-.195.597h-.628l.508.37-.194.598.509-.37.508.37-.194-.598.509-.37h-.629l-.194-.598ZM14.151 9.392l-.194.597h-.629l.509.37-.195.598.509-.37.508.37-.194-.598.509-.37h-.629l-.194-.597ZM12 8.608l.194.598h.628l-.508.37.194.598-.508-.37-.509.37.194-.598-.508-.37h.628L12 8.608Z" fill="#FFD293"/></g><defs><clipPath id="a"><path fill="#fff" d="M0 0h24v24H0z"/></clipPath></defs></svg>