<svg width="24" height="24" fill="none" xmlns="http://www.w3.org/2000/svg"><g clip-path="url(#a)"><path d="M12 24c6.627 0 12-5.373 12-12S18.627 0 12 0 0 5.373 0 12s5.373 12 12 12Z" fill="#FFD293"/><path d="M12 0a11.95 11.95 0 0 0-7.715 2.81L17.217 12 4.285 21.19A11.95 11.95 0 0 0 12 24c6.627 0 12-5.373 12-12S18.627 0 12 0Z" fill="#FF0062"/><path d="M3.515 3.515c-4.686 4.686-4.686 12.284 0 16.97L12 12 3.515 3.515Z" fill="#000"/><path d="m3.327 9.251 1.826 1.729L7.36 9.777l-1.08 2.27 1.827 1.73-2.493-.326-1.08 2.271-.461-2.471-2.494-.325 2.208-1.203-.461-2.472Z" fill="#fff"/></g><defs><clipPath id="a"><path fill="#fff" d="M0 0h24v24H0z"/></clipPath></defs></svg>