<svg width="24" height="24" fill="none" xmlns="http://www.w3.org/2000/svg"><g clip-path="url(#a)"><path d="M12 0c-.896 0-1.768.099-2.608.285L8.87 12l.522 11.715c.84.186 1.713.285 2.609.285 6.627 0 12-5.373 12-12S18.627 0 12 0ZM3.13 3.917A11.956 11.956 0 0 0 0 12c0 3.114 1.186 5.95 3.13 8.083L3.652 12 3.13 3.917Z" fill="#496E2D"/><path d="M17.551 9.052a3.653 3.653 0 0 0-1.496-4.327 3.652 3.652 0 1 1-2.41 6.715 3.653 3.653 0 0 0 3.906-2.388ZM14.277 4.274l-.513.663-.79-.283.473.692-.513.663.804-.234.472.692.025-.837.805-.235-.789-.283.026-.838Z" fill="#fff"/><path d="m15.661 6.434-.513.662-.788-.283.471.693-.513.663.805-.235.472.693.025-.838.805-.235-.789-.283.025-.837ZM11.834 5.06l-.513.663-.789-.283.472.693-.513.663.805-.235.472.693.025-.838.805-.235-.79-.283.026-.837ZM11.778 7.535l-.513.663-.79-.283.473.692-.513.663.804-.234.472.692.025-.838.805-.234-.789-.283.026-.838ZM14.132 8.38l-.513.662-.789-.283.472.693-.513.663.805-.235.472.693.025-.838.805-.235-.79-.283.026-.838Z" fill="#fff"/><path d="M3.13 3.917v16.166a11.987 11.987 0 0 0 6.262 3.632V.285A11.987 11.987 0 0 0 3.13 3.917Z" fill="#FF0062"/><path d="m5.52 6.318-1.048-.78V4.432l1.048-.78h1.482l1.048.78v1.104l-1.048.781H5.52Z" fill="#fff"/><path d="M6.261 3.653H5.52l-1.048.78v.54h1.79v-1.32ZM6.262 6.318h.74l1.05-.78v-.564h-1.79v1.344Z" fill="#FF9811"/><path d="m5.52 20.347-1.048-.78v-1.105l1.048-.78h1.482l1.048.78v1.104l-1.048.781H5.52Z" fill="#fff"/><path d="M6.261 17.681H5.52l-1.048.781v.54h1.79v-1.32ZM6.262 20.348h.74l1.05-.781v-.563h-1.79v1.344Z" fill="#FF9811"/><path d="m5.52 13.333-1.047-.78v-1.105l1.048-.78h1.482l1.048.78v1.104l-1.048.781H5.521ZM8.088 15.052H7.63v-.457H6.83l-.567-.567-.568.567h-.802v.457h-.456v.913h.456v.456h.802l.568.567.567-.567h.802v-.456h.457v-.913ZM8.088 8.036H7.63v-.457H6.83l-.567-.567-.568.567h-.802v.457h-.456v.913h.456v.456h.802l.568.568.567-.568h.802V8.95h.457v-.913Z" fill="#496E2D"/><path d="M5.74 11.478h1.043v1.043H5.739v-1.043ZM6.261 9.014a.522.522 0 1 0 0-1.044.522.522 0 0 0 0 1.044ZM6.261 16.029a.522.522 0 1 0 0-1.044.522.522 0 0 0 0 1.044Z" fill="#FF0062"/></g><defs><clipPath id="a"><path fill="#fff" d="M0 0h24v24H0z"/></clipPath></defs></svg>