<svg fill="none" xmlns="http://www.w3.org/2000/svg" viewBox="0 0 24 24"><g clip-path="url(#a)"><path d="M12 24c6.627 0 12-5.373 12-12S18.627 0 12 0 0 5.373 0 12s5.373 12 12 12Z" fill="#FF0062"/><path d="m11.508 9.806.984 1.357 1.595-.517L13.1 12l.984 1.357-1.594-.519-.986 1.356.001-1.677L9.912 12l1.595-.517V9.806Z" fill="#fff"/><path d="M8.821 15.39a3.391 3.391 0 1 1 1.613-6.374 4.174 4.174 0 1 0 0 5.967c-.48.26-1.029.408-1.613.408Z" fill="#fff"/></g><defs><clipPath id="a"><path fill="#fff" d="M0 0h24v24H0z"/></clipPath></defs></svg>