<svg fill="none" xmlns="http://www.w3.org/2000/svg" viewBox="0 0 24 24"><g clip-path="url(#a)"><path d="M24 12c0 6.627-5.373 12-12 12S0 18.627 0 12c0 .003 12-12 12-12 6.627 0 12 5.372 12 12Z" fill="#338AF3"/><path d="M5.74 12h4.047L6.26 7.826 5.739 9.39V12ZM12 9.786 7.826 5.738H12v4.048Z" fill="#0052B4"/><path d="M11.968 12.003h.035v-.036l-.035.036ZM12 6.26V0h-.002C5.372 0 0 5.373 0 12h6.26V8.474L9.787 12h2.182l.032-.032V9.786L8.474 6.261H12Z" fill="#fff"/><path d="M6.071 1.565a12.057 12.057 0 0 0-4.506 4.506V12h3.13V4.696H12v-3.13H6.071Z" fill="#FF0062"/><path d="M12 10.524 7.738 6.26H6.262L12 12v-1.476Z" fill="#FF0062"/><path d="m13.097 19.826.26.797h.837l-.678.493.26.797-.679-.492-.678.492.26-.797-.679-.493h.838l.26-.797Zm6.676-5.218.259.798h.838l-.678.492.26.797-.679-.492-.678.492.259-.797-.678-.492h.838l.259-.798Zm1.672-7.826.259.797h.838l-.678.493.259.797-.678-.492-.678.492.259-.797-.678-.493h.838l.259-.797Zm.414 5.739.259.797h.838l-.678.493.26.797-.68-.492-.677.492.259-.797-.678-.493h.838l.259-.797Zm-7.56 5.429.747.381.593-.592-.131.828.746.38-.828.131-.13.828-.381-.747-.828.131.593-.592-.381-.747Zm0-3.13.747.381.593-.593-.131.828.746.38-.828.132-.13.828-.381-.747-.828.131.593-.593-.381-.747Zm2.609 2.007.747.38.593-.592-.131.828.747.38-.828.131-.131.828-.38-.747-.829.132.593-.593-.38-.747Zm0-6.703.747.381.593-.593-.131.828.747.38-.828.132-.131.828-.38-.747-.829.131.593-.593-.38-.747Zm2.528-.08.747.38.592-.592-.13.828.746.38-.828.132-.131.828-.38-.747-.828.13.592-.592-.38-.747Z" fill="#FFD293"/></g><defs><clipPath id="a"><path fill="#fff" d="M0 0h24v24H0z"/></clipPath></defs></svg>