<svg fill="none" xmlns="http://www.w3.org/2000/svg" viewBox="0 0 24 24"><g clip-path="url(#a)"><path d="M12 24c6.627 0 12-5.373 12-12S18.627 0 12 0 0 5.373 0 12s5.373 12 12 12Z" fill="#FFD293"/><path d="M3.515 20.486c.504.503 1.04.952 1.604 1.347L21.834 5.12a12.06 12.06 0 0 0-2.952-2.952L2.168 18.882c.395.563.844 1.1 1.347 1.604Z" fill="#000"/><path d="M3.515 3.515C-.27 7.3-.997 12.986 1.333 17.502l16.17-16.169C12.986-.997 7.3-.271 3.515 3.515Z" fill="#6DA544"/><path d="M20.485 20.485c3.786-3.785 4.513-9.471 2.182-13.987L6.498 22.667c4.516 2.33 10.202 1.604 13.987-2.182Z" fill="#338AF3"/></g><defs><clipPath id="a"><path fill="#fff" d="M0 0h24v24H0z"/></clipPath></defs></svg>