<svg width="24" height="24" fill="none" xmlns="http://www.w3.org/2000/svg"><g clip-path="url(#a)"><path d="M20.943 20A11.954 11.954 0 0 0 24 12c0-3.074-1.156-5.877-3.057-8L12 3.13 3.057 4A11.954 11.954 0 0 0 0 12c0 3.074 1.156 5.877 3.057 8l8.943.87 8.943-.87Z" fill="#FFD293"/><path d="M3.056 4h17.886A11.97 11.97 0 0 0 12 0a11.97 11.97 0 0 0-8.943 4Z" fill="#000"/><path d="m0 12 12 1.044L24 12c0-1.402-.241-2.749-.684-4H.684A11.977 11.977 0 0 0 0 12Z" fill="#FF0062"/><path d="M.684 16h22.632c.443-1.251.684-2.598.684-4H0c0 1.402.241 2.749.684 4Z" fill="#000"/><path d="M20.942 20H3.056a11.97 11.97 0 0 0 8.943 4 11.97 11.97 0 0 0 8.943-4Z" fill="#FF0062"/><path d="M16.005 12a4.004 4.004 0 1 1-8.009 0 4.004 4.004 0 0 1 8.009 0Z" fill="#fff"/><path d="M13.467 12.204 12 11.57s.343-1.14.361-1.218a.78.78 0 0 0-.209-.73l.37-.37a1.3 1.3 0 0 0-1.845 0l.369.37a.78.78 0 0 0-.196.78l-.555.556h1.01s-.418.627-.646 1.141a1.053 1.053 0 0 0 .53 1.378l.304.135.507.476v.522l-.522.522h1.044v-1.044l.476-.476h.985l.014-.03a1.043 1.043 0 0 0-.53-1.377Z" fill="#000"/></g><defs><clipPath id="a"><path fill="#fff" d="M0 0h24v24H0z"/></clipPath></defs></svg>