<svg width="24" height="24" fill="none" xmlns="http://www.w3.org/2000/svg"><g clip-path="url(#a)"><path d="M12 24c6.627 0 12-5.373 12-12 0-6.628-5.373-12-12-12S0 5.372 0 12c0 6.627 5.373 12 12 12Z" fill="#fff"/><path d="M12 8.87h11.587a11.932 11.932 0 0 0-1.348-3.131H12v3.13ZM4.53 21.391h14.94a12.06 12.06 0 0 0 2.768-3.13H1.761a12.062 12.062 0 0 0 2.769 3.13ZM11.999 0v2.608h7.47A11.949 11.949 0 0 0 11.999 0Z" fill="#338AF3"/><path d="M12 8.87h11.587a11.932 11.932 0 0 0-1.348-3.131H12v3.13ZM0 12c0 1.082.144 2.132.413 3.13h23.174c.269-.998.413-2.048.413-3.13H0Z" fill="#338AF3"/><path d="m10.434 7.022-1.466.69.78 1.419-1.59-.304-.202 1.607-1.109-1.182-1.108 1.182-.202-1.607-1.591.304.78-1.42-1.465-.689 1.465-.69-.78-1.418 1.591.304.202-1.608 1.108 1.183L7.956 3.61l.201 1.608 1.592-.304-.78 1.419 1.465.69Z" fill="#FFD293"/></g><defs><clipPath id="a"><path fill="#fff" d="M0 0h24v24H0z"/></clipPath></defs></svg>