<svg width="24" height="24" fill="none" xmlns="http://www.w3.org/2000/svg"><g clip-path="url(#a)"><path d="M.567 8.348A11.989 11.989 0 0 0 0 12c0 1.274.2 2.5.567 3.652L12 16.174l11.433-.521C23.801 14.5 24 13.273 24 12c0-1.273-.2-2.5-.567-3.652L12 7.826.567 8.348Z" fill="#fff"/><path d="M23.433 8.348 12 7.826.566 8.348c-.108.342-.202.69-.28 1.044h23.428a11.9 11.9 0 0 0-.28-1.044ZM.285 14.608c.079.354.172.702.281 1.044h.002L12 16.173l11.433-.521c.109-.342.203-.69.281-1.044H.285Z" fill="#FF0062"/><path d="M12 24c5.355 0 9.889-3.506 11.434-8.348H.567C2.113 20.494 6.647 24 12.001 24Z" fill="#6DA544"/><path d="M12 0C6.648 0 2.114 3.506.568 8.348h22.867C21.889 3.506 17.354 0 12.001 0Z" fill="#338AF3"/><path d="M5.485 4.957c0-1.124.79-2.063 1.844-2.293a2.348 2.348 0 1 0 0 4.586 2.348 2.348 0 0 1-1.844-2.293ZM8.717 6.024l.16.49h.513l-.416.302.16.489-.417-.302-.416.302.16-.49-.417-.301h.514l.16-.49ZM10.359 6.024l.159.49h.514l-.416.302.159.489-.416-.302-.416.302.159-.49-.416-.301h.514l.159-.49ZM12 6.024l.16.49h.514l-.416.302.159.489L12 7.003l-.417.302.16-.49-.417-.301h.514l.16-.49ZM13.642 6.024l.159.49h.514l-.416.302.16.489-.417-.302-.416.302.159-.49-.416-.301h.514l.16-.49ZM15.284 6.024l.159.49h.514l-.416.302.159.489-.416-.302-.417.302.16-.49-.417-.301h.515l.159-.49ZM10.359 4.317l.159.49h.514l-.416.302.159.489-.416-.303-.416.303.159-.49-.416-.302h.514l.159-.489ZM12 4.317l.16.49h.514l-.416.302.159.489L12 5.295l-.417.303.16-.49-.417-.302h.514l.16-.489ZM13.642 4.317l.159.49h.514l-.416.302.16.489-.417-.303-.416.303.159-.49-.416-.302h.514l.16-.489ZM15.284 4.317l.159.49h.514l-.416.302.159.489-.416-.303-.417.303.16-.49-.417-.302h.515l.159-.489ZM12 2.609l.16.49h.514l-.416.301.159.49L12 3.587l-.417.303.16-.49-.417-.302h.514l.16-.49ZM13.642 2.609l.159.49h.514L13.9 3.4l.16.49-.417-.303-.416.303.159-.49-.416-.302h.514l.16-.49ZM15.284 2.609l.159.49h.514l-.416.301.159.49-.416-.303-.417.303.16-.49-.417-.302h.515l.159-.49Z" fill="#fff"/></g><defs><clipPath id="a"><path fill="#fff" d="M0 0h24v24H0z"/></clipPath></defs></svg>