<svg viewBox="0 0 24 24" fill="none" xmlns="http://www.w3.org/2000/svg"><g clip-path="url(#a)"><path d="M12 0c6.627 0 12 5.373 12 12s-5.373 12-12 12c0-.522-1.565-12-1.565-12L12 0Z" fill="#fff"/><path d="M12 24C5.373 24 0 18.627 0 12S5.373 0 12 0" fill="#FFD293"/><path d="m16.595 10.442 2.255 2.984a1.566 1.566 0 1 0 .833-.63l-3.515-4.649-.832.63-1.25.943 1.26 1.665 1.25-.943Zm3.247 3.43a.522.522 0 1 1 .63.833.522.522 0 0 1-.63-.833Z" fill="#A9B9C0"/><path d="m20.463 11.385 1.259-1.665-1.249-.944-.832-.629-3.515 4.65a1.566 1.566 0 1 0 .832.629l2.256-2.984 1.25.943Zm-4.395 3.218a.522.522 0 1 1-.832-.629.522.522 0 0 1 .832.63Z" fill="#FFD293"/></g><defs><clipPath id="a"><rect fill="#fff"/></clipPath></defs></svg>