<svg fill="none" xmlns="http://www.w3.org/2000/svg" viewBox="0 0 24 24"><g clip-path="url(#a)"><path d="M22.81 17.217A11.952 11.952 0 0 0 24 12c0-1.87-.428-3.64-1.19-5.218L12 5.74 1.19 6.782A11.952 11.952 0 0 0 0 12c0 1.87.428 3.64 1.19 5.217L12 18.261l10.81-1.044Z" fill="#0052B4"/><path d="M12 24a12 12 0 0 0 10.81-6.782H1.191a12 12 0 0 0 10.81 6.783Z" fill="#FF0062"/><path d="m20.782 14.356-.633.495.275.756-.667-.45-.634.495.221-.773-.666-.45.804-.028.221-.773.276.756.803-.028Zm-1.622-2.811-.427.682.517.616-.78-.194-.426.682-.056-.802-.781-.195.746-.301-.056-.803.517.617.745-.302Zm-2.488-2.086-.167.787.697.402-.8.084-.167.787-.328-.735-.8.084.598-.538-.327-.735.697.402.597-.538Zm-3.049-1.11.112.796.792.14-.723.353.112.796-.559-.579-.723.353.378-.71-.559-.579.792.14.378-.71Zm-3.246 0 .377.71.792-.14-.558.579.377.71-.723-.353-.558.579.112-.796-.723-.353.792-.14.112-.796Zm-3.051 1.11.598.538.696-.402-.327.735.598.538-.8-.084-.327.735-.167-.787-.8-.084.696-.402-.167-.787ZM4.84 11.545l.746.301.516-.616-.055.803.745.301-.78.195-.056.802-.426-.682-.781.194.517-.616-.426-.682Zm-1.623 2.811.804.028.275-.756.222.773.803.029-.666.45.221.772-.633-.495-.667.45.275-.756-.634-.495Z" fill="#fff"/><path d="M22.81 6.783A12 12 0 0 0 12 0 12 12 0 0 0 1.192 6.783H22.81Z" fill="#FFD293"/></g><defs><clipPath id="a"><path fill="#fff" d="M0 0h24v24H0z"/></clipPath></defs></svg>