<svg viewBox="0 0 24 24" fill="none" xmlns="http://www.w3.org/2000/svg"><g clip-path="url(#a)"><path d="M12 24c6.627 0 12-5.373 12-12 0-6.628-5.373-12-12-12S0 5.372 0 12c0 6.627 5.373 12 12 12Z" fill="#fff"/><path d="M14.037 8.383a2.038 2.038 0 1 0-4.076 0H5.478c0 1.109.965 2.007 2.073 2.007h-.067c0 1.108.899 2.007 2.007 2.007 0 .981.705 1.796 1.635 1.97l-.005.012h1.756l-.005-.011a2.006 2.006 0 0 0 1.636-1.971 2.007 2.007 0 0 0 2.006-2.007h-.067c1.109 0 2.074-.898 2.074-2.007h-4.484Z" fill="#FFD293"/><path d="M11.104 14.172 9.84 17.025a5.723 5.723 0 0 0 2.16.422 5.72 5.72 0 0 0 2.159-.422l-1.264-2.853h-1.791Z" fill="#FFD293"/><path d="M9.392 9.386v3.51c0 1.997 2.608 2.609 2.608 2.609s2.609-.612 2.609-2.609v-3.51H9.392Z" fill="#fff"/><path d="m2.91 12.085 1.411 3.946 1.396-3.946h1.066l-2.036 5.217h-.852l-2.05-5.217H2.91ZM19.306 17.302v-5.217h1.014v5.217h-1.014Z" fill="#338AF3"/><path d="M10.435 10.52v4.254a4.59 4.59 0 0 0 1.043.561V10.52h-1.043ZM13.565 10.52v4.254a4.593 4.593 0 0 1-1.043.561V10.52h1.043Z" fill="#FF0062"/><path d="M9.392 9.386h5.217v1.655H9.392V9.386Z" fill="#0052B4"/></g><defs><clipPath id="a"><rect fill="#fff"/></clipPath></defs></svg>