<svg fill="none" xmlns="http://www.w3.org/2000/svg" viewBox="0 0 24 24"><g clip-path="url(#a)"><path d="M24 12c0 6.627-5.373 12-12 12S0 18.627 0 12L12 0c6.627 0 12 5.373 12 12Z" fill="#FF0062"/><path d="M12 12V0C5.373 0 0 5.373 0 12h12Z" fill="#0052B4"/><path d="m9.612 7.826.194.598h.629l-.509.37.194.598-.508-.37-.509.37.195-.598-.509-.37h.629l.194-.598ZM6.455 3.13l.324.997h1.048l-.848.616.324.996-.848-.616-.847.616.324-.996-.848-.616h1.048l.323-.997Zm3.131 1.044.324.997h1.048l-.848.615.324.997-.848-.616-.847.616.323-.997-.847-.615h1.047l.324-.997ZM7.112 8.348l.324.996h1.047l-.847.616.323.997-.847-.616-.848.616.324-.997-.848-.616h1.048l.324-.996ZM4.368 5.74l.324.996H5.74l-.848.615.324.997-.848-.616-.847.616.324-.997-.848-.615h1.048l.323-.997Z" fill="#fff"/></g><defs><clipPath id="a"><path fill="#fff" d="M0 0h24v24H0z"/></clipPath></defs></svg>