<svg width="24" height="24" viewBox="0 0 24 24" fill="none" xmlns="http://www.w3.org/2000/svg">
<g clip-path="url(#clip0_2848_8884)">
<path d="M12 23.9998C18.6274 23.9998 24 18.6272 24 11.9998C24 5.37234 18.6274 -0.000244141 12 -0.000244141C5.37259 -0.000244141 0 5.37234 0 11.9998C0 18.6272 5.37259 23.9998 12 23.9998Z" fill="#0052B4"/>
<path d="M5.2705 7.30493L5.52953 8.10218H6.36765L5.68961 8.59479L5.94859 9.3919L5.2705 8.89929L4.59236 9.3919L4.85143 8.59479L4.17334 8.10218H5.01142L5.2705 7.30493Z" fill="white"/>
<path d="M7.87934 6.52222L8.13837 7.31942H8.97649L8.29845 7.81203L8.55743 8.60914L7.87934 8.11653L7.20124 8.60914L7.46027 7.81203L6.78223 7.31942H7.62035L7.87934 6.52222Z" fill="white"/>
<path d="M10.4882 5.73975L10.7473 6.53695H11.5854L10.9073 7.02961L11.1663 7.82672L10.4882 7.33406L9.81013 7.82672L10.0692 7.02961L9.39111 6.53695H10.2292L10.4882 5.73975Z" fill="white"/>
<path d="M18.7285 7.30493L18.4695 8.10218H17.6313L18.3094 8.59479L18.0504 9.3919L18.7285 8.89929L19.4066 9.3919L19.1476 8.59479L19.8257 8.10218H18.9875L18.7285 7.30493Z" fill="white"/>
<path d="M16.1196 6.52222L15.8606 7.31942H15.0225L15.7006 7.81203L15.4415 8.60914L16.1196 8.11653L16.7977 8.60914L16.5387 7.81203L17.2167 7.31942H16.3786L16.1196 6.52222Z" fill="white"/>
<path d="M13.5112 5.73975L13.2522 6.53695H12.4141L13.0921 7.02961L12.8331 7.82672L13.5112 7.33406L14.1893 7.82672L13.9303 7.02961L14.6083 6.53695H13.7702L13.5112 5.73975Z" fill="white"/>
<path d="M14.0863 12.5223L11.9993 9.91357L10.9559 10.4353V11.4788L9.39065 12.5223H8.34717V13.8703C9.87661 14.4897 10.9559 15.9882 10.9559 17.7397H11.9993V16.6962L13.0428 15.6527L14.0863 16.6962L15.1298 15.6527V14.6092L16.1733 13.044L14.0863 12.5223Z" fill="#FFD293"/>
</g>
<defs>
<clipPath id="clip0_2848_8884">
<rect width="24" height="24" fill="white"/>
</clipPath>
</defs>
</svg>
