<svg fill="none" xmlns="http://www.w3.org/2000/svg" viewBox="0 0 24 24"><g clip-path="url(#a)"><path d="M12 24c6.627 0 12-5.373 12-12 0-6.628-5.373-12-12-12S0 5.372 0 12c0 6.627 5.373 12 12 12Z" fill="#fff"/><path d="M3.515 20.485c-4.687-4.686-4.687-12.285 0-16.97l6.92 8.484-6.92 8.486Z" fill="#000"/><path d="M10.435 12 1.592 6.024c-.274.476-.516.974-.724 1.489L5.345 12 .868 16.487c.208.515.45 1.012.723 1.488L10.435 12Z" fill="#FFD293"/><path d="M23.9 10.435H10.434l-6.92-6.92a12.047 12.047 0 0 0-1.923 2.509L7.557 12l-5.965 5.975c.53.92 1.177 1.764 1.923 2.51l6.92-6.92H23.9a12.12 12.12 0 0 0 0-3.13Z" fill="#6DA544"/><path d="M4.694 21.519A11.947 11.947 0 0 0 12 23.999c5.545 0 10.21-3.76 11.587-8.87H11.083l-6.389 6.39Z" fill="#0052B4"/><path d="M23.587 8.87C22.21 3.76 17.545 0 12 0 9.25 0 6.718.925 4.694 2.48l6.39 6.39h12.503Z" fill="#FF0062"/></g><defs><clipPath id="a"><path fill="#fff" d="M0 0h24v24H0z"/></clipPath></defs></svg>