<svg width="24" height="24" fill="none" xmlns="http://www.w3.org/2000/svg"><g clip-path="url(#a)"><path d="M12 24c6.627 0 12-5.373 12-12S18.627 0 12 0 0 5.373 0 12s5.373 12 12 12Z" fill="#fff"/><path d="M22.851 6.872a12.029 12.029 0 0 0-2.447-3.436L12 2.608l-8.405.828-.08.08 3.357 3.356L12 7.028l10.851-.156ZM3.516 20.484c.044.044.088.089.133.132l8.351.775 8.351-.775a12.034 12.034 0 0 0 2.476-3.436l-15.523-.484-3.788 3.788Z" fill="#FFD293"/><path d="M23.88 10.308 9.914 9.913 12 12l-2.087 2.086 13.96-.342a12.086 12.086 0 0 0 .008-3.436Z" fill="#000"/><path d="M12 0a11.96 11.96 0 0 0-8.404 3.436h16.81A11.96 11.96 0 0 0 12 0Z" fill="#6DA544"/><path d="M10.308 10.308h13.573a11.914 11.914 0 0 0-1.03-3.436H6.873l3.436 3.436ZM6.82 17.18h16.007c.511-1.067.87-2.222 1.046-3.436H10.255L6.82 17.18Z" fill="#FF0062"/><path d="M12 24c3.247 0 6.192-1.29 8.352-3.384H3.649A11.959 11.959 0 0 0 12.001 24Z" fill="#6DA544"/><path d="M4.285 2.81c-.267.223-.524.458-.77.704L12 12l-8.485 8.485c.246.246.503.481.77.705l9.19-9.19-9.19-9.19Z" fill="#000"/><path d="m4.825 8.869.777 2.391h2.514l-2.034 1.478.777 2.392-2.034-1.478L2.79 15.13l.777-2.392-2.034-1.478h2.515l.777-2.391Z" fill="#FF0062"/><path d="m6.962 12.195-2.025-.717s-.15-1.404-.159-1.451a.783.783 0 1 0-1.523.353l-.567.572h1.009c0 1.048-.782 1.048-.782 2.091l.434 1.043h2.609l.434-1.043c.044-.1.07-.203.081-.306.375-.152.489-.542.489-.542Z" fill="#FFD293"/></g><defs><clipPath id="a"><path fill="#fff" d="M0 0h24v24H0z"/></clipPath></defs></svg>