<svg fill="none" xmlns="http://www.w3.org/2000/svg" viewBox="0 0 24 24"><g clip-path="url(#a)"><path d="M12 24c6.627 0 12-5.373 12-12 0-6.628-5.373-12-12-12S0 5.372 0 12c0 6.627 5.373 12 12 12Z" fill="#fff"/><path d="M12 0C9.592 0 7.35.71 5.47 1.93L8.557 4 4.696 6l3.86 2-3.86 2 3.86 2-3.86 1.999 3.86 2-3.86 2 3.86 2-3.086 2.07a11.942 11.942 0 0 0 6.53 1.93c6.627 0 12-5.372 12-12 0-6.627-5.373-12-12-12Z" fill="#FF0062"/></g><defs><clipPath id="a"><path fill="#fff" d="M0 0h24v24H0z"/></clipPath></defs></svg>