<svg fill="none" xmlns="http://www.w3.org/2000/svg" viewBox="0 0 24 24"><g clip-path="url(#a)"><path d="M22.667 6.498a11.992 11.992 0 0 0-2.182-2.984c-.9-.9-1.909-1.627-2.983-2.181L9.048 9.048l-7.716 8.454a11.993 11.993 0 0 0 2.182 2.984c.9.9 1.91 1.627 2.983 2.181l8.454-7.716 7.716-8.453Z" fill="#FFD293"/><path d="M3.514 20.486c.504.504 1.04.953 1.604 1.348L21.833 5.119a12.067 12.067 0 0 0-2.951-2.952L2.167 18.882c.395.564.844 1.1 1.347 1.604Z" fill="#FF0062"/><path d="M3.515 3.514C-.271 7.3-.998 12.986 1.333 17.502l16.17-16.17C12.986-.997 7.3-.27 3.515 3.515Zm16.971 16.972C24.273 16.7 25 11.014 22.668 6.498l-16.17 16.17c4.517 2.33 10.203 1.604 13.988-2.182Z" fill="#338AF3"/><path d="m6.396 3.652.647 1.993H9.14L7.443 6.877l.648 1.992-1.695-1.231L4.7 8.869l.648-1.992-1.695-1.232h2.095l.648-1.993Z" fill="#FFD293"/></g><defs><clipPath id="a"><path fill="#fff" d="M0 0h24v24H0z"/></clipPath></defs></svg>