<svg fill="none" xmlns="http://www.w3.org/2000/svg" viewBox="0 0 24 24"><g clip-path="url(#a)"><path d="M10.956 10.955s-7.435 9.53-7.442 9.53A11.962 11.962 0 0 0 12 23.998c6.627 0 12-5.373 12-12l-13.044-1.044Z" fill="#338AF3"/><path d="M10.956 12S3.521 3.513 3.514 3.514A11.962 11.962 0 0 1 12 0c6.627 0 12 5.372 12 12H10.956Z" fill="#6DA544"/><path d="M3.515 3.514c-4.687 4.686-4.687 12.285 0 16.97C3.515 20.488 24 12 24 12L3.515 3.514Z" fill="#FF0062"/><path d="M6.26 7.042a4.179 4.179 0 0 0-4.174 4.174v1.566a4.179 4.179 0 0 0 4.174 4.174 4.179 4.179 0 0 0 4.174-4.174v-1.566A4.179 4.179 0 0 0 6.26 7.042Zm2.609 5.74a2.613 2.613 0 0 1-1.826 2.488v-1.706l1.107-1.107-1.107-1.107v-.916H5.477v1.565l-1.106 1.107 1.106 1.106v1.058a2.613 2.613 0 0 1-1.826-2.488v-1.566a2.612 2.612 0 0 1 2.61-2.608 2.612 2.612 0 0 1 2.608 2.608v1.566Z" fill="#FFD293"/></g><defs><clipPath id="a"><path fill="#fff" d="M0 0h24v24H0z"/></clipPath></defs></svg>