<svg fill="none" xmlns="http://www.w3.org/2000/svg" viewBox="0 0 24 24"><g clip-path="url(#a)"><path d="M24 12c0 6.627-5.373 12-12 12S0 18.627 0 12 12 0 12 0s12 5.373 12 12Z" fill="#A2001D"/><path d="M0 12C0 5.373 5.373 0 12 0s12 5.373 12 12" fill="#0052B4"/><path d="m16.173 15.13-4.174-.521-4.174.522V8.87h8.348v6.26Z" fill="#fff"/><path d="M12 14.608a2.087 2.087 0 1 0 0-4.174 2.087 2.087 0 0 0 0 4.174Z" fill="#0052B4"/><path d="M12 13.565a1.043 1.043 0 1 0-.001-2.087 1.043 1.043 0 0 0 0 2.087Z" fill="#A2001D"/><path d="M10.434 9.913h3.13L12 11.478l-1.565-1.565Z" fill="#6DA544"/><path d="M11.477 10.956h1.043v3.13h-1.043v-3.13Z" fill="#FFD293"/><path d="M13.669 13.774h-3.34L7.825 15.13h8.348l-2.504-1.357Z" fill="#6DA544"/></g><defs><clipPath id="a"><path fill="#fff" d="M0 0h24v24H0z"/></clipPath></defs></svg>