<svg fill="none" xmlns="http://www.w3.org/2000/svg" viewBox="0 0 24 24"><g clip-path="url(#a)"><path d="M12 24c6.627 0 12-5.373 12-12 0-6.628-5.373-12-12-12S0 5.372 0 12c0 6.627 5.373 12 12 12Z" fill="#fff"/><path d="M16.518 9.392h-3.012L12 6.783l-1.506 2.609H7.48L8.988 12 7.48 14.61h3.013L12 17.218l1.506-2.609h3.012L15.012 12l1.506-2.608ZM13.85 12l-.925 1.603h-1.85L10.15 12l.925-1.602h1.85L13.85 12ZM12 8.795l.344.597h-.688L12 8.795Zm-2.776 1.603h.689l-.344.596-.345-.596Zm0 3.205.345-.596.344.596h-.689ZM12 15.206l-.344-.597h.688l-.344.597Zm2.775-1.603h-.688l.344-.596.345.596Zm-.688-3.205h.688l-.344.596-.344-.596Zm5.383-7.789H4.53a12.06 12.06 0 0 0-2.77 3.13h20.478a12.064 12.064 0 0 0-2.769-3.13ZM4.53 21.391h14.94a12.062 12.062 0 0 0 2.768-3.13H1.761a12.064 12.064 0 0 0 2.769 3.13Z" fill="#0052B4"/></g><defs><clipPath id="a"><path fill="#fff" d="M0 0h24v24H0z"/></clipPath></defs></svg>