<svg fill="none" xmlns="http://www.w3.org/2000/svg" viewBox="0 0 24 24"><g clip-path="url(#a)"><path d="M12 24c6.627 0 12-5.373 12-12 0-6.628-5.373-12-12-12S0 5.372 0 12c0 6.627 5.373 12 12 12Z" fill="#fff"/><path d="M16.174 12c0 1.043-1.869 3.652-4.174 3.652-2.305 0-4.174-2.609-4.174-3.652a4.174 4.174 0 1 1 8.348 0Z" fill="#FF0062"/><path d="M16.174 12a4.174 4.174 0 0 1-8.348 0" fill="#0052B4"/><path d="m16.425 15.69 1.106-1.107.738.737-1.106 1.107-.738-.738Zm-1.845 1.844 1.106-1.107.737.738-1.106 1.107-.738-.738Zm4.057.368 1.106-1.107.738.738-1.107 1.107-.737-.738Zm-1.844 1.845L17.9 18.64l.737.738-1.106 1.107-.738-.738Zm.737-2.951 1.107-1.107.738.738-1.107 1.107-.738-.738Zm-1.843 1.844 1.106-1.106.738.738-1.107 1.106-.737-.737Zm2.956-10.328-2.951-2.95.737-.738 2.951 2.95-.737.738Zm-2.952-.737-1.106-1.107.737-.738 1.107 1.107-.738.738Zm1.844 1.845L16.43 8.312l.737-.738 1.107 1.107-.738.737Zm.368-4.058-1.106-1.107.738-.738 1.106 1.107-.738.738Zm1.846 1.844-1.107-1.107.738-.738 1.107 1.107-.738.738ZM4.254 16.794l2.95 2.95-.737.738-2.95-2.95.737-.738Zm2.951.737 1.107 1.107-.738.737-1.107-1.106.738-.738ZM5.36 15.687l1.107 1.106-.738.738-1.106-1.107.737-.737Zm1.107-1.107 2.95 2.95-.737.738-2.95-2.95.737-.738Zm.737-10.327-2.95 2.95-.739-.737 2.951-2.951.738.738ZM8.312 5.36 5.36 8.31l-.738-.737 2.95-2.951.739.737ZM9.42 6.466 6.469 9.417l-.738-.738 2.951-2.95.738.737Z" fill="#000"/></g><defs><clipPath id="a"><path fill="#fff" d="M0 0h24v24H0z"/></clipPath></defs></svg>