<svg fill="none" xmlns="http://www.w3.org/2000/svg" viewBox="0 0 24 24"><g clip-path="url(#a)"><path d="M12 24c6.627 0 12-5.373 12-12S18.627 0 12 0 0 5.373 0 12s5.373 12 12 12Z" fill="#fff"/><path d="M12 0A12 12 0 0 0 1.19 6.783h21.62A12 12 0 0 0 12 0Zm0 24a12 12 0 0 0 10.81-6.782H1.19A12 12 0 0 0 12 24.001Z" fill="#FF0062"/><path d="M15.13 14.088 12 8.348l-3.13 5.74h2.347v1.565h1.565v-1.565h2.348Z" fill="#6DA544"/></g><defs><clipPath id="a"><path fill="#fff" d="M0 0h24v24H0z"/></clipPath></defs></svg>