<svg fill="none" xmlns="http://www.w3.org/2000/svg" viewBox="0 0 24 24"><g clip-path="url(#a)"><path d="M1.19 6.782A11.952 11.952 0 0 0 0 12c0 1.87.428 3.64 1.19 5.217L12 18.261l10.81-1.044A11.953 11.953 0 0 0 24 12c0-1.87-.428-3.64-1.19-5.218L12 5.74 1.19 6.782Z" fill="#000"/><path d="M1.19 17.218A12 12 0 0 0 12 24a12 12 0 0 0 10.809-6.782H1.19Z" fill="#496E2D"/><path d="M1.19 6.783h21.62A12 12 0 0 0 11.999 0 12 12 0 0 0 1.192 6.783Z" fill="#FF0062"/><path d="m14.793 9.805.985 1.357 1.594-.517-.986 1.356.984 1.357-1.594-.52-.986 1.356.001-1.676-1.594-.52 1.595-.516V9.805Z" fill="#fff"/><path d="M12.106 15.392a3.391 3.391 0 1 1 1.613-6.375 4.174 4.174 0 1 0 0 5.967c-.48.26-1.03.408-1.613.408Z" fill="#fff"/></g><defs><clipPath id="a"><path fill="#fff" d="M0 0h24v24H0z"/></clipPath></defs></svg>