<svg fill="none" xmlns="http://www.w3.org/2000/svg" viewBox="0 0 24 24"><g clip-path="url(#a)"><path d="M24 12c0 6.628-5.373 12-12 12S0 18.628 0 12C0 12.003 12 .002 12 0c6.627 0 12 5.373 12 12Z" fill="#0052B4"/><path d="M11.968 12.004h.035v-.036l-.035.036ZM12 6.261V.001h-.002C5.372 0 0 5.372 0 12h6.26V8.474L9.787 12h2.182l.032-.032V9.787L8.474 6.26H12Z" fill="#fff"/><path d="M6.07 1.565A12.057 12.057 0 0 0 1.566 6.07V12h3.13V4.695H12v-3.13H6.07Z" fill="#FF0062"/><path d="M12 10.524 7.736 6.26H6.261L12 12v-1.476Zm8.781-1.62.26.797h.837l-.678.493.26.797-.679-.493-.678.493.26-.797-.679-.493h.838l.26-.797Zm-2.996 5.739.388 1.196h1.257l-1.017.739.389 1.195-1.017-.738-1.018.738.389-1.195-1.017-.74h1.257l.389-1.195Zm.113-9.392.324.996h1.047l-.847.616.323.997-.847-.616-.848.616.324-.997-.848-.616h1.048l.324-.996ZM15.015 8.87l.388 1.195h1.258l-1.018.74.39 1.195-1.018-.739-1.017.74.388-1.197-1.017-.739h1.257l.389-1.195Z" fill="#FF0062"/></g><defs><clipPath id="a"><path fill="#fff" d="M0 0h24v24H0z"/></clipPath></defs></svg>