<svg fill="none" xmlns="http://www.w3.org/2000/svg" viewBox="0 0 24 24"><g clip-path="url(#a)"><path d="M12 24c6.627 0 12-5.373 12-12S18.627 0 12 0 0 5.373 0 12s5.373 12 12 12Z" fill="#fff"/><path d="M12 0v12l-8.485 8.485A11.962 11.962 0 0 0 12 24c6.627 0 12-5.373 12-12S12 0 12 0Z" fill="#FF0062"/><path d="M12 0a11.963 11.963 0 0 0-8.485 3.515L12 12h12c0-6.627-5.373-12-12-12Z" fill="#0052B4"/><path d="m8.216 12-1.465-.69.78-1.42-1.591.305-.202-1.607L4.63 9.77 3.52 8.588l-.202 1.607-1.59-.304.78 1.42-1.466.688 1.466.69-.78 1.42 1.59-.305.202 1.607 1.11-1.181 1.108 1.182.202-1.607 1.591.304-.78-1.42L8.216 12ZM3.2 4.695l.488.682.799-.253-.498.674.487.682-.795-.265-.497.675.006-.839-.795-.264.799-.254.006-.838Zm0 12.415.488.681.799-.253-.498.674.487.682-.795-.265-.497.675.006-.838-.795-.265.799-.253.006-.839Zm6.956-6.208-.487.682-.8-.253.498.674-.487.682.795-.265.498.675-.007-.838.796-.266-.8-.252-.006-.839Z" fill="#FFD293"/></g><defs><clipPath id="a"><path fill="#fff" d="M0 0h24v24H0z"/></clipPath></defs></svg>