<svg fill="none" xmlns="http://www.w3.org/2000/svg" viewBox="0 0 24 24"><g clip-path="url(#a)"><path d="M12 24c6.627 0 12-5.373 12-12 0-6.628-5.373-12-12-12S0 5.372 0 12c0 6.627 5.373 12 12 12Z" fill="#6DA544"/><path d="M6.782 14.347c0 .864.701 1.565 1.565 1.565h4.696c0 .72.584 1.304 1.304 1.304h1.566c.72 0 1.304-.584 1.304-1.304v-1.565H6.782Zm10.566-7.565v3.652c0 .575-.468 1.043-1.043 1.043v1.566a2.612 2.612 0 0 0 2.608-2.61v-3.65h-1.565ZM6.13 10.434c0 .575-.468 1.043-1.043 1.043v1.566a2.612 2.612 0 0 0 2.609-2.61v-3.65H6.13v3.652Z" fill="#fff"/><path d="M15.001 6.782h1.565v3.652h-1.565V6.782Zm-2.349 2.087a.261.261 0 0 1-.521 0V6.782h-1.566v2.087a.261.261 0 0 1-.521 0V6.782H8.479v2.087c0 1.007.819 1.826 1.826 1.826.387 0 .747-.122 1.043-.33a1.815 1.815 0 0 0 1.274.315c-.11.457-.522.797-1.013.797v1.566a2.612 2.612 0 0 0 2.609-2.61v-3.65h-1.566V8.87Z" fill="#fff"/><path d="M8.479 11.477h2.347v1.566H8.48v-1.566Z" fill="#fff"/></g><defs><clipPath id="a"><path fill="#fff" d="M0 0h24v24H0z"/></clipPath></defs></svg>