<svg fill="none" xmlns="http://www.w3.org/2000/svg" viewBox="0 0 24 24"><g clip-path="url(#a)"><path d="M12 24c6.627 0 12-5.373 12-12S18.627 0 12 0 0 5.373 0 12s5.373 12 12 12Z" fill="#fff"/><path d="M20.1 3.147A11.956 11.956 0 0 0 12 0c-.511 0-1.015.032-1.509.094L4.696 6.782.38 15.006a11.926 11.926 0 0 0 1.255 3.043L12 11.999l8.1-8.852Z" fill="#FFD293"/><path d="m21.991 18.648-16.789 3.24a11.943 11.943 0 0 0 6.799 2.111c4.168 0 7.84-2.125 9.99-5.351Z" fill="#6DA544"/><path d="M20.103 3.148 1.643 18.061a12.044 12.044 0 0 0 1.719 2.267L24.001 12a11.97 11.97 0 0 0-3.898-8.852Z" fill="#FF0062"/><path d="M0 12c0 1.038.132 2.045.38 3.006L10.49.094C4.577.836 0 5.884 0 11.999Z" fill="#0052B4"/></g><defs><clipPath id="a"><path fill="#fff" d="M0 0h24v24H0z"/></clipPath></defs></svg>