<svg fill="none" xmlns="http://www.w3.org/2000/svg" viewBox="0 0 24 24"><g clip-path="url(#a)"><path d="M12 24c6.627 0 12-5.373 12-12 0-6.628-5.373-12-12-12S0 5.372 0 12c0 6.627 5.373 12 12 12Z" fill="#fff"/><path d="M23.254 7.826h-12.82v-3.13h-6.26v3.13H.746A11.974 11.974 0 0 0 0 12c0 1.468.264 2.874.746 4.174L12 17.218l11.254-1.044c.482-1.3.746-2.706.746-4.174 0-1.468-.264-2.874-.746-4.174Z" fill="#0052B4"/><path d="M12 24c5.16 0 9.559-3.257 11.254-7.827H.747C2.443 20.743 6.841 24 12.001 24Z" fill="#FF0062"/><path d="M4.174 7.826V8.87c0 2.396 3.13 3.13 3.13 3.13s3.13-.734 3.13-3.13V7.826L9.392 8.87 7.304 7.304 5.217 8.87 4.174 7.826Z" fill="#fff"/></g><defs><clipPath id="a"><path fill="#fff" d="M0 0h24v24H0z"/></clipPath></defs></svg>