<svg fill="none" xmlns="http://www.w3.org/2000/svg" viewBox="0 0 24 24"><g clip-path="url(#a)"><path d="M12 24c6.627 0 12-5.372 12-12 0-6.627-5.373-12-12-12S0 5.373 0 12c0 6.628 5.373 12 12 12Z" fill="#fff"/><path d="M12 24c6.627 0 12-5.373 12-12 0-1.468-.264-2.874-.746-4.174H.746A11.974 11.974 0 0 0 0 12c0 6.627 5.373 12 12 12Z" fill="#0052B4"/><path d="M12 24c5.16 0 9.558-3.257 11.253-7.827H.746C2.442 20.743 6.84 24 12 24Z" fill="#FF0062"/><path d="M3.103 6.782v5.987c0 3.405 4.448 4.448 4.448 4.448s4.448-1.043 4.448-4.448V6.782H3.103Z" fill="#fff"/><path d="M4.146 6.782v5.987c0 .4.09.777.265 1.13h6.28a2.51 2.51 0 0 0 .265-1.13V6.782h-6.81Z" fill="#FF0062"/><path d="M9.638 10.956H8.073V9.913h1.043V8.869H8.073V7.826H7.029v1.043H5.986v1.044h1.043v1.043H5.464V12h1.565v1.043h1.044V12h1.565v-1.044Z" fill="#fff"/><path d="M5.834 15.357a7.5 7.5 0 0 0 1.717.777 7.496 7.496 0 0 0 1.717-.777c.678-.426 1.154-.914 1.424-1.457a1.817 1.817 0 0 0-1.469-.287 1.826 1.826 0 0 0-3.343 0 1.827 1.827 0 0 0-1.469.287c.27.543.745 1.03 1.423 1.457Z" fill="#0052B4"/></g><defs><clipPath id="a"><path fill="#fff" d="M0 0h24v24H0z"/></clipPath></defs></svg>