<svg fill="none" xmlns="http://www.w3.org/2000/svg" viewBox="0 0 24 24"><g clip-path="url(#a)"><path d="M12 24c6.627 0 12-5.373 12-12S18.627 0 12 0 0 5.373 0 12s5.373 12 12 12Z" fill="#FFD293"/><path d="M19.304 5.74a8.001 8.001 0 0 0-.156 1.617 7.855 7.855 0 0 0 4.591 7.138c.17-.805.261-1.64.261-2.495 0-6.627-5.373-12-12-12S0 5.373 0 12s5.373 12 12 12c4.11 0 7.737-2.067 9.9-5.217H6.783v-1.566h16.026c.164-.339.313-.687.445-1.043H6.783L19.304 5.739Z" fill="#0052B4"/><path d="m8.816 6.26.259.798h.838l-.678.493.26.797-.679-.493-.678.493.259-.797-.678-.493h.838l.259-.797ZM5.412 12l.324.996h1.048l-.848.616.324.997-.848-.616-.847.616.324-.997-.848-.616h1.048L5.412 12Zm0-8.348.324.996h1.048l-.848.616.324.997-.848-.616-.847.616.324-.997-.848-.616h1.048l.323-.996ZM2.803 8.347l.324.997h1.047l-.847.616.324.996-.848-.616-.848.616.324-.996-.847-.616h1.047l.324-.997Z" fill="#fff"/></g><defs><clipPath id="a"><path fill="#fff" d="M0 0h24v24H0z"/></clipPath></defs></svg>