<svg fill="none" xmlns="http://www.w3.org/2000/svg" viewBox="0 0 24 24"><g clip-path="url(#a)"><path d="M6.498 1.332a11.993 11.993 0 0 0-2.983 2.182c-.9.9-1.628 1.909-2.182 2.983l7.716 8.454 8.454 7.716a11.992 11.992 0 0 0 2.983-2.182c.9-.9 1.627-1.91 2.182-2.983l-7.716-8.454-8.454-7.716Z" fill="#fff"/><path d="M20.486 20.486a12.1 12.1 0 0 0 1.348-1.604L5.119 2.167a12.068 12.068 0 0 0-2.952 2.952l16.715 16.714a12.06 12.06 0 0 0 1.604-1.347Z" fill="#000"/><path d="M3.514 20.485c3.786 3.786 9.472 4.513 13.988 2.182L1.332 6.497C-.997 11.014-.27 16.7 3.515 20.485ZM20.485 3.514C16.7-.272 11.013-.998 6.497 1.332l16.17 16.17c2.33-4.516 1.604-10.202-2.182-13.988Z" fill="#FF0062"/></g><defs><clipPath id="a"><path fill="#fff" d="M0 0h24v24H0z"/></clipPath></defs></svg>