<svg fill="none" xmlns="http://www.w3.org/2000/svg" viewBox="0 0 24 24"><g clip-path="url(#a)"><path d="M12 24c6.627 0 12-5.373 12-12S18.627 0 12 0 0 5.373 0 12s5.373 12 12 12Z" fill="#fff"/><path d="M5.559 1.874h1.093l-1.017.739.389 1.196-1.018-.74-1.017.74.336-1.033c-.896.746-1.68 1.62-2.328 2.594h.35l-.647.47c-.1.168-.197.34-.29.513l.31.951-.578-.419C1 7.19.868 7.5.75 7.817l.34 1.048h1.258l-1.017.74.388 1.195-1.017-.739-.61.443C.033 10.994 0 11.494 0 12h12V0C9.63 0 7.42.688 5.559 1.874Zm.465 8.926-1.018-.739-1.017.739.389-1.196-1.017-.739h1.257l.388-1.195.389 1.195h1.257l-1.017.74.389 1.195Zm-.389-4.691.389 1.195-1.018-.739-1.017.74.389-1.196-1.017-.74h1.257l.388-1.195.389 1.196h1.257l-1.017.739Zm4.693 4.691-1.017-.739-1.017.739.388-1.196-1.017-.739h1.257l.389-1.195.388 1.195h1.258l-1.018.74.389 1.195Zm-.389-4.691.389 1.195-1.017-.739-1.017.74.388-1.196-1.017-.74h1.257l.389-1.195.388 1.196h1.258l-1.018.739Zm0-3.496.389 1.196-1.017-.74-1.017.74.388-1.196-1.017-.739h1.257L9.311.678l.388 1.196h1.258l-1.018.739Z" fill="#0052B4"/><path d="M11.477 12H24c0-1.082-.144-2.132-.413-3.13H11.478V12Zm0-6.26h10.761a12.063 12.063 0 0 0-2.769-3.131h-7.992v3.13ZM12 24c2.824 0 5.42-.976 7.47-2.609H4.53A11.949 11.949 0 0 0 12 24ZM1.761 18.262h20.477a11.926 11.926 0 0 0 1.348-3.13H.413c.3 1.115.758 2.167 1.348 3.13Z" fill="#FF0062"/></g><defs><clipPath id="a"><path fill="#fff" d="M0 0h24v24H0z"/></clipPath></defs></svg>