<svg viewBox="0 0 24 24" fill="none" xmlns="http://www.w3.org/2000/svg"><g clip-path="url(#a)"><path d="M12 24c6.627 0 12-5.373 12-12 0-6.628-5.373-12-12-12S0 5.372 0 12c0 6.627 5.373 12 12 12Z" fill="#0052B4"/><path d="m5.27 7.305.26.797h.838l-.678.493.259.797-.678-.493-.679.493.26-.797-.679-.493h.838l.26-.797ZM7.88 6.522l.258.797h.838l-.678.493.26.797-.679-.492-.678.492.26-.797-.679-.493h.838l.26-.797ZM10.488 5.74l.26.797h.837l-.678.493.26.797-.679-.493-.678.493.26-.797-.679-.493h.838l.26-.797ZM18.729 7.305l-.26.797h-.838l.678.493-.259.797.678-.493.679.493-.26-.797.679-.493h-.838l-.26-.797ZM16.12 6.522l-.26.797h-.837l.678.493-.26.797.679-.492.678.492-.26-.797.679-.493h-.838l-.26-.797ZM13.511 5.74l-.259.797h-.838l.678.493-.259.797.678-.493.678.493-.259-.797.678-.493h-.838l-.259-.797Z" fill="#fff"/><path d="M14.086 12.522 12 9.914l-1.043.521v1.044L9.39 12.522H8.347v1.348a4.174 4.174 0 0 1 2.609 3.87h1.043v-1.044l1.044-1.043 1.043 1.043 1.044-1.043v-1.044l1.043-1.565-2.087-.522Z" fill="#FFD293"/></g><defs><clipPath id="a"><rect fill="#fff"/></clipPath></defs></svg>