<svg fill="none" xmlns="http://www.w3.org/2000/svg" viewBox="0 0 24 24"><g clip-path="url(#a)"><path d="M12 24c6.627 0 12-5.373 12-12S18.627 0 12 0 0 5.373 0 12s5.373 12 12 12Z" fill="#496E2D"/><path d="M16.696 12H12v12c1.403 0 2.749-.241 4-.683L16.696 12Z" fill="#FF0062"/><path d="M20 20.944A11.97 11.97 0 0 0 24 12h-4.696l.695 8.944Z" fill="#FF9811"/><path d="M16 12v11.317a11.993 11.993 0 0 0 4-2.373V12h-4Z" fill="#000"/><path d="M22.174 7.826h-3.13a1.044 1.044 0 0 0-2.087 0h-3.13c0 .577.501 1.044 1.077 1.044h-.034c0 .576.467 1.043 1.043 1.043 0 .576.467 1.044 1.044 1.044h2.087c.576 0 1.043-.468 1.043-1.044.576 0 1.044-.467 1.044-1.043h-.035c.576 0 1.078-.468 1.078-1.044Z" fill="#FF9811"/></g><defs><clipPath id="a"><path fill="#fff" d="M0 0h24v24H0z"/></clipPath></defs></svg>