<svg width="170" height="42" viewBox="15 19 140 30" fill="none" xmlns="http://www.w3.org/2000/svg">
<path d="M72.7854 41.1414C72.7366 41.125 72.6839 41.1243 72.6347 41.1395C72.5855 41.1547 72.5423 41.1849 72.5113 41.226C71.8606 42.1212 70.9036 42.5248 69.175 42.5248C67.1824 42.5248 65.7398 41.4943 65.2245 39.4331H77.1175C77.181 39.433 77.2421 39.4083 77.2879 39.3644C77.3338 39.3204 77.3609 39.2605 77.3637 39.1971C77.3866 38.7105 77.3866 38.455 77.3866 37.8873C77.3866 33.0771 74.0199 29.4346 69.1412 29.4346C64.2625 29.4346 60.8264 33.0771 60.8264 37.8873C60.8264 42.7313 64.1593 46.3383 69.2783 46.3383C72.0028 46.3383 74.877 45.2383 76.301 42.595C76.3183 42.5631 76.3284 42.5277 76.3306 42.4914C76.3327 42.4551 76.3269 42.4188 76.3135 42.385C76.3001 42.3512 76.2795 42.3208 76.2531 42.2958C76.2266 42.2708 76.1951 42.252 76.1606 42.2405L72.7854 41.1414ZM65.1898 36.2746C65.6366 34.4884 67.0792 33.2852 69.1412 33.2852C71.0991 33.2852 72.7482 34.5223 73.0579 36.2746H65.1898Z" fill="#FF0062"/>
<path d="M90.6343 41.1414C90.5855 41.125 90.5328 41.1243 90.4836 41.1395C90.4344 41.1547 90.3912 41.1849 90.3601 41.226C89.7095 42.1212 88.7525 42.5248 87.0239 42.5248C85.0313 42.5248 83.5887 41.4943 83.0726 39.4331H94.9664C95.0299 39.433 95.0909 39.4083 95.1368 39.3644C95.1826 39.3204 95.2098 39.2605 95.2126 39.1971C95.2355 38.7105 95.2355 38.455 95.2355 37.8873C95.2355 33.0771 91.8679 29.4346 86.9892 29.4346C82.1105 29.4346 78.6753 33.0771 78.6753 37.8873C78.6753 42.7313 82.0081 46.3383 87.1271 46.3383C89.8516 46.3383 92.725 45.2383 94.1499 42.595C94.1672 42.5631 94.1773 42.5277 94.1794 42.4914C94.1816 42.4551 94.1758 42.4188 94.1624 42.385C94.149 42.3512 94.1284 42.3208 94.1019 42.2958C94.0755 42.2708 94.0439 42.252 94.0094 42.2405L90.6343 41.1414ZM83.0387 36.2746C83.4855 34.4884 84.9281 33.2852 86.9892 33.2852C88.948 33.2852 90.5971 34.5223 90.9067 36.2746H83.0387Z" fill="#FF0062"/>
<path d="M35.0519 29.8154H30.8044C30.668 29.8154 30.5574 29.926 30.5574 30.0625V45.7165C30.5574 45.8529 30.668 45.9635 30.8044 45.9635H35.0519C35.1884 45.9635 35.299 45.8529 35.299 45.7165V30.0625C35.299 29.926 35.1884 29.8154 35.0519 29.8154Z" fill="#FF0062"/>
<path d="M32.9283 21.6733C31.3139 21.6733 29.9736 22.9425 29.9736 24.5586C29.9736 26.1391 31.3139 27.3762 32.9283 27.3762C34.5427 27.3762 35.8829 26.1391 35.8829 24.5586C35.8829 22.9442 34.5435 21.6733 32.9283 21.6733Z" fill="#FF0062"/>
<path d="M59.9267 29.8153H55.4321V24.5652C55.4321 24.4996 55.4061 24.4368 55.3598 24.3905C55.3134 24.3441 55.2506 24.3181 55.1851 24.3181H50.9359C50.8704 24.3181 50.8075 24.3441 50.7612 24.3905C50.7148 24.4368 50.6888 24.4996 50.6888 24.5652V29.8153H44.6433V28.9912C44.6433 27.2389 45.5368 26.2422 47.5988 26.2422C47.8442 26.2422 48.0904 26.2599 48.3239 26.2828C48.3582 26.2861 48.3927 26.2822 48.4254 26.2714C48.458 26.2605 48.488 26.243 48.5135 26.2199C48.539 26.1968 48.5594 26.1687 48.5734 26.1372C48.5873 26.1058 48.5946 26.0718 48.5947 26.0374V22.7376C48.5945 22.6799 48.5742 22.6241 48.5373 22.5797C48.5004 22.5354 48.4492 22.5054 48.3925 22.4947C47.644 22.3482 46.884 22.2689 46.1215 22.2578C42.5137 22.2578 39.9025 24.4222 39.9025 29.196V29.8145H36.9885C36.923 29.8145 36.8602 29.8405 36.8138 29.8868C36.7675 29.9332 36.7415 29.996 36.7415 30.0615V33.2768C36.7415 33.3423 36.7675 33.4051 36.8138 33.4515C36.8602 33.4978 36.923 33.5238 36.9885 33.5238H39.9025V45.7164C39.9024 45.7488 39.9087 45.7809 39.921 45.8108C39.9334 45.8408 39.9515 45.8681 39.9744 45.891C39.9972 45.914 40.0244 45.9322 40.0543 45.9446C40.0843 45.957 40.1164 45.9634 40.1488 45.9634H44.3971C44.4295 45.9634 44.4616 45.957 44.4915 45.9446C44.5215 45.9322 44.5486 45.914 44.5715 45.891C44.5944 45.8681 44.6125 45.8408 44.6248 45.8108C44.6372 45.7809 44.6434 45.7488 44.6433 45.7164V33.5264H50.6905V39.6074C50.6905 43.9708 53.1984 46.2384 56.978 46.2384C57.8353 46.2378 58.6882 46.1159 59.5113 45.8763C59.5633 45.862 59.6093 45.831 59.642 45.788C59.6747 45.745 59.6924 45.6925 59.6923 45.6385V42.271C59.6922 42.238 59.6855 42.2054 59.6727 42.1751C59.6598 42.1448 59.6409 42.1173 59.6173 42.0944C59.5936 42.0714 59.5656 42.0535 59.5349 42.0415C59.5042 42.0295 59.4714 42.0239 59.4385 42.0248C58.9215 42.0468 58.4646 42.0468 58.2878 42.0468C56.1234 42.0468 55.4364 40.9815 55.4364 38.9542V33.5264H59.9309C59.9633 33.5264 59.9954 33.52 60.0254 33.5076C60.0553 33.4951 60.0825 33.4769 60.1053 33.454C60.1282 33.431 60.1463 33.4038 60.1587 33.3738C60.171 33.3438 60.1773 33.3117 60.1772 33.2793V30.0641C60.1775 30.0312 60.1712 29.9985 60.1588 29.9681C60.1463 29.9376 60.1278 29.91 60.1045 29.8868C60.0811 29.8636 60.0534 29.8453 60.0228 29.8331C59.9923 29.8208 59.9596 29.8147 59.9267 29.8153Z" fill="#FF0062"/>
<path d="M104.471 29.437C99.4551 29.4717 96.7407 32.5676 96.7407 36.9277V45.7679C96.7407 45.8197 96.7613 45.8694 96.798 45.9061C96.8346 45.9427 96.8843 45.9633 96.9362 45.9633H101.286C101.338 45.9633 101.388 45.9427 101.424 45.9061C101.461 45.8694 101.482 45.8197 101.482 45.7679V37.2712C101.482 35.0036 102.478 33.5948 104.471 33.5601C106.463 33.5948 107.46 35.0036 107.46 37.2712V45.7679C107.46 45.8197 107.481 45.8694 107.517 45.9061C107.554 45.9427 107.604 45.9633 107.656 45.9633H112.005C112.057 45.9633 112.107 45.9427 112.144 45.9061C112.18 45.8694 112.201 45.8197 112.201 45.7679V36.9277C112.201 32.5617 109.487 29.4717 104.471 29.437Z" fill="#FF0062"/>
<path d="M28.8407 29.8152H24.4832V28.9911C24.4832 27.2388 25.3767 26.242 27.4378 26.242C27.7043 26.242 27.97 26.2632 28.2196 26.2877C28.2468 26.2905 28.2743 26.2874 28.3002 26.2789C28.3261 26.2704 28.35 26.2565 28.3703 26.2381C28.3905 26.2198 28.4067 26.1974 28.4178 26.1724C28.4288 26.1475 28.4345 26.1204 28.4345 26.0931V22.6943C28.4345 22.6484 28.4184 22.604 28.389 22.5688C28.3597 22.5335 28.3189 22.5097 28.2738 22.5014C27.5117 22.3501 26.7374 22.2682 25.9605 22.2568C22.3535 22.2568 19.7424 24.4212 19.7424 29.195V29.8135H16.8275C16.7951 29.8135 16.763 29.8199 16.7331 29.8323C16.7032 29.8447 16.676 29.863 16.6531 29.8859C16.6302 29.9089 16.6121 29.9361 16.5998 29.9661C16.5875 29.996 16.5812 30.0282 16.5813 30.0606V33.2758C16.5812 33.3082 16.5875 33.3403 16.5998 33.3703C16.6121 33.4003 16.6302 33.4275 16.6531 33.4504C16.676 33.4734 16.7032 33.4916 16.7331 33.504C16.763 33.5165 16.7951 33.5229 16.8275 33.5229H19.7424V45.7162C19.7423 45.7486 19.7486 45.7807 19.7609 45.8107C19.7732 45.8407 19.7913 45.8679 19.8142 45.8909C19.8371 45.9138 19.8643 45.932 19.8942 45.9445C19.9241 45.9569 19.9562 45.9633 19.9886 45.9633H24.237C24.2694 45.9633 24.3014 45.9569 24.3314 45.9445C24.3613 45.932 24.3885 45.9138 24.4114 45.8909C24.4342 45.8679 24.4523 45.8407 24.4647 45.8107C24.477 45.7807 24.4833 45.7486 24.4832 45.7162V33.5262H28.8407C28.8731 33.5262 28.9052 33.5199 28.9351 33.5074C28.965 33.495 28.9922 33.4768 29.0151 33.4538C29.0379 33.4309 29.0561 33.4036 29.0684 33.3737C29.0807 33.3437 29.087 33.3116 29.0869 33.2792V30.0639C29.0872 30.0314 29.0811 29.9991 29.0689 29.9689C29.0567 29.9388 29.0386 29.9113 29.0157 29.8882C28.9928 29.8651 28.9655 29.8467 28.9355 29.8342C28.9054 29.8216 28.8732 29.8152 28.8407 29.8152Z" fill="#FF0062"/>
<path d="M127.966 49.5332L128.643 49.8352C128.703 49.8618 128.771 49.8635 128.832 49.84C128.894 49.8166 128.943 49.7698 128.97 49.71L133.806 38.8476C133.821 38.816 133.828 38.7819 133.829 38.7472C133.829 38.7126 133.822 38.6782 133.809 38.6463C133.795 38.6145 133.775 38.5858 133.75 38.5622C133.724 38.5385 133.694 38.5205 133.662 38.5091C133.441 38.4295 133.227 38.3342 133.021 38.224C132.991 38.2077 132.958 38.1977 132.924 38.1948C132.89 38.1918 132.856 38.1959 132.823 38.2068C132.791 38.2177 132.761 38.2351 132.736 38.258C132.71 38.2809 132.69 38.3088 132.676 38.3399L127.839 49.2023C127.826 49.2323 127.818 49.2648 127.817 49.2978C127.816 49.3307 127.822 49.3636 127.833 49.3944C127.845 49.4252 127.863 49.4534 127.886 49.4772C127.909 49.501 127.936 49.5201 127.966 49.5332Z" fill="#FF0062"/>
<path d="M131.085 36.8676L122.248 44.8211C122.199 44.8651 122.17 44.9265 122.166 44.992C122.163 45.0575 122.185 45.1217 122.229 45.1706L122.727 45.7222C122.77 45.7709 122.832 45.8002 122.897 45.8037C122.963 45.8072 123.027 45.7846 123.076 45.7409L131.914 37.7874C131.939 37.7642 131.959 37.736 131.972 37.7047C131.986 37.6734 131.993 37.6396 131.993 37.6055C131.993 37.5713 131.986 37.5375 131.972 37.5062C131.959 37.4749 131.939 37.4468 131.914 37.4235C131.745 37.2608 131.588 37.0867 131.444 36.9023C131.423 36.8756 131.398 36.8534 131.368 36.837C131.338 36.8207 131.306 36.8106 131.272 36.8073C131.239 36.804 131.205 36.8077 131.172 36.8181C131.14 36.8285 131.111 36.8453 131.085 36.8676Z" fill="#FF0062"/>
<path d="M118.762 38.8588L118.991 39.5653C119.001 39.5962 119.017 39.6248 119.038 39.6496C119.059 39.6743 119.085 39.6946 119.114 39.7094C119.143 39.7242 119.174 39.7331 119.207 39.7357C119.239 39.7382 119.272 39.7344 119.302 39.7244L130.612 36.0497C130.644 36.039 130.674 36.0218 130.7 35.9989C130.725 35.9761 130.746 35.9482 130.76 35.9171C130.774 35.8859 130.782 35.8521 130.782 35.8179C130.783 35.7836 130.776 35.7496 130.763 35.718C130.676 35.5014 130.603 35.2789 130.547 35.0521C130.54 35.0188 130.525 34.9874 130.504 34.96C130.484 34.9326 130.458 34.9098 130.428 34.8929C130.398 34.8761 130.365 34.8656 130.331 34.8621C130.297 34.8586 130.263 34.8623 130.23 34.8728L118.921 38.5474C118.89 38.5574 118.861 38.5734 118.837 38.5944C118.812 38.6155 118.792 38.6412 118.777 38.6701C118.762 38.6991 118.753 38.7306 118.751 38.763C118.748 38.7954 118.752 38.8279 118.762 38.8588Z" fill="#FF0062"/>
<path d="M120.535 24.8764L120.164 25.5195C120.147 25.5476 120.137 25.5787 120.132 25.611C120.128 25.6432 120.13 25.676 120.139 25.7075C120.147 25.739 120.161 25.7684 120.181 25.7942C120.201 25.8201 120.226 25.8417 120.254 25.8579L130.556 31.8002C130.585 31.8171 130.618 31.8278 130.652 31.8315C130.686 31.8352 130.72 31.8319 130.753 31.8217C130.786 31.8116 130.816 31.7948 130.842 31.7725C130.868 31.7501 130.889 31.7227 130.903 31.6919C131.006 31.4815 131.123 31.2788 131.254 31.0852C131.274 31.057 131.287 31.0252 131.294 30.9916C131.301 30.958 131.3 30.9234 131.293 30.8899C131.286 30.8565 131.271 30.8249 131.251 30.7972C131.231 30.7695 131.205 30.7463 131.176 30.729L120.873 24.7859C120.845 24.7695 120.814 24.7589 120.781 24.7546C120.749 24.7503 120.716 24.7524 120.685 24.7608C120.654 24.7693 120.624 24.7838 120.598 24.8036C120.573 24.8235 120.551 24.8482 120.535 24.8764Z" fill="#FF0062"/>
<path d="M125.47 19.6265L124.869 20.0631C124.816 20.1017 124.78 20.1598 124.77 20.2247C124.759 20.2896 124.775 20.3559 124.814 20.4091L131.804 30.0311C131.825 30.0587 131.85 30.0818 131.88 30.0989C131.91 30.1161 131.942 30.1269 131.976 30.1308C132.01 30.1347 132.045 30.1315 132.078 30.1215C132.11 30.1115 132.141 30.0949 132.167 30.0726C132.345 29.9217 132.535 29.7838 132.733 29.6597C132.763 29.6418 132.788 29.6181 132.807 29.5901C132.827 29.5621 132.84 29.5303 132.847 29.4968C132.854 29.4633 132.854 29.4288 132.846 29.3954C132.839 29.362 132.825 29.3304 132.805 29.3026L125.817 19.6815C125.798 19.6548 125.774 19.6322 125.746 19.615C125.718 19.5978 125.687 19.5863 125.655 19.5812C125.623 19.576 125.589 19.5774 125.558 19.5852C125.526 19.593 125.496 19.607 125.47 19.6265Z" fill="#FF0062"/>
<path d="M132.112 16.8377L131.386 16.9925C131.322 17.0061 131.266 17.0447 131.23 17.0998C131.194 17.1548 131.182 17.2218 131.195 17.2861L133.668 28.9185C133.676 28.952 133.69 28.9836 133.709 29.0114C133.729 29.0392 133.755 29.0626 133.784 29.0801C133.814 29.0976 133.846 29.1088 133.88 29.113C133.914 29.1172 133.949 29.1144 133.982 29.1047C134.206 29.0396 134.436 28.991 134.668 28.9591C134.702 28.9547 134.734 28.9434 134.764 28.9257C134.793 28.9081 134.818 28.8846 134.838 28.8567C134.858 28.8288 134.872 28.7971 134.879 28.7637C134.886 28.7302 134.885 28.6956 134.878 28.6621L132.406 17.0289C132.392 16.9647 132.354 16.9086 132.299 16.8728C132.244 16.837 132.177 16.8244 132.112 16.8377Z" fill="#FF0062"/>
<path d="M139.315 16.9935L138.589 16.8387C138.525 16.8254 138.458 16.838 138.403 16.8738C138.348 16.9096 138.31 16.9657 138.296 17.0299L135.823 28.6631C135.816 28.6966 135.816 28.7312 135.823 28.7647C135.83 28.7982 135.844 28.8299 135.864 28.8577C135.883 28.8856 135.909 28.9091 135.938 28.9267C135.967 28.9443 136 28.9557 136.034 28.9601C136.266 28.992 136.495 29.0406 136.719 29.1056C136.752 29.1154 136.787 29.1182 136.821 29.114C136.855 29.1098 136.888 29.0986 136.917 29.0811C136.946 29.0636 136.972 29.0403 136.992 29.0125C137.012 28.9846 137.026 28.953 137.033 28.9195L139.506 17.2871C139.512 17.2553 139.513 17.2225 139.507 17.1905C139.501 17.1586 139.489 17.1281 139.471 17.1008C139.454 17.0735 139.431 17.05 139.404 17.0316C139.377 17.0132 139.347 17.0002 139.315 16.9935Z" fill="#FF0062"/>
<path d="M145.833 20.0628L145.232 19.6262C145.206 19.6072 145.176 19.5934 145.145 19.5859C145.113 19.5783 145.08 19.5771 145.048 19.5822C145.016 19.5873 144.985 19.5987 144.958 19.6157C144.93 19.6327 144.906 19.6549 144.887 19.6812L137.896 29.3024C137.876 29.3301 137.862 29.3617 137.855 29.3951C137.848 29.4286 137.847 29.4631 137.854 29.4967C137.861 29.5302 137.875 29.562 137.894 29.59C137.914 29.618 137.939 29.6417 137.968 29.6595C138.167 29.7835 138.356 29.9215 138.535 30.0724C138.561 30.0946 138.591 30.1112 138.624 30.1212C138.657 30.1312 138.691 30.1344 138.725 30.1305C138.759 30.1266 138.792 30.1158 138.821 30.0986C138.851 30.0815 138.876 30.0584 138.897 30.0309L145.888 20.4089C145.927 20.3557 145.942 20.2894 145.932 20.2245C145.922 20.1596 145.886 20.1014 145.833 20.0628Z" fill="#FF0062"/>
<path d="M150.538 25.5198L150.167 24.8768C150.151 24.8485 150.129 24.8236 150.103 24.8037C150.078 24.7838 150.048 24.7692 150.017 24.7608C149.985 24.7524 149.952 24.7503 149.92 24.7547C149.888 24.759 149.857 24.7698 149.828 24.7862L139.529 30.7319C139.499 30.7492 139.474 30.7725 139.453 30.8001C139.433 30.8278 139.419 30.8594 139.412 30.8928C139.404 30.9263 139.404 30.9609 139.41 30.9945C139.417 31.0281 139.431 31.06 139.45 31.0881C139.581 31.2819 139.698 31.4846 139.801 31.6948C139.816 31.7256 139.837 31.753 139.863 31.7754C139.889 31.7977 139.919 31.8145 139.951 31.8246C139.984 31.8348 140.018 31.8381 140.052 31.8344C140.086 31.8307 140.119 31.82 140.149 31.8031L150.447 25.8574C150.475 25.8413 150.5 25.8197 150.52 25.794C150.54 25.7683 150.554 25.7389 150.563 25.7076C150.571 25.6762 150.573 25.6435 150.569 25.6113C150.565 25.5791 150.555 25.548 150.538 25.5198Z" fill="#FF0062"/>
<path d="M140.09 36.0497L151.399 39.7244C151.461 39.7446 151.529 39.7393 151.588 39.7095C151.646 39.6796 151.691 39.6278 151.711 39.5653L151.94 38.8588C151.95 38.8279 151.954 38.7954 151.952 38.763C151.949 38.7306 151.94 38.6991 151.925 38.6701C151.911 38.6412 151.89 38.6155 151.866 38.5944C151.841 38.5734 151.812 38.5574 151.781 38.5474L140.472 34.8728C140.439 34.8623 140.405 34.8586 140.371 34.8621C140.337 34.8656 140.304 34.8761 140.274 34.8929C140.244 34.9098 140.218 34.9326 140.198 34.96C140.177 34.9874 140.163 35.0188 140.155 35.0521C140.099 35.2789 140.027 35.5014 139.939 35.718C139.926 35.7496 139.919 35.7836 139.92 35.8179C139.92 35.8521 139.928 35.8859 139.942 35.9171C139.956 35.9482 139.977 35.9761 140.002 35.9989C140.028 36.0218 140.058 36.039 140.09 36.0497Z" fill="#FF0062"/>
<path d="M138.788 37.7866L147.626 45.7401C147.675 45.7838 147.739 45.8064 147.805 45.8029C147.87 45.7994 147.932 45.7701 147.976 45.7215L148.472 45.1698C148.494 45.1457 148.511 45.1175 148.522 45.0869C148.533 45.0563 148.538 45.0238 148.536 44.9914C148.534 44.9589 148.526 44.9271 148.512 44.8977C148.498 44.8684 148.479 44.8421 148.454 44.8203L139.617 36.8669C139.591 36.844 139.562 36.8266 139.529 36.8158C139.497 36.805 139.462 36.8011 139.428 36.8043C139.394 36.8075 139.361 36.8177 139.331 36.8343C139.301 36.8509 139.275 36.8735 139.255 36.9007C139.11 37.085 138.953 37.2592 138.785 37.4219C138.76 37.4454 138.74 37.4737 138.727 37.5052C138.713 37.5368 138.706 37.5707 138.707 37.605C138.707 37.6393 138.715 37.6731 138.729 37.7043C138.743 37.7356 138.763 37.7636 138.788 37.7866Z" fill="#FF0062"/>
<path d="M142.058 49.8354L142.735 49.5333C142.795 49.5066 142.842 49.4573 142.865 49.3961C142.889 49.3348 142.887 49.2667 142.861 49.2067L138.024 38.3443C138.01 38.3132 137.99 38.2853 137.965 38.2624C137.939 38.2395 137.909 38.2221 137.877 38.2112C137.845 38.2003 137.81 38.1962 137.776 38.1992C137.742 38.2021 137.709 38.2121 137.679 38.2284C137.473 38.3385 137.259 38.4338 137.039 38.5135C137.006 38.5248 136.976 38.5428 136.95 38.5664C136.925 38.59 136.905 38.6187 136.891 38.6506C136.877 38.6825 136.871 38.7169 136.871 38.7516C136.872 38.7863 136.879 38.8205 136.894 38.852L141.73 49.7144C141.758 49.7736 141.808 49.8196 141.869 49.8423C141.93 49.8649 141.998 49.8625 142.058 49.8354Z" fill="#FF0062"/>
<path d="M134.732 39.0431V50.9344C134.732 51 134.758 51.0628 134.805 51.1091C134.851 51.1554 134.914 51.1814 134.98 51.1814H135.722C135.787 51.1814 135.85 51.1554 135.897 51.1091C135.943 51.0628 135.97 51 135.97 50.9344V39.0431C135.97 39.0091 135.963 38.9756 135.95 38.9444C135.936 38.9133 135.916 38.8853 135.892 38.8621C135.867 38.8389 135.838 38.8211 135.806 38.8097C135.774 38.7983 135.74 38.7937 135.706 38.796C135.588 38.8053 135.471 38.8095 135.35 38.8095C135.23 38.8095 135.113 38.8095 134.996 38.796C134.962 38.7937 134.928 38.7983 134.896 38.8097C134.864 38.8211 134.835 38.8389 134.81 38.8621C134.785 38.8853 134.766 38.9133 134.752 38.9444C134.739 38.9756 134.732 39.0091 134.732 39.0431Z" fill="#FF0062"/>
<path d="M130.26 32.7056L118.434 31.4618C118.402 31.4584 118.369 31.4614 118.338 31.4706C118.307 31.4798 118.278 31.4951 118.253 31.5155C118.228 31.536 118.207 31.5612 118.191 31.5897C118.176 31.6182 118.166 31.6495 118.163 31.6818L118.085 32.4196C118.081 32.452 118.084 32.4847 118.093 32.5159C118.102 32.5471 118.118 32.5762 118.138 32.6015C118.159 32.6269 118.184 32.6479 118.212 32.6634C118.241 32.679 118.272 32.6887 118.305 32.6921L130.133 33.9367C130.166 33.9403 130.2 33.937 130.233 33.9268C130.265 33.9167 130.295 33.9 130.321 33.8777C130.346 33.8555 130.367 33.8282 130.382 33.7976C130.396 33.767 130.405 33.7337 130.406 33.6998C130.406 33.5822 130.417 33.4646 130.43 33.3453C130.442 33.226 130.459 33.11 130.48 32.9941C130.486 32.9606 130.485 32.9261 130.477 32.893C130.469 32.8599 130.454 32.8288 130.433 32.8018C130.413 32.7747 130.387 32.7521 130.357 32.7356C130.327 32.719 130.294 32.7088 130.26 32.7056Z" fill="#FF0062"/>
<path d="M140.441 32.7056L152.268 31.4618C152.3 31.4584 152.332 31.4614 152.364 31.4706C152.395 31.4798 152.424 31.4951 152.449 31.5155C152.474 31.536 152.495 31.5612 152.511 31.5897C152.526 31.6182 152.536 31.6495 152.539 31.6818L152.617 32.4196C152.62 32.452 152.618 32.4847 152.608 32.5159C152.599 32.5471 152.584 32.5762 152.564 32.6015C152.543 32.6269 152.518 32.6479 152.489 32.6634C152.461 32.679 152.429 32.6887 152.397 32.6921L140.572 33.9392C140.538 33.9429 140.504 33.9395 140.471 33.9293C140.439 33.9192 140.409 33.9025 140.383 33.8803C140.358 33.858 140.337 33.8308 140.322 33.8002C140.308 33.7695 140.3 33.7362 140.298 33.7023C140.298 33.5847 140.287 33.4671 140.275 33.3478C140.263 33.2285 140.245 33.1126 140.224 32.9967C140.218 32.9631 140.218 32.9286 140.226 32.8954C140.234 32.8621 140.248 32.8308 140.269 32.8035C140.289 32.7761 140.315 32.7533 140.345 32.7365C140.375 32.7196 140.407 32.7091 140.441 32.7056Z" fill="#FF0062"/>
</svg>
