<svg xmlns="http://www.w3.org/2000/svg" viewBox="0 0 24 24"><path d="M13.543 3a.5.5 0 0 1 .09.992l-.09.008H7.5a3.5 3.5 0 0 0-3.495 3.308L4 7.5v10.582a1.974 1.974 0 0 0 3.3 1.461l.122-.12 2.808-3.03a2.5 2.5 0 0 1 3.558-.111l.125.127 2.745 3.018a1.92 1.92 0 0 0 3.336-1.143l.006-.15V10.31a.5.5 0 0 1 .992-.09l.008.09v7.823a2.92 2.92 0 0 1-4.938 2.112l-.143-.146-2.746-3.018a1.5 1.5 0 0 0-2.119-.1l-.046.045-2.853 3.076a2.974 2.974 0 0 1-5.148-1.815L3 18.082V7.5a4.5 4.5 0 0 1 4.288-4.495L7.5 3h6.043zM20.5 6a.5.5 0 0 1 .09.992L20.5 7h-6a.5.5 0 0 1-.09-.992L14.5 6h6z"/></svg>