<svg xmlns="http://www.w3.org/2000/svg" viewBox="0 0 24 24"><path d="M11.716 9.589a.5.5 0 01.638.057l2 2 .057.07a.5.5 0 01-.057.638l-.07.057a.5.5 0 01-.638-.057L12.5 11.206v8.742l-.008.09a.5.5 0 01-.992-.09v-8.742l-1.146 1.148-.07.057a.5.5 0 01-.638-.765l2-2zM12 4c2.48 0 4.682 1.422 5.665 3.557l.047.109.202.006c2.201.105 3.972 1.814 4.08 3.953l.006.208c0 2.236-1.814 4.054-4.086 4.162L17.7 16h-3.743a.5.5 0 01-.09-.992l.09-.008H17.7c1.826 0 3.3-1.422 3.3-3.167 0-1.684-1.374-3.068-3.102-3.161l-.186-.005-.168.003-.13.009a.5.5 0 01-.503-.328C16.188 6.362 14.23 5 12 5 9.77 5 7.812 6.362 7.09 8.35a.5.5 0 01-.51.328 3.49 3.49 0 00-.28-.011c-1.826 0-3.3 1.422-3.3 3.166 0 1.685 1.374 3.069 3.112 3.162L6.3 15h3.765a.5.5 0 01.09.992l-.09.008H6.3C3.93 16 2 14.139 2 11.833 2 9.598 3.814 7.78 6.086 7.672l.201-.006.049-.109C7.284 5.495 9.37 4.1 11.745 4.005L12 4z"/></svg>
