<svg xmlns="http://www.w3.org/2000/svg" viewBox="0 0 24 24"><path d="M3 6.178a2.5 2.5 0 011.558-2.316l1.004-.409a6.08 6.08 0 014.854.118l.871.404a8.432 8.432 0 005.874.46l.171-.043A3.011 3.011 0 0121 7.33v4.817a4.5 4.5 0 01-3.268 4.328l-.313.09a9.474 9.474 0 01-6.6-.526l-.288-.127a7.169 7.169 0 00-5.452-.016L4 16.336v4.173a.5.5 0 01-.992.09L3 20.509zm6.995-1.7a5.08 5.08 0 00-4.056-.099l-1.004.41A1.5 1.5 0 004 6.177v9.078l.7-.286a8.168 8.168 0 016.256.035l.594.263a8.475 8.475 0 005.595.335l.313-.09A3.5 3.5 0 0020 12.148V7.33a2.011 2.011 0 00-2.564-1.933 9.432 9.432 0 01-6.57-.515z"/></svg>
