<svg xmlns="http://www.w3.org/2000/svg" viewBox="0 0 24 24"><path d="M15.23 2.712l1.623.671c.336.14.515.5.437.844l-.031.102c-.158.408-.06.87.25 1.18l.983.983c.278.278.68.385 1.055.29l.124-.04a.737.737 0 01.946.405l.672 1.623a2.121 2.121 0 01-.276 2.1l-.112.135a1.483 1.483 0 00-.096 1.873l.096.117c.55.608.7 1.478.387 2.235l-.672 1.623a.737.737 0 01-.843.437l-.102-.031a1.105 1.105 0 00-1.18.25l-.983.983c-.278.278-.385.68-.29 1.055l.04.124a.737.737 0 01-.405.946l-1.623.672a2.121 2.121 0 01-2.1-.276l-.135-.112a1.483 1.483 0 00-1.873-.096l-.117.096c-.608.55-1.478.7-2.235.387l-1.623-.672a.737.737 0 01-.437-.843l.031-.102c.158-.408.06-.87-.25-1.18l-.983-.983a1.106 1.106 0 00-1.055-.29l-.124.04a.737.737 0 01-.946-.405l-.672-1.623a2.121 2.121 0 01.276-2.1l.112-.135c.477-.527.51-1.312.096-1.873l-.095-.117a2.122 2.122 0 01-.388-2.235l.672-1.623a.737.737 0 01.843-.437l.102.031c.408.158.87.06 1.18-.25l.983-.983c.278-.278.385-.68.29-1.055l-.04-.124a.737.737 0 01.405-.946l1.623-.672a2.121 2.121 0 012.1.276l.135.112a1.48 1.48 0 001.873.095l.117-.095a2.121 2.121 0 012.235-.387zM13.666 3.84a2.482 2.482 0 01-3.332 0 1.121 1.121 0 00-1.046-.25l-.136.045-1.401.58.018.07a2.106 2.106 0 01-.458 1.809l-.112.121-.984.984c-.51.51-1.24.718-1.93.57l-.069-.019-.58 1.402c-.147.356-.1.76.116 1.07l.089.112c.815.9.854 2.25.116 3.194l-.117.138-.089.112c-.19.272-.249.615-.162.934l.046.136.58 1.4.07-.017a2.106 2.106 0 011.809.458l.121.112.984.984c.51.51.718 1.24.57 1.93l-.019.069 1.402.58c.356.147.759.1 1.07-.116l.112-.089c.898-.813 2.244-.854 3.16-.144l.243.204c.282.216.648.284.986.189l.125-.043 1.4-.581-.017-.069a2.106 2.106 0 01.458-1.809l.112-.122.984-.983c.51-.51 1.24-.718 1.93-.57l.069.018.58-1.401c.147-.356.1-.759-.116-1.07l-.089-.112c-.813-.898-.854-2.244-.144-3.16l.204-.243c.216-.282.284-.648.189-.986l-.043-.125-.581-1.401-.069.018a2.106 2.106 0 01-1.809-.458l-.122-.112-.983-.984a2.105 2.105 0 01-.57-1.93l.018-.07-1.401-.58c-.4-.165-.86-.086-1.182.205zM12 9a3 3 0 110 6 3 3 0 010-6zm0 1a2 2 0 100 4 2 2 0 000-4z"/></svg>
