<svg xmlns="http://www.w3.org/2000/svg" viewBox="0 0 24 24"><path d="M12.938 4.982l.187.045a1.834 1.834 0 01.555 3.335l-1.211.765 7.061.001c.77 0 1.401.587 1.473 1.337l.007.142a1.48 1.48 0 01-1.48 1.48h-2.964a1.5 1.5 0 00-1.439 1.075L14 16.98a.509.509 0 01-.09.307 2.502 2.502 0 01-2.395 1.777H7.51c-.762 0-1.443-.34-1.902-.877A2 2 0 012 17v-6a2 2 0 013.362-1.465 2.48 2.48 0 01.945-.915l6.63-3.638zm.12 1.075l-6.27 3.44a1.5 1.5 0 00-.771 1.167l-.007.148v5.752a1.5 1.5 0 001.5 1.5h4.005a1.5 1.5 0 001.172-.564H12.5a.5.5 0 01-.09-.992l.09-.008h.598l.295-1H13a.5.5 0 01-.09-.992L13 14.5h.689l.295-1H13.5a.5.5 0 01-.09-.992l.09-.008h.814a2.5 2.5 0 012.252-1.413h2.964a.48.48 0 000-.959H9.013l4.133-2.612a.834.834 0 00-.058-1.444l-.03-.015zM4 10a1 1 0 00-.993.883L3 11v6a1 1 0 001.993.116L5 17v-6a1 1 0 00-1-1z"/></svg>
