<svg xmlns="http://www.w3.org/2000/svg" viewBox="0 0 24 24"><path fill-rule="evenodd" clip-rule="evenodd" d="M11.743 4.244c-2.016-1.283-4.51.722-3.69 2.966l1.31 3.59a3.5 3.5 0 0 1 0 2.4l-1.31 3.59c-.82 2.244 1.674 4.249 3.69 2.966l8.874-5.647c1.544-.982 1.544-3.236 0-4.218l-8.874-5.647zM8.992 6.867c-.492-1.346 1.005-2.55 2.214-1.78l8.874 5.648a1.5 1.5 0 0 1 0 2.53l-8.874 5.648c-1.21.77-2.706-.434-2.214-1.78l1.31-3.59a4.5 4.5 0 0 0 0-3.086l-1.31-3.59zM3 7.5a.5.5 0 0 0 0 1h2a.5.5 0 0 0 0-1H3zm0 8a.5.5 0 0 0 0 1h2a.5.5 0 0 0 0-1H3zm.5-3.5a.5.5 0 0 1 .5-.5h2a.5.5 0 0 1 0 1H4a.5.5 0 0 1-.5-.5z"/></svg>