<svg xmlns="http://www.w3.org/2000/svg" viewBox="0 0 24 24"><path d="M14.276 4.053a.5.5 0 01.671.223L17.81 10h1.971a1 1 0 01.98 1.196l-1.438 7.196A2 2 0 0117.36 20H6.64a2 2 0 01-1.962-1.608L3.24 11.196A1 1 0 014.22 10h1.972l2.862-5.724a.5.5 0 01.927.364l-.033.084L7.31 10h9.382l-2.638-5.276-.033-.084a.5.5 0 01.256-.587zM19.78 11H4.22l1.439 7.196a1 1 0 00.863.797L6.64 19h10.72a1 1 0 00.951-.69l.03-.114L19.781 11zM8.5 12.5a.5.5 0 01.492.41L9 13v4a.5.5 0 01-.992.09L8 17v-4a.5.5 0 01.5-.5zm3.5 0a.5.5 0 01.492.41l.008.09v4a.5.5 0 01-.992.09L11.5 17v-4a.5.5 0 01.5-.5zm3.5 0a.5.5 0 01.492.41L16 13v4a.5.5 0 01-.992.09L15 17v-4a.5.5 0 01.5-.5z"/></svg>
