<svg xmlns="http://www.w3.org/2000/svg" viewBox="0 0 24 24"><path d="M7.62 5.4a2.02 2.02 0 013.88.168l.031.158 1 6.432.915 6.072a.992.992 0 001.88.27l.045-.116 1.236-3.854a4.5 4.5 0 014.068-3.121l.217-.005h.608a.5.5 0 01.09.992l-.09.008h-.608a3.5 3.5 0 00-3.268 2.245l-.065.186-1.236 3.855a1.992 1.992 0 01-3.838-.165l-.028-.146-.986-6.534-.928-5.965a1.02 1.02 0 00-1.93-.276l-.045.111-1.232 3.706a4.5 4.5 0 01-4.056 3.074l-.214.005H2.5a.5.5 0 01-.09-.991l.09-.009h.566A3.5 3.5 0 006.32 9.29l.067-.184L7.619 5.4z"/></svg>
