<svg xmlns="http://www.w3.org/2000/svg" viewBox="0 0 24 24">
<path fill-rule="evenodd" clip-rule="evenodd" d="M12.7071 16.7071L19.0711 10.3431C19.4616 9.95262 19.4616 9.31946 19.0711 8.92893C18.6805 8.53841 18.0474 8.53841 17.6569 8.92893L13 13.5858V3C13 2.44772 12.5523 2 12 2C11.4477 2 11 2.44772 11 3V13.5858L6.34315 8.92893C5.95262 8.53841 5.31946 8.53841 4.92893 8.92893C4.53841 9.31946 4.53841 9.95262 4.92893 10.3431L11.2929 16.7071C11.6834 17.0976 12.3166 17.0976 12.7071 16.7071ZM3 14C3 13.4477 2.55228 13 2 13C1.44772 13 1 13.4477 1 14V16.3333C1 19.9163 3.99332 22 6.84848 22H11.0909H12.9091H17.1515C20.0067 22 23 19.9163 23 16.3333V14C23 13.4477 22.5523 13 22 13C21.4477 13 21 13.4477 21 14V16.3333C21 18.5837 19.1448 20 17.1515 20H12.9091H11.0909H6.84848C4.85516 20 3 18.5837 3 16.3333V14Z"/>
</svg>
