<svg xmlns="http://www.w3.org/2000/svg" viewBox="0 0 321 319"><path d="M227.4 248.7l3.6-8.2c.3-.7.3-1.5.1-2.3-.3-.7-.8-1.3-1.6-1.7L98.4 178.2c-.4-.2-.8-.3-1.2-.3-.4 0-.8.1-1.2.2-.4.2-.7.4-1 .7-.3.3-.5.7-.6 1.1-1 2.7-2.1 5.2-3.4 7.7-.2.4-.3.8-.4 1.2 0 .4 0 .8.1 1.2.1.4.3.8.6 1.1.3.3.6.6 1 .7l131.2 58.4c.4.2.8.3 1.2.3.4 0 .8-.1 1.2-.2.4-.1.7-.4 1-.6.1-.3.4-.7.5-1zM74.5 211l96.1 106.7c.5.6 1.3.9 2.1 1 .8 0 1.6-.2 2.2-.8l6.7-6c.6-.5.9-1.3 1-2.1 0-.8-.2-1.6-.8-2.2L85.6 201c-.3-.3-.6-.5-1-.7-.4-.2-.8-.2-1.2-.2-.4 0-.8.1-1.2.2-.4.2-.7.4-1 .7-2 2-4.1 3.9-6.3 5.7-.3.2-.6.6-.8.9-.2.4-.3.8-.4 1.2 0 .4 0 .8.1 1.2s.4.7.7 1zm11.1-93l96.1-106.7c.5-.6.8-1.4.8-2.2 0-.8-.4-1.5-1-2.1l-6.7-6c-.3-.3-.6-.5-1-.6-.4-.1-.8-.2-1.2-.2s-.8.1-1.1.3c-.4.2-.7.4-.9.7L74.4 108c-.3.3-.5.7-.6 1.1-.1.4-.2.8-.1 1.2 0 .4.2.8.4 1.2.2.4.5.7.8.9 2.2 1.7 4.3 3.6 6.3 5.7.3.3.6.5 1 .7.4.2.8.2 1.2.2.4 0 .8-.1 1.2-.3.3-.2.7-.4 1-.7zm145.5-39.5l-3.6-8.2c-.3-.7-.9-1.3-1.7-1.6-.7-.3-1.6-.3-2.3.1L92.3 127.2c-.4.2-.7.4-1 .7-.3.3-.5.7-.6 1.1-.1.4-.2.8-.1 1.2 0 .4.2.8.4 1.2 1.3 2.5 2.5 5.1 3.4 7.7.1.4.4.8.6 1.1.3.3.6.6 1 .7.4.2.8.2 1.2.2.4 0 .8-.1 1.2-.3l131.2-58.4c.7-.3 1.3-.9 1.5-1.7.3-.7.3-1.5 0-2.2zM100.7 167h143.6c.8 0 1.6-.3 2.1-.9s.9-1.3.9-2.1v-9c0-.8-.3-1.6-.9-2.1-.6-.6-1.3-.9-2.1-.9H100.7c-.4 0-.8.1-1.2.2-.4.2-.7.4-1 .7-.3.3-.5.7-.6 1-.1.4-.2.8-.2 1.2.1 1.4.2 2.8.2 4.3s0 2.9-.2 4.3c0 .4 0 .8.2 1.2.1.4.4.7.6 1 .3.3.6.5 1 .7.4.3.8.4 1.2.4z"/></svg>